<?xml version="1.0" encoding="UTF-8"?>
<svg version="1.1" xmlns="http://www.w3.org/2000/svg" width="512" height="512">
<path d="M0 0 C4.12824533 3.8131121 5.81512817 7.61421897 7 13 C9.11453568 10.25546992 10.98449493 7.44092276 12.8125 4.5 C16.64361028 -1.26085471 21.20614587 -4.49025464 28 -6 C37.8579498 -6.93079354 45.02545723 -5.34124354 52.8125 0.8125 C57.93270106 5.50502765 60.61886525 10.98175082 61.2734375 17.8828125 C61.53929901 26.36992993 60.46839988 33.23993287 54.48144531 39.61767578 C53.00687808 41.09787775 51.5052647 42.55102636 50 44 C50.84183838 44.13051758 51.68367676 44.26103516 52.55102539 44.39550781 C55.70446658 44.89130596 58.8555492 45.39972861 62.00561523 45.91650391 C63.36353802 46.13667275 64.72226506 46.35194411 66.08178711 46.56201172 C82.84022388 49.15916938 82.84022388 49.15916938 87.55859375 54.89453125 C90.90337135 62.19357925 90.47184996 68.10523722 88.05859375 75.69140625 C86.14543093 79.86365431 83.073959 81.9630205 79 84 C77.00039988 84.039992 74.99952758 84.04346799 73 84 C72.95174072 84.63526611 72.90348145 85.27053223 72.85375977 85.92504883 C72.2213602 93.57358168 71.14153602 101.1101567 69.9375 108.6875 C69.75123047 109.87794922 69.56496094 111.06839844 69.37304688 112.29492188 C68.91848567 115.19712036 68.46075017 118.0987788 68 121 C69.43666016 120.9685791 69.43666016 120.9685791 70.90234375 120.93652344 C74.48796376 120.86360521 78.07351953 120.81801442 81.65966797 120.78027344 C83.20567887 120.76027497 84.75161527 120.73306669 86.29736328 120.69824219 C103.89648751 120.31194766 103.89648751 120.31194766 110.49951172 126.37744141 C114.03703389 130.22890768 116.08893864 134.0230846 115.93105984 139.30753517 C115.30772564 146.35848118 114.05435145 153.11464193 112.47485352 160.00927734 C112.21767044 161.15779678 111.96048737 162.30631622 111.69551086 163.48963928 C110.84655905 167.27325355 109.98775523 171.05455867 109.12890625 174.8359375 C108.52510138 177.51462391 107.92345502 180.19379385 107.32176208 182.87295532 C105.89429532 189.22344916 104.45982552 195.57233888 103.0226869 201.92065012 C101.27050499 209.66196554 99.52668665 217.40515929 97.78320312 225.1484375 C97.16073475 227.91255007 96.53819713 230.67664704 95.9156189 233.44073486 C95.76251641 234.12049354 95.60941392 234.80025221 95.45167196 235.50060964 C94.3798172 240.25887158 93.30650202 245.01680267 92.23257446 249.77459717 C87.10264103 272.50479154 82.03257152 295.24805889 77 318 C77.56396484 318.01458252 78.12792969 318.02916504 78.70898438 318.04418945 C81.30661946 318.11944854 83.90307643 318.21584484 86.5 318.3125 C87.386875 318.33505859 88.27375 318.35761719 89.1875 318.38085938 C96.2996133 318.6684816 102.20802558 319.64233271 107.8125 324.375 C112.67943788 330.21532546 113.606618 334.21466017 113.41015625 341.765625 C112.81260363 346.47775425 111.32825236 349.62182386 108 353 C102.95793004 356.84908019 98.09612535 358.12506031 91.86779881 358.12469864 C90.82486622 358.12708959 89.78193364 358.12948054 88.70739704 358.13194394 C87.56295642 358.12951145 86.41851579 358.12707896 85.23939514 358.12457275 C83.41421243 358.12668798 83.41421243 358.12668798 81.55215734 358.12884593 C78.87894426 358.13123701 76.20580275 358.13179714 73.53259659 358.12928963 C69.18324883 358.12523016 64.83392056 358.12799889 60.48457336 358.13163757 C54.98889562 358.13572819 49.49322224 358.13796721 43.99754297 358.13805357 C33.20068897 358.13825624 22.4038799 358.15071243 11.60704041 358.16766357 C9.90765177 358.17026935 8.20826313 358.17286816 6.50887448 358.1754601 C3.93343902 358.1793985 1.35800357 358.18334502 -1.21743182 358.18732132 C-10.92709797 358.20226752 -20.63676548 358.21589258 -30.34643555 358.22802734 C-31.67788001 358.22969769 -31.67788001 358.22969769 -33.03622235 358.23140177 C-47.4270845 358.24898487 -61.81791854 358.25184529 -76.20878964 358.25017694 C-90.97938086 358.24889867 -105.74986728 358.2666128 -120.52041823 358.30119491 C-129.63378228 358.32186495 -138.74689558 358.3271673 -147.86027301 358.3128666 C-154.10330876 358.30441838 -160.3461492 358.31411039 -166.58914369 358.3381761 C-170.19289715 358.35150549 -173.79618239 358.35663524 -177.39993286 358.34005547 C-181.30434985 358.32229067 -185.20801854 358.34297667 -189.1124115 358.36749268 C-190.25462141 358.3561373 -191.39683131 358.34478192 -192.57365364 358.33308244 C-198.83247869 358.36841916 -198.83247869 358.36841916 -204.18438053 361.38328171 C-206.09802792 364.1412804 -206.91635582 365.65423275 -207 369 C-206.01749862 372.43875483 -204.80446356 374.75642915 -202 377 C-199.2196793 377.92677357 -197.56538223 378.1264114 -194.69642162 378.13028526 C-193.37106357 378.13572178 -193.37106357 378.13572178 -192.01893061 378.14126813 C-191.04735194 378.14019988 -190.07577326 378.13913163 -189.07475281 378.13803101 C-187.52754987 378.14226293 -187.52754987 378.14226293 -185.9490903 378.14658034 C-182.47606246 378.15494555 -179.00306641 378.15626623 -175.5300293 378.15771484 C-173.04674184 378.16238162 -170.56345524 378.16752495 -168.08016968 378.17311096 C-162.72399112 378.18440317 -157.3678188 378.1928825 -152.01163292 378.19923019 C-143.54547931 378.20955359 -135.07936499 378.2301165 -126.61323547 378.25234985 C-123.71707834 378.25982968 -120.82092104 378.2672434 -117.92476368 378.27463722 C-116.83906251 378.27741307 -116.83906251 378.27741307 -115.73142799 378.280245 C-107.49095907 378.30117505 -99.25048581 378.32000186 -91.01000977 378.33789062 C-90.2566546 378.33952881 -89.50329943 378.34116699 -88.72711531 378.34285481 C-76.51933066 378.36913867 -64.31154299 378.38778274 -52.10374203 378.40448253 C-39.57174495 378.42190277 -27.03980726 378.45074731 -14.50785762 378.4893719 C-6.77731531 378.51277153 0.9531302 378.52676643 8.68370821 378.52869953 C14.60808037 378.53105805 20.53234129 378.54892395 26.45666885 378.57256889 C28.88749024 378.57977671 31.31833297 378.58185572 33.74916267 378.57846642 C37.06425252 378.57458209 40.37877581 378.5889934 43.69380188 378.60800171 C44.65868839 378.60247201 45.6235749 378.59694232 46.6177004 378.59124506 C52.69562765 378.65151901 57.10587041 379.44599248 61.828125 383.61328125 C66.25053743 388.89830709 68.28499692 392.96697583 67.875 400 C67.07995803 406.09532174 64.50651602 409.81176956 59.9375 413.8125 C55.87005532 416.84144817 52.76238926 417.18992769 47.8125 417.5625 C46.18248047 417.68818359 46.18248047 417.68818359 44.51953125 417.81640625 C43.68808594 417.87699219 42.85664063 417.93757813 42 418 C42.7425 418.680625 43.485 419.36125 44.25 420.0625 C50.88471106 426.75343743 54.11264456 435.635807 54.375 444.9375 C54.04882334 455.64696705 50.47889677 464.1512199 43.1484375 471.9765625 C34.74475201 479.84455489 25.52953656 482.38279773 14.203125 482.28515625 C4.20060448 481.39468796 -4.39540706 476.43016706 -11 469 C-18.45400565 459.17846898 -19.99877336 450.26341973 -19 438 C-17.24899157 429.67484615 -13.36069928 424.89232764 -8 418 C-53.87 418 -99.74 418 -147 418 C-145.02 420.31 -143.04 422.62 -141 425 C-139.57421875 427.29296875 -139.57421875 427.29296875 -138.6875 429.1875 C-138.22923828 430.13689453 -138.22923828 430.13689453 -137.76171875 431.10546875 C-134.47407474 439.28242948 -134.50628018 451.21947281 -137.5625 459.5 C-142.56182249 469.77832736 -149.9397917 477.1113702 -160.8125 480.875 C-170.94149883 483.51325086 -181.10830187 482.63854457 -190.375 477.74609375 C-199.40369091 472.14891543 -204.91534268 465.16610182 -208 455 C-210.62504218 443.71753393 -208.6425628 434.03149607 -202.6328125 424.26171875 C-200.94226192 421.92002308 -199.09532635 419.98194289 -197 418 C-197.99257812 417.86464844 -198.98515625 417.72929687 -200.0078125 417.58984375 C-214.78681253 415.34643916 -227.6241821 410.31725096 -237 398 C-245.17465352 385.06646351 -248.13579576 371.58701175 -245.34765625 356.4609375 C-241.91860817 344.12813797 -235.56754628 336.17474579 -226 328 C-233.29828365 305.65492275 -241.04633371 283.49253557 -248.99758911 261.37231445 C-252.71985636 251.01023199 -256.39145873 240.630316 -260.0625 230.25 C-261.48154727 226.2395042 -262.90091511 222.22912189 -264.3203125 218.21875 C-264.87036705 216.66448051 -264.87036705 216.66448051 -265.43153381 215.07881165 C-269.94920127 202.31516997 -274.47536393 189.55454219 -279.00265503 176.79431152 C-279.94041184 174.15121872 -280.8780162 171.50807193 -281.81546021 168.86486816 C-283.14614072 165.11290794 -284.47739106 161.36114999 -285.80859375 157.609375 C-286.4475634 155.80705414 -286.4475634 155.80705414 -287.09944153 153.96832275 C-289.34640282 147.63576655 -291.60601555 141.30802543 -293.88330078 134.98632812 C-294.58324922 133.03980491 -295.28301038 131.09321444 -295.98274422 129.14661407 C-296.64683749 127.30260758 -297.31440383 125.45985304 -297.98204041 123.61712646 C-298.37863358 122.51403137 -298.77522675 121.41093628 -299.18383789 120.27441406 C-299.71141441 118.81458099 -299.71141441 118.81458099 -300.24964905 117.32525635 C-301 115 -301 115 -301 113 C-301.64622314 113.00666183 -302.29244629 113.01332367 -302.95825195 113.02018738 C-309.70698045 113.08675158 -316.45561509 113.13188808 -323.20458984 113.16479492 C-325.72057892 113.17984619 -328.23654192 113.20029181 -330.75244141 113.22631836 C-334.37669325 113.26286182 -338.000597 113.27976353 -341.625 113.29296875 C-343.30203003 113.31619453 -343.30203003 113.31619453 -345.01293945 113.33988953 C-352.05700705 113.34139461 -358.33423803 112.98639295 -364.0234375 108.3515625 C-368.20155565 103.0141977 -370.45296935 99.09761516 -370.25390625 92.05078125 C-369.57165024 86.54025191 -366.8111935 81.92008475 -363 78 C-357.24028939 74.56868304 -352.20961686 73.87726722 -345.5925293 73.85473633 C-344.31737961 73.84835648 -343.04222992 73.84197662 -341.72843933 73.83540344 C-340.34369953 73.83387436 -338.95895921 73.83276062 -337.57421875 73.83203125 C-336.14321357 73.82881455 -334.71220872 73.82545016 -333.28120422 73.82194519 C-330.28454832 73.81596706 -327.28792121 73.8141039 -324.29125977 73.81469727 C-320.46837403 73.81479872 -316.6456747 73.80115774 -312.82283306 73.78392506 C-309.8672655 73.77275595 -306.91174228 73.77077957 -303.95615578 73.77130699 C-302.54768037 73.77013384 -301.13920356 73.76574975 -299.73074913 73.75797462 C-280.06911737 73.65960945 -280.06911737 73.65960945 -272.94140625 80.3828125 C-268.93849463 85.77909175 -267.00239424 92.24850292 -264.84228516 98.55419922 C-264.00104386 100.99696888 -263.12178153 103.42275394 -262.23046875 105.84765625 C-258 117.46142158 -258 117.46142158 -258 121 C-244.8 121 -231.6 121 -218 121 C-218.0309375 113.8225 -218.0309375 113.8225 -218.0625 106.5 C-218.07140948 93.67162208 -217.98719293 80.84439322 -217.73654175 68.01831055 C-217.70403604 66.26627932 -217.67641062 64.51415026 -217.65383911 62.76196289 C-217.62047692 60.28612758 -217.56844163 57.81133427 -217.51171875 55.3359375 C-217.50532379 54.61010468 -217.49892883 53.88427185 -217.49234009 53.13644409 C-217.32072775 47.13839649 -215.978978 41.75399648 -212.4140625 36.79296875 C-203.1425401 28.47289078 -189.12649773 28.22842223 -177.2421875 26.30078125 C-175.76252276 26.05856817 -174.2828784 25.81623058 -172.80325317 25.57377625 C-169.72626019 25.07076943 -166.64872061 24.5712768 -163.57080078 24.07397461 C-159.65508238 23.44072347 -155.74144196 22.79548829 -151.82818413 22.14722919 C-148.78170444 21.64449258 -145.73396244 21.14976456 -142.68582535 20.65718651 C-141.24308799 20.42278174 -139.80079589 20.1856169 -138.35900497 19.94545937 C-116.1585342 16.25749559 -116.1585342 16.25749559 -107.8515625 20.5390625 C-100.89672389 26.02663558 -98.85065932 33.05380147 -96.09375 41.21875 C-95.64320476 42.52225059 -95.19148138 43.82534449 -94.73864746 45.12805176 C-93.55206644 48.55139365 -92.38098607 51.97983659 -91.21331787 55.40966797 C-90.03784588 58.85431287 -88.84866737 62.29421184 -87.66015625 65.734375 C-85.90414342 70.81956972 -84.15723287 75.90776054 -82.41601562 80.99804688 C-80.00593971 88.02128639 -77.5138611 95.01335145 -75 102 C-74.14247587 96.78605563 -73.28805813 91.57161537 -72.43652344 86.35668945 C-72.14636329 84.58246079 -71.85535266 82.80837101 -71.56347656 81.03442383 C-71.14424902 78.48554889 -70.72807598 75.93619126 -70.3125 73.38671875 C-70.18125732 72.59287277 -70.05001465 71.79902679 -69.91479492 70.98112488 C-69.42350228 67.95241367 -69 65.07398021 -69 62 C-70.65848177 60.98648336 -72.32665961 59.98879205 -74 59 C-77.98686169 54.57015368 -79.32194709 51.33703219 -79.2109375 45.3203125 C-78.68407086 39.52477944 -77.55672748 33.85945947 -73 29.9375 C-65.04020002 24.79679585 -55.32270446 27.19456294 -46.4375 28.5 C-45.42880859 28.64308594 -44.42011719 28.78617188 -43.38085938 28.93359375 C-40.91972198 29.2835185 -38.4595452 29.63908326 -36 30 C-36.48726563 28.94683594 -36.97453125 27.89367188 -37.4765625 26.80859375 C-40.01294397 20.86796411 -39.85766691 14.86212738 -37.8125 8.75 C-34.69579424 1.59312011 -30.09205006 -2.19820244 -23 -5 C-14.82557929 -7.79651235 -6.44960515 -5.32918377 0 0 Z " fill="#030305" transform="translate(383,18)"/>
<path d="M0 0 C45.12274977 -0.0915168 90.24548973 -0.16201904 135.36831398 -0.20426132 C140.69313395 -0.20926426 146.01795374 -0.21444154 151.34277344 -0.21972656 C152.93291501 -0.22130043 152.93291501 -0.22130043 154.55518065 -0.22290608 C171.72948318 -0.2403205 188.90373226 -0.2718639 206.07800306 -0.30861118 C223.69492202 -0.34599175 241.31181295 -0.36822975 258.92876995 -0.37635398 C269.80304005 -0.38184774 280.67715909 -0.39921133 291.55138271 -0.43166587 C299.00402787 -0.45277815 306.45659471 -0.4592075 313.90926762 -0.45400551 C318.21178075 -0.45143861 322.51402954 -0.45542684 326.8164959 -0.4768219 C330.75465058 -0.49626264 334.69236272 -0.49728636 338.63053761 -0.48359558 C340.05594666 -0.48190308 341.48138312 -0.48699854 342.90673806 -0.49953273 C356.1571158 -0.6092871 356.1571158 -0.6092871 361 4 C364.10923539 8.41965368 362.80091447 12.9428947 362 18 C361.19728539 22.37581652 360.27005429 26.71819229 359.3125 31.0625 C359.04703369 32.28549805 358.78156738 33.50849609 358.50805664 34.76855469 C356.52516281 43.82219194 354.38442388 52.83259643 352.18310547 61.83520508 C350.21386129 69.94624717 348.48827793 78.09360523 346.82177734 86.27148438 C345.3429513 93.48238675 343.68612166 100.63466518 341.94506836 107.78613281 C340.16434431 115.16351694 338.57050933 122.57531969 337 130 C335.06136412 139.15514933 333.03420695 148.27729855 330.83300781 157.37280273 C329.02047675 164.86454885 327.3065263 172.37696532 325.61108398 179.89599609 C325.41458252 180.76691895 325.21808105 181.6378418 325.015625 182.53515625 C324.84321289 183.302229 324.67080078 184.06930176 324.49316406 184.85961914 C324.02021206 186.91227768 323.51088681 188.95645276 323 191 C238.85 191 154.7 191 68 191 C64.65453729 182.97088949 61.50277383 175.03544176 58.6640625 166.8359375 C58.26832031 165.70280624 57.87257812 164.56967499 57.46484375 163.40220642 C56.62017817 160.98282492 55.77705433 158.56290468 54.93536377 156.14248657 C52.91978115 150.34739315 50.89417808 144.55580997 48.86863327 138.76419258 C48.18793521 136.81765079 47.50761497 134.87097721 46.82730103 132.92430115 C43.13767396 122.37098471 39.3971946 111.83654541 35.625 101.3125 C34.44107274 98.00662978 33.25756518 94.70060942 32.07421875 91.39453125 C31.76659103 90.53514954 31.45896332 89.67576782 31.14201355 88.79034424 C26.71659512 76.42116314 22.31526259 64.04340479 17.91741943 51.66439819 C16.94436603 48.92566627 15.97043779 46.18724815 14.9956665 43.4491272 C13.61878339 39.58138605 12.24483285 35.71260896 10.87109375 31.84375 C10.46848831 30.71390182 10.06588287 29.58405365 9.65107727 28.41996765 C7.31148758 21.82186514 5.05315064 15.20168214 2.84608459 8.55822754 C2.57102349 7.73160236 2.29596238 6.90497719 2.01256609 6.05330276 C1.34126876 4.03568217 0.67057205 2.01786176 0 0 Z " fill="#F0F2F4" transform="translate(128,147)"/>
<path d="M0 0 C0.67340424 -0.00817749 1.34680847 -0.01635498 2.0406189 -0.02478027 C4.2734895 -0.0496305 6.50629645 -0.06615093 8.73925781 -0.08056641 C9.88369228 -0.08855192 9.88369228 -0.08855192 11.05124664 -0.09669876 C15.09112036 -0.12343126 19.13096318 -0.14280407 23.17089844 -0.15722656 C27.33850292 -0.17385723 31.50531395 -0.21862026 35.67261887 -0.26959801 C38.88117348 -0.30330203 42.08954069 -0.31480745 45.29825592 -0.32045364 C46.83403829 -0.3271596 48.36980861 -0.34236485 49.9054184 -0.36634445 C52.0599926 -0.3980645 54.21243988 -0.39802404 56.3671875 -0.390625 C58.2034671 -0.40275528 58.2034671 -0.40275528 60.07684326 -0.41513062 C64.61607476 0.40490447 66.20289083 1.93668222 69.44238281 5.19287109 C70.7825836 7.8194902 71.80041308 10.15644277 72.75488281 12.91162109 C73.04065186 13.68944946 73.3264209 14.46727783 73.62084961 15.26867676 C74.58151528 17.9032684 75.51287612 20.54713668 76.44238281 23.19287109 C77.13969065 25.14360966 77.83762868 27.09412306 78.53613281 29.04443359 C80.45574006 34.4304331 82.34775355 39.82575802 84.23175049 45.2243042 C86.323989 51.2187495 88.42671393 57.20951756 90.52832031 63.20068359 C90.94866547 64.39972321 91.36901062 65.59876282 91.80209351 66.83413696 C95.51782806 77.42622102 99.28199049 88.00051516 103.06738281 98.56787109 C108.2404092 113.016651 113.38549457 127.47499572 118.50488281 141.94287109 C119.91760612 145.93507173 121.33035379 149.92726374 122.74316406 153.91943359 C123.10879456 154.95261719 123.47442505 155.98580078 123.85113525 157.05029297 C128.71310282 170.7864987 133.58613259 184.51878134 138.45902634 198.25111389 C139.1844235 200.29544003 139.90974474 202.33979308 140.63504028 204.38415527 C142.00292307 208.23973205 143.37106848 212.09521558 144.73925781 215.95068359 C145.14069504 217.08218842 145.54213226 218.21369324 145.95573425 219.37948608 C146.72354308 221.5427453 147.49229664 223.70566948 148.26208496 225.8682251 C149.11652019 228.27498595 149.96594525 230.68320939 150.81115723 233.09320068 C151.2653561 234.38147845 151.71957915 235.6697477 152.17382812 236.95800781 C152.58385071 238.1262912 152.99387329 239.29457458 153.4163208 240.4982605 C154.18645263 243.07333786 154.18645263 243.07333786 155.44238281 244.19287109 C156.9797313 244.29118658 158.52160213 244.3195001 160.06209087 244.32036304 C161.06708305 244.32337069 162.07207523 244.32637834 163.10752171 244.32947713 C164.22500021 244.32772676 165.34247871 244.32597639 166.49382019 244.32417297 C168.25897168 244.32734654 168.25897168 244.32734654 170.0597828 244.33058423 C172.6539918 244.33451926 175.24812801 244.33659931 177.84233284 244.33561897 C182.06256174 244.33403117 186.28276679 244.33921766 190.50299072 244.34524536 C196.63077474 244.35337084 202.75855459 244.35830653 208.886343 244.36153603 C218.57051223 244.36702475 228.25464607 244.38391464 237.938797 244.40287781 C241.24980062 244.40923512 244.56080434 244.41554349 247.87180805 244.42185497 C248.69935907 244.42343874 249.52691009 244.4250225 250.37953841 244.42665425 C259.8071409 244.44460353 269.2347459 244.46082322 278.66235352 244.47583008 C279.52450182 244.47720595 280.38665013 244.47858182 281.27492414 244.47999939 C295.24173587 244.50192249 309.20853856 244.5126834 323.17536446 244.52020083 C337.50628309 244.5282699 351.83712392 244.55155496 366.16799814 244.58815449 C375.01165001 244.61019298 383.85514196 244.61984004 392.69881991 244.61365416 C398.76059203 244.61048123 404.82222756 244.62179864 410.88395741 244.64454857 C414.38244047 244.65722574 417.88061928 244.66337528 421.37911415 244.65213203 C425.17172952 244.64329187 428.96348213 244.65886103 432.75602722 244.68061829 C433.86235211 244.67217575 434.968677 244.66373321 436.10852689 244.65503484 C442.18746074 244.71970897 445.85320339 245.06195475 450.44238281 249.19287109 C453.12706319 253.21989167 453.12426018 256.46130739 452.44238281 261.19287109 C450.29298393 264.80079064 448.29153573 266.62859391 444.44238281 268.19287109 C442.03118539 268.44192678 442.03118539 268.44192678 439.28732681 268.44061756 C437.7152529 268.44719056 437.7152529 268.44719056 436.11141992 268.45389634 C434.96124375 268.44855101 433.81106759 268.44320568 432.6260376 268.43769836 C431.40319872 268.43996294 430.18035984 268.44222751 428.92046523 268.44456071 C425.52439535 268.44894718 422.12854493 268.44441441 418.73249578 268.43625009 C415.0704793 268.42966583 411.40847778 268.43466876 407.74645996 268.43847656 C401.39936549 268.44370166 395.05230154 268.442203 388.70520782 268.43670082 C378.6715902 268.42849014 368.63803846 268.43971339 358.60443115 268.4539032 C355.17155853 268.4585044 351.73868573 268.46295475 348.30581284 268.46734142 C347.01891978 268.46898864 347.01891978 268.46898864 345.70602889 268.47066912 C335.9394385 268.48284421 326.17284599 268.49039546 316.40625 268.49633789 C315.06701409 268.49715998 315.06701409 268.49715998 313.7007229 268.49799868 C299.23428935 268.50645678 284.76787441 268.5031205 270.30144075 268.49718354 C255.4483517 268.49156564 240.59535638 268.50510279 225.74229598 268.53473634 C216.58132936 268.55227686 207.42063368 268.55391142 198.25966832 268.53509118 C191.98017793 268.52348328 185.70087032 268.52993653 179.42140368 268.55056039 C175.7990445 268.56187791 172.17715635 268.56506287 168.5548172 268.54638481 C164.62519396 268.52630999 160.69628633 268.54488972 156.7666626 268.5670929 C155.62540932 268.5550554 154.48415604 268.5430179 153.30831933 268.53061563 C146.55572547 268.60847918 141.51757306 269.47761546 136.44238281 274.19287109 C133.03894099 278.97248468 131.61175068 283.27461718 132.44238281 289.19287109 C134.56478989 295.86653612 137.17780718 299.91454142 143.46675873 303.2743845 C147.8467461 304.62635624 152.05595133 304.46993643 156.61486816 304.45115662 C157.64875121 304.45483232 158.68263425 304.45850803 159.74784708 304.46229511 C163.21703919 304.47228641 166.68607137 304.46812203 170.15527344 304.46411133 C172.64047924 304.46849766 175.12568356 304.47379947 177.61088562 304.47994995 C182.96485985 304.49145725 188.3187923 304.49710255 193.67277527 304.49783134 C201.41916529 304.49915743 209.16548312 304.51427273 216.91184765 304.53332651 C229.48728404 304.56416172 242.06272225 304.58833079 254.63818359 304.60620117 C255.39067007 304.60727385 256.14315655 304.60834653 256.91844565 304.60945172 C265.31540014 304.62127404 273.71235537 304.63147951 282.10931396 304.63989258 C285.15507001 304.64296657 288.20082603 304.64605535 291.24658203 304.64916992 C291.99815128 304.64993526 292.74972053 304.6507006 293.5240646 304.65148913 C306.05272487 304.66456743 318.58133283 304.68920123 331.10995436 304.72291332 C338.83756941 304.74320899 346.56507258 304.75349195 354.29271448 304.75092412 C360.2114354 304.74976741 366.13005615 304.76390588 372.04874611 304.78373337 C374.4783801 304.78934611 376.90803215 304.78980601 379.33766747 304.78479576 C382.64861235 304.77868273 385.95900108 304.79083519 389.26989746 304.80760193 C390.23633257 304.80139011 391.20276769 304.7951783 392.19848871 304.78877825 C397.0899703 304.8340661 400.4978226 304.96052357 404.44238281 308.19287109 C406.56976419 310.9071163 407.37147843 312.71679879 407.87988281 316.13037109 C407.31910777 320.05579636 405.93949332 322.14084714 403.44238281 325.19287109 C400.53850448 326.99693148 398.34804503 327.44439842 394.95442963 327.45293331 C393.60550983 327.4635317 393.60550983 327.4635317 392.22933912 327.47434419 C390.75329734 327.47072157 390.75329734 327.47072157 389.24743652 327.46702576 C388.1989291 327.47226244 387.15042169 327.47749911 386.07014132 327.48289448 C382.54509504 327.49793567 379.0201934 327.49860055 375.49511719 327.49926758 C372.97215529 327.50688651 370.44919572 327.51531354 367.92623901 327.52449036 C361.06224605 327.54647385 354.19830338 327.55526175 347.33428001 327.5603168 C343.04524145 327.56357507 338.75621184 327.57009852 334.46717834 327.57731819 C322.58430012 327.5968878 310.70143023 327.61328872 298.81853485 327.61619473 C298.05805038 327.61638229 297.2975659 327.61656986 296.51403645 327.61676312 C294.97242196 327.61712936 293.43080748 327.61749306 291.889193 327.61785423 C291.12396243 327.61803704 290.35873187 327.61821985 289.5703125 327.6184082 C288.42105918 327.61867903 288.42105918 327.61867903 287.24858862 327.61895532 C274.84760731 327.6224932 262.44680006 327.64948969 250.04587907 327.68690609 C237.30366536 327.72504324 224.56153786 327.74435262 211.81926584 327.74465424 C204.66923376 327.74523776 197.51940906 327.75366061 190.36943054 327.7826519 C183.63883811 327.80981743 176.90872434 327.81102471 170.17807388 327.79499626 C167.71266409 327.79318334 165.24723062 327.7998581 162.7818718 327.81581497 C147.15458455 327.91076284 134.98783484 327.65266316 122.47753906 317.20849609 C113.374567 308.19288461 109.42951955 297.70050673 109.12988281 285.00537109 C109.26648601 272.99794977 114.15169927 264.34704794 122.60253906 256.07958984 C127.99849504 251.19287109 127.99849504 251.19287109 130.44238281 251.19287109 C129.93059323 244.95371166 128.84615764 239.66166103 126.66113281 233.81396484 C126.3764061 233.02661453 126.09167938 232.23926422 125.79832458 231.42805481 C125.18037794 229.72286574 124.55790565 228.01931123 123.93136597 226.31726074 C122.91380745 223.55273696 121.90819679 220.78411315 120.90551758 218.01416016 C119.83923435 215.06904558 118.77217827 212.124234 117.70155334 209.18069458 C114.21503027 199.59405622 110.80649329 189.98057145 107.41055298 180.36154175 C105.63482415 175.33300032 103.85476704 170.30599104 102.07519531 165.27880859 C101.70596451 164.23548874 101.3367337 163.19216888 100.95631409 162.11723328 C95.54202051 146.82013377 90.11394943 131.52791151 84.68436146 116.23623466 C83.52157293 112.96139817 82.35890648 109.68651834 81.19628906 106.41162109 C80.96410612 105.75762455 80.73192318 105.10362801 80.49270439 104.42981339 C77.24960894 95.29413124 74.01316198 86.15611686 70.78166199 77.0163269 C68.99257799 71.95620268 67.20184138 66.89666377 65.41074467 61.83725166 C63.94634972 57.70018796 62.48419701 53.56234067 61.02367496 49.42390823 C59.91008552 46.27064883 58.79315275 43.11857578 57.67675781 39.96630859 C57.27573349 38.82770386 56.87470917 37.68909912 56.46153259 36.51599121 C55.90629662 34.95104919 55.90629662 34.95104919 55.33984375 33.35449219 C55.01981384 32.44895599 54.69978394 31.5434198 54.37005615 30.61044312 C53.51651161 28.38605516 52.5498201 26.30042219 51.44238281 24.19287109 C50.72685745 24.18700485 50.01133209 24.18113861 49.27412415 24.1750946 C42.52075855 24.11711646 35.76770746 24.04501074 29.01466084 23.95715618 C25.54308215 23.91248737 22.07161987 23.87322403 18.59985352 23.84643555 C14.60565721 23.81537655 10.61208913 23.76058921 6.61816406 23.70458984 C5.37529129 23.69819992 4.13241852 23.69181 2.85188293 23.68522644 C1.110644 23.6555352 1.110644 23.6555352 -0.66577148 23.62524414 C-1.6850322 23.61414108 -2.70429291 23.60303802 -3.75444031 23.59159851 C-7.0285365 23.12588694 -8.90395132 22.14172319 -11.55761719 20.19287109 C-14.15630574 16.16042334 -15.43403628 12.96448617 -14.55761719 8.19287109 C-10.35454166 1.94609829 -7.54396503 0.07945797 0 0 Z " fill="#8A9CF6" transform="translate(35.5576171875,99.80712890625)"/>
<path d="M0 0 C3.35769666 2.95287581 4.83072601 6.36722184 6.27514648 10.52685547 C6.55885101 11.29797668 6.84255554 12.0690979 7.13485718 12.86358643 C8.11362688 15.55090996 9.05958491 18.24834859 10.00170898 20.94873047 C10.3642981 21.97667725 10.72688721 23.00462402 11.10046387 24.0637207 C13.98810664 32.25985765 16.81206537 40.47729675 19.62670898 48.69873047 C20.88010732 52.35003952 22.13454032 56.00099075 23.3895874 59.6517334 C24.18908762 61.97798351 24.98765437 64.30455469 25.78521729 66.63146973 C28.18957342 73.63528949 30.65263006 80.61205235 33.23754883 87.55126953 C34.00170898 89.94873047 34.00170898 89.94873047 34.00170898 92.94873047 C-9.55829102 92.94873047 -53.11829102 92.94873047 -97.99829102 92.94873047 C-97.99829102 18.0090753 -97.99829102 18.0090753 -92.99829102 12.94873047 C-88.51571148 9.60158145 -83.98913816 9.00833239 -78.59594727 8.19482422 C-77.6817955 8.04844009 -76.76764374 7.90205597 -75.82579041 7.75123596 C-72.90560742 7.28620562 -69.98333893 6.83613157 -67.06079102 6.38623047 C-65.13030074 6.08054656 -63.19996028 5.77391495 -61.26977539 5.46630859 C-52.19924642 4.02818845 -43.12161534 2.65194025 -34.02685547 1.37573242 C-31.10996529 0.9644756 -28.19654818 0.53437529 -25.28344727 0.09716797 C-23.97730469 -0.09619141 -23.97730469 -0.09619141 -22.64477539 -0.29345703 C-20.89422622 -0.55279765 -19.14423607 -0.81593505 -17.39477539 -1.08251953 C-4.37263813 -2.99152395 -4.37263813 -2.99152395 0 0 Z " fill="#FACA55" transform="translate(270.998291015625,46.05126953125)"/>
<path d="M0 0 C2.87029869 1.79393668 4.49131638 2.98263276 6 6 C7.42602389 16.39869885 3.9186207 26.61865045 1.3125 36.5625 C0.8718872 38.28681346 0.4324271 40.01142189 -0.00585938 41.73632812 C-1.86313074 49.0047255 -3.77552499 56.25410037 -5.82112122 63.47184753 C-8.119012 71.58025267 -10.18336669 79.72818317 -12.15625 87.921875 C-12.42899246 89.04746323 -12.70173492 90.17305145 -12.98274231 91.33274841 C-14.11187046 95.9928743 -15.24078926 100.65281963 -16.34326172 105.31933594 C-17.16153445 108.77405391 -18.00075294 112.22311898 -18.84375 115.671875 C-19.20805115 117.24687775 -19.20805115 117.24687775 -19.57971191 118.85369873 C-21.05427825 124.79741219 -22.50790496 128.75276818 -27 133 C-30.60572704 134.20190901 -33.2102435 134.32670315 -37 134 C-40.40918784 131.87872756 -42.78269305 129.87324937 -44 126 C-44.42471696 119.69207727 -43.03800585 114.11607917 -41.5090332 108.01928711 C-41.24396469 106.93550278 -40.97889618 105.85171844 -40.70579529 104.73509216 C-39.82951299 101.16362819 -38.94090715 97.59538081 -38.05078125 94.02734375 C-37.43474893 91.54071482 -36.81896373 89.05402466 -36.20341492 86.567276 C-34.91206988 81.36001827 -33.61401443 76.1544885 -32.31176758 70.94995117 C-30.80959641 64.94547394 -29.32587258 58.93664356 -27.85070163 52.92548174 C-26.42678156 47.12705187 -24.98457573 41.33327213 -23.53548241 35.54107857 C-22.92298724 33.08284217 -22.31582824 30.62326977 -21.71413612 28.16236687 C-20.87101079 24.72123057 -20.0071416 21.28594633 -19.13793945 17.85131836 C-18.89409515 16.83660461 -18.65025085 15.82189087 -18.39901733 14.77642822 C-16.90172318 8.96856374 -15.30753167 5.22845964 -11 1 C-7.54260443 -0.72869779 -3.78024432 -0.48966895 0 0 Z " fill="#FBFBFB" transform="translate(405,183)"/>
<path d="M0 0 C3.61143193 2.15149136 5.42328722 4.15406273 7 8 C7.25447559 10.3026638 7.25447559 10.3026638 7.26069641 12.88241577 C7.26778122 13.86369949 7.27486603 14.84498322 7.28216553 15.85600281 C7.27968811 16.92623184 7.27721069 17.99646088 7.2746582 19.09912109 C7.2823246 20.79729225 7.2823246 20.79729225 7.29014587 22.5297699 C7.30406266 26.27771266 7.30308341 30.02547195 7.30078125 33.7734375 C7.30466721 36.3765164 7.30900167 38.97959467 7.31376648 41.58267212 C7.32197858 47.04178497 7.32107227 52.50084607 7.31567383 57.95996094 C7.30963652 64.2629533 7.32193945 70.56572229 7.3432439 76.86867654 C7.3630067 82.93954128 7.36603086 89.01030184 7.36250877 95.08119583 C7.36302238 97.66078847 7.36826753 100.24038464 7.37832069 102.81995773 C7.3906535 106.42751017 7.3839116 110.03454571 7.37231445 113.64208984 C7.38378006 115.2413607 7.38378006 115.2413607 7.39547729 116.87294006 C7.34987073 123.28984639 6.72925547 127.85085907 2.375 132.875 C-1.37333785 134.65052846 -4.9356332 134.65320181 -9 134 C-13.12589043 131.62980762 -14.52690516 129.42710308 -16 125 C-16.25726891 122.57428837 -16.25726891 122.57428837 -16.26742554 119.99732971 C-16.27595551 119.01467133 -16.28448547 118.03201294 -16.29327393 117.01957703 C-16.29236755 115.95294327 -16.29146118 114.88630951 -16.29052734 113.78735352 C-16.29724457 112.65509338 -16.30396179 111.52283325 -16.31088257 110.35626221 C-16.32987913 106.61376558 -16.33378744 102.87144808 -16.3359375 99.12890625 C-16.34236353 96.52725653 -16.34909174 93.92560754 -16.35610962 91.32395935 C-16.36808603 85.87081926 -16.37187566 80.41775024 -16.37060547 74.96459961 C-16.36940371 68.66891492 -16.39051615 62.37357285 -16.4220928 56.07797486 C-16.45142971 50.01190618 -16.45858074 43.94600157 -16.45738602 37.87986565 C-16.45974711 35.30305519 -16.46859907 32.72624222 -16.48405075 30.14947701 C-16.50363442 26.5467084 -16.49790202 22.94482369 -16.48583984 19.34204102 C-16.49707886 18.27743149 -16.50831787 17.21282196 -16.51989746 16.11595154 C-16.46868758 10.10017355 -16.0639699 6.55189351 -12 2 C-7.97297943 -0.68468038 -4.7315637 -0.68187737 0 0 Z " fill="#F9F9F9" transform="translate(313,183)"/>
<path d="M0 0 C0.74765625 -0.04898438 1.4953125 -0.09796875 2.265625 -0.1484375 C5.91756086 0.62099553 8.31984599 2.64502412 10.75 5.375 C11.86737759 8.11687173 12.61867111 10.42330983 13.26635742 13.2668457 C13.46411113 14.05033292 13.66186483 14.83382013 13.86561108 15.64104939 C14.29083417 17.33457955 14.70633997 19.03057354 15.11306381 20.72864151 C15.75275126 23.38643099 16.42391856 26.03430358 17.10513306 28.68173218 C18.59408312 34.48276849 20.04353023 40.29328941 21.48828125 46.10546875 C21.74847738 47.15038294 22.00867352 48.19529713 22.27675438 49.27187538 C23.64765271 54.77764901 25.01565212 60.28413285 26.38110352 65.79125977 C27.78715079 71.45970477 29.20319515 77.12560399 30.62142658 82.79101086 C31.71724152 87.17601058 32.80577685 91.56279375 33.89232445 95.95009804 C34.41150672 98.04110359 34.93340759 100.13143615 35.45812416 102.2210598 C36.18854214 105.13274455 36.90860659 108.04680718 37.6262207 110.96166992 C37.8427832 111.81524582 38.0593457 112.66882172 38.2824707 113.54826355 C41.03025645 124.83472831 41.03025645 124.83472831 38.76171875 129.3359375 C35.35857773 132.96997009 33.41110262 134.18695065 28.4375 134.75 C23.97604214 134.29629242 21.60830651 132.69914541 18.75 129.375 C17.63347833 126.6275514 16.88151177 124.31368028 16.23364258 121.46508789 C16.03588887 120.68109902 15.83813517 119.89711016 15.63438892 119.08936405 C15.20947424 117.39821706 14.79394598 115.70468907 14.38693619 114.00914383 C13.74932867 111.37222363 13.0779983 108.74628813 12.39486694 106.12081909 C10.90769303 100.39827038 9.45692628 94.66686685 8.01171875 88.93359375 C7.75152262 87.90220842 7.49132648 86.8708231 7.22324562 85.80818367 C5.85229124 80.37144962 4.48444247 74.93394444 3.11889648 69.49584961 C1.99500356 65.02263293 0.86483459 60.55107271 -0.27075195 56.08081055 C-1.65405741 50.63538082 -3.02693059 45.187422 -4.39232445 39.73747444 C-4.91062807 37.67580188 -5.4325065 35.61502441 -5.95812416 33.55520439 C-6.69084937 30.6804102 -7.410066 27.80254408 -8.1262207 24.92358398 C-8.3427832 24.08654938 -8.5593457 23.24951477 -8.7824707 22.38711548 C-10.07918775 17.09860644 -10.97925813 11.82393755 -10.25 6.375 C-7.40362022 1.82079235 -5.28054735 0.23349359 0 0 Z " fill="#FCFCFC" transform="translate(216.25,182.625)"/>
<path d="M0 0 C6.34347159 4.37080664 10.50302796 10.31450143 12.5625 17.765625 C13.79715109 27.08850056 11.99901098 35.50253579 6.3125 43.078125 C0.87792954 48.3891825 -4.87094163 51.71859201 -12.4375 52.765625 C-13.19804687 52.87261719 -13.95859375 52.97960937 -14.7421875 53.08984375 C-22.9789617 53.68194413 -30.0819228 50.34590946 -36.390625 45.16015625 C-42.14925878 39.03797235 -44.63911168 31.55630271 -45 23.265625 C-44.66462225 14.34667307 -41.51618644 8.39569344 -35.0625 2.328125 C-24.30328007 -6.38842797 -12.01534484 -6.83852074 0 0 Z " fill="#636B76" transform="translate(416.4375,439.234375)"/>
<path d="M0 0 C6.97327218 4.83709373 11.24937419 10.16047547 13.21875 18.5390625 C14.4501102 28.98658254 12.54210958 36.4867542 6.21875 44.7890625 C0.36308405 51.03177673 -7.47221654 53.75158725 -15.90625 54.1640625 C-24.56532993 53.74525733 -31.4744486 49.79633429 -37.3125 43.50390625 C-42.535717 36.51646436 -44.73729208 28.15690665 -43.78125 19.5390625 C-41.74390196 11.90191785 -38.1771301 5.48239092 -31.53515625 1.03515625 C-21.58185639 -4.70147471 -10.25183977 -5.95804974 0 0 Z " fill="#636B76" transform="translate(225.78125,438.4609375)"/>
<path d="M0 0 C2.91028139 0.33090551 5.77953646 0.72839265 8.671875 1.1796875 C9.98372772 1.37801682 9.98372772 1.37801682 11.32208252 1.58035278 C14.13221338 2.00666977 16.94106202 2.44090012 19.75 2.875 C21.63013441 3.16064327 23.51034194 3.44580569 25.390625 3.73046875 C40.30461286 6.000652 40.30461286 6.000652 45 7 C43.66916806 18.57486615 41.88819653 30.02554944 39.875 41.5 C38.92625 46.945 37.9775 52.39 37 58 C21.82 58 6.64 58 -9 58 C-7.91731427 43.92508548 -7.91731427 43.92508548 -6.50390625 38.18115234 C-5.56205394 34.10435557 -5.06368863 29.95541969 -4.5 25.8125 C-4.37254395 24.90209961 -4.24508789 23.99169922 -4.11376953 23.05371094 C-3.5314496 18.89008671 -2.96233528 14.72474703 -2.3984375 10.55859375 C-2.22570312 9.30175781 -2.05296875 8.04492188 -1.875 6.75 C-1.72804688 5.65171875 -1.58109375 4.5534375 -1.4296875 3.421875 C-1 1 -1 1 0 0 Z " fill="#F56B81" transform="translate(323,81)"/>
<path d="M0 0 C5.65922707 2.26760048 9.49812448 6.11859776 13 11 C16.04288769 20.12866307 12.68589106 29.5450133 10.4140625 38.51171875 C10.03657286 40.03334683 9.65995913 41.55519243 9.28416443 43.07723999 C8.283303 47.11891573 7.26922513 51.15715957 6.25191116 55.19472122 C5.41523983 58.52156666 4.58594549 61.85023232 3.75663853 65.17891979 C-0.724198 83.16096065 -5.24470281 101.13448556 -9.9375 119.0625 C-10.13196716 119.8086557 -10.32643433 120.5548114 -10.52679443 121.32357788 C-15.90419604 141.87978334 -15.90419604 141.87978334 -20.5 145.4375 C-21.0878125 145.91058594 -21.675625 146.38367188 -22.28125 146.87109375 C-27.20964077 150.10815041 -33.3612003 149.61462202 -39 149 C-43.71352823 147.37569236 -46.93495866 144.70366251 -49.5 140.4375 C-53.07296667 131.61914327 -50.88036014 121.74832742 -48.58496094 112.86645508 C-48.19957909 111.30543312 -48.19957909 111.30543312 -47.80641174 109.71287537 C-46.96283487 106.3114868 -46.0991594 102.91558415 -45.234375 99.51953125 C-44.63761343 97.13710569 -44.04186598 94.75442591 -43.44708252 92.37150574 C-42.20155505 87.39425044 -40.94651063 82.41952795 -39.68408203 77.4465332 C-38.07052686 71.08874906 -36.47677897 64.72620792 -34.88961411 58.36179066 C-33.66238184 53.44698103 -32.42676491 48.53431076 -31.18842316 43.62228966 C-30.59789999 41.27737469 -30.00946741 38.93193217 -29.42321014 36.58594704 C-28.60117974 33.3036216 -27.76839804 30.02420861 -26.93261719 26.74536133 C-26.69452835 25.78669159 -26.45643951 24.82802185 -26.21113586 23.84030151 C-22.00678968 7.51014382 -22.00678968 7.51014382 -15.875 3.5 C-15.19179688 3.0359375 -14.50859375 2.571875 -13.8046875 2.09375 C-9.30223763 -0.6350075 -5.18220315 -0.66769235 0 0 Z M-15 13 C-16.11672893 15.74609085 -16.86853117 18.0581571 -17.51635742 20.90551758 C-17.71411113 21.68936482 -17.91186483 22.47321207 -18.11561108 23.28081226 C-18.54060353 24.97251842 -18.9561262 26.6666265 -19.36306381 28.36276627 C-20.00123139 31.00509858 -20.67251029 33.63674012 -21.35513306 36.26791382 C-22.84244524 42.00930765 -24.29271997 47.75969019 -25.73828125 53.51171875 C-25.99847738 54.54560038 -26.25867352 55.579482 -26.52675438 56.64469337 C-27.89748561 62.09214648 -29.26545602 67.54028398 -30.63110352 72.98901367 C-32.0372545 78.59691795 -33.45328337 84.20228058 -34.87142658 89.80716228 C-35.96727263 94.14581661 -37.05579348 98.48628456 -38.14232445 102.82728004 C-38.6614674 104.89597417 -39.18336742 106.9639785 -39.70812416 109.03125572 C-40.43860534 111.91177268 -41.15864281 114.79471254 -41.8762207 117.6784668 C-42.0927832 118.52269196 -42.3093457 119.36691711 -42.5324707 120.23672485 C-44.01802172 126.27439542 -45.3044981 131.61591726 -42.1875 137.3125 C-40.10119391 140.14569422 -40.10119391 140.14569422 -37 142 C-32.00098397 142.46287185 -28.99126735 142.10431905 -25 139 C-22.11522245 135.77144097 -21.20066607 132.76594623 -20.17822266 128.58935547 C-20.02000534 127.95444183 -19.86178802 127.3195282 -19.69877625 126.66537476 C-19.17838044 124.56804737 -18.67131803 122.46772796 -18.1640625 120.3671875 C-17.8000832 118.89122698 -17.43518882 117.41549185 -17.06942749 115.93997192 C-16.10641691 112.04605957 -15.15429196 108.14957029 -14.20489502 104.25231934 C-12.69853628 98.07689854 -11.17604509 91.90541841 -9.65419197 85.73380089 C-9.2858928 84.23988065 -8.91794592 82.74587351 -8.5503521 81.25177956 C-5.88990115 70.44404608 -3.06243785 59.70093226 0 49 C1.1382712 44.86254948 2.23775671 40.71685072 3.3125 36.5625 C3.57611328 35.59119141 3.83972656 34.61988281 4.11132812 33.61914062 C5.78440206 27.10501639 6.81092419 20.73345234 6 14 C4.19881522 10.99802536 3.09667268 9.54833634 0 8 C-2.00423605 7.68795448 -2.00423605 7.68795448 -4.25 7.625 C-4.99765625 7.57601562 -5.7453125 7.52703125 -6.515625 7.4765625 C-10.16779002 8.24604381 -12.57047258 10.26906691 -15 13 Z " fill="#090A0B" transform="translate(405,175)"/>
<path d="M0 0 C6.4795929 3.7571784 10.34216648 9.0313484 12.40644836 16.18658447 C12.91333402 18.16112586 13.4035682 20.13999097 13.88012695 22.12207031 C14.29087212 23.75032997 14.29087212 23.75032997 14.70991516 25.41148376 C15.60710077 28.98553921 16.48187449 32.56464257 17.35546875 36.14453125 C17.97511626 38.64190427 18.59575219 41.13903224 19.21733093 43.63592529 C20.51551194 48.86542576 21.80313152 54.09735752 23.08227539 59.33154297 C24.55536665 65.35866155 26.04848121 71.38054496 27.55247337 77.40002084 C29.00547838 83.21752466 30.44377269 89.03854641 31.87578392 94.86125946 C32.48334764 97.32598181 33.09454954 99.78981042 33.70952797 102.25269318 C34.56935117 105.70490185 35.41238846 109.16080353 36.2512207 112.61816406 C36.63216888 114.12729622 36.63216888 114.12729622 37.02081299 115.66691589 C39.09126268 124.33241872 40.66068083 133.41258154 36.01953125 141.47265625 C33.2870719 145.01566165 29.89991753 146.74299624 25.7421875 148.12890625 C18.59266499 148.96566518 13.25918198 148.7834349 7.4609375 144.3203125 C2.50472215 138.00113793 0.68506342 129.88592942 -1.17456055 122.22485352 C-1.43688477 121.17336624 -1.69920898 120.12187897 -1.96948242 119.03852844 C-2.82720969 115.59265181 -3.67334185 112.14403874 -4.51953125 108.6953125 C-5.11597542 106.29138407 -5.71322167 103.88765452 -6.31123352 101.4841156 C-7.87808743 95.17876514 -9.43543219 88.87110671 -10.99035645 82.56280518 C-13.48715475 72.44076634 -15.9988999 62.32242494 -18.50977516 52.20387077 C-19.3860859 48.66689969 -20.25863209 45.12901659 -21.13053894 41.59095764 C-21.66338195 39.436356 -22.19628183 37.28176843 -22.72924805 35.12719727 C-22.97183853 34.13864746 -23.21442902 33.15009766 -23.46437073 32.1315918 C-23.798535 30.78388451 -23.798535 30.78388451 -24.13945007 29.40895081 C-24.33244029 28.62605462 -24.52543051 27.84315844 -24.72426891 27.03653812 C-25.210551 25.06528801 -25.210551 25.06528801 -26.2578125 23.12890625 C-26.81436257 17.17810165 -26.81830635 12.13585073 -23.2578125 7.12890625 C-16.61801075 0.46143866 -9.55388583 -3.68601478 0 0 Z M-17.2578125 11.12890625 C-20.53169049 17.67666224 -17.45098632 26.66882743 -15.7668457 33.33666992 C-15.36924294 34.9627845 -15.36924294 34.9627845 -14.96360779 36.62174988 C-14.08951129 40.18291877 -13.19986034 43.73996752 -12.30859375 47.296875 C-11.69235703 49.78059467 -11.07657513 52.26442723 -10.46122742 54.74836731 C-9.17125381 59.94402912 -7.87321275 65.13758964 -6.56958008 70.32983398 C-5.06602892 76.31924683 -3.58248931 82.31336839 -2.10851413 88.31012172 C-0.68473998 94.09898852 0.75740144 99.88317282 2.20670509 105.66570473 C2.8190684 108.11838884 3.42622855 110.57237818 4.02805138 113.02766991 C4.87109584 116.45904363 5.73495138 119.88452333 6.60424805 123.30932617 C6.84809235 124.32089783 7.09193665 125.33246948 7.34317017 126.37469482 C8.84252716 132.17268806 10.44319292 135.90531604 14.7421875 140.12890625 C17.80648526 141.66105513 20.3587517 141.35829173 23.7421875 141.12890625 C27.36635644 139.48155673 29.87070166 137.67487942 31.7421875 134.12890625 C32.2345645 127.81401685 30.76793799 122.16016412 29.2512207 116.05639648 C28.98615219 114.96285858 28.72108368 113.86932068 28.44798279 112.74264526 C27.57164518 109.1387499 26.68306887 105.53801918 25.79296875 101.9375 C25.1769443 99.42844835 24.56115899 96.91933798 23.94560242 94.41017151 C22.65422486 89.15585677 21.35616573 83.90324989 20.05395508 78.65161133 C18.55177189 72.59257238 17.06805656 66.5292144 15.59288913 60.46354717 C14.16902708 54.61279041 12.72681077 48.76672094 11.27766991 42.92216682 C10.66514302 40.44159756 10.05798437 37.95969626 9.45632362 35.47646904 C8.61326937 32.0042173 7.74937542 28.53779429 6.88012695 25.07202148 C6.63628265 24.047957 6.39243835 23.02389252 6.14120483 21.96879578 C4.65001895 16.13287772 3.07408747 12.3710544 -1.2578125 8.12890625 C-6.96233651 5.27664425 -12.99474575 6.59939783 -17.2578125 11.12890625 Z " fill="#08090A" transform="translate(224.2578125,175.87109375)"/>
<path d="M0 0 C5.09755648 2.84286804 8.84230976 6.48558848 11.25 11.8125 C11.70571047 15.69036232 11.66986921 19.55156162 11.65405273 23.45239258 C11.66091599 24.63020798 11.66777924 25.80802338 11.67485046 27.02153015 C11.69000013 30.24492311 11.69161619 33.46795296 11.68590808 36.69136643 C11.6828125 39.38746422 11.68891308 42.08350995 11.69494683 44.77960032 C11.70898638 51.14453363 11.70743681 57.50933272 11.69604492 63.87426758 C11.68457614 70.42667684 11.69861937 76.9786762 11.7254414 83.53103143 C11.747646 89.16775788 11.75422476 94.80435613 11.74836498 100.44112319 C11.74500406 103.8027097 11.74735173 107.16403379 11.76461601 110.52558327 C11.77952169 114.27883833 11.76884963 118.03119649 11.75170898 121.78442383 C11.76137695 122.8885965 11.77104492 123.99276917 11.78100586 125.13040161 C11.71334985 132.21855505 10.81158219 138.07874469 5.76734066 143.36683369 C0.49049904 147.98676135 -4.05599896 148.15883837 -10.80078125 148.09375 C-16.02368637 147.59567163 -18.57053009 145.09025907 -22 141.375 C-24.85062796 137.2008662 -25.99690908 133.68485259 -26.03088379 128.64019775 C-26.04230408 127.61980408 -26.05372437 126.5994104 -26.06549072 125.5480957 C-26.06772644 124.43942139 -26.06996216 123.33074707 -26.07226562 122.18847656 C-26.08219543 121.01226746 -26.09212524 119.83605835 -26.10235596 118.62420654 C-26.12652252 115.40496913 -26.14147616 112.18587675 -26.15037727 108.96656513 C-26.15625381 106.9518174 -26.16446624 104.93709205 -26.17338562 102.92235565 C-26.20071276 96.60856242 -26.22005673 90.29482078 -26.2277894 83.98097253 C-26.23674358 76.71126002 -26.27181388 69.44230097 -26.32979059 62.17281747 C-26.37313385 56.54118467 -26.39320375 50.909763 -26.39587164 45.27796531 C-26.39796026 41.91991056 -26.4125349 38.56312692 -26.44551086 35.20514679 C-26.47971604 31.45422175 -26.4758527 27.70512035 -26.46289062 23.95410156 C-26.48132019 22.85352417 -26.49974976 21.75294678 -26.51873779 20.61901855 C-26.43857669 13.19418706 -24.75268781 8.37795377 -19.75 2.8125 C-13.82139634 -2.42882563 -7.15583902 -2.26601569 0 0 Z M-16.75 10.8125 C-18.60318878 13.8697002 -19.00212424 16.14006709 -19.01069641 19.69491577 C-19.01778122 20.67619949 -19.02486603 21.65748322 -19.03216553 22.66850281 C-19.02968811 23.73873184 -19.02721069 24.80896088 -19.0246582 25.91162109 C-19.02976913 27.0437352 -19.03488007 28.1758493 -19.04014587 29.3422699 C-19.05406266 33.09021266 -19.05308341 36.83797195 -19.05078125 40.5859375 C-19.05466721 43.1890164 -19.05900167 45.79209467 -19.06376648 48.39517212 C-19.07197858 53.85428497 -19.07107227 59.31334607 -19.06567383 64.77246094 C-19.05963652 71.0754533 -19.07193945 77.37822229 -19.0932439 83.68117654 C-19.1130067 89.75204128 -19.11603086 95.82280184 -19.11250877 101.89369583 C-19.11302238 104.47328847 -19.11826753 107.05288464 -19.12832069 109.63245773 C-19.1406535 113.24001017 -19.1339116 116.84704571 -19.12231445 120.45458984 C-19.12995819 121.52077042 -19.13760193 122.58695099 -19.14547729 123.68544006 C-19.09987073 130.10234639 -18.47925547 134.66335907 -14.125 139.6875 C-10.37666215 141.46302846 -6.8143668 141.46570181 -2.75 140.8125 C1.37589043 138.44230762 2.77690516 136.23960308 4.25 131.8125 C4.55096453 129.3662369 4.55096453 129.3662369 4.51742554 126.80982971 C4.52595551 125.82717133 4.53448547 124.84451294 4.54327393 123.83207703 C4.54236755 122.76544327 4.54146118 121.69880951 4.54052734 120.59985352 C4.54724457 119.46759338 4.55396179 118.33533325 4.56088257 117.16876221 C4.57987913 113.42626558 4.58378744 109.68394808 4.5859375 105.94140625 C4.59236353 103.33975653 4.59909174 100.73810754 4.60610962 98.13645935 C4.61808603 92.68331926 4.62187566 87.23025024 4.62060547 81.77709961 C4.61940371 75.48141492 4.64051615 69.18607285 4.6720928 62.89047486 C4.70142971 56.82440618 4.70858074 50.75850157 4.70738602 44.69236565 C4.70974711 42.11555519 4.71859907 39.53874222 4.73405075 36.96197701 C4.75363442 33.3592084 4.74790202 29.75732369 4.73583984 26.15454102 C4.75269836 24.55762672 4.75269836 24.55762672 4.76989746 22.92845154 C4.71868758 16.91267355 4.3139699 13.36439351 0.25 8.8125 C-5.55476369 4.94265754 -11.98825982 5.61787435 -16.75 10.8125 Z " fill="#020304" transform="translate(315.75,176.1875)"/>
<path d="M0 0 C15.11431261 1.5947385 30.04400594 4.346615 45 7 C44.00128679 16.17641194 42.8632527 25.31670876 41.4375 34.4375 C41.31076904 35.25968018 41.18403809 36.08186035 41.0534668 36.92895508 C40.12394681 42.75210639 40.12394681 42.75210639 39 45 C23.82 45 8.64 45 -7 45 C-5.80153357 34.81303536 -4.59044997 24.73124926 -2.9375 14.625 C-2.76412109 13.53445312 -2.59074219 12.44390625 -2.41210938 11.3203125 C-1.13249362 3.39748087 -1.13249362 3.39748087 0 0 Z " fill="#F56B81" transform="translate(403,94)"/>
<path d="M0 0 C3.43139495 1.68450297 5.34327715 3.00063914 7.4375 6.1875 C8.23923052 10.19615259 8.22127836 14.07646778 7 18 C6.3296875 18.56589844 5.659375 19.13179687 4.96875 19.71484375 C1.96714392 23.1988508 2.57942633 26.55374618 2.625 31 C2.40819692 40.55384971 0.5611652 47.74891065 -5.859375 55.140625 C-13.4089919 62.32786029 -22.53374847 65.38880731 -32.80078125 65.27734375 C-40.80233829 64.58368008 -48.35784807 60.69058242 -54 55 C-58.9804873 48.20440177 -62.40807957 41.56967097 -62 33 C-62.721875 32.938125 -63.44375 32.87625 -64.1875 32.8125 C-67.8997565 31.74007034 -69.51221068 29.90242087 -72 27 C-73.50186547 22.49440359 -73.71589695 18.65786663 -71.8125 14.25 C-69.30321646 11.13502733 -67.12567833 9.31475561 -63.07421875 8.71484375 C-58.57465211 8.51994727 -55.55937466 9.03385445 -52 12 C-49.60669075 14.64523654 -48.12591144 16.60016108 -47.80078125 20.21484375 C-47.94250377 22.6484219 -48.21930169 24.68826557 -49 27 C-49.886875 27.78375 -50.77375 28.5675 -51.6875 29.375 C-54.24959215 31.72584287 -54.24959215 31.72584287 -54.09375 34.46484375 C-53.02936783 41.92575342 -50.20733144 47.51247707 -44.37890625 52.34375 C-37.57357818 57.09560002 -29.58876675 56.91469178 -21.61328125 55.609375 C-15.18740277 53.63995055 -11.25728908 48.7781576 -7.8984375 43.15625 C-5.14583131 37.0850812 -5.73145931 30.52454427 -6 24 C-6.76828125 23.89558594 -7.5365625 23.79117188 -8.328125 23.68359375 C-12.46531477 22.62510222 -13.51063893 20.38829701 -16 17 C-17.43304064 14.13391871 -17.30644155 12.18699217 -17 9 C-12.77153499 1.29815301 -8.70440869 -1.35770673 0 0 Z " fill="#080603" transform="translate(260,62)"/>
<path d="M0 0 C1.8126345 0.14415198 3.62510022 0.29042636 5.4375 0.4375 C6.95150391 0.55931641 6.95150391 0.55931641 8.49609375 0.68359375 C12.67165703 1.0606513 16.83482891 1.52316134 21 2 C19.4394079 13.12336919 17.82990515 24.2343005 16.05541992 35.32568359 C15.15804371 40.95034108 14.33049581 46.58201713 13.5390625 52.22265625 C12.40698537 60.15539961 11.19396793 68.07639461 10 76 C3.07 76 -3.86 76 -11 76 C-10.51750439 67.19445508 -9.14142827 58.72526047 -7.58520508 50.05517578 C-5.9596796 40.94315771 -4.64263181 31.80463898 -3.37207031 22.63769531 C-2.71550869 17.98317313 -2.01374297 13.33546625 -1.3125 8.6875 C-1.18093506 7.81456299 -1.04937012 6.94162598 -0.91381836 6.04223633 C-0.60984224 4.02806237 -0.30502279 2.01401572 0 0 Z " fill="#636B76" transform="translate(379,63)"/>
<path d="M0 0 C4.20830923 2.99257545 8.76750299 6.95006686 10.484375 11.9609375 C11.51364278 18.35710155 11.70902629 23.31333567 8.125 28.9375 C5.04252639 33.03062069 2.40348345 35.42602239 -2.69140625 36.5546875 C-7.3497578 37.14804178 -11.93420096 37.14472305 -16.625 37.125 C-17.54087891 37.12886719 -18.45675781 37.13273437 -19.40039062 37.13671875 C-24.43760572 37.12948657 -29.22306902 36.86041032 -34.1875 36 C-33.41900683 29.47564984 -31.42715284 23.72792499 -28.8125 17.75 C-28.52044678 17.07710937 -28.22839355 16.40421875 -27.92749023 15.7109375 C-25.08562848 9.38840032 -21.99913257 4.02343793 -16.1875 0 C-10.85743699 -1.77668767 -5.34894969 -1.67810186 0 0 Z " fill="#636B76" transform="translate(425.1875,21)"/>
<path d="M0 0 C11.55316276 1.19494681 23.05007661 2.59694154 34.51904297 4.43969727 C36.11333068 4.69197471 37.70912506 4.93487967 39.30615234 5.16918945 C41.66352263 5.51555433 44.01507363 5.88929235 46.3671875 6.26953125 C47.4327034 6.41827446 47.4327034 6.41827446 48.51974487 6.57002258 C52.11561781 7.18508093 53.84555034 7.84604134 56.45751953 10.44970703 C58.69558707 14.15006372 58.23783228 16.5426385 57.58984375 20.68359375 C57 23 57 23 55.5625 25.625 C48.88326376 29.20898042 39.34708096 26.6453742 32.1796875 25.46875 C31.19501495 25.31337769 30.21034241 25.15800537 29.1958313 24.9979248 C26.08769159 24.50581169 22.98137846 24.00309825 19.875 23.5 C17.75271642 23.16205469 15.6303214 22.82480847 13.5078125 22.48828125 C8.33722658 21.6669265 3.16809295 20.83688988 -2 20 C-2.01188087 18.56846104 -2.0203291 17.13689334 -2.02734375 15.70532227 C-2.03241943 14.90812271 -2.03749512 14.11092316 -2.04272461 13.28956604 C-1.95827726 8.76412281 -0.89483875 4.41826632 0 0 Z " fill="#F2697F" transform="translate(407,67)"/>
<path d="M0 0 C1.60464111 0.17789063 1.60464111 0.17789063 3.24169922 0.359375 C10.48084113 1.32740512 17.70778288 2.35831697 24.92797852 3.45898438 C27.68496859 3.87877806 30.4429726 4.2913588 33.20117188 4.703125 C34.95969894 4.96832915 36.71816485 5.23393914 38.4765625 5.5 C39.70929649 5.6844165 39.70929649 5.6844165 40.9669342 5.87255859 C44.11663825 6.35551752 47.06837076 6.86523817 50.09765625 7.875 C49.78893296 10.47966543 49.47583902 13.08367691 49.16015625 15.6875 C49.07314453 16.42548828 48.98613281 17.16347656 48.89648438 17.92382812 C48.51549079 21.04233121 48.09396251 23.88608122 47.09765625 26.875 C36.392968 26.39175005 25.94781067 25.13001752 15.37768555 23.40087891 C12.87679465 22.99458002 10.37329266 22.60828448 7.86914062 22.22265625 C6.2641305 21.96473621 4.65930482 21.70566517 3.0546875 21.4453125 C2.31305862 21.33269073 1.57142975 21.22006897 0.80732727 21.10403442 C-3.14231594 20.43817855 -6.01633377 19.73684209 -8.90234375 16.875 C-10.1913054 12.91922115 -10.19592424 9.00039186 -9.15234375 5 C-6.61048166 0.67883444 -5.09039454 -0.57289317 0 0 Z " fill="#F36A80" transform="translate(321.90234375,53.125)"/>
<path d="M0 0 C5.03042274 2.29457879 7.05137439 4.87203786 9 10 C10.12497719 15.1471559 10.11679305 20.13780906 10.0625 25.375 C10.05798828 26.20644531 10.05347656 27.03789063 10.04882812 27.89453125 C10.03713164 29.92971897 10.01919935 31.96486923 10 34 C-0.8555889 32.82929924 -11.88951022 30.78292265 -19.375 22.3125 C-21.47421689 18.0333271 -21.83218592 14.68209654 -21 10 C-19.3125 6.6875 -19.3125 6.6875 -17 4 C-16.34 3.21625 -15.68 2.4325 -15 1.625 C-10.16945669 -0.99154429 -5.36498271 -0.71242318 0 0 Z " fill="#636A75" transform="translate(373,21)"/>
<path d="M0 0 C3.89398123 1.32248419 5.65313142 2.60749082 8.375 5.6875 C10.34769538 9.70876367 10.86077772 12.60827694 10 17 C7.60178971 21.79642058 4.79642058 24.60178971 0 27 C-4.92443002 27.70349 -7.70425012 27.55253527 -11.875 24.8125 C-15.46244558 21.87880305 -16.66518142 19.50648906 -17.28125 14.89453125 C-17.56289901 10.6909198 -17.40132298 7.89755956 -14.6875 4.5625 C-9.73693607 -0.15780514 -6.57961287 -0.709787 0 0 Z " fill="#050608" transform="translate(404,450)"/>
<path d="M0 0 C5.86406016 4.85879271 5.86406016 4.85879271 6.57421875 9.1484375 C6.76273822 13.47788467 6.4332778 16.29258542 4.5625 20.25 C0.94412327 24.15403805 -2.04120837 25.59108855 -7.3125 26.25 C-12.8408753 25.55895309 -15.65186789 23.18693276 -19.1875 19 C-21.14898313 15.15247539 -21.41193353 13.08346387 -20.8125 8.8125 C-19.42349215 5.20999302 -17.53730068 2.45446631 -14.625 -0.125 C-9.66670618 -1.99813322 -4.89727381 -2.06773783 0 0 Z " fill="#030506" transform="translate(217.8125,451.1875)"/>
<path d="M0 0 C0.33 0 0.66 0 1 0 C1.04125 1.175625 1.0825 2.35125 1.125 3.5625 C1.82007799 8.74814762 4.01944632 11.69188937 8 15 C16.44812964 20.49190273 23.91308982 23.00295982 34 22 C41.9069306 20.17701322 47.35384055 16.72586994 53 11 C53.825 10.195625 54.65 9.39125 55.5 8.5625 C55.995 8.046875 56.49 7.53125 57 7 C56.41854102 15.14042571 54.40096207 21.04055311 48.375 26.75 C41.31244353 32.44434904 34.02648356 34.79458537 24.95703125 34.4453125 C16.81785029 33.21959701 9.89408734 28.54714343 5 22 C1.82758805 16.28385529 -0.15905794 10.81593971 -0.0625 4.25 C-0.05347656 3.45078125 -0.04445312 2.6515625 -0.03515625 1.828125 C-0.02355469 1.22484375 -0.01195312 0.6215625 0 0 Z " fill="#525A64" transform="translate(182,458)"/>
<path d="M0 0 C0.33 0 0.66 0 1 0 C0.4132079 8.21508945 -2.16495389 15.00286927 -8 21 C-12.9400267 24.79323479 -17.8243418 27.14543475 -24 28 C-24.76054687 28.10699219 -25.52109375 28.21398437 -26.3046875 28.32421875 C-34.5414617 28.91631913 -41.6444228 25.58028446 -47.953125 20.39453125 C-52.07652058 16.01082029 -56 9.13962759 -56 3 C-52.89394886 4.37895018 -50.84348141 5.99500111 -48.4375 8.375 C-41.94025725 14.14898752 -34.14454863 16.75178094 -25.46875 16.3125 C-16.2533793 15.14599738 -8.46758551 11.65235957 -2.5859375 4.2109375 C-1.6797776 2.83539981 -0.83212533 1.42154744 0 0 Z " fill="#525A64" transform="translate(428,464)"/>
<path d="M0 0 C2 3 2 3 1.8125 6.5625 C1 10 1 10 -2 12 C-7.44444444 11.55555556 -7.44444444 11.55555556 -10 9 C-10.375 5.5625 -10.375 5.5625 -10 2 C-7.01983499 -1.66789539 -4.31348256 -1.31279904 0 0 Z " fill="#E5E7E9" transform="translate(215,458)"/>
<path d="M0 0 C2.4375 0.4375 2.4375 0.4375 4.25 1.5 C6.084421 4.49300269 5.74857576 7.01566663 5.4375 10.4375 C3.4375 12.4375 3.4375 12.4375 0 12.75 C-3.5625 12.4375 -3.5625 12.4375 -5.5 11.25 C-6.97609492 8.73195572 -7.05339348 7.31273324 -6.5625 4.4375 C-4.53830677 1.66360557 -3.41064923 0.58230597 0 0 Z " fill="#E9EBED" transform="translate(400.5625,456.5625)"/>
<path d="M0 0 C5.56818182 0.56818182 5.56818182 0.56818182 7 2 C7.1875 4.9375 7.1875 4.9375 7 8 C5 10 5 10 2.5 10.25 C0 10 0 10 -2 8 C-2.25 5 -2.25 5 -2 2 C-1.34 1.34 -0.68 0.68 0 0 Z " fill="#F1F1F1" transform="translate(197,78)"/>
<path d="M0 0 C2.375 0.6875 2.375 0.6875 3.375 1.6875 C3.5625 4.625 3.5625 4.625 3.375 7.6875 C1.375 9.6875 1.375 9.6875 -1.125 9.9375 C-3.625 9.6875 -3.625 9.6875 -5.625 7.6875 C-5.9375 4.6875 -5.9375 4.6875 -5.625 1.6875 C-2.625 -0.3125 -2.625 -0.3125 0 0 Z " fill="#F0F0F0" transform="translate(256.625,69.3125)"/>
</svg>
