<?xml version="1.0" encoding="UTF-8"?>
<svg version="1.1" xmlns="http://www.w3.org/2000/svg" width="512" height="512">
<path d="M0 0 C2.15120426 -0.01146245 4.30222725 -0.03010891 6.45335841 -0.05103612 C10.27574027 -0.08703151 14.09765531 -0.08927645 17.92021823 -0.08564115 C18.97949841 -0.09852862 20.0387786 -0.1114161 21.13015819 -0.12469411 C33.02331223 -0.03466489 44.39337767 4.56138459 53.16606784 12.64848971 C64.2448118 24.3315288 67.87293765 37.16783161 67.85729098 52.96846652 C67.86174767 54.38709713 67.86174767 54.38709713 67.86629438 55.83438694 C67.874944 58.99329614 67.87648642 62.15216728 67.8779819 65.31108737 C67.88261249 67.57984124 67.88763747 69.84859433 67.89302707 72.11734653 C67.90612438 78.27202983 67.91259008 84.42670224 67.91703773 90.58139729 C67.91997097 94.42565598 67.92407612 98.26991169 67.9285419 102.11416888 C67.94064198 112.76361701 67.95102857 123.41306151 67.95441699 134.06251597 C67.95463656 134.74303052 67.95485612 135.42354506 67.95508234 136.12468126 C67.95530062 136.80678024 67.9555189 137.48887923 67.95574379 138.19164789 C67.95618725 139.57374621 67.95663381 140.95584452 67.95708346 142.33794284 C67.95730489 143.02350479 67.95752632 143.70906674 67.95775446 144.41540329 C67.96170711 155.5372694 67.97917973 166.65907019 68.00244299 177.78091104 C68.02614894 189.20671879 68.03836028 200.63247901 68.03978491 212.05831444 C68.04083439 218.47082322 68.04677334 224.88323963 68.06460452 231.29572558 C68.08103744 237.32201938 68.08326398 243.34815086 68.07446551 249.37445903 C68.07369274 251.58802291 68.07806926 253.80159536 68.08792377 256.01513743 C68.10057163 259.03257198 68.09480553 262.04942525 68.08434176 265.06685519 C68.09642637 266.38606021 68.09642637 266.38606021 68.10875511 267.73191583 C68.07053063 272.43208774 67.7965243 275.58487161 64.71684909 279.39067721 C61.37734056 281.06043148 57.62394423 280.51950727 53.95268893 280.5042026 C53.04531482 280.50434863 52.1379407 280.50449466 51.2030704 280.50464511 C48.1946184 280.50394672 45.18622781 280.49615775 42.17778659 280.48833346 C40.0955624 280.48646902 38.01333778 280.48504524 35.931113 280.48404574 C30.44348071 280.48022263 24.95587476 280.47039408 19.4682529 280.45934176 C13.87143442 280.44912324 8.2746117 280.44454718 2.67778659 280.43950534 C-8.30920417 280.42877164 -19.29617535 280.41169767 -30.28315091 280.39067721 C-30.28176822 281.3678766 -30.28176822 281.3678766 -30.2803576 282.36481738 C-30.08945013 419.60485123 -30.08945013 419.60485123 -30.49167752 462.15178561 C-30.52116491 465.29966638 -30.54156386 468.44739514 -30.55387235 471.59538913 C-30.57111239 475.82968285 -30.6198497 480.06294192 -30.67377591 484.29692721 C-30.67500958 485.49424472 -30.67624326 486.69156222 -30.67751431 487.92516208 C-30.69722791 488.99981723 -30.7169415 490.07447238 -30.73725247 491.18169284 C-30.74613492 492.10067355 -30.75501737 493.01965426 -30.76416898 493.96648288 C-31.45229538 497.18076069 -32.72944344 498.37759482 -35.28315091 500.39067721 C-38.73857833 501.17875715 -40.00516608 501.37901435 -43.28315091 500.39067721 C-47.30027825 497.77263907 -50.76044171 494.63216173 -54.28315091 491.39067721 C-55.53998685 490.25952487 -55.53998685 490.25952487 -56.82221341 489.10552096 C-58.46119271 487.63043959 -60.09533478 486.14996552 -61.72455716 484.66411471 C-65.36280215 481.43135351 -69.14094854 478.38254617 -72.93549466 475.33598971 C-75.28315091 473.39067721 -75.28315091 473.39067721 -76.84955716 471.57036471 C-78.21884459 470.1789459 -78.21884459 470.1789459 -80.18549466 470.45317721 C-82.92255029 471.6764423 -84.67048644 473.32660022 -86.84565091 475.39067721 C-90.40110967 478.69031001 -94.00571946 481.84729982 -97.78315091 484.89067721 C-102.40062531 488.62269843 -106.82161305 492.52267077 -111.18940091 496.54302096 C-114.75629511 499.690672 -117.26438867 501.03219217 -122.11127591 500.89067721 C-126.49567562 499.88131901 -129.24011187 496.52575525 -132.28315091 493.39067721 C-133.01662747 492.65720065 -133.75010404 491.92372409 -134.50580716 491.16802096 C-136.02795149 489.64587664 -137.54486937 488.1184884 -139.05658841 486.58598971 C-141.71962025 483.96033376 -144.51570698 481.53088517 -147.35346341 479.09770846 C-150.47261227 476.3384614 -153.38066313 473.37479746 -156.28315091 470.39067721 C-162.07253688 474.36885864 -166.92998571 478.92463845 -171.83783841 483.93755221 C-174.56768975 486.67612513 -177.398815 489.22693006 -180.35346341 491.71880221 C-181.7042704 492.88913701 -183.00906148 494.11374107 -184.27533841 495.37505221 C-189.89963865 500.84616139 -189.89963865 500.84616139 -194.28315091 501.26567721 C-203.56276389 500.2445615 -210.97459389 488.46211155 -216.91596341 482.01567721 C-220.59753019 478.03092259 -224.39305389 474.17204482 -228.28315091 470.39067721 C-233.05778304 473.44850489 -237.41391675 476.84506653 -241.78315091 480.45317721 C-247.18330258 484.87675263 -252.60649866 489.26537593 -258.09565091 493.57817721 C-258.67572904 494.03523044 -259.25580716 494.49228366 -259.85346341 494.96318698 C-267.54552814 500.99269177 -267.54552814 500.99269177 -273.16986966 500.82817721 C-279.19144697 499.58156601 -283.20493637 493.41535749 -286.97455716 488.94927096 C-290.89018663 484.60961394 -295.10981924 480.56295643 -299.30463529 476.49443698 C-299.94594388 475.86464938 -300.58725247 475.23486178 -301.24799466 474.58598971 C-302.12379178 473.73545016 -302.12379178 473.73545016 -303.01728177 472.86772799 C-304.28315091 471.39067721 -304.28315091 471.39067721 -304.28315091 469.39067721 C-309.46338035 472.24618631 -314.28807075 475.3870457 -319.09565091 478.82817721 C-319.81833158 479.34170749 -320.54101224 479.85523776 -321.28559232 480.38432956 C-327.70797078 484.95677629 -334.09986644 489.57206708 -340.48163724 494.20097995 C-341.19730863 494.71990817 -341.91298001 495.23883639 -342.65033841 495.77348971 C-343.28052884 496.23126803 -343.91071927 496.68904635 -344.56000638 497.16069674 C-347.86830366 499.52215916 -349.72346692 500.68287879 -353.78315091 500.70317721 C-354.55658841 500.71993503 -355.33002591 500.73669284 -356.12690091 500.75395846 C-358.81183077 500.30160615 -359.64193496 499.52726017 -361.28315091 497.39067721 C-362.44525201 493.90437391 -362.41095352 491.1901658 -362.41457868 487.50972438 C-362.41663131 486.80223904 -362.41868394 486.0947537 -362.42079878 485.36582941 C-362.42648749 482.97703057 -362.42500921 480.58828904 -362.42359281 478.19948459 C-362.42617541 476.47659437 -362.42918828 474.75370474 -362.43259621 473.03081596 C-362.44068254 468.28175045 -362.4424567 463.53270004 -362.44319367 458.78362846 C-362.44504154 453.66673969 -362.4525878 448.54985881 -362.45932889 443.43297458 C-362.47292712 432.23402189 -362.47894003 421.03507278 -362.48333955 409.83611321 C-362.48610101 402.84126053 -362.49033834 395.84640924 -362.49484372 388.85155749 C-362.50704127 369.48153592 -362.51733771 350.11151546 -362.52071881 330.74149013 C-362.52093838 329.50097532 -362.52115795 328.26046051 -362.52138416 326.98235435 C-362.52160244 325.7388633 -362.52182072 324.49537226 -362.52204561 323.21419966 C-362.52248908 320.69441223 -362.52293564 318.1746248 -362.52338529 315.65483737 C-362.52360672 314.40493495 -362.52382815 313.15503253 -362.52405629 311.86725427 C-362.52799971 291.63868511 -362.54543763 271.41015208 -362.56874481 251.18159686 C-362.5924859 230.4084004 -362.60492202 209.63522203 -362.60608673 188.86201179 C-362.60700226 177.2008812 -362.61272313 165.53979761 -362.63090634 153.87867999 C-362.64634496 143.94255231 -362.65140587 134.00648613 -362.64316824 124.07034872 C-362.63927424 119.00500898 -362.64012974 113.93979292 -362.65422559 108.87446856 C-362.66704066 104.22659804 -362.66570084 99.57894316 -362.65363488 94.93107261 C-362.65169089 93.25994013 -362.65469539 91.58879197 -362.66347924 89.91768144 C-362.78702727 64.79871799 -357.16517008 41.56159565 -339.10736966 23.08598971 C-319.46156839 4.33688476 -295.9959218 5.31133795 -270.60175443 4.81816745 C-268.21097583 4.76905553 -265.82020346 4.71963915 -263.42943692 4.66994357 C-257.61985347 4.55012643 -251.81020778 4.43382732 -246.00051523 4.31942921 C-241.24072564 4.2256798 -236.48096213 4.13069932 -231.72121358 4.03488994 C-218.09694838 3.76077043 -204.47262837 3.48965654 -190.84822381 3.22255146 C-190.11526782 3.20818188 -189.38231183 3.19381231 -188.62714505 3.17900729 C-187.89324215 3.16461972 -187.15933925 3.15023215 -186.40319686 3.13540859 C-175.39212747 2.91938008 -164.38118551 2.69761539 -153.37030911 2.47197604 C-40.92397885 0.1699253 -40.92397885 0.1699253 0 0 Z " fill="#FDFDFD" transform="translate(403.2831509113312,5.609322786331177)"/>
<path d="M0 0 C2.15120426 -0.01146245 4.30222725 -0.03010891 6.45335841 -0.05103612 C10.27574027 -0.08703151 14.09765531 -0.08927645 17.92021823 -0.08564115 C18.97949841 -0.09852862 20.0387786 -0.1114161 21.13015819 -0.12469411 C33.02331223 -0.03466489 44.39337767 4.56138459 53.16606784 12.64848971 C64.2448118 24.3315288 67.87293765 37.16783161 67.85729098 52.96846652 C67.86174767 54.38709713 67.86174767 54.38709713 67.86629438 55.83438694 C67.874944 58.99329614 67.87648642 62.15216728 67.8779819 65.31108737 C67.88261249 67.57984124 67.88763747 69.84859433 67.89302707 72.11734653 C67.90612438 78.27202983 67.91259008 84.42670224 67.91703773 90.58139729 C67.91997097 94.42565598 67.92407612 98.26991169 67.9285419 102.11416888 C67.94064198 112.76361701 67.95102857 123.41306151 67.95441699 134.06251597 C67.95463656 134.74303052 67.95485612 135.42354506 67.95508234 136.12468126 C67.95530062 136.80678024 67.9555189 137.48887923 67.95574379 138.19164789 C67.95618725 139.57374621 67.95663381 140.95584452 67.95708346 142.33794284 C67.95730489 143.02350479 67.95752632 143.70906674 67.95775446 144.41540329 C67.96170711 155.5372694 67.97917973 166.65907019 68.00244299 177.78091104 C68.02614894 189.20671879 68.03836028 200.63247901 68.03978491 212.05831444 C68.04083439 218.47082322 68.04677334 224.88323963 68.06460452 231.29572558 C68.08103744 237.32201938 68.08326398 243.34815086 68.07446551 249.37445903 C68.07369274 251.58802291 68.07806926 253.80159536 68.08792377 256.01513743 C68.10057163 259.03257198 68.09480553 262.04942525 68.08434176 265.06685519 C68.09642637 266.38606021 68.09642637 266.38606021 68.10875511 267.73191583 C68.07053063 272.43208774 67.7965243 275.58487161 64.71684909 279.39067721 C61.37734056 281.06043148 57.62394423 280.51950727 53.95268893 280.5042026 C53.04531482 280.50434863 52.1379407 280.50449466 51.2030704 280.50464511 C48.1946184 280.50394672 45.18622781 280.49615775 42.17778659 280.48833346 C40.0955624 280.48646902 38.01333778 280.48504524 35.931113 280.48404574 C30.44348071 280.48022263 24.95587476 280.47039408 19.4682529 280.45934176 C13.87143442 280.44912324 8.2746117 280.44454718 2.67778659 280.43950534 C-8.30920417 280.42877164 -19.29617535 280.41169767 -30.28315091 280.39067721 C-30.28176822 281.3678766 -30.28176822 281.3678766 -30.2803576 282.36481738 C-30.08945013 419.60485123 -30.08945013 419.60485123 -30.49167752 462.15178561 C-30.52116491 465.29966638 -30.54156386 468.44739514 -30.55387235 471.59538913 C-30.57111239 475.82968285 -30.6198497 480.06294192 -30.67377591 484.29692721 C-30.67500958 485.49424472 -30.67624326 486.69156222 -30.67751431 487.92516208 C-30.69722791 488.99981723 -30.7169415 490.07447238 -30.73725247 491.18169284 C-30.74613492 492.10067355 -30.75501737 493.01965426 -30.76416898 493.96648288 C-31.45229538 497.18076069 -32.72944344 498.37759482 -35.28315091 500.39067721 C-38.73857833 501.17875715 -40.00516608 501.37901435 -43.28315091 500.39067721 C-47.30027825 497.77263907 -50.76044171 494.63216173 -54.28315091 491.39067721 C-55.53998685 490.25952487 -55.53998685 490.25952487 -56.82221341 489.10552096 C-58.46119271 487.63043959 -60.09533478 486.14996552 -61.72455716 484.66411471 C-65.36280215 481.43135351 -69.14094854 478.38254617 -72.93549466 475.33598971 C-75.28315091 473.39067721 -75.28315091 473.39067721 -76.84955716 471.57036471 C-78.21884459 470.1789459 -78.21884459 470.1789459 -80.18549466 470.45317721 C-82.92255029 471.6764423 -84.67048644 473.32660022 -86.84565091 475.39067721 C-90.40110967 478.69031001 -94.00571946 481.84729982 -97.78315091 484.89067721 C-102.40062531 488.62269843 -106.82161305 492.52267077 -111.18940091 496.54302096 C-114.75629511 499.690672 -117.26438867 501.03219217 -122.11127591 500.89067721 C-126.49567562 499.88131901 -129.24011187 496.52575525 -132.28315091 493.39067721 C-133.01662747 492.65720065 -133.75010404 491.92372409 -134.50580716 491.16802096 C-136.02795149 489.64587664 -137.54486937 488.1184884 -139.05658841 486.58598971 C-141.71962025 483.96033376 -144.51570698 481.53088517 -147.35346341 479.09770846 C-150.47261227 476.3384614 -153.38066313 473.37479746 -156.28315091 470.39067721 C-162.07253688 474.36885864 -166.92998571 478.92463845 -171.83783841 483.93755221 C-174.56768975 486.67612513 -177.398815 489.22693006 -180.35346341 491.71880221 C-181.7042704 492.88913701 -183.00906148 494.11374107 -184.27533841 495.37505221 C-189.89963865 500.84616139 -189.89963865 500.84616139 -194.28315091 501.26567721 C-203.56276389 500.2445615 -210.97459389 488.46211155 -216.91596341 482.01567721 C-220.59753019 478.03092259 -224.39305389 474.17204482 -228.28315091 470.39067721 C-233.05778304 473.44850489 -237.41391675 476.84506653 -241.78315091 480.45317721 C-247.18330258 484.87675263 -252.60649866 489.26537593 -258.09565091 493.57817721 C-258.67572904 494.03523044 -259.25580716 494.49228366 -259.85346341 494.96318698 C-267.54552814 500.99269177 -267.54552814 500.99269177 -273.16986966 500.82817721 C-279.19144697 499.58156601 -283.20493637 493.41535749 -286.97455716 488.94927096 C-290.89018663 484.60961394 -295.10981924 480.56295643 -299.30463529 476.49443698 C-299.94594388 475.86464938 -300.58725247 475.23486178 -301.24799466 474.58598971 C-302.12379178 473.73545016 -302.12379178 473.73545016 -303.01728177 472.86772799 C-304.28315091 471.39067721 -304.28315091 471.39067721 -304.28315091 469.39067721 C-309.46338035 472.24618631 -314.28807075 475.3870457 -319.09565091 478.82817721 C-319.81833158 479.34170749 -320.54101224 479.85523776 -321.28559232 480.38432956 C-327.70797078 484.95677629 -334.09986644 489.57206708 -340.48163724 494.20097995 C-341.19730863 494.71990817 -341.91298001 495.23883639 -342.65033841 495.77348971 C-343.28052884 496.23126803 -343.91071927 496.68904635 -344.56000638 497.16069674 C-347.86830366 499.52215916 -349.72346692 500.68287879 -353.78315091 500.70317721 C-354.55658841 500.71993503 -355.33002591 500.73669284 -356.12690091 500.75395846 C-358.81183077 500.30160615 -359.64193496 499.52726017 -361.28315091 497.39067721 C-362.44525201 493.90437391 -362.41095352 491.1901658 -362.41457868 487.50972438 C-362.41663131 486.80223904 -362.41868394 486.0947537 -362.42079878 485.36582941 C-362.42648749 482.97703057 -362.42500921 480.58828904 -362.42359281 478.19948459 C-362.42617541 476.47659437 -362.42918828 474.75370474 -362.43259621 473.03081596 C-362.44068254 468.28175045 -362.4424567 463.53270004 -362.44319367 458.78362846 C-362.44504154 453.66673969 -362.4525878 448.54985881 -362.45932889 443.43297458 C-362.47292712 432.23402189 -362.47894003 421.03507278 -362.48333955 409.83611321 C-362.48610101 402.84126053 -362.49033834 395.84640924 -362.49484372 388.85155749 C-362.50704127 369.48153592 -362.51733771 350.11151546 -362.52071881 330.74149013 C-362.52093838 329.50097532 -362.52115795 328.26046051 -362.52138416 326.98235435 C-362.52160244 325.7388633 -362.52182072 324.49537226 -362.52204561 323.21419966 C-362.52248908 320.69441223 -362.52293564 318.1746248 -362.52338529 315.65483737 C-362.52360672 314.40493495 -362.52382815 313.15503253 -362.52405629 311.86725427 C-362.52799971 291.63868511 -362.54543763 271.41015208 -362.56874481 251.18159686 C-362.5924859 230.4084004 -362.60492202 209.63522203 -362.60608673 188.86201179 C-362.60700226 177.2008812 -362.61272313 165.53979761 -362.63090634 153.87867999 C-362.64634496 143.94255231 -362.65140587 134.00648613 -362.64316824 124.07034872 C-362.63927424 119.00500898 -362.64012974 113.93979292 -362.65422559 108.87446856 C-362.66704066 104.22659804 -362.66570084 99.57894316 -362.65363488 94.93107261 C-362.65169089 93.25994013 -362.65469539 91.58879197 -362.66347924 89.91768144 C-362.78702727 64.79871799 -357.16517008 41.56159565 -339.10736966 23.08598971 C-319.46156839 4.33688476 -295.9959218 5.31133795 -270.60175443 4.81816745 C-268.21097583 4.76905553 -265.82020346 4.71963915 -263.42943692 4.66994357 C-257.61985347 4.55012643 -251.81020778 4.43382732 -246.00051523 4.31942921 C-241.24072564 4.2256798 -236.48096213 4.13069932 -231.72121358 4.03488994 C-218.09694838 3.76077043 -204.47262837 3.48965654 -190.84822381 3.22255146 C-190.11526782 3.20818188 -189.38231183 3.19381231 -188.62714505 3.17900729 C-187.89324215 3.16461972 -187.15933925 3.15023215 -186.40319686 3.13540859 C-175.39212747 2.91938008 -164.38118551 2.69761539 -153.37030911 2.47197604 C-40.92397885 0.1699253 -40.92397885 0.1699253 0 0 Z M-125.65033841 18.01177096 C-126.3881621 18.02755836 -127.12598578 18.04334576 -127.88616776 18.05961156 C-137.0106315 18.25560128 -146.1348744 18.46092967 -155.25904036 18.67028177 C-167.4399641 18.9497214 -179.62110457 19.21946609 -191.80229902 19.48681676 C-196.30366611 19.58578446 -200.80497432 19.68705853 -205.30625391 19.7899245 C-220.38497597 20.13320157 -235.46195021 20.42641033 -250.54389 20.58190548 C-252.82624484 20.60579589 -255.10857358 20.63141386 -257.39090276 20.6576345 C-258.88095573 20.67462888 -260.3710089 20.6916054 -261.86106229 20.70856357 C-262.588754 20.71688262 -263.31644572 20.72520167 -264.06618869 20.73377281 C-268.30237421 20.78073822 -272.53840048 20.81444524 -276.7747786 20.83775258 C-279.99268719 20.85891991 -283.21039623 20.89810701 -286.42817044 20.9338901 C-287.55883561 20.93531323 -288.68950078 20.93673636 -289.85442853 20.93820262 C-305.50119206 21.15474222 -318.30965189 25.66866614 -329.67377591 36.53520846 C-340.57721444 48.46696529 -346.41118852 64.3413512 -346.40619874 80.43838191 C-346.40735258 81.12740794 -346.40850643 81.81643398 -346.40969524 82.52633959 C-346.41234116 84.83411975 -346.40785645 87.14183008 -346.40340543 89.44960666 C-346.40384154 91.1212045 -346.40471719 92.79280228 -346.40599459 94.4643997 C-346.40823162 99.05708815 -346.40422906 103.64975331 -346.39921653 108.24243879 C-346.39490089 113.19534484 -346.39635925 118.14824955 -346.39711881 123.10115695 C-346.39764333 131.68217793 -346.39450396 140.26319132 -346.38888097 148.84421039 C-346.38075634 161.25094714 -346.37814976 173.65768022 -346.37689298 186.06441934 C-346.37470398 206.19319358 -346.36804799 226.32196377 -346.35859036 246.45073581 C-346.34941233 266.00477206 -346.34233341 285.55880721 -346.33808255 305.11284518 C-346.33781983 306.31801505 -346.3375571 307.52318493 -346.33728642 308.7648751 C-346.33598139 314.81081607 -346.33471768 320.85675705 -346.33347452 326.90269804 C-346.32310663 377.06536056 -346.30549243 427.22801869 -346.28315091 477.39067721 C-343.61724067 476.08113822 -341.19075077 474.71788883 -338.77143216 472.99223971 C-337.7705557 472.28116061 -337.7705557 472.28116061 -336.74945951 471.55571628 C-336.03870267 471.04750339 -335.32794583 470.53929049 -334.59565091 470.01567721 C-333.85395658 469.49199557 -333.11226224 468.96831393 -332.34809232 468.42876315 C-328.40655584 465.64171757 -324.49928942 462.81739934 -320.63080716 459.92973971 C-319.88081449 459.37850436 -319.13082181 458.82726901 -318.35810208 458.25932956 C-316.92236392 457.20296023 -315.49616356 456.13346744 -314.08124661 455.04936862 C-310.7267185 452.59992629 -308.73911226 451.45350279 -304.54096341 450.87505221 C-301.05956669 451.42606464 -299.78054705 451.97939818 -297.28315091 454.39067721 C-296.60381497 455.04036471 -295.92447904 455.69005221 -295.22455716 456.35942721 C-292.90594606 458.78533823 -290.72238424 461.29707721 -288.55658841 463.85942721 C-283.07754422 469.95980631 -277.11611319 475.6308379 -271.28315091 481.39067721 C-266.84407755 479.94899651 -263.78009825 477.50290727 -260.34565091 474.45317721 C-253.99056157 468.94261802 -247.45400706 463.71552111 -240.79584622 458.57720065 C-239.46562959 457.5338093 -238.1647478 456.45324548 -236.86908841 455.36723971 C-233.63081818 452.70410628 -231.79612894 451.48631719 -227.59565091 450.70317721 C-223.37915412 451.57829919 -222.20592761 453.28510634 -219.28315091 456.39067721 C-217.70945371 457.9537025 -216.13522583 459.51619364 -214.56049466 461.07817721 C-212.78047908 462.84894253 -211.00053312 464.61977783 -209.22065091 466.39067721 C-208.32281888 467.28013034 -207.42498685 468.16958346 -206.49994779 469.08598971 C-205.63305326 469.94966159 -204.76615872 470.81333346 -203.87299466 471.70317721 C-203.08787503 472.48306003 -202.3027554 473.26294284 -201.49384427 474.06645846 C-199.26880516 476.40575966 -197.26192868 478.84141812 -195.28315091 481.39067721 C-192.39255715 480.07451609 -190.25752798 478.63823484 -187.96283841 476.44927096 C-187.04329373 475.57999972 -187.04329373 475.57999972 -186.1051724 474.69316745 C-185.46265531 474.07772067 -184.82013822 473.46227389 -184.15815091 472.82817721 C-182.81370902 471.55669837 -181.46865585 470.28586556 -180.12299466 469.01567721 C-179.46798978 468.39563815 -178.8129849 467.77559909 -178.13813138 467.13677096 C-174.926042 464.11323013 -171.65778514 461.15706161 -168.35346341 458.23442721 C-167.07371807 457.09472948 -165.81362456 455.93196944 -164.58783841 454.73442721 C-162.0711303 452.36266041 -160.30807036 451.39621487 -156.90815091 450.64067721 C-151.5880671 451.74138421 -149.03508704 454.59415101 -145.28315091 458.39067721 C-144.31878946 459.35470159 -143.35391353 460.31821149 -142.38861966 461.28130221 C-140.82988288 462.83979193 -139.27355844 464.40037932 -137.72382474 465.96782565 C-134.24920893 469.47284781 -130.66623411 472.78613341 -126.90815091 475.98833346 C-124.93218028 477.69355812 -123.09022442 479.50830897 -121.28315091 481.39067721 C-116.98870073 479.98228226 -114.41268612 477.93212945 -111.15815091 474.82817721 C-106.59345114 470.56942247 -101.9264811 466.54284136 -97.04877591 462.64067721 C-95.12849437 461.07841427 -93.24495281 459.47032863 -91.39252591 457.82817721 C-89.97713529 456.59067721 -89.97713529 456.59067721 -88.53315091 455.32817721 C-87.27244779 454.19702487 -87.27244779 454.19702487 -85.98627591 453.04302096 C-82.44141928 450.87615051 -80.3753932 450.81584719 -76.28315091 451.39067721 C-73.54486966 453.04302096 -73.54486966 453.04302096 -70.97065091 455.32817721 C-70.03221341 456.1467319 -69.09377591 456.96528659 -68.12690091 457.80864596 C-66.71924466 459.08675143 -66.71924466 459.08675143 -65.28315091 460.39067721 C-64.38596341 461.19118503 -63.48877591 461.99169284 -62.56440091 462.81645846 C-60.87603391 464.32937769 -59.19218585 465.84736013 -57.51361966 467.37114596 C-52.95809011 472.16042996 -52.95809011 472.16042996 -47.28315091 474.39067721 C-47.2816857 473.02579426 -47.2816857 473.02579426 -47.28019089 471.63333791 C-47.22192041 417.70541362 -47.14812477 363.77752961 -47.05416463 309.84965507 C-47.04289645 303.37464116 -47.031758 296.89962703 -47.02069974 290.42461276 C-47.01849606 289.13555259 -47.01629237 287.84649243 -47.01402191 286.51836983 C-46.97864837 265.6453934 -46.95378454 244.77241701 -46.93280389 223.89942171 C-46.91104232 202.48221958 -46.87798846 181.06505634 -46.83444935 159.64788729 C-46.80793886 146.43209309 -46.79023903 133.21634737 -46.78380487 120.0005279 C-46.77854918 110.93826822 -46.762326 101.87606955 -46.73748525 92.81384256 C-46.72347662 87.58523709 -46.71429711 82.35674082 -46.71814275 77.12811542 C-46.72155904 72.33793494 -46.71115304 67.54798746 -46.6899154 62.75785468 C-46.68465768 61.0282033 -46.68440187 59.29852767 -46.68975528 57.56887659 C-46.72085145 46.37900997 -46.14323682 36.03340744 -40.72065091 25.95317721 C-40.30686185 25.17071628 -39.89307279 24.38825534 -39.46674466 23.58208346 C-39.07615872 22.8589194 -38.68557279 22.13575534 -38.28315091 21.39067721 C-37.61374656 20.05871624 -36.94666695 18.72558121 -36.28315091 17.39067721 C-66.08300612 17.21744245 -95.85777334 17.37301156 -125.65033841 18.01177096 Z " fill="#020202" transform="translate(403.2831509113312,5.609322786331177)"/>
<path d="M0 0 C2.29912362 0.03221018 4.59122444 0.00015573 6.89013672 -0.03808594 C17.29264659 -0.06734875 25.62019284 1.66652093 33.8996582 8.52001953 C44.95178808 19.86720561 44.5016396 33.77021498 44.36791992 48.5234375 C44.36650769 50.71237149 44.36730485 52.90130785 44.37013245 55.09024048 C44.37156113 61.00277459 44.34225969 66.91479671 44.30726266 72.82721233 C44.27590792 79.01712605 44.27306123 85.20705281 44.26713562 91.39703369 C44.25162398 103.10526547 44.21063163 114.81326252 44.16038817 126.52139115 C44.10441136 139.85633352 44.07698724 153.19126812 44.051911 166.52630186 C43.99971347 193.94510335 43.90805501 221.36358327 43.80029297 248.78222656 C16.41029297 248.78222656 -10.97970703 248.78222656 -39.19970703 248.78222656 C-39.29003072 219.87934127 -39.36370281 190.97657041 -39.40695572 162.07357979 C-39.41103504 159.40094108 -39.41520032 156.72830253 -39.41943359 154.05566406 C-39.42048284 153.39138007 -39.42153208 152.72709608 -39.42261311 152.04268228 C-39.43891988 141.96591393 -39.46699447 131.88922132 -39.50146484 121.8125 C-39.54135683 110.11415286 -39.56714565 98.41587378 -39.57606101 86.71746051 C-39.58127169 80.52429393 -39.59350248 74.33132206 -39.62262726 68.13821793 C-39.64983342 62.30568138 -39.65814138 56.47341925 -39.65213776 50.64082527 C-39.65323565 48.50353439 -39.66115829 46.36623407 -39.67652893 44.22899818 C-39.69653801 41.3025702 -39.69160629 38.37716765 -39.6807251 35.45071411 C-39.69237646 34.61216106 -39.70402783 33.773608 -39.71603227 32.90964425 C-39.6233724 23.64030357 -36.19599993 15.55654046 -29.66259766 8.98242188 C-20.76997589 1.03829942 -11.39373972 -0.18953118 0 0 Z " fill="#FDC608" transform="translate(411.19970703125,21.2177734375)"/>
<path d="M0 0 C1.01922295 -0.00717545 1.01922295 -0.00717545 2.05903625 -0.01449585 C3.49372681 -0.01788685 4.92849547 -0.00873989 6.36303711 0.01220703 C8.5283464 0.0387871 10.6883752 0.01255222 12.85351562 -0.01953125 C21.98204443 -0.04273464 29.72383058 1.0305441 36.75805664 7.37231445 C43.27169998 14.14572011 44.33845407 21.60347067 44.37084961 30.65332031 C44.19655527 36.14584305 42.84411208 39.9968328 39.859375 44.55078125 C38.54868742 47.33149491 38.96007748 48.77475618 39.86328125 51.6640625 C40.35828125 52.4890625 40.85328125 53.3140625 41.36328125 54.1640625 C45.27083201 60.6766471 44.51225496 69.3216041 43.86328125 76.6640625 C41.79778444 83.97051617 37.25295254 89.59685763 30.86328125 93.6640625 C26.28013098 95.4979124 22.08665899 95.99651677 17.19921875 96.03515625 C16.48472565 96.04418472 15.77023254 96.0532132 15.03408813 96.06251526 C13.53318429 96.07694367 12.0322186 96.08588594 10.53125 96.08959961 C8.23721692 96.10156805 5.94581606 96.15087643 3.65234375 96.20117188 C2.18881512 96.21062981 0.7252701 96.21786786 -0.73828125 96.22265625 C-1.4206485 96.24218857 -2.10301575 96.26172089 -2.80606079 96.28184509 C-6.1892679 96.24976758 -7.80482702 95.97170718 -10.31513977 93.64479065 C-12.63199755 89.85361646 -12.70675666 86.68472892 -12.67016602 82.37304688 C-12.67878159 81.55129471 -12.68739716 80.72954254 -12.6962738 79.88288879 C-12.71892447 77.17420707 -12.71219726 74.46656061 -12.703125 71.7578125 C-12.70836072 69.8712127 -12.714637 67.98461552 -12.72190857 66.09802246 C-12.73231088 62.14709135 -12.72775332 58.19652045 -12.71313477 54.24560547 C-12.69594052 49.18449324 -12.71945083 44.12451561 -12.75462437 39.06352997 C-12.77659167 35.1686858 -12.77515863 31.27411345 -12.76685905 27.37922668 C-12.7660393 25.51331843 -12.77290741 23.64739027 -12.78763008 21.78153992 C-12.80506562 19.17201092 -12.7905437 16.56452517 -12.76782227 13.95507812 C-12.77951447 13.18609695 -12.79120667 12.41711578 -12.80325317 11.62483215 C-12.73307674 7.66040796 -12.27865401 5.84543382 -9.806427 2.68630981 C-6.3616229 0.07694385 -4.2944103 0.01936288 0 0 Z " fill="#040404" transform="translate(113.13671875,79.3359375)"/>
<path d="M0 0 C1.14397247 -0.0112793 2.28794495 -0.02255859 3.46658325 -0.03417969 C4.71245209 -0.02608276 5.95832092 -0.01798584 7.24194336 -0.00964355 C8.56112762 -0.01665283 9.88031189 -0.02366211 11.23947144 -0.03088379 C14.85111614 -0.04909502 18.46230299 -0.04205907 22.07395554 -0.02936745 C25.85660775 -0.01922822 29.63922122 -0.02863568 33.421875 -0.03491211 C39.77375311 -0.04218586 46.12544508 -0.03260809 52.47729492 -0.0135498 C59.81706058 0.00821858 67.15638177 0.001167 74.49613667 -0.02085543 C80.80203457 -0.03901732 87.1077988 -0.04156394 93.41371441 -0.03110075 C97.17815624 -0.0248701 100.94238927 -0.02401822 104.70681763 -0.0372467 C108.90368907 -0.0509651 113.09979634 -0.03194277 117.29663086 -0.00964355 C119.16543411 -0.02178894 119.16543411 -0.02178894 121.07199097 -0.03417969 C122.78794968 -0.01726074 122.78794968 -0.01726074 124.53857422 0 C125.53038193 0.0015081 126.52218964 0.0030162 127.54405212 0.00457001 C131.03194241 0.64880083 132.73458478 2.07780928 135.26928711 4.50793457 C135.93334961 6.50793457 135.93334961 6.50793457 135.89428711 8.50793457 C135.90717773 9.16793457 135.92006836 9.82793457 135.93334961 10.50793457 C134.90209534 13.61382978 132.9352328 14.70321876 130.26928711 16.50793457 C127.54405212 17.01129913 127.54405212 17.01129913 124.53857422 17.01586914 C122.82261551 17.03278809 122.82261551 17.03278809 121.07199097 17.05004883 C119.82612213 17.0419519 118.5802533 17.03385498 117.29663086 17.0255127 C115.97744659 17.03252197 114.65826233 17.03953125 113.29910278 17.04675293 C109.68745808 17.06496417 106.07627123 17.05792821 102.46461868 17.04523659 C98.68196647 17.03509736 94.899353 17.04450482 91.11669922 17.05078125 C84.76482111 17.058055 78.41312914 17.04847723 72.0612793 17.02941895 C64.72151364 17.00765056 57.38219244 17.01470214 50.04243755 17.03672457 C43.73653965 17.05488646 37.43077542 17.05743308 31.12485981 17.04696989 C27.36041798 17.04073924 23.59618494 17.03988736 19.83175659 17.05311584 C15.63488515 17.06683424 11.43877788 17.04781191 7.24194336 17.0255127 C5.99607452 17.03360962 4.75020569 17.04170654 3.46658325 17.05004883 C2.32261078 17.03876953 1.17863831 17.02749023 0 17.01586914 C-0.99180771 17.01436104 -1.98361542 17.01285294 -3.00547791 17.01129913 C-6.49336819 16.36706831 -8.19601056 14.93805986 -10.73071289 12.50793457 C-11.39477539 10.50793457 -11.39477539 10.50793457 -11.35571289 8.50793457 C-11.36860352 7.84793457 -11.38149414 7.18793457 -11.39477539 6.50793457 C-9.66198475 1.28917688 -4.99300424 0.00759216 0 0 Z " fill="#050505" transform="translate(190.730712890625,231.4920654296875)"/>
<path d="M0 0 C0.66 -0.01289062 1.32 -0.02578125 2 -0.0390625 C5.1811159 1.01716739 6.20712568 2.83808223 8 5.625 C8.36707205 8.43047422 8.50849277 10.83154014 8.45410156 13.62817383 C8.45468567 14.41894318 8.45526978 15.20971252 8.45587158 16.02444458 C8.45309404 18.62742647 8.42201885 21.22925045 8.390625 23.83203125 C8.38316141 25.64091873 8.37746903 27.44981431 8.37347412 29.25871277 C8.35822706 34.01165222 8.31895331 38.76410003 8.2746582 43.5168457 C8.23368544 48.36988678 8.21545883 53.22300756 8.1953125 58.07617188 C8.15245811 67.59266351 8.08421804 77.10879082 8 86.625 C8.76143311 86.60928955 9.52286621 86.5935791 10.30737305 86.57739258 C13.7673394 86.51491547 17.2271869 86.47596828 20.6875 86.4375 C21.88568359 86.41236328 23.08386719 86.38722656 24.31835938 86.36132812 C25.47529297 86.35166016 26.63222656 86.34199219 27.82421875 86.33203125 C28.88729248 86.3163208 29.95036621 86.30061035 31.0456543 86.28442383 C34.42477331 86.67396775 36.27990964 87.61704546 39 89.625 C40.44430855 92.51361709 40.37688506 94.42147701 40 97.625 C38.02302269 100.27793358 36.42627743 102.27696651 33.10690308 103.08694458 C30.83645995 103.26989099 28.61736125 103.29199144 26.33984375 103.25390625 C25.09951134 103.25752419 25.09951134 103.25752419 23.8341217 103.26121521 C22.0917581 103.26023855 20.34936277 103.24688811 18.60717773 103.22192383 C15.94212474 103.18755963 13.28037959 103.20128539 10.61523438 103.22070312 C8.91925674 103.21380569 7.22328765 103.20413423 5.52734375 103.19140625 C4.73247055 103.19636612 3.93759735 103.20132599 3.11863708 103.20643616 C-0.49082019 103.12964335 -2.5726937 102.955435 -5.47045898 100.71459961 C-8.46583082 96.62243879 -8.16120249 93.03519349 -8.17700195 88.1237793 C-8.18357315 87.24394379 -8.19014435 86.36410828 -8.19691467 85.45761108 C-8.21666879 82.53814616 -8.22831474 79.61873272 -8.23828125 76.69921875 C-8.24235678 75.70333048 -8.2464323 74.70744221 -8.25063133 73.6813755 C-8.27150073 68.41071402 -8.28579889 63.14007865 -8.29516602 57.86938477 C-8.30623447 52.42167658 -8.34063702 46.97437642 -8.38033772 41.52681255 C-8.40646593 37.3412245 -8.41485446 33.15573423 -8.41844749 28.97007179 C-8.42332299 26.96180273 -8.43496426 24.95353831 -8.45348549 22.94534874 C-8.47779695 20.13470377 -8.47692658 17.32512192 -8.4699707 14.5144043 C-8.48278076 13.68460556 -8.49559082 12.85480682 -8.50878906 11.99986267 C-8.47271482 8.00129803 -8.28539081 6.07669289 -6.09562683 2.61091614 C-3.84844593 0.48138012 -3.04274804 -0.05942867 0 0 Z " fill="#060606" transform="translate(285,76.375)"/>
<path d="M0 0 C3.59053193 2.71905211 4.86621314 4.18199037 5.60127258 8.67634583 C5.61567227 10.11859355 5.60268085 11.56128026 5.56762695 13.00317383 C5.56835709 13.79394318 5.56908722 14.58471252 5.56983948 15.39944458 C5.56636721 18.00268115 5.5275257 20.60410889 5.48828125 23.20703125 C5.47895178 25.01591515 5.4718363 26.82481171 5.46684265 28.63371277 C5.44778331 33.38678072 5.39869187 38.13908053 5.34332275 42.8918457 C5.2921072 47.74484873 5.2693237 52.59797629 5.24414062 57.45117188 C5.19057195 66.96778477 5.10527214 76.48382842 5 86 C5.76666992 85.98952637 6.53333984 85.97905273 7.32324219 85.96826172 C10.79879474 85.92667301 14.27429491 85.90066449 17.75 85.875 C18.9565625 85.85824219 20.163125 85.84148437 21.40625 85.82421875 C22.56640625 85.81777344 23.7265625 85.81132812 24.921875 85.8046875 C25.99018555 85.79421387 27.05849609 85.78374023 28.15917969 85.77294922 C31.04043048 86.00323138 32.61903435 86.39647893 35 88 C37.32579101 91.48868651 37.41865457 92.89718519 37 97 C35.22015595 100.1359157 34.47691793 100.84102736 31 102 C25.74880951 102.27689497 20.49804115 102.31339221 15.24023438 102.35009766 C13.50018955 102.36666642 11.76021305 102.39396889 10.02050781 102.43212891 C7.50550214 102.48696881 4.99208593 102.5087786 2.4765625 102.5234375 C1.70245026 102.54610687 0.92833801 102.56877625 0.13076782 102.59213257 C-3.58428486 102.57764244 -5.67827578 102.23444167 -8.70533752 100.02861023 C-11.82146814 95.91578529 -11.7006458 92.98671957 -11.63110352 87.95874023 C-11.64183647 86.6066597 -11.64183647 86.6066597 -11.65278625 85.2272644 C-11.66966706 82.25385547 -11.65027575 79.28195541 -11.62890625 76.30859375 C-11.62973493 74.24023819 -11.63219428 72.1718827 -11.63621521 70.10353088 C-11.6390727 65.77169947 -11.62437517 61.44038526 -11.59692383 57.10864258 C-11.56282011 51.55431783 -11.56886696 46.00091663 -11.5875864 40.44654751 C-11.59815048 36.17686759 -11.58922426 31.90740289 -11.57420158 27.637743 C-11.56901642 25.58960674 -11.56950562 23.54144805 -11.57574654 21.49331474 C-11.58119236 18.63233907 -11.56084465 15.77268979 -11.53344727 12.91186523 C-11.53997314 12.06448288 -11.54649902 11.21710052 -11.55322266 10.34403992 C-11.49150556 6.55699871 -11.4424454 4.61356968 -9.1815033 1.47816467 C-5.92832349 -0.72615722 -3.83745492 -0.60591393 0 0 Z " fill="#060606" transform="translate(224,77)"/>
<path d="M0 0 C4.10182128 0.67120712 5.02880916 1.22220159 7.4375 4.5625 C8.03462023 7.53063926 7.99420137 10.45482994 7.97094727 13.47436523 C7.97956284 14.37399994 7.98817841 15.27363464 7.99705505 16.20053101 C8.01975749 19.17434462 8.01296802 22.14721909 8.00390625 25.12109375 C8.00914016 27.1884845 8.01541579 29.25587286 8.02268982 31.32325745 C8.03310211 35.65678135 8.02852089 39.98997706 8.01391602 44.32348633 C7.9967325 49.87671073 8.02021418 55.42890006 8.05540562 60.98200893 C8.07736802 65.25172278 8.07594081 69.52118856 8.0676403 73.79094124 C8.06682005 75.83826901 8.0736976 77.88561487 8.08841133 79.93288994 C8.10583437 82.79631999 8.09133313 85.65788518 8.06860352 88.52124023 C8.08029572 89.36659836 8.09198792 90.21195648 8.10403442 91.08293152 C8.03445063 95.39197651 7.82022583 97.07071977 5.08555603 100.58460999 C2.4375 102.5625 2.4375 102.5625 -0.5625 103.25 C-4.00825053 102.46034884 -5.35053477 101.17075569 -7.51179123 98.42457771 C-9.45785163 94.97574793 -9.25722328 91.48288905 -9.20947266 87.60717773 C-9.21823425 86.72675812 -9.22699585 85.8463385 -9.23602295 84.9392395 C-9.25795587 82.04101686 -9.24348731 79.14433077 -9.2265625 76.24609375 C-9.22993209 74.22640186 -9.2347859 72.20671194 -9.24105835 70.18702698 C-9.24842115 65.95953007 -9.23774195 61.73256225 -9.21435547 57.50512695 C-9.18584999 52.08867825 -9.20228697 46.67346731 -9.23221779 41.25706387 C-9.25029105 37.0885537 -9.24453287 32.92033673 -9.23157883 28.7518177 C-9.22824585 26.75473954 -9.23232806 24.75763467 -9.24397659 22.76058769 C-9.2566877 19.96915086 -9.23730587 17.17971558 -9.20947266 14.38842773 C-9.21959381 13.56491318 -9.22971497 12.74139862 -9.24014282 11.89292908 C-9.16202825 7.66068163 -8.91020036 6.01501315 -6.24472046 2.54603577 C-3.5625 0.5625 -3.5625 0.5625 0 0 Z " fill="#070707" transform="translate(183.5625,76.4375)"/>
<path d="M0 0 C1.00029488 -0.00503792 1.00029488 -0.00503792 2.02079773 -0.01017761 C4.23084361 -0.01969581 6.44081379 -0.02163124 8.65087891 -0.02270508 C10.1854353 -0.02591736 11.71999138 -0.02928142 13.25454712 -0.03279114 C16.47423004 -0.03878479 19.69388611 -0.04063083 22.91357422 -0.04003906 C27.03848443 -0.0399375 31.16322229 -0.05358284 35.28809166 -0.07081127 C38.45881948 -0.08193303 41.62950568 -0.08395821 44.80025101 -0.08342934 C46.32088438 -0.08460945 47.84151883 -0.089033 49.36213303 -0.0967617 C51.4902424 -0.10656403 53.61797831 -0.10368264 55.74609375 -0.09765625 C56.95695648 -0.09908127 58.16781921 -0.10050629 59.41537476 -0.10197449 C62.41442831 0.13821485 64.04727217 0.45489538 66.50244141 2.14526367 C68.84793815 5.66350878 69.08235543 7.00302061 68.50244141 11.14526367 C65.89344056 14.47095368 64.3953973 15.97386221 60.19468689 16.78018188 C58.31083031 16.78614883 58.31083031 16.78614883 56.38891602 16.79223633 C55.34407295 16.80537872 55.34407295 16.80537872 54.27812195 16.81878662 C51.98636733 16.8407105 49.69655773 16.8262572 47.40478516 16.80932617 C45.80725231 16.81269601 44.20972196 16.81755003 42.61219788 16.82382202 C39.26896686 16.83118342 35.92640502 16.82051096 32.58325195 16.79711914 C28.29989696 16.76860757 24.01810674 16.78505339 19.73480892 16.81498146 C16.43787354 16.83305519 13.14130885 16.82729671 9.84436226 16.8143425 C8.26512021 16.81100984 6.68584437 16.81509074 5.10664177 16.82674026 C2.89904578 16.83945423 0.69397988 16.82007188 -1.51342773 16.79223633 C-3.39609093 16.78626938 -3.39609093 16.78626938 -5.31678772 16.78018188 C-8.49755859 16.14526367 -8.49755859 16.14526367 -10.90281677 13.79623413 C-12.85364074 10.55334138 -13.13118434 8.86781493 -12.49755859 5.14526367 C-8.63037726 0.37574002 -5.96901702 0.0188152 0 0 Z " fill="#070707" transform="translate(192.49755859375,389.854736328125)"/>
<path d="M0 0 C1.00029488 -0.00503792 1.00029488 -0.00503792 2.02079773 -0.01017761 C4.23084361 -0.01969581 6.44081379 -0.02163124 8.65087891 -0.02270508 C10.1854353 -0.02591736 11.71999138 -0.02928142 13.25454712 -0.03279114 C16.47423004 -0.03878479 19.69388611 -0.04063083 22.91357422 -0.04003906 C27.03848443 -0.0399375 31.16322229 -0.05358284 35.28809166 -0.07081127 C38.45881948 -0.08193303 41.62950568 -0.08395821 44.80025101 -0.08342934 C46.32088438 -0.08460945 47.84151883 -0.089033 49.36213303 -0.0967617 C51.4902424 -0.10656403 53.61797831 -0.10368264 55.74609375 -0.09765625 C56.95695648 -0.09908127 58.16781921 -0.10050629 59.41537476 -0.10197449 C62.41442831 0.13821485 64.04727217 0.45489538 66.50244141 2.14526367 C68.84793815 5.66350878 69.08235543 7.00302061 68.50244141 11.14526367 C65.89344056 14.47095368 64.3953973 15.97386221 60.19468689 16.78018188 C58.31083031 16.78614883 58.31083031 16.78614883 56.38891602 16.79223633 C55.34407295 16.80537872 55.34407295 16.80537872 54.27812195 16.81878662 C51.98636733 16.8407105 49.69655773 16.8262572 47.40478516 16.80932617 C45.80725231 16.81269601 44.20972196 16.81755003 42.61219788 16.82382202 C39.26896686 16.83118342 35.92640502 16.82051096 32.58325195 16.79711914 C28.29989696 16.76860757 24.01810674 16.78505339 19.73480892 16.81498146 C16.43787354 16.83305519 13.14130885 16.82729671 9.84436226 16.8143425 C8.26512021 16.81100984 6.68584437 16.81509074 5.10664177 16.82674026 C2.89904578 16.83945423 0.69397988 16.82007188 -1.51342773 16.79223633 C-3.39609093 16.78626938 -3.39609093 16.78626938 -5.31678772 16.78018188 C-8.49755859 16.14526367 -8.49755859 16.14526367 -10.90281677 13.79623413 C-12.85364074 10.55334138 -13.13118434 8.86781493 -12.49755859 5.14526367 C-8.63037726 0.37574002 -5.96901702 0.0188152 0 0 Z " fill="#070707" transform="translate(192.49755859375,340.854736328125)"/>
<path d="M0 0 C1.04221458 -0.01292336 1.04221458 -0.01292336 2.10548401 -0.02610779 C4.39760817 -0.04877267 6.68851008 -0.04202847 8.98071289 -0.03295898 C10.57727929 -0.03819473 12.17384258 -0.04447103 13.770401 -0.05174255 C17.1153113 -0.0621479 20.45979623 -0.05758422 23.8046875 -0.04296875 C28.08680853 -0.02578781 32.36758689 -0.04926536 36.64955807 -0.08445835 C39.94650631 -0.10644305 43.24313386 -0.1049883 46.54013252 -0.09669304 C48.11856114 -0.09587395 49.6970134 -0.10272941 51.27537346 -0.11746407 C53.48519697 -0.13492996 55.69261601 -0.12035527 57.90234375 -0.09765625 C59.15824814 -0.09669449 60.41415253 -0.09573273 61.70811462 -0.09474182 C65.92231931 0.7055949 67.43724793 2.16230533 70.01586914 5.53344727 C70.01586914 8.98049704 69.82735453 11.31899496 67.88951111 14.21913147 C65.00946869 16.23941352 62.52202308 15.92277021 59.03759766 15.9375 C58.3315741 15.94436325 57.62555054 15.9512265 56.89813232 15.95829773 C54.56347562 15.97660417 52.22948849 15.9727229 49.89477539 15.96704102 C48.27196534 15.97160118 46.64915722 15.97690626 45.02635193 15.98292542 C41.62425901 15.99186417 38.22240074 15.98942503 34.8203125 15.97949219 C30.4609069 15.96800455 26.10231156 15.98820627 21.74301243 16.01740932 C18.39123897 16.03575831 15.03966012 16.03548147 11.68784904 16.0297718 C10.08068646 16.02961841 8.47351082 16.03567763 6.86639595 16.04806328 C4.61825935 16.06294683 2.37162484 16.05231761 0.12353516 16.03515625 C-1.79482399 16.034907 -1.79482399 16.034907 -3.75193787 16.03465271 C-6.98413086 15.53344727 -6.98413086 15.53344727 -9.39710999 13.72084045 C-11.71580077 10.52498556 -11.53370987 8.38050033 -10.98413086 4.53344727 C-7.82111226 0.19889547 -5.20469174 0.0257043 0 0 Z " fill="#010101" transform="translate(190.984130859375,286.466552734375)"/>
<path d="M0 0 C1.02665268 0.00233139 2.05330536 0.00466278 3.11106873 0.00706482 C5.2771742 0.0167915 7.44325462 0.03855358 9.60913086 0.0715332 C12.92535028 0.12097086 16.24008582 0.13301684 19.55664062 0.13867188 C21.66277621 0.15275729 23.76889891 0.16896149 25.875 0.1875 C27.36260582 0.19554405 27.36260582 0.19554405 28.88026428 0.20375061 C29.80479904 0.21973801 30.7293338 0.2357254 31.68188477 0.25219727 C32.89836449 0.26815697 32.89836449 0.26815697 34.13941956 0.28443909 C36.65719775 0.59374079 38.23554503 1.19660045 40.37109375 2.55859375 C42.69688476 6.04728026 42.78974832 7.45577894 42.37109375 11.55859375 C40.5912497 14.69450945 39.84801168 15.39962111 36.37109375 16.55859375 C34.8485507 16.66957102 33.32180152 16.72732582 31.79541016 16.75146484 C30.87079987 16.76752777 29.94618958 16.7835907 28.99356079 16.80014038 C24.77533796 16.84467101 20.55727003 16.88563662 16.33886719 16.90869141 C14.11382602 16.92526709 11.88883843 16.95257805 9.6640625 16.99072266 C6.45414646 17.04545877 3.24547595 17.06735877 0.03515625 17.08203125 C-1.4541188 17.11603531 -1.4541188 17.11603531 -2.97348022 17.15072632 C-7.67993415 17.1363173 -9.897556 17.1070208 -13.75634766 14.21337891 C-15.62890625 11.55859375 -15.62890625 11.55859375 -16.25390625 8.55859375 C-14.40483136 -0.31696574 -7.51219826 -0.14825576 0 0 Z " fill="#060606" transform="translate(115.62890625,231.44140625)"/>
<path d="M0 0 C1.53642151 -0.00929787 1.53642151 -0.00929787 3.10388184 -0.01878357 C5.26569673 -0.02587557 7.4275663 -0.0227186 9.58935547 -0.01000977 C12.89522819 0.00386001 16.1982723 -0.03023069 19.50390625 -0.06835938 C21.60677153 -0.06931056 23.70964034 -0.06745177 25.8125 -0.0625 C27.29236389 -0.08238731 27.29236389 -0.08238731 28.80212402 -0.10267639 C33.45887544 -0.03954372 35.70039022 0.04280529 39.52929688 2.88305664 C41.40625 5.56640625 41.40625 5.56640625 42.03125 9.12890625 C41.40625 12.56640625 41.40625 12.56640625 39.54296875 14.74584961 C34.94715577 17.4132669 30.8215868 17.15852463 25.59375 17.1328125 C24.02403442 17.14211037 24.02403442 17.14211037 22.42260742 17.15159607 C20.21371388 17.15868879 18.00476682 17.15552985 15.79589844 17.14282227 C12.41761921 17.12895293 9.04210805 17.16304217 5.6640625 17.20117188 C3.51562432 17.20212306 1.36718268 17.20026428 -0.78125 17.1953125 C-2.29392456 17.21519981 -2.29392456 17.21519981 -3.8371582 17.23548889 C-8.55269485 17.17291441 -10.86804732 17.09709311 -14.76171875 14.24975586 C-16.59375 11.56640625 -16.59375 11.56640625 -16.71875 8.00390625 C-13.97694548 -0.3738298 -7.63538822 -0.03838582 0 0 Z " fill="#080808" transform="translate(114.59375,340.43359375)"/>
<path d="M0 0 C1.50312744 -0.00218285 1.50312744 -0.00218285 3.03662109 -0.00440979 C5.15139682 -0.00275273 7.26618484 0.00878683 9.38085938 0.02954102 C12.61380352 0.05849348 15.84510696 0.05014574 19.078125 0.03710938 C21.13542462 0.0433472 23.19271907 0.05173848 25.25 0.0625 C26.21470215 0.05956436 27.1794043 0.05662872 28.17333984 0.05360413 C33.09666413 0.12265061 36.67568154 0.19911807 40.625 3.49609375 C42.18930248 6.6246987 41.98127284 9.052123 41.625 12.49609375 C39.46631832 15.05610538 37.68738162 16.31966211 34.35058594 16.87380981 C31.49711277 17.04341093 28.67101802 17.07655908 25.8125 17.0625 C24.24278442 17.07179787 24.24278442 17.07179787 22.64135742 17.08128357 C20.43246388 17.08837629 18.22351682 17.08521735 16.01464844 17.07250977 C12.63636921 17.05864043 9.26085805 17.09272967 5.8828125 17.13085938 C3.73437432 17.13181056 1.58593268 17.12995178 -0.5625 17.125 C-2.07517456 17.14488731 -2.07517456 17.14488731 -3.6184082 17.16517639 C-8.33394485 17.10260191 -10.64929732 17.02678061 -14.54296875 14.17944336 C-16.375 11.49609375 -16.375 11.49609375 -16.5 7.93359375 C-13.77811294 -0.38328337 -7.58188714 -0.08829125 0 0 Z " fill="#070707" transform="translate(114.375,389.50390625)"/>
<path d="M0 0 C1.07245972 -0.0038269 2.14491943 -0.00765381 3.24987793 -0.01159668 C5.51604146 -0.01431716 7.78223631 -0.00694653 10.04833984 0.00976562 C13.51861528 0.03117206 16.98682027 0.00996725 20.45703125 -0.015625 C22.65885874 -0.01298175 24.86068494 -0.00785683 27.0625 0 C28.10112183 -0.00809692 29.13974365 -0.01619385 30.20983887 -0.02453613 C37.3879699 0.06898125 37.3879699 0.06898125 40.68359375 2.43725586 C43.01131873 6.05408505 42.56991544 8.28925964 42.03125 12.53125 C39.16708216 15.40017217 37.01668723 15.90851383 33.03491211 15.91943359 C32.04385971 15.92889008 31.05280731 15.93834656 30.03172302 15.9480896 C28.96809036 15.94201691 27.9044577 15.93594421 26.80859375 15.9296875 C25.1630526 15.93399277 25.1630526 15.93399277 23.48426819 15.93838501 C21.16683434 15.94042536 18.84938327 15.93489759 16.53198242 15.92236328 C12.97861389 15.90629461 9.42638023 15.92222164 5.87304688 15.94140625 C3.62239332 15.93942412 1.37174047 15.93558106 -0.87890625 15.9296875 C-1.94456314 15.93576019 -3.01022003 15.94183289 -4.10816956 15.9480896 C-5.59001991 15.93390488 -5.59001991 15.93390488 -7.10180664 15.91943359 C-7.97132462 15.91704681 -8.84084259 15.91466003 -9.73670959 15.91220093 C-12.4823229 15.44359654 -13.36519281 14.78856466 -14.96875 12.53125 C-15.72658828 5.71070545 -15.72658828 5.71070545 -13.62329102 2.43725586 C-9.39520646 -0.59858118 -5.07749064 -0.03958328 0 0 Z " fill="#010101" transform="translate(113.96875,286.46875)"/>
<path d="M0 0 C4.5478125 -0.1546875 4.5478125 -0.1546875 9.1875 -0.3125 C10.13391357 -0.35802002 11.08032715 -0.40354004 12.05541992 -0.45043945 C16.35693869 -0.52121065 18.4459436 -0.3787221 22.0859375 2.109375 C24.37892317 5.57225132 24.58547735 7.44300139 24.4375 11.5625 C24.41558594 12.67753906 24.39367187 13.79257813 24.37109375 14.94140625 C24.01467072 17.87908238 23.70133518 19.60291114 22 22 C19.12496969 23.74398554 17.01400022 24.24305715 13.671875 24.1953125 C12.9509668 24.19031738 12.23005859 24.18532227 11.48730469 24.18017578 C10.58399414 24.16196777 9.68068359 24.14375977 8.75 24.125 C4.41875 24.063125 4.41875 24.063125 0 24 C0 16.08 0 8.16 0 0 Z " fill="#FCFCFC" transform="translate(117,96)"/>
<path d="M0 0 C4.5478125 -0.1546875 4.5478125 -0.1546875 9.1875 -0.3125 C10.13391357 -0.35802002 11.08032715 -0.40354004 12.05541992 -0.45043945 C16.35727033 -0.5212161 18.44262017 -0.38266813 22.078125 2.11328125 C24.35805383 5.53780849 24.64364457 7.41413212 24.5625 11.5 C24.56443359 13.15515625 24.56443359 13.15515625 24.56640625 14.84375 C23.89272142 18.59780062 22.63000706 20.28642262 20 23 C17.703463 24.1482685 16.41686833 24.11561175 13.8671875 24.09765625 C13.14128418 24.09515869 12.41538086 24.09266113 11.66748047 24.09008789 C10.74596191 24.08098389 9.82444336 24.07187988 8.875 24.0625 C5.94625 24.041875 3.0175 24.02125 0 24 C0 16.08 0 8.16 0 0 Z " fill="#FBFBFB" transform="translate(117,136)"/>
</svg>
