<?xml version="1.0" encoding="UTF-8"?>
<svg version="1.1" xmlns="http://www.w3.org/2000/svg" width="512" height="512">
<path d="M0 0 C1.26413727 -0.00671722 2.52827454 -0.01343445 3.83071899 -0.02035522 C7.28748883 -0.0379698 10.74415955 -0.0427087 14.20096993 -0.0439868 C16.36430332 -0.04541163 18.52761177 -0.04968753 20.69093895 -0.05498123 C28.24856532 -0.07346709 35.8061213 -0.08165373 43.36376953 -0.08007812 C50.39160068 -0.07887739 57.41912439 -0.09996985 64.44687778 -0.13156545 C70.49466235 -0.15777943 76.54234683 -0.16844327 82.59018773 -0.16716731 C86.19604674 -0.16665914 89.8016324 -0.17226129 93.40743446 -0.19352341 C97.43329257 -0.21661577 101.4584686 -0.20735378 105.484375 -0.1953125 C106.66753799 -0.20655151 107.85070099 -0.21779053 109.06971741 -0.22937012 C116.09855197 -0.17605446 121.30074477 0.81950576 127.4362793 4.29052734 C128.4675293 4.86802734 129.4987793 5.44552734 130.5612793 6.04052734 C138.31197157 12.10628651 143.39203378 19.60707355 145.4362793 29.29052734 C145.52979542 31.02102614 145.57107168 32.75468686 145.57672119 34.48770142 C145.58243134 35.53893188 145.58814148 36.59016235 145.59402466 37.67324829 C145.59570145 39.39540054 145.59570145 39.39540054 145.59741211 41.15234375 C145.60237701 42.36581482 145.60734192 43.57928589 145.61245728 44.82952881 C145.62455622 48.15631966 145.63202206 51.48304771 145.63646793 54.80985308 C145.63940384 56.8917661 145.64350972 58.97367368 145.64797211 61.05558395 C145.66164358 67.57922038 145.67131073 74.10284429 145.675174 80.62649405 C145.67964758 88.13820062 145.69716421 95.64972457 145.72617459 103.16137564 C145.74785627 108.97897795 145.7578818 114.79652914 145.75921512 120.61417139 C145.76025894 124.08311962 145.76607544 127.55189612 145.78403473 131.02080154 C145.80371729 134.89804089 145.79920069 138.77505584 145.79272461 142.65234375 C145.80193939 143.78829987 145.81115417 144.92425598 145.82064819 146.09463501 C145.76111738 157.51249425 143.15042193 166.66796251 135.4362793 175.29052734 C127.83839414 181.66684439 119.21142867 185.38964074 109.25292969 185.43769836 C108.2299025 185.44485367 107.20687531 185.45200897 106.15284729 185.4593811 C105.04110641 185.46207001 103.92936554 185.46475891 102.78393555 185.4675293 C101.01462929 185.47738609 101.01462929 185.47738609 99.20957947 185.48744202 C95.30598594 185.50715081 91.40240592 185.51884165 87.4987793 185.52880859 C86.14908834 185.53285973 84.79939759 185.53697676 83.44970703 185.54115868 C77.10280422 185.560199 70.7559129 185.57442907 64.40898705 185.58277065 C57.11290436 185.59252087 49.81712685 185.61878682 42.52115154 185.65927154 C36.86314246 185.68957564 31.20522011 185.70425319 25.54713154 185.70755166 C22.17689351 185.70988712 18.80723932 185.72066619 15.43704224 185.74401283 C11.66571173 185.76850905 7.89516594 185.76741925 4.1237793 185.76049805 C2.48045876 185.77971313 2.48045876 185.77971313 0.80393982 185.79931641 C-9.96845464 185.72777609 -20.30460692 183.42415625 -28.63012695 176.27490234 C-37.6858588 166.9813432 -40.01669473 157.32348409 -39.96777344 144.71508789 C-39.97463669 143.4733783 -39.98149994 142.2316687 -39.98857117 140.95233154 C-40.00367914 137.56562416 -40.00534868 134.17946991 -39.99962878 130.79277015 C-39.99652449 127.95514202 -40.00264335 125.11756297 -40.00866753 122.27994186 C-40.02268674 115.57875709 -40.0211743 108.87769986 -40.00976562 102.17651367 C-39.99829703 95.28839904 -40.01234453 88.40067434 -40.0391621 81.51261109 C-40.0613975 75.57684282 -40.06793863 69.64119624 -40.06208569 63.70538932 C-40.05873232 60.1699345 -40.06102161 56.6347293 -40.07833672 53.09930992 C-40.0968329 49.15077105 -40.08253838 45.2027026 -40.06542969 41.25415039 C-40.07993164 39.52295708 -40.07993164 39.52295708 -40.09472656 37.75679016 C-39.9905872 26.2248889 -36.97077305 17.76765046 -28.93481445 9.45458984 C-20.06995164 1.36375954 -11.73647896 -0.00894492 0 0 Z " fill="#FED6AB" transform="translate(340.563720703125,301.70947265625)"/>
<path d="M0 0 C1.08488708 -0.0071553 2.16977417 -0.01431061 3.28753662 -0.02168274 C5.0657933 -0.02571609 5.0657933 -0.02571609 6.87997437 -0.02983093 C8.13245972 -0.03640213 9.38494507 -0.04297333 10.67538452 -0.04974365 C14.82610311 -0.0694762 18.97678306 -0.08114419 23.12753296 -0.09111023 C24.55994053 -0.0951598 25.99234791 -0.09927679 27.4247551 -0.10346031 C34.15769108 -0.12250515 40.89061617 -0.1367359 47.6235739 -0.14507228 C55.37757233 -0.15483299 63.13128441 -0.1811247 70.88518202 -0.22157317 C76.88961794 -0.25181271 82.89397215 -0.26654867 88.89848268 -0.26985329 C92.47927155 -0.27219546 96.05975428 -0.28104578 99.64046097 -0.30631447 C103.64235452 -0.33409936 107.64361524 -0.32974026 111.64559937 -0.32279968 C112.81895844 -0.33560974 113.9923175 -0.3484198 115.20123291 -0.36161804 C126.60016569 -0.28977953 134.23138753 2.91704778 142.45175171 10.77607727 C150.56920479 19.52793165 151.95077669 27.91961405 151.95736694 39.57148743 C151.96569046 40.82105225 151.97401398 42.07061707 151.98258972 43.35804749 C152.00252457 46.77581297 152.01332502 50.19333512 152.01841617 53.61113787 C152.02206929 55.75171358 152.02831444 57.89226622 152.03541756 60.0328331 C152.0598936 67.51610585 152.07295888 74.99930952 152.07650757 82.48262024 C152.08013616 89.43206708 152.10998727 96.38107048 152.15191215 103.33038199 C152.18674401 109.31621878 152.20205826 115.3019096 152.2027536 121.28784692 C152.20354238 124.85419439 152.21209394 128.42009018 152.24075127 131.98633194 C152.27207427 135.97336189 152.26281122 139.95935369 152.25033569 143.94648743 C152.27258713 145.69102707 152.27258713 145.69102707 152.29528809 147.47080994 C152.20028708 158.1900978 149.06286545 167.65099708 141.52206421 175.46748352 C131.95382176 184.05692872 120.76324803 185.60464833 108.26986694 185.53535461 C106.49201813 185.54324005 106.49201813 185.54324005 104.67825317 185.55128479 C100.79271951 185.56439943 96.90760144 185.55577723 93.02206421 185.54560852 C90.30404839 185.54627826 87.58603977 185.55054105 84.86802673 185.55430603 C79.18503382 185.55974333 73.50215838 185.55262477 67.81918335 185.5382843 C61.27242802 185.52195373 54.72595298 185.52725728 48.1792044 185.54376352 C42.53129047 185.5574271 36.88346035 185.55927461 31.2355352 185.55144751 C27.87399825 185.54679859 24.51269726 185.54726725 21.15115166 185.55605698 C17.40147059 185.56371177 13.65232112 185.55201033 9.90267944 185.53535461 C8.80577286 185.54142731 7.70886627 185.5475 6.57872009 185.55375671 C-5.49528962 185.45485987 -15.04018849 182.12663343 -24.03652954 174.02217102 C-30.17230924 167.63365897 -33.4606332 158.76273527 -33.48947144 149.98796082 C-33.49518158 148.9451445 -33.50089172 147.90232819 -33.5067749 146.82791138 C-33.50789276 145.68916061 -33.50901062 144.55040985 -33.51016235 143.37715149 C-33.51512726 142.17343399 -33.52009216 140.96971649 -33.52520752 139.72952271 C-33.53730609 136.42959037 -33.54477221 133.12972134 -33.54921818 129.82977438 C-33.55215418 127.76461231 -33.55626008 125.69945572 -33.56072235 123.63429642 C-33.57439373 117.16298572 -33.58406091 110.69168764 -33.58792424 104.2203635 C-33.59239772 96.76921683 -33.60991393 89.31825426 -33.63892484 81.86716354 C-33.66060753 76.09626994 -33.6706321 70.32542788 -33.67196536 64.55449402 C-33.67300912 61.11349088 -33.67882415 57.67266087 -33.69678497 54.2317009 C-33.71390263 50.38551281 -33.71195063 46.53976881 -33.70547485 42.69355774 C-33.71468964 41.56695236 -33.72390442 40.44034698 -33.73339844 39.27960205 C-33.67203909 27.60373894 -30.83506876 17.98339546 -22.68496704 9.39326477 C-16.12257216 3.41519272 -8.89213871 0.04034057 0 0 Z " fill="#78B1FE" transform="translate(59.349029541015625,301.8528289794922)"/>
<path d="M0 0 C1.2527774 -0.00671722 2.50555481 -0.01343445 3.79629517 -0.02035522 C7.22219629 -0.03607121 10.64785491 -0.04270874 14.07377529 -0.0439868 C16.21835548 -0.04541184 18.36291052 -0.04968817 20.50748444 -0.05498123 C28.00142521 -0.07346839 35.49529499 -0.08165373 42.98925781 -0.08007812 C49.95458623 -0.07887794 56.91960417 -0.09995916 63.88485408 -0.13156545 C69.88085015 -0.15779564 75.87674526 -0.16844257 81.8727982 -0.16716731 C85.44683209 -0.16665953 89.02059004 -0.17223929 92.59456635 -0.19352341 C96.58669429 -0.21664977 100.5781356 -0.20734395 104.5703125 -0.1953125 C105.74052948 -0.20655151 106.91074646 -0.21779053 108.11642456 -0.22937012 C118.84182621 -0.14749382 127.6371223 2.89382194 135.54394531 10.29052734 C142.18609937 17.68576009 145.64375128 25.55602123 145.69111633 35.56326294 C145.70184929 37.12738167 145.70184929 37.12738167 145.71279907 38.72309875 C145.71548798 39.8566832 145.71817688 40.99026764 145.72094727 42.15820312 C145.72751846 43.36046036 145.73408966 44.56271759 145.74085999 45.80140686 C145.76056746 49.77954478 145.77225716 53.75766946 145.78222656 57.73583984 C145.78627729 59.11034031 145.7903943 60.48484059 145.79457664 61.85934067 C145.81361396 68.32050172 145.82784654 74.78165148 145.83618861 81.24283516 C145.84594787 88.67703627 145.87223889 96.1109386 145.91268951 103.54503453 C145.94295304 109.30662084 145.95766724 115.068122 145.96096963 120.82978618 C145.96330896 124.26360356 145.97212172 127.69710126 145.9974308 131.13083267 C146.02186073 134.96962294 146.02084939 138.80763965 146.01391602 142.64648438 C146.0331311 144.32864296 146.0331311 144.32864296 146.05273438 146.04478455 C145.97599586 157.75550481 142.32404259 167.13280608 134.48144531 175.85302734 C127.7292335 182.43023583 118.64556596 185.39289105 109.3605957 185.43769836 C108.33756851 185.44485367 107.31454132 185.45200897 106.26051331 185.4593811 C105.14877243 185.46207001 104.03703156 185.46475891 102.89160156 185.4675293 C101.1222953 185.47738609 101.1222953 185.47738609 99.31724548 185.48744202 C95.41365195 185.50715081 91.51007193 185.51884165 87.60644531 185.52880859 C86.25675436 185.53285973 84.9070636 185.53697676 83.55737305 185.54115868 C77.21047023 185.560199 70.86357892 185.57442907 64.51665306 185.58277065 C57.22057038 185.59252087 49.92479286 185.61878682 42.62881756 185.65927154 C36.97080848 185.68957564 31.31288612 185.70425319 25.65479755 185.70755166 C22.28455953 185.70988712 18.91490533 185.72066619 15.54470825 185.74401283 C11.77337775 185.76850905 8.00283196 185.76741925 4.23144531 185.76049805 C2.58812477 185.77971313 2.58812477 185.77971313 0.91160583 185.79931641 C-9.86078862 185.72777609 -20.1969409 183.42415625 -28.52246094 176.27490234 C-37.61490643 166.94366535 -39.90875227 157.26259109 -39.86010742 144.60742188 C-39.86697067 143.35435242 -39.87383392 142.10128296 -39.88090515 140.8102417 C-39.89601341 137.39261242 -39.89768281 133.97553123 -39.89196277 130.55790949 C-39.88885912 127.69533397 -39.89497649 124.83280713 -39.90100151 121.97023857 C-39.91502028 115.21156267 -39.9135081 108.45301324 -39.90209961 101.69433594 C-39.89062569 94.74371873 -39.90468759 87.79348771 -39.93149608 80.84292138 C-39.95371749 74.85536472 -39.96027589 68.86792871 -39.95441967 62.88033378 C-39.95106364 59.31305365 -39.95337393 55.74602087 -39.9706707 52.17877579 C-39.98913915 48.1965063 -39.97488659 44.21470452 -39.95776367 40.23242188 C-39.96743164 39.06534698 -39.97709961 37.89827209 -39.98706055 36.6958313 C-39.88503977 25.32550295 -36.66688355 17.6899288 -28.82714844 9.48974609 C-20.06200167 1.35996417 -11.66888757 -0.00897584 0 0 Z " fill="#78B1FE" transform="translate(66.4560546875,24.70947265625)"/>
<path d="M0 0 C1.62299515 -0.0129007 1.62299515 -0.0129007 3.27877808 -0.02606201 C5.05232162 -0.03245193 5.05232162 -0.03245193 6.86169434 -0.03897095 C8.73560349 -0.05123718 8.73560349 -0.05123718 10.64736938 -0.06375122 C14.78846927 -0.08859496 18.92953263 -0.1052789 23.07067871 -0.11953735 C24.50056463 -0.12490033 25.93045049 -0.13027784 27.3603363 -0.13566971 C33.3138466 -0.15729536 39.26735425 -0.1760271 45.22089386 -0.1872921 C53.72778743 -0.20349836 62.23422191 -0.23659811 70.74094248 -0.29369295 C76.73521614 -0.33253935 82.72936781 -0.35194238 88.72376394 -0.35721266 C92.29687153 -0.36084772 95.86948889 -0.37266853 99.44245911 -0.4053154 C103.43924699 -0.44131059 107.4350634 -0.43698819 111.43200684 -0.42959595 C112.59817535 -0.44600128 113.76434387 -0.46240662 114.96585083 -0.47930908 C124.33907511 -0.40871869 132.15741051 1.96304186 139.84802246 7.4078064 C140.59181152 8.16964233 141.33560059 8.93147827 142.10192871 9.71640015 C143.24468262 10.83208374 143.24468262 10.83208374 144.41052246 11.9703064 C150.69935716 20.85314917 152.4036691 29.59282214 152.29553223 40.29110718 C152.30626518 42.17158752 152.30626518 42.17158752 152.31721497 44.09005737 C152.33111553 47.49129515 152.32291201 50.89098517 152.30312467 54.29209375 C152.28658969 57.8721658 152.29557115 61.45219326 152.30064392 65.0322876 C152.30514731 71.03893569 152.28940195 77.04527059 152.26135254 83.05184937 C152.2292791 89.97304088 152.2293333 96.89366886 152.24656731 103.81490052 C152.26248748 110.50624781 152.25566563 117.19739063 152.23863029 123.8887291 C152.23180005 126.72184647 152.23275028 129.55479795 152.24017525 132.38791275 C152.24933213 136.35065071 152.2251852 140.31282035 152.19787598 144.27548218 C152.20766479 146.01666824 152.20766479 146.01666824 152.21765137 147.79302979 C152.09250882 158.5153739 149.0095289 167.22802459 141.66442871 175.15390015 C132.65379603 183.88168785 121.19122568 185.76201131 109.07800293 185.65560913 C107.28530472 185.66371361 107.28530472 185.66371361 105.45639038 185.67198181 C102.21662204 185.68225696 98.97753286 185.67487349 95.73780966 185.6582706 C92.32590549 185.64428169 88.91402832 185.65089551 85.50210571 185.65440369 C79.77796871 185.65709427 74.0540428 185.64372768 68.32995605 185.62045288 C61.73602292 185.59382481 55.14244177 185.59210839 48.54847324 185.60384125 C42.17110613 185.61466189 35.79386488 185.60840014 29.41650772 185.59428596 C26.71738797 185.58856573 24.01836153 185.58857722 21.31924057 185.59335136 C17.54330268 185.59627521 13.76793153 185.57970021 9.99206543 185.55795288 C8.33503601 185.56470535 8.33503601 185.56470535 6.64453125 185.57159424 C-5.16384321 185.45910902 -14.61342914 182.45092658 -23.31213379 174.30233765 C-30.11061701 167.04097897 -33.44303936 158.85357236 -33.47601318 148.91239929 C-33.48172333 147.87662247 -33.48743347 146.84084564 -33.49331665 145.77368164 C-33.49443451 144.64787689 -33.49555237 143.52207214 -33.4967041 142.3621521 C-33.50166901 141.16804214 -33.50663391 139.97393219 -33.51174927 138.74363708 C-33.52383406 135.47476513 -33.53131008 132.20592889 -33.53575993 128.93703866 C-33.53869827 126.89079978 -33.54280455 124.8445664 -33.5472641 122.79833031 C-33.56092921 116.38468812 -33.57060006 109.97105864 -33.57446599 103.55740291 C-33.57894112 96.1753162 -33.59646768 88.79341517 -33.62546659 81.41138488 C-33.64714948 75.69142609 -33.65717382 69.97151927 -33.65850711 64.25151986 C-33.65955064 60.84183007 -33.66536105 57.43231504 -33.68332672 54.02266884 C-33.70044529 50.21251117 -33.6984923 46.40280173 -33.6920166 42.59262085 C-33.70123138 41.47693726 -33.71044617 40.36125366 -33.71994019 39.21176147 C-33.65818124 27.56919528 -30.79561432 17.96272485 -22.67150879 9.3999939 C-16.11371578 3.42611396 -8.88530447 0.052706 0 0 Z " fill="#78B1FE" transform="translate(333.3355712890625,24.846099853515625)"/>
<path d="M0 0 C1.26413727 -0.00671722 2.52827454 -0.01343445 3.83071899 -0.02035522 C7.28748883 -0.0379698 10.74415955 -0.0427087 14.20096993 -0.0439868 C16.36430332 -0.04541163 18.52761177 -0.04968753 20.69093895 -0.05498123 C28.24856532 -0.07346709 35.8061213 -0.08165373 43.36376953 -0.08007812 C50.39160068 -0.07887739 57.41912439 -0.09996985 64.44687778 -0.13156545 C70.49466235 -0.15777943 76.54234683 -0.16844327 82.59018773 -0.16716731 C86.19604674 -0.16665914 89.8016324 -0.17226129 93.40743446 -0.19352341 C97.43329257 -0.21661577 101.4584686 -0.20735378 105.484375 -0.1953125 C106.66753799 -0.20655151 107.85070099 -0.21779053 109.06971741 -0.22937012 C116.09855197 -0.17605446 121.30074477 0.81950576 127.4362793 4.29052734 C128.4675293 4.86802734 129.4987793 5.44552734 130.5612793 6.04052734 C138.31197157 12.10628651 143.39203378 19.60707355 145.4362793 29.29052734 C145.52979542 31.02102614 145.57107168 32.75468686 145.57672119 34.48770142 C145.58243134 35.53893188 145.58814148 36.59016235 145.59402466 37.67324829 C145.59570145 39.39540054 145.59570145 39.39540054 145.59741211 41.15234375 C145.60237701 42.36581482 145.60734192 43.57928589 145.61245728 44.82952881 C145.62455622 48.15631966 145.63202206 51.48304771 145.63646793 54.80985308 C145.63940384 56.8917661 145.64350972 58.97367368 145.64797211 61.05558395 C145.66164358 67.57922038 145.67131073 74.10284429 145.675174 80.62649405 C145.67964758 88.13820062 145.69716421 95.64972457 145.72617459 103.16137564 C145.74785627 108.97897795 145.7578818 114.79652914 145.75921512 120.61417139 C145.76025894 124.08311962 145.76607544 127.55189612 145.78403473 131.02080154 C145.80371729 134.89804089 145.79920069 138.77505584 145.79272461 142.65234375 C145.80193939 143.78829987 145.81115417 144.92425598 145.82064819 146.09463501 C145.76111738 157.51249425 143.15042193 166.66796251 135.4362793 175.29052734 C127.83839414 181.66684439 119.21142867 185.38964074 109.25292969 185.43769836 C108.2299025 185.44485367 107.20687531 185.45200897 106.15284729 185.4593811 C105.04110641 185.46207001 103.92936554 185.46475891 102.78393555 185.4675293 C101.01462929 185.47738609 101.01462929 185.47738609 99.20957947 185.48744202 C95.30598594 185.50715081 91.40240592 185.51884165 87.4987793 185.52880859 C86.14908834 185.53285973 84.79939759 185.53697676 83.44970703 185.54115868 C77.10280422 185.560199 70.7559129 185.57442907 64.40898705 185.58277065 C57.11290436 185.59252087 49.81712685 185.61878682 42.52115154 185.65927154 C36.86314246 185.68957564 31.20522011 185.70425319 25.54713154 185.70755166 C22.17689351 185.70988712 18.80723932 185.72066619 15.43704224 185.74401283 C11.66571173 185.76850905 7.89516594 185.76741925 4.1237793 185.76049805 C2.48045876 185.77971313 2.48045876 185.77971313 0.80393982 185.79931641 C-9.96845464 185.72777609 -20.30460692 183.42415625 -28.63012695 176.27490234 C-37.6858588 166.9813432 -40.01669473 157.32348409 -39.96777344 144.71508789 C-39.97463669 143.4733783 -39.98149994 142.2316687 -39.98857117 140.95233154 C-40.00367914 137.56562416 -40.00534868 134.17946991 -39.99962878 130.79277015 C-39.99652449 127.95514202 -40.00264335 125.11756297 -40.00866753 122.27994186 C-40.02268674 115.57875709 -40.0211743 108.87769986 -40.00976562 102.17651367 C-39.99829703 95.28839904 -40.01234453 88.40067434 -40.0391621 81.51261109 C-40.0613975 75.57684282 -40.06793863 69.64119624 -40.06208569 63.70538932 C-40.05873232 60.1699345 -40.06102161 56.6347293 -40.07833672 53.09930992 C-40.0968329 49.15077105 -40.08253838 45.2027026 -40.06542969 41.25415039 C-40.07993164 39.52295708 -40.07993164 39.52295708 -40.09472656 37.75679016 C-39.9905872 26.2248889 -36.97077305 17.76765046 -28.93481445 9.45458984 C-20.06995164 1.36375954 -11.73647896 -0.00894492 0 0 Z M-19.8762207 22.79052734 C-20.34672852 23.35771484 -20.81723633 23.92490234 -21.30200195 24.50927734 C-23.90066571 28.17797912 -24.81404512 30.87577802 -24.82441711 35.39399719 C-24.83150192 36.42432068 -24.83858673 37.45464417 -24.84588623 38.51618958 C-24.84340881 39.640952 -24.8409314 40.76571442 -24.83837891 41.92456055 C-24.84348984 43.11358978 -24.84860077 44.30261902 -24.85386658 45.52767944 C-24.86538546 48.78612071 -24.86783585 52.04440423 -24.86530328 55.3028605 C-24.86423267 58.02633062 -24.86911945 60.74977735 -24.8739087 63.47324246 C-24.88500236 69.9018572 -24.88544269 76.33041352 -24.87939453 82.7590332 C-24.87335975 89.38123844 -24.88565331 96.00323094 -24.9069646 102.62539989 C-24.92460822 108.31812557 -24.93057745 114.01078373 -24.92732686 119.70353574 C-24.92551757 123.10027581 -24.92811408 126.49686427 -24.9420414 129.89357948 C-24.95438476 133.68532277 -24.94762564 137.47657505 -24.93603516 141.26831055 C-24.94367889 142.38700027 -24.95132263 143.50569 -24.959198 144.65827942 C-24.90472352 152.72566428 -23.71842725 158.7225869 -18.11442566 164.94953156 C-11.60666185 170.57721968 -3.8766002 170.86988986 4.33081055 170.80810547 C5.48809662 170.81511475 6.64538269 170.82212402 7.83773804 170.8293457 C11.64166663 170.84686937 15.44484388 170.83532203 19.2487793 170.82177734 C21.90479446 170.82447386 24.5607873 170.82835219 27.21679688 170.83337402 C32.77474012 170.84063075 38.33247007 170.83111501 43.89038086 170.81201172 C50.29631935 170.79024651 56.70174843 170.7972993 63.1076746 170.81931734 C68.62901418 170.83752807 74.1502013 170.84000214 79.67156124 170.82956266 C82.95990125 170.82335866 86.24795233 170.82399984 89.5362854 170.83570862 C93.20511951 170.84590643 96.87298572 170.83032588 100.54174805 170.80810547 C102.15513565 170.82025085 102.15513565 170.82025085 103.80111694 170.8326416 C111.82709746 170.74292736 117.92826975 169.09693498 124.2487793 164.04052734 C130.04715928 156.75113537 131.02236343 150.62756488 130.95385742 141.41772461 C130.9608667 140.25083099 130.96787598 139.08393738 130.97509766 137.88168335 C130.9926445 134.03985513 130.98106492 130.1987688 130.9675293 126.35693359 C130.97022533 123.67706901 130.97410315 120.99722659 130.97912598 118.31736755 C130.98638716 112.70637033 130.97685623 107.09558424 130.95776367 101.48461914 C130.93600823 95.01678704 130.94304236 88.54945966 130.96506929 82.08163983 C130.98327994 76.50936582 130.98575381 70.93724288 130.97531462 65.36494869 C130.96910921 62.04529555 130.96975442 58.72592871 130.98146057 55.40628242 C130.99165791 51.70141992 130.97607793 47.99751603 130.95385742 44.29272461 C130.96195435 43.20621109 130.97005127 42.11969757 130.97839355 41.0002594 C130.89676998 33.62673507 129.87515855 26.98668309 124.68634796 21.40967655 C120.02855885 17.11323287 115.57924939 15.04693437 109.17459106 15.02310181 C107.61442261 15.01030685 107.61442261 15.01030685 106.0227356 14.99725342 C104.32695877 14.99861298 104.32695877 14.99861298 102.59692383 15 C100.79853058 14.98992416 100.79853058 14.98992416 98.96380615 14.97964478 C95.68270551 14.96391826 92.40175692 14.95729072 89.12062311 14.9560132 C87.06836907 14.95458934 85.01614138 14.95031531 82.96389389 14.94501877 C75.79760815 14.92652888 68.6313967 14.91834688 61.46508789 14.91992188 C54.79566251 14.92112312 48.12656082 14.90002185 41.45721734 14.86843455 C35.72200732 14.84224398 29.98690285 14.83155573 24.25163352 14.83283269 C20.83025907 14.8333415 17.40917245 14.8277038 13.98785782 14.80647659 C10.16977332 14.7868775 6.35252179 14.79263183 2.53442383 14.8046875 C1.40795441 14.79344849 0.28148499 14.78220947 -0.87911987 14.77062988 C-8.93721551 14.83527158 -14.59164894 16.24063558 -19.8762207 22.79052734 Z " fill="#000000" transform="translate(340.563720703125,301.70947265625)"/>
<path d="M0 0 C1.08488708 -0.0071553 2.16977417 -0.01431061 3.28753662 -0.02168274 C5.0657933 -0.02571609 5.0657933 -0.02571609 6.87997437 -0.02983093 C8.13245972 -0.03640213 9.38494507 -0.04297333 10.67538452 -0.04974365 C14.82610311 -0.0694762 18.97678306 -0.08114419 23.12753296 -0.09111023 C24.55994053 -0.0951598 25.99234791 -0.09927679 27.4247551 -0.10346031 C34.15769108 -0.12250515 40.89061617 -0.1367359 47.6235739 -0.14507228 C55.37757233 -0.15483299 63.13128441 -0.1811247 70.88518202 -0.22157317 C76.88961794 -0.25181271 82.89397215 -0.26654867 88.89848268 -0.26985329 C92.47927155 -0.27219546 96.05975428 -0.28104578 99.64046097 -0.30631447 C103.64235452 -0.33409936 107.64361524 -0.32974026 111.64559937 -0.32279968 C112.81895844 -0.33560974 113.9923175 -0.3484198 115.20123291 -0.36161804 C126.60016569 -0.28977953 134.23138753 2.91704778 142.45175171 10.77607727 C150.56920479 19.52793165 151.95077669 27.91961405 151.95736694 39.57148743 C151.96569046 40.82105225 151.97401398 42.07061707 151.98258972 43.35804749 C152.00252457 46.77581297 152.01332502 50.19333512 152.01841617 53.61113787 C152.02206929 55.75171358 152.02831444 57.89226622 152.03541756 60.0328331 C152.0598936 67.51610585 152.07295888 74.99930952 152.07650757 82.48262024 C152.08013616 89.43206708 152.10998727 96.38107048 152.15191215 103.33038199 C152.18674401 109.31621878 152.20205826 115.3019096 152.2027536 121.28784692 C152.20354238 124.85419439 152.21209394 128.42009018 152.24075127 131.98633194 C152.27207427 135.97336189 152.26281122 139.95935369 152.25033569 143.94648743 C152.27258713 145.69102707 152.27258713 145.69102707 152.29528809 147.47080994 C152.20028708 158.1900978 149.06286545 167.65099708 141.52206421 175.46748352 C131.95382176 184.05692872 120.76324803 185.60464833 108.26986694 185.53535461 C106.49201813 185.54324005 106.49201813 185.54324005 104.67825317 185.55128479 C100.79271951 185.56439943 96.90760144 185.55577723 93.02206421 185.54560852 C90.30404839 185.54627826 87.58603977 185.55054105 84.86802673 185.55430603 C79.18503382 185.55974333 73.50215838 185.55262477 67.81918335 185.5382843 C61.27242802 185.52195373 54.72595298 185.52725728 48.1792044 185.54376352 C42.53129047 185.5574271 36.88346035 185.55927461 31.2355352 185.55144751 C27.87399825 185.54679859 24.51269726 185.54726725 21.15115166 185.55605698 C17.40147059 185.56371177 13.65232112 185.55201033 9.90267944 185.53535461 C8.80577286 185.54142731 7.70886627 185.5475 6.57872009 185.55375671 C-5.49528962 185.45485987 -15.04018849 182.12663343 -24.03652954 174.02217102 C-30.17230924 167.63365897 -33.4606332 158.76273527 -33.48947144 149.98796082 C-33.49518158 148.9451445 -33.50089172 147.90232819 -33.5067749 146.82791138 C-33.50789276 145.68916061 -33.50901062 144.55040985 -33.51016235 143.37715149 C-33.51512726 142.17343399 -33.52009216 140.96971649 -33.52520752 139.72952271 C-33.53730609 136.42959037 -33.54477221 133.12972134 -33.54921818 129.82977438 C-33.55215418 127.76461231 -33.55626008 125.69945572 -33.56072235 123.63429642 C-33.57439373 117.16298572 -33.58406091 110.69168764 -33.58792424 104.2203635 C-33.59239772 96.76921683 -33.60991393 89.31825426 -33.63892484 81.86716354 C-33.66060753 76.09626994 -33.6706321 70.32542788 -33.67196536 64.55449402 C-33.67300912 61.11349088 -33.67882415 57.67266087 -33.69678497 54.2317009 C-33.71390263 50.38551281 -33.71195063 46.53976881 -33.70547485 42.69355774 C-33.71468964 41.56695236 -33.72390442 40.44034698 -33.73339844 39.27960205 C-33.67203909 27.60373894 -30.83506876 17.98339546 -22.68496704 9.39326477 C-16.12257216 3.41519272 -8.89213871 0.04034057 0 0 Z M-14.22402954 23.08467102 C-18.82108899 29.70984493 -18.64599432 36.0153079 -18.63955688 43.80879211 C-18.64627411 44.97699997 -18.65299133 46.14520782 -18.65991211 47.34881592 C-18.67889189 51.20612352 -18.68281623 55.06325714 -18.68496704 58.92060852 C-18.6897695 60.92684839 -18.69457556 62.9330883 -18.69988787 64.93932688 C-18.71614742 71.24527474 -18.72105902 77.55116554 -18.71963501 83.85713196 C-18.71843384 90.34763032 -18.73953599 96.83779602 -18.77112234 103.32821023 C-18.79733075 108.91398845 -18.80800042 114.49965831 -18.80672419 120.0854975 C-18.80621592 123.41585373 -18.81368092 126.74567895 -18.83308029 130.07601547 C-18.85270713 133.7932104 -18.84691423 137.50955176 -18.83486938 141.22676086 C-18.8461084 142.32001175 -18.85734741 143.41326263 -18.868927 144.53964233 C-18.80285857 152.57623605 -17.19020435 157.86889239 -11.91152954 163.95967102 C-6.59776058 168.49581525 -2.34108896 170.25997293 4.58239746 170.29434204 C5.57472885 170.30149734 6.56706024 170.30865265 7.58946228 170.31602478 C9.21343178 170.32005814 9.21343178 170.32005814 10.87020874 170.32417297 C12.58800285 170.33402977 12.58800285 170.33402977 14.34049988 170.34408569 C18.13409491 170.36381121 21.92765034 170.37548044 25.72128296 170.38545227 C27.01800808 170.3895278 28.3147332 170.39360332 29.65075302 170.39780235 C35.80810871 170.41651101 41.96544462 170.43107638 48.12282288 170.43941432 C55.21066754 170.44917267 62.29819873 170.47545867 69.38593304 170.51591522 C75.54006731 170.54982667 81.69407082 170.56156863 87.8482933 170.56561852 C90.45808918 170.57048185 93.06788177 170.58208851 95.67761612 170.60065651 C99.33711744 170.62507263 102.99580669 170.62407763 106.65536499 170.61714172 C107.72586594 170.62995178 108.79636688 170.64276184 109.89930725 170.65596008 C117.40238969 170.60433758 124.78140324 169.57015399 130.59630013 164.42635059 C136.97602543 157.63828044 136.95539446 150.21460352 136.97323608 141.33369446 C136.98316589 140.14919205 136.9930957 138.96468964 137.00332642 137.74429321 C137.0274682 134.50645354 137.0424399 131.26875794 137.05134773 128.03084469 C137.05722924 126.00352067 137.06544252 123.97621875 137.07435608 121.94890594 C137.10167353 115.59293315 137.12102263 109.23701147 137.12875986 102.88098407 C137.13771379 95.56771315 137.17278709 88.25519125 137.23076105 80.94214797 C137.27412735 75.27311254 137.2941754 69.60428683 137.2968421 63.93508744 C137.29892884 60.55649059 137.31053915 57.17859931 137.34648132 53.80017853 C137.38072422 50.02562238 137.37681403 46.25287563 137.36386108 42.47822571 C137.38229065 41.3734639 137.40072021 40.26870209 137.41970825 39.13046265 C137.33841031 31.53943225 135.84118824 25.86547546 130.65097046 20.14717102 C123.81694719 14.81385098 116.64582063 14.42380062 108.25985718 14.50019836 C106.46277817 14.48705597 106.46277817 14.48705597 104.62939453 14.47364807 C101.37300536 14.4555295 98.11764804 14.45960794 94.86127615 14.4755435 C91.43772996 14.48829784 88.01424743 14.4764367 84.59069824 14.46861267 C78.84617938 14.45954602 73.10198318 14.47142747 67.35751343 14.49531555 C60.73275125 14.52254754 54.10875811 14.51368643 47.48401439 14.48618352 C41.77496352 14.46343866 36.06614308 14.46031765 30.35706151 14.47337687 C26.95639711 14.48113877 23.5560934 14.48230347 20.15545273 14.46569443 C16.36420731 14.45296742 12.57443093 14.47239169 8.78329468 14.50019836 C7.1107663 14.48501663 7.1107663 14.48501663 5.40444946 14.4695282 C-3.03129359 14.58390119 -8.529692 16.80898793 -14.22402954 23.08467102 Z " fill="#000000" transform="translate(59.349029541015625,301.8528289794922)"/>
<path d="M0 0 C1.62299515 -0.0129007 1.62299515 -0.0129007 3.27877808 -0.02606201 C5.05232162 -0.03245193 5.05232162 -0.03245193 6.86169434 -0.03897095 C8.73560349 -0.05123718 8.73560349 -0.05123718 10.64736938 -0.06375122 C14.78846927 -0.08859496 18.92953263 -0.1052789 23.07067871 -0.11953735 C24.50056463 -0.12490033 25.93045049 -0.13027784 27.3603363 -0.13566971 C33.3138466 -0.15729536 39.26735425 -0.1760271 45.22089386 -0.1872921 C53.72778743 -0.20349836 62.23422191 -0.23659811 70.74094248 -0.29369295 C76.73521614 -0.33253935 82.72936781 -0.35194238 88.72376394 -0.35721266 C92.29687153 -0.36084772 95.86948889 -0.37266853 99.44245911 -0.4053154 C103.43924699 -0.44131059 107.4350634 -0.43698819 111.43200684 -0.42959595 C112.59817535 -0.44600128 113.76434387 -0.46240662 114.96585083 -0.47930908 C124.33907511 -0.40871869 132.15741051 1.96304186 139.84802246 7.4078064 C140.59181152 8.16964233 141.33560059 8.93147827 142.10192871 9.71640015 C143.24468262 10.83208374 143.24468262 10.83208374 144.41052246 11.9703064 C150.69935716 20.85314917 152.4036691 29.59282214 152.29553223 40.29110718 C152.30626518 42.17158752 152.30626518 42.17158752 152.31721497 44.09005737 C152.33111553 47.49129515 152.32291201 50.89098517 152.30312467 54.29209375 C152.28658969 57.8721658 152.29557115 61.45219326 152.30064392 65.0322876 C152.30514731 71.03893569 152.28940195 77.04527059 152.26135254 83.05184937 C152.2292791 89.97304088 152.2293333 96.89366886 152.24656731 103.81490052 C152.26248748 110.50624781 152.25566563 117.19739063 152.23863029 123.8887291 C152.23180005 126.72184647 152.23275028 129.55479795 152.24017525 132.38791275 C152.24933213 136.35065071 152.2251852 140.31282035 152.19787598 144.27548218 C152.20766479 146.01666824 152.20766479 146.01666824 152.21765137 147.79302979 C152.09250882 158.5153739 149.0095289 167.22802459 141.66442871 175.15390015 C132.65379603 183.88168785 121.19122568 185.76201131 109.07800293 185.65560913 C107.28530472 185.66371361 107.28530472 185.66371361 105.45639038 185.67198181 C102.21662204 185.68225696 98.97753286 185.67487349 95.73780966 185.6582706 C92.32590549 185.64428169 88.91402832 185.65089551 85.50210571 185.65440369 C79.77796871 185.65709427 74.0540428 185.64372768 68.32995605 185.62045288 C61.73602292 185.59382481 55.14244177 185.59210839 48.54847324 185.60384125 C42.17110613 185.61466189 35.79386488 185.60840014 29.41650772 185.59428596 C26.71738797 185.58856573 24.01836153 185.58857722 21.31924057 185.59335136 C17.54330268 185.59627521 13.76793153 185.57970021 9.99206543 185.55795288 C8.33503601 185.56470535 8.33503601 185.56470535 6.64453125 185.57159424 C-5.16384321 185.45910902 -14.61342914 182.45092658 -23.31213379 174.30233765 C-30.11061701 167.04097897 -33.44303936 158.85357236 -33.47601318 148.91239929 C-33.48172333 147.87662247 -33.48743347 146.84084564 -33.49331665 145.77368164 C-33.49443451 144.64787689 -33.49555237 143.52207214 -33.4967041 142.3621521 C-33.50166901 141.16804214 -33.50663391 139.97393219 -33.51174927 138.74363708 C-33.52383406 135.47476513 -33.53131008 132.20592889 -33.53575993 128.93703866 C-33.53869827 126.89079978 -33.54280455 124.8445664 -33.5472641 122.79833031 C-33.56092921 116.38468812 -33.57060006 109.97105864 -33.57446599 103.55740291 C-33.57894112 96.1753162 -33.59646768 88.79341517 -33.62546659 81.41138488 C-33.64714948 75.69142609 -33.65717382 69.97151927 -33.65850711 64.25151986 C-33.65955064 60.84183007 -33.66536105 57.43231504 -33.68332672 54.02266884 C-33.70044529 50.21251117 -33.6984923 46.40280173 -33.6920166 42.59262085 C-33.70123138 41.47693726 -33.71044617 40.36125366 -33.71994019 39.21176147 C-33.65818124 27.56919528 -30.79561432 17.96272485 -22.67150879 9.3999939 C-16.11371578 3.42611396 -8.88530447 0.052706 0 0 Z M-13.14807129 21.96640015 C-18.20499838 29.33506533 -18.77340966 34.95242183 -18.72375488 43.72958374 C-18.72901184 44.87682419 -18.7342688 46.02406464 -18.73968506 47.20606995 C-18.75285932 50.9882988 -18.74415448 54.7701047 -18.73400879 58.55233765 C-18.73603053 61.18878256 -18.7389428 63.82522692 -18.7427063 66.46166992 C-18.74815497 71.98445182 -18.74099732 77.50711314 -18.72668457 83.02987671 C-18.71037584 89.39593548 -18.71563703 95.7617057 -18.73216379 102.12775743 C-18.74747277 108.27284879 -18.74578231 114.41781326 -18.73701859 120.5629158 C-18.73502196 123.16793483 -18.73745689 125.77296126 -18.74445724 128.37797165 C-18.75210672 132.02531961 -18.74041691 135.67212011 -18.72375488 139.31942749 C-18.72982758 140.38881058 -18.73590027 141.45819366 -18.74215698 142.5599823 C-18.68147456 149.75868739 -17.87552543 156.3600446 -13.79260254 162.45858765 C-13.24990723 162.97679077 -12.70721191 163.4949939 -12.14807129 164.02890015 C-11.6182666 164.56257202 -11.08846191 165.0962439 -10.54260254 165.64608765 C-3.58598445 170.39875063 3.27820804 170.59598984 11.42956543 170.57382202 C12.58509918 170.58229156 13.74063293 170.59076111 14.93118286 170.5994873 C18.73560719 170.62280855 22.53962592 170.62388057 26.34411621 170.62265015 C28.32754099 170.62795747 30.31096589 170.63327192 32.29438794 170.63951731 C38.52568252 170.65870475 44.75684316 170.66165231 50.98815918 170.65487671 C57.39354602 170.6482394 63.79835651 170.67109773 70.20362651 170.70819044 C75.72410175 170.73898662 81.24439252 170.75023681 86.76495183 170.74635363 C90.05288354 170.74429626 93.34026928 170.75187632 96.6281395 170.77424622 C100.29938728 170.79647668 103.96925829 170.78671097 107.64050293 170.76913452 C108.71407043 170.78239777 109.78763794 170.79566101 110.89373779 170.80932617 C118.6728465 170.72315572 125.38882278 168.97875986 131.316679 163.67583466 C135.27864118 159.2018237 136.90802325 154.80753567 136.93858337 148.90567017 C136.95354607 147.34983719 136.95354607 147.34983719 136.96881104 145.76257324 C136.96947571 144.63519745 136.97014038 143.50782166 136.9708252 142.34628296 C136.98331047 140.55270859 136.98331047 140.55270859 136.99604797 138.72290039 C137.01599627 135.44993765 137.02678548 132.17712246 137.03187442 128.90410709 C137.03552454 126.8558575 137.04176806 124.80763212 137.04887581 122.75939178 C137.07335566 115.60377433 137.08641851 108.4482292 137.08996582 101.29257202 C137.09359748 94.63902552 137.12346955 87.98594131 137.1653704 81.33253598 C137.20015133 75.60748519 137.21551562 69.88258701 137.21621186 64.15743136 C137.21700219 60.74374021 137.22562666 57.33052008 137.25420952 53.91693878 C137.28113216 50.1039178 137.27629377 46.29216368 137.26379395 42.47909546 C137.27862823 41.35981659 137.29346252 40.24053772 137.30874634 39.08734131 C137.24353137 32.08401354 136.14475879 26.70579877 131.66442871 21.15390015 C126.6687728 17.18373088 122.12574167 15.03750681 115.6879425 15.00672913 C114.14668701 14.99599617 114.14668701 14.99599617 112.57429504 14.98504639 C111.44750839 14.98235748 110.32072174 14.97966858 109.15979004 14.97689819 C107.97251312 14.970327 106.78523621 14.9637558 105.5619812 14.95698547 C101.62348067 14.93723653 97.68499346 14.92558328 93.74645996 14.9156189 C92.38861254 14.9115702 91.03076533 14.90745324 89.67291832 14.90326881 C83.29131311 14.88421968 76.90971942 14.86998954 70.52809125 14.86165684 C63.17250945 14.85189288 55.81722925 14.82559457 48.46175367 14.78515595 C42.76989297 14.75494252 37.07811845 14.74018294 31.38617915 14.73687583 C27.98987385 14.73453077 24.59389084 14.72564246 21.19767189 14.70041466 C17.40355064 14.67606773 13.61021549 14.67698087 9.81604004 14.68392944 C8.69937454 14.67111938 7.58270905 14.65830933 6.4322052 14.64511108 C-1.7566587 14.69970193 -7.28605335 16.10438221 -13.14807129 21.96640015 Z " fill="#000001" transform="translate(333.3355712890625,24.846099853515625)"/>
<path d="M0 0 C1.2527774 -0.00671722 2.50555481 -0.01343445 3.79629517 -0.02035522 C7.22219629 -0.03607121 10.64785491 -0.04270874 14.07377529 -0.0439868 C16.21835548 -0.04541184 18.36291052 -0.04968817 20.50748444 -0.05498123 C28.00142521 -0.07346839 35.49529499 -0.08165373 42.98925781 -0.08007812 C49.95458623 -0.07887794 56.91960417 -0.09995916 63.88485408 -0.13156545 C69.88085015 -0.15779564 75.87674526 -0.16844257 81.8727982 -0.16716731 C85.44683209 -0.16665953 89.02059004 -0.17223929 92.59456635 -0.19352341 C96.58669429 -0.21664977 100.5781356 -0.20734395 104.5703125 -0.1953125 C105.74052948 -0.20655151 106.91074646 -0.21779053 108.11642456 -0.22937012 C118.84182621 -0.14749382 127.6371223 2.89382194 135.54394531 10.29052734 C142.18609937 17.68576009 145.64375128 25.55602123 145.69111633 35.56326294 C145.70184929 37.12738167 145.70184929 37.12738167 145.71279907 38.72309875 C145.71548798 39.8566832 145.71817688 40.99026764 145.72094727 42.15820312 C145.72751846 43.36046036 145.73408966 44.56271759 145.74085999 45.80140686 C145.76056746 49.77954478 145.77225716 53.75766946 145.78222656 57.73583984 C145.78627729 59.11034031 145.7903943 60.48484059 145.79457664 61.85934067 C145.81361396 68.32050172 145.82784654 74.78165148 145.83618861 81.24283516 C145.84594787 88.67703627 145.87223889 96.1109386 145.91268951 103.54503453 C145.94295304 109.30662084 145.95766724 115.068122 145.96096963 120.82978618 C145.96330896 124.26360356 145.97212172 127.69710126 145.9974308 131.13083267 C146.02186073 134.96962294 146.02084939 138.80763965 146.01391602 142.64648438 C146.0331311 144.32864296 146.0331311 144.32864296 146.05273438 146.04478455 C145.97599586 157.75550481 142.32404259 167.13280608 134.48144531 175.85302734 C127.7292335 182.43023583 118.64556596 185.39289105 109.3605957 185.43769836 C108.33756851 185.44485367 107.31454132 185.45200897 106.26051331 185.4593811 C105.14877243 185.46207001 104.03703156 185.46475891 102.89160156 185.4675293 C101.1222953 185.47738609 101.1222953 185.47738609 99.31724548 185.48744202 C95.41365195 185.50715081 91.51007193 185.51884165 87.60644531 185.52880859 C86.25675436 185.53285973 84.9070636 185.53697676 83.55737305 185.54115868 C77.21047023 185.560199 70.86357892 185.57442907 64.51665306 185.58277065 C57.22057038 185.59252087 49.92479286 185.61878682 42.62881756 185.65927154 C36.97080848 185.68957564 31.31288612 185.70425319 25.65479755 185.70755166 C22.28455953 185.70988712 18.91490533 185.72066619 15.54470825 185.74401283 C11.77337775 185.76850905 8.00283196 185.76741925 4.23144531 185.76049805 C2.58812477 185.77971313 2.58812477 185.77971313 0.91160583 185.79931641 C-9.86078862 185.72777609 -20.1969409 183.42415625 -28.52246094 176.27490234 C-37.61490643 166.94366535 -39.90875227 157.26259109 -39.86010742 144.60742188 C-39.86697067 143.35435242 -39.87383392 142.10128296 -39.88090515 140.8102417 C-39.89601341 137.39261242 -39.89768281 133.97553123 -39.89196277 130.55790949 C-39.88885912 127.69533397 -39.89497649 124.83280713 -39.90100151 121.97023857 C-39.91502028 115.21156267 -39.9135081 108.45301324 -39.90209961 101.69433594 C-39.89062569 94.74371873 -39.90468759 87.79348771 -39.93149608 80.84292138 C-39.95371749 74.85536472 -39.96027589 68.86792871 -39.95441967 62.88033378 C-39.95106364 59.31305365 -39.95337393 55.74602087 -39.9706707 52.17877579 C-39.98913915 48.1965063 -39.97488659 44.21470452 -39.95776367 40.23242188 C-39.96743164 39.06534698 -39.97709961 37.89827209 -39.98706055 36.6958313 C-39.88503977 25.32550295 -36.66688355 17.6899288 -28.82714844 9.48974609 C-20.06200167 1.35996417 -11.66888757 -0.00897584 0 0 Z M-15.45605469 18.29052734 C-16.75542969 19.12583984 -16.75542969 19.12583984 -18.08105469 19.97802734 C-22.83261376 24.60454539 -24.66031099 29.40624129 -24.96398926 35.90625 C-24.98759783 38.08890464 -24.98943855 40.27186476 -24.97363281 42.45458984 C-24.98064209 43.65235046 -24.98765137 44.85011108 -24.99487305 46.08416748 C-25.00939953 49.34881154 -25.00608266 52.61280031 -24.9933567 55.87743378 C-24.98317479 59.30632319 -24.9926367 62.73517123 -24.99890137 66.1640625 C-25.00616278 71.92048919 -24.99662992 77.67671008 -24.97753906 83.43310547 C-24.95577298 90.07250017 -24.96282543 96.71140341 -24.98484468 103.35078621 C-25.00304192 109.06826523 -25.00553601 114.78559698 -24.99509001 120.50309563 C-24.98887868 123.91045045 -24.98795372 127.31757486 -25.00123596 130.72491455 C-25.01141802 134.5257671 -24.99587494 138.32568195 -24.97363281 142.12646484 C-24.98172974 143.24462585 -24.98982666 144.36278687 -24.99816895 145.51483154 C-24.9096782 153.69595924 -23.50123379 159.24534824 -17.64355469 165.10302734 C-10.2748895 170.15995443 -4.657533 170.72836572 4.11962891 170.67871094 C5.26686935 170.6839679 6.4141098 170.68922485 7.59611511 170.69464111 C11.37834396 170.70781537 15.16014987 170.69911054 18.94238281 170.68896484 C21.57882772 170.69098658 24.21527209 170.69389886 26.85171509 170.69766235 C32.37449699 170.70311102 37.89715831 170.69595337 43.41992188 170.68164062 C49.78598065 170.6653319 56.15175087 170.67059309 62.5178026 170.68711984 C68.66289396 170.70242883 74.80785842 170.70073837 80.95296097 170.69197464 C83.55798 170.68997802 86.16300643 170.69241294 88.76801682 170.6994133 C92.41536478 170.70706278 96.06216528 170.69537296 99.70947266 170.67871094 C101.31354729 170.68781998 101.31354729 170.68781998 102.95002747 170.69711304 C110.15682993 170.63636236 116.70924328 169.7993324 122.84863281 165.78271484 C123.36683594 165.24904297 123.88503906 164.71537109 124.41894531 164.16552734 C124.95261719 163.64732422 125.48628906 163.12912109 126.03613281 162.59521484 C130.69551021 155.47336856 130.98664893 147.78012966 130.96386719 139.50366211 C130.97233673 138.3577359 130.98080627 137.21180969 130.98953247 136.03115845 C131.01282259 132.26463551 131.01392656 128.49852292 131.01269531 124.73193359 C131.01980107 122.10074197 131.02750067 119.46955188 131.0357666 116.83836365 C131.05033375 111.3317433 131.05097061 105.82523624 131.04492188 100.31860352 C131.03828159 93.97510979 131.0611579 87.6321976 131.09823561 81.28882176 C131.13275179 75.15865766 131.13926016 69.02876635 131.13514709 62.89851189 C131.13683601 60.30267542 131.1464563 57.70683112 131.16429138 55.11105537 C131.1865232 51.47583483 131.17675592 47.8420045 131.15917969 44.20678711 C131.17244293 43.14414139 131.18570618 42.08149567 131.19937134 40.98664856 C131.11932907 33.83117225 129.67706143 28.22130311 125.54394531 22.29052734 C120.57734776 17.63516604 116.42102122 15.1728102 109.51603699 15.15008545 C108.47722885 15.14437531 107.43842072 15.13866516 106.36813354 15.13278198 C104.65921432 15.13110519 104.65921432 15.13110519 102.91577148 15.12939453 C101.11540688 15.12194717 101.11540688 15.12194717 99.27867126 15.11434937 C95.98514639 15.10224024 92.69168502 15.0947824 89.39814544 15.09033871 C87.3395528 15.0874061 85.28096571 15.08330092 83.22237587 15.07883453 C76.77883467 15.06516194 70.33530617 15.0554943 63.89175147 15.05163264 C56.45866488 15.04715325 49.0257623 15.02961004 41.59273165 15.00063205 C35.84400119 14.97899995 30.09532244 14.96892754 24.34655172 14.96759152 C20.91460393 14.96654452 17.48282917 14.96065934 14.0509243 14.94277191 C10.22057496 14.9257352 6.39067449 14.92758621 2.56030273 14.93408203 C1.42709595 14.92486725 0.29388916 14.91565247 -0.87365723 14.90615845 C-6.50656488 14.93611309 -10.5984591 15.10346841 -15.45605469 18.29052734 Z " fill="#000000" transform="translate(66.4560546875,24.70947265625)"/>
<path d="M0 0 C0.73140245 -0.00467997 1.4628049 -0.00935994 2.21637106 -0.01418173 C4.67393065 -0.02617413 7.13093697 -0.01665823 9.58850098 -0.00723267 C11.34760362 -0.01129649 13.10670371 -0.01663731 14.86579895 -0.02316284 C19.64879144 -0.03686476 24.43159028 -0.03152596 29.21458626 -0.02202559 C34.21402646 -0.01444386 39.21344979 -0.02147045 44.21289062 -0.02618408 C52.60944606 -0.03164598 61.00592239 -0.02443864 69.40246582 -0.01016235 C79.11767398 0.00616498 88.83269328 0.00087678 98.54789686 -0.01564157 C106.88086043 -0.02924408 115.21376706 -0.03118215 123.54673815 -0.02332556 C128.52729928 -0.01864224 133.50777156 -0.01804225 138.48832703 -0.02793503 C143.17017164 -0.03658447 147.85177215 -0.03061992 152.53359032 -0.01325226 C154.25453981 -0.00927657 155.97550976 -0.01043987 157.69645119 -0.01704025 C160.04050834 -0.02520338 162.38377671 -0.01499842 164.7277832 0 C166.04112892 0.00113108 167.35447464 0.00226215 168.70761871 0.00342751 C171.8638916 0.38095093 171.8638916 0.38095093 173.75521088 1.72507286 C175.46746425 4.28242119 175.74160652 6.32382389 175.8638916 9.38095093 C174.66918829 12.14763228 173.70263695 13.81789418 171.18905544 15.5052824 C168.00327418 16.70506383 165.25266637 16.63612595 161.84877014 16.64164734 C160.7892535 16.64738566 160.7892535 16.64738566 159.70833248 16.65323991 C157.3415714 16.66355843 154.97505344 16.65958 152.60827637 16.65560913 C150.91138484 16.65995624 149.21449528 16.66513938 147.51760864 16.6710968 C142.90813058 16.68449802 138.29873445 16.68506424 133.68924069 16.6825335 C129.84221642 16.68146458 125.99520877 16.68634513 122.14818805 16.69113892 C113.07318533 16.70223794 103.998224 16.70266926 94.92321777 16.69662476 C85.55851339 16.69058325 76.19395919 16.70289956 66.82928044 16.72419482 C58.79096186 16.7418024 50.75269113 16.74781353 42.71435398 16.74455708 C37.91258629 16.74274278 33.11092574 16.74539511 28.30917549 16.75927162 C23.79393971 16.77183167 19.27893832 16.76992319 14.76370621 16.75686073 C13.10648075 16.75449144 11.4492389 16.75724225 9.79203224 16.76548386 C7.52974737 16.77592346 5.26825301 16.76787377 3.0059967 16.75517273 C1.74003945 16.75534047 0.4740822 16.75550821 -0.83023739 16.75568104 C-4.40243535 16.35076199 -6.27295851 15.50854205 -9.1361084 13.38095093 C-11.09749227 10.79549037 -11.14909104 9.59300067 -10.9486084 6.31845093 C-9.2118778 0.03950183 -6.16055349 0.00530558 0 0 Z " fill="#000000" transform="translate(310.1361083984375,246.61904907226563)"/>
<path d="M0 0 C0.66 -0.0103125 1.32 -0.020625 2 -0.03125 C4.97901241 0.76005017 6.09680579 2.08934522 8 4.5 C8.50336456 7.74529266 8.50336456 7.74529266 8.50793457 11.67370605 C8.51729451 12.75878236 8.51729451 12.75878236 8.52684355 13.8657794 C8.54280213 16.29040818 8.53015887 18.71403559 8.51757812 21.13867188 C8.522998 22.87659797 8.5301199 24.61451947 8.53881836 26.35243225 C8.55707074 31.07350212 8.54997631 35.79422278 8.53730202 40.51529884 C8.52718426 45.45287654 8.53656429 50.39042407 8.54284668 55.32800293 C8.55012666 63.62025325 8.54052619 71.91236114 8.52148438 80.20458984 C8.49971497 89.79545046 8.50676609 99.38597096 8.52879 108.97682333 C8.54693402 117.20707663 8.54950721 125.43722746 8.53903532 133.6674943 C8.5327949 138.58494041 8.53197983 143.5022266 8.54518127 148.41966248 C8.55672464 153.0424996 8.54874186 157.66489767 8.52560425 162.2876873 C8.52030904 163.98563851 8.5218448 165.68362658 8.53065491 167.38156319 C8.54156249 169.69697452 8.52790669 172.01097301 8.50793457 174.32629395 C8.50642647 175.62267036 8.50491837 176.91904678 8.50336456 178.25470734 C7.91447322 182.05140838 7.01687959 183.20496017 4 185.5 C0.51035729 186.87749054 -0.72477566 186.61114829 -4.25 185.1875 C-7 183.5 -7 183.5 -8 181.5 C-8.10334545 179.19072504 -8.13956178 176.87837674 -8.14717102 174.56680298 C-8.15268605 173.48428995 -8.15268605 173.48428995 -8.1583125 172.37990797 C-8.16937037 169.94939118 -8.1731967 167.51891711 -8.17700195 165.08837891 C-8.18326493 163.35075239 -8.18991158 161.61312723 -8.19691467 159.87550354 C-8.21433772 155.14617005 -8.22487959 150.41684668 -8.2331202 145.68748903 C-8.23826668 142.73491902 -8.24434252 139.78235217 -8.25063133 136.82978439 C-8.26968546 127.59803259 -8.28391717 118.36628882 -8.2922433 109.13452113 C-8.30202315 98.46621202 -8.32836121 87.79810998 -8.36874419 77.12987387 C-8.39886408 68.89119621 -8.41370817 60.65257805 -8.41702431 52.41384637 C-8.41937917 47.48962691 -8.42839617 42.56562862 -8.45348549 37.64146805 C-8.47669971 33.01050358 -8.4810264 28.37990695 -8.47072411 23.74889946 C-8.47022704 22.047705 -8.47659761 20.34649283 -8.49028015 18.64535332 C-8.50789752 16.32551188 -8.50094446 14.00700519 -8.48774719 11.68716431 C-8.49013555 10.38819025 -8.4925239 9.08921619 -8.49498463 7.75087929 C-7.73986438 2.79152373 -5.14387022 -0.08037297 0 0 Z " fill="#000000" transform="translate(256,24.5)"/>
<path d="M0 0 C2.47956368 3.71934552 2.25594205 5.60867272 2.26742554 10.05345154 C2.27195665 10.77598132 2.27648776 11.4985111 2.28115618 12.24293572 C2.29384322 14.67040383 2.29217707 17.09764883 2.29052734 19.52514648 C2.29650987 21.26292206 2.30331477 23.00069496 2.31088257 24.73846436 C2.32857675 29.46362536 2.33323935 34.18871397 2.33451414 38.91390491 C2.33641128 42.85541682 2.34376658 46.7969118 2.35085833 50.73841721 C2.36715248 60.03533697 2.3720263 69.33221799 2.37060547 78.62915039 C2.36940339 88.22735234 2.39051597 97.82532965 2.4220928 107.42347473 C2.44822034 115.65793527 2.45897427 123.89232227 2.45769465 132.12682396 C2.45718403 137.04766198 2.46292256 141.96830039 2.48405075 146.88909721 C2.50337421 151.51598867 2.50359821 156.14248889 2.48901749 160.76939392 C2.48692102 162.46897005 2.49167994 164.16857029 2.5037384 165.86810493 C2.51911919 168.1857221 2.50993191 170.50197808 2.49447632 172.81956482 C2.49556585 174.11724006 2.49665539 175.41491529 2.49777794 176.75191402 C1.91704777 180.54127748 1.01740335 181.71698439 -2 184 C-4 184.53125 -4 184.53125 -6 184.5 C-6.66 184.5103125 -7.32 184.520625 -8 184.53125 C-10.97901241 183.73994983 -12.09680579 182.41065478 -14 180 C-14.50336456 176.75470734 -14.50336456 176.75470734 -14.50793457 172.82629395 C-14.51729451 171.74121764 -14.51729451 171.74121764 -14.52684355 170.6342206 C-14.54280213 168.20959182 -14.53015887 165.78596441 -14.51757812 163.36132812 C-14.522998 161.62340203 -14.5301199 159.88548053 -14.53881836 158.14756775 C-14.55707074 153.42649788 -14.54997631 148.70577722 -14.53730202 143.98470116 C-14.52718426 139.04712346 -14.53656429 134.10957593 -14.54284668 129.17199707 C-14.55012666 120.87974675 -14.54052619 112.58763886 -14.52148438 104.29541016 C-14.49971497 94.70454954 -14.50676609 85.11402904 -14.52879 75.52317667 C-14.54693402 67.29292337 -14.54950721 59.06277254 -14.53903532 50.8325057 C-14.5327949 45.91505959 -14.53197983 40.9977734 -14.54518127 36.08033752 C-14.55672464 31.4575004 -14.54874186 26.83510233 -14.52560425 22.2123127 C-14.52030904 20.51436149 -14.5218448 18.81637342 -14.53065491 17.11843681 C-14.54156249 14.80302548 -14.52790669 12.48902699 -14.50793457 10.17370605 C-14.50642647 8.87732964 -14.50491837 7.58095322 -14.50336456 6.24529266 C-13.91290818 2.43850153 -13.04610091 1.28079985 -10 -1 C-6.00471255 -2.33176248 -3.90144863 -1.41870859 0 0 Z " fill="#000000" transform="translate(262,303)"/>
<path d="M0 0 C1.08507631 -0.00935994 1.08507631 -0.00935994 2.19207335 -0.01890898 C4.61670212 -0.03486756 7.04032954 -0.0222243 9.46496582 -0.00964355 C11.20289192 -0.01506343 12.94081342 -0.02218533 14.6787262 -0.03088379 C19.39979607 -0.04913617 24.12051672 -0.04204174 28.84159279 -0.02936745 C33.77917049 -0.01924969 38.71671802 -0.02862972 43.65429688 -0.03491211 C51.9465472 -0.04219208 60.23865508 -0.03259162 68.53088379 -0.0135498 C78.1217444 0.0082196 87.71226491 0.00116848 97.30311728 -0.02085543 C105.53337058 -0.03899945 113.76352141 -0.04157264 121.99378824 -0.03110075 C126.91123436 -0.02486033 131.82852054 -0.02404526 136.74595642 -0.0372467 C141.36879355 -0.04879007 145.99119162 -0.04080729 150.61398125 -0.01766968 C152.31193245 -0.01237447 154.00992053 -0.01391023 155.70785713 -0.02272034 C158.02326847 -0.03362792 160.33726696 -0.01997212 162.65258789 0 C164.59715252 0.00226215 164.59715252 0.00226215 166.58100128 0.00457001 C170.37854912 0.5935927 171.53309281 1.48790894 173.82629395 4.50793457 C174.76379395 6.94543457 174.76379395 6.94543457 174.82629395 9.50793457 C173.20473766 12.99428058 172.06176103 14.35095651 168.82629395 16.50793457 C165.73807716 16.76520348 165.73807716 16.76520348 161.85549927 16.77536011 C161.14184216 16.77989122 160.42818505 16.78442233 159.69290197 16.78909075 C157.29540609 16.80177702 154.89813614 16.80011169 152.50061035 16.79846191 C150.78416144 16.80444454 149.06771523 16.81124947 147.35127258 16.81881714 C142.68389365 16.8365116 138.01658802 16.84117397 133.34917879 16.84244871 C129.45498228 16.84434608 125.56080291 16.85170177 121.66661298 16.8587929 C112.47992231 16.87508762 103.29327085 16.87996087 94.10656738 16.87854004 C84.62539979 16.87733837 75.14445975 16.89844279 65.66334975 16.93002737 C57.52738644 16.95616646 49.39149756 16.96690833 41.25549257 16.96562922 C36.39442539 16.96511888 31.53356036 16.97084165 26.67253494 16.99198532 C22.10063091 17.01132785 17.52912268 17.0115196 12.95720482 16.99695206 C11.2790119 16.99485788 9.60079447 16.99960103 7.92264366 17.01167297 C5.63164727 17.02708626 3.34202229 17.01784482 1.05105591 17.00241089 C-0.23094885 17.00350042 -1.51295361 17.00458996 -2.83380699 17.00571251 C-6.74603434 16.42263487 -8.40728625 15.28275028 -11.17370605 12.50793457 C-11.8026123 10.50793457 -11.8026123 10.50793457 -11.73620605 8.50793457 C-11.73749512 7.84793457 -11.73878418 7.18793457 -11.7401123 6.50793457 C-10.02503073 0.45192239 -5.60398505 0.00651924 0 0 Z " fill="#000000" transform="translate(38.1737060546875,247.4920654296875)"/>
<path d="M0 0 C2.35352451 1.56901634 2.87641182 2.6733741 3.875 5.3125 C4.0431427 8.92756814 2.86997685 10.95263032 1 14 C-2.09173752 15.54586876 -4.59429552 15.29359521 -8 15 C-10.4375 13.5 -10.4375 13.5 -12 11 C-12.61014545 8.1910285 -12.65360928 5.80363979 -12 3 C-8.3655827 -1.51548816 -5.40521016 -1.50144727 0 0 Z " fill="#000000" transform="translate(261,248)"/>
</svg>
