<?xml version="1.0" encoding="UTF-8"?>
<svg version="1.1" xmlns="http://www.w3.org/2000/svg" width="512" height="512">
<path d="M0 0 C2.46110178 2.15859913 4.75079072 4.39182276 7.01171875 6.7578125 C7.95917969 7.67626953 7.95917969 7.67626953 8.92578125 8.61328125 C20.47765361 20.5468234 25.02291951 37.36448358 25.06884766 53.56298828 C24.63651576 70.1726623 17.4412846 85.77874829 6.01171875 97.7578125 C3.42888195 100.20354666 0.78476279 102.53052712 -1.98828125 104.7578125 C-1.06789063 105.098125 -0.1475 105.4384375 0.80078125 105.7890625 C14.26234778 110.89115577 26.08072219 117.25416921 37.01171875 126.7578125 C37.84316406 127.45648438 38.67460937 128.15515625 39.53125 128.875 C45.81763015 134.30195183 50.93480172 140.19706223 56.01171875 146.7578125 C59.2776288 145.9685676 59.2776288 145.9685676 61.38671875 142.8203125 C70.09428732 132.40537754 81.89291364 126.32717352 94.01171875 120.7578125 C93.14546875 119.7884375 92.27921875 118.8190625 91.38671875 117.8203125 C82.02272843 106.77787108 76.51626951 94.51234709 76.73828125 79.79296875 C78.1790613 63.80031023 84.63604339 51.1655526 97.01171875 40.7578125 C108.76818396 32.17521729 122.07408721 29.66640499 136.44921875 31.2578125 C149.59662514 33.65546753 160.80623357 40.91427054 169.0390625 51.3203125 C177.32141174 63.36736595 179.57780182 76.43117702 178.01171875 90.7578125 C175.63972705 102.57779363 169.17045323 112.11631266 161.01171875 120.7578125 C162.01589844 121.21929687 163.02007812 121.68078125 164.0546875 122.15625 C186.64310493 132.81744997 202.83022162 148.75154496 213.01171875 171.7578125 C213.35203125 172.49128906 213.69234375 173.22476563 214.04296875 173.98046875 C217.04887396 181.42565063 217.39016092 190.51480927 215.35546875 198.25390625 C211.96029955 205.76132779 206.07840763 210.67122847 198.65944099 213.89446259 C193.90648383 215.44427211 189.20651333 215.27905644 184.24975586 215.21191406 C183.10727386 215.21249817 181.96479187 215.21308228 180.78768921 215.21368408 C177.03783032 215.21091302 173.28878133 215.17986571 169.5390625 215.1484375 C166.92876113 215.14097167 164.31845413 215.13528036 161.70814514 215.13128662 C155.55655353 215.11889878 149.40524933 215.0861348 143.25378376 215.04588866 C136.24528481 215.00103951 129.23677149 214.97915105 122.22816455 214.95910692 C107.82253498 214.9173978 93.41713089 214.84712825 79.01171875 214.7578125 C79.01761017 215.33421478 79.02350159 215.91061707 79.02957153 216.50448608 C79.05308472 219.13839313 79.06763296 221.772278 79.08203125 224.40625 C79.09145752 225.3130249 79.10088379 226.2197998 79.1105957 227.15405273 C79.15701002 238.47398846 76.09450549 247.944495 68.41796875 256.54296875 C61.25408871 263.14928266 52.54388111 266.87351263 42.88475037 266.90498352 C42.15420332 266.90866021 41.42365628 266.9123369 40.67097145 266.916125 C38.21610606 266.92716265 35.76128299 266.93100586 33.30639648 266.93481445 C31.54880133 266.94107919 29.79120749 266.947726 28.03361511 266.95472717 C22.2541903 266.97577393 16.47476521 266.98613216 10.6953125 266.99609375 C8.70477853 267.00014149 6.7142447 267.00425842 4.72371101 267.00844383 C-4.63085505 267.02749918 -13.98541322 267.04172783 -23.33999497 267.0500558 C-34.1304843 267.05982099 -44.9207681 267.08612034 -55.71118504 267.12655669 C-64.05528356 267.15674978 -72.3993233 267.17152783 -80.74347538 267.17483681 C-85.72487977 267.17718424 -90.70606468 267.18610428 -95.68741035 267.21129799 C-100.3783218 267.23463865 -105.06887021 267.23878788 -109.75982475 267.22853661 C-111.47623784 267.22804254 -113.19266916 267.23432463 -114.9090271 267.24809265 C-128.42693321 267.35041029 -138.95728387 265.53899577 -148.98828125 255.7578125 C-155.14765466 248.15945883 -159.14979887 239.79304388 -159.0859375 229.89453125 C-159.08271484 229.00830078 -159.07949219 228.12207031 -159.07617188 227.20898438 C-159.06779297 226.29697266 -159.05941406 225.38496094 -159.05078125 224.4453125 C-159.04626953 223.51396484 -159.04175781 222.58261719 -159.03710938 221.62304688 C-159.02537359 219.33456877 -159.00895488 217.04622442 -158.98828125 214.7578125 C-159.88031706 214.76334326 -159.88031706 214.76334326 -160.7903738 214.76898575 C-175.28908187 214.85748767 -189.78777392 214.9235953 -204.2866888 214.96506119 C-211.29840255 214.98564903 -218.30993552 215.01369673 -225.3215332 215.05957031 C-232.09073659 215.10383675 -238.85975221 215.12696448 -245.62909126 215.13732147 C-248.20902013 215.14470043 -250.78893896 215.15910976 -253.36878777 215.18073273 C-256.98818865 215.20985654 -260.60681876 215.21376457 -264.22631836 215.21191406 C-265.28799728 215.22629517 -266.34967621 215.24067627 -267.44352722 215.25549316 C-275.09570105 215.21328259 -281.01520561 213.62991537 -287.2578125 209.1171875 C-293.38024633 202.73125652 -296.18763785 197.7625351 -296.61328125 188.7578125 C-296.05554819 169.44870944 -283.67541963 151.61357281 -270.14453125 138.60546875 C-261.19847012 130.93973158 -251.89535326 125.21485522 -240.98828125 120.7578125 C-241.73271484 120.00951172 -241.73271484 120.00951172 -242.4921875 119.24609375 C-254.30202708 106.76396729 -258.6819409 94.06104398 -258.296875 77.3046875 C-257.6455878 64.34380204 -251.52817122 52.23161975 -242.0625 43.3828125 C-229.95106667 33.89438262 -217.13022549 29.81360298 -201.7734375 31.0078125 C-190.73048339 32.59958967 -182.34767485 36.39655545 -173.98828125 43.7578125 C-173.35921875 44.304375 -172.73015625 44.8509375 -172.08203125 45.4140625 C-161.86649042 54.91272327 -157.06937438 68.12367808 -156.55078125 81.9453125 C-157.33643232 97.52739199 -163.27918048 108.79206661 -173.98828125 119.7578125 C-170.95519658 122.20871741 -167.898881 123.81744402 -164.36328125 125.4453125 C-158.17331712 128.48758198 -153.1749672 132.24992102 -147.98828125 136.7578125 C-147.22 137.40492188 -146.45171875 138.05203125 -145.66015625 138.71875 C-142.63198532 141.30032018 -140.21023646 143.42487968 -137.98828125 146.7578125 C-137.32828125 146.7578125 -136.66828125 146.7578125 -135.98828125 146.7578125 C-134.53425783 145.1201853 -133.14979447 143.42047054 -131.80078125 141.6953125 C-117.66139702 124.12751974 -99.29041671 112.01658811 -77.98828125 104.7578125 C-78.70113281 104.15195312 -79.41398438 103.54609375 -80.1484375 102.921875 C-95.52162024 89.47292644 -103.30969547 73.44957372 -105.234375 53.1640625 C-105.79170093 35.06736185 -98.12257564 18.09097259 -85.92578125 5.0703125 C-62.45737953 -17.43363435 -26.00324482 -19.51093141 0 0 Z " fill="#000101" transform="translate(295.98828125,245.2421875)"/>
<path d="M0 0 C3.49428297 2.85176984 6.76547654 5.85915098 10 9 C11.11955078 10.00933594 11.11955078 10.00933594 12.26171875 11.0390625 C28.19795284 25.89063144 39.4851497 48.9197851 40.50549316 70.74227905 C40.58731667 73.85374504 40.60197757 76.9606366 40.57641602 80.07299805 C40.56236261 82.46084389 40.59700754 84.84489296 40.63476562 87.23242188 C40.68048307 96.33072474 40.06675211 102.74206588 33.55712891 109.49731445 C28.2656335 114.37479054 22.82282932 115.24862961 15.84048462 115.26742554 C15.14271514 115.27195665 14.44494567 115.27648776 13.72603166 115.28115618 C11.40013117 115.29376356 9.07446593 115.29218222 6.74853516 115.29052734 C5.0759196 115.29651485 3.40330681 115.30332091 1.73069763 115.31088257 C-2.80447838 115.32852617 -7.33957888 115.33323723 -11.8747859 115.33451414 C-14.71015804 115.33593711 -17.54551106 115.34020945 -20.38087845 115.34550858 C-30.27801988 115.3640027 -40.17510749 115.37217987 -50.07226562 115.37060547 C-59.28930154 115.3694039 -68.50610336 115.39051077 -77.72308004 115.4220928 C-85.64429078 115.44826505 -93.56542509 115.45897238 -101.48667872 115.45769465 C-106.21421903 115.45718534 -110.94155118 115.46285151 -115.66904831 115.48405075 C-120.11624683 115.5034494 -124.56303894 115.50354657 -129.010252 115.48901749 C-130.63881081 115.48693038 -132.26739517 115.49162449 -133.89591026 115.5037384 C-150.75075427 115.62095763 -150.75075427 115.62095763 -158.0234375 109.21875 C-158.46945313 108.6515625 -158.91546875 108.084375 -159.375 107.5 C-160.06722656 106.64921875 -160.06722656 106.64921875 -160.7734375 105.78125 C-163.82764497 101.34584043 -164.32892918 97.70674543 -164.37109375 92.3671875 C-164.38229752 91.6220993 -164.39350128 90.87701111 -164.40504456 90.10934448 C-164.43235491 87.69766648 -164.43869427 85.28682618 -164.4375 82.875 C-164.43790283 82.05632446 -164.43830566 81.23764893 -164.4387207 80.39416504 C-164.40425564 68.30703144 -163.93210995 57.21329704 -159 46 C-158.71060547 45.32179199 -158.42121094 44.64358398 -158.12304688 43.94482422 C-146.61173492 17.60444957 -126.63560197 -2.7564953 -99.9375 -13.53125 C-66.62671168 -26.30257991 -28.57940111 -21.4620663 0 0 Z " fill="#89C8FD" transform="translate(318,381)"/>
<path d="M0 0 C6.17626297 2.9843958 7.68775672 6.82380224 9.875 12.9375 C10.20306641 13.80616699 10.53113281 14.67483398 10.86914062 15.56982422 C11.56478605 17.4155286 12.25241371 19.26427175 12.93261719 21.11572266 C14.0227827 24.06156331 15.15019934 26.99063643 16.2890625 29.91796875 C19.31188326 37.71453016 19.31188326 37.71453016 20.53125 40.9140625 C20.95760742 42.0270874 20.95760742 42.0270874 21.39257812 43.16259766 C22 45 22 45 22 47 C23.12051758 46.9858606 23.12051758 46.9858606 24.26367188 46.97143555 C32.65576508 46.91326366 41.00361982 47.19131896 49.37792969 47.68969727 C51.5249056 47.81394127 53.6723603 47.91955021 55.8203125 48.02539062 C57.20319178 48.10562809 58.58600768 48.18696726 59.96875 48.26953125 C61.20044922 48.33760986 62.43214844 48.40568848 63.70117188 48.47583008 C67.98089618 49.15586028 70.62381736 50.76618108 73.8125 53.625 C75.63979084 57.27958168 75.68834991 60.99812259 75 65 C72.93008222 69.49427353 69.76043443 72.05114622 65.875 74.9375 C64.62598897 75.88981238 63.37867425 76.84435252 62.1328125 77.80078125 C61.13749512 78.56382568 61.13749512 78.56382568 60.12207031 79.34228516 C55.499911 82.95301476 51.01538744 86.73585957 46.51123047 90.49194336 C45.82174316 91.06436768 45.13225586 91.63679199 44.421875 92.2265625 C43.50293457 92.99347412 43.50293457 92.99347412 42.56542969 93.77587891 C41 95 41 95 39 96 C39.5189087 98.10464213 40.04036234 100.20865662 40.5625 102.3125 C40.73088379 103.00021484 40.89926758 103.68792969 41.07275391 104.39648438 C42.26615144 109.21967025 43.55244273 114.00891174 44.89453125 118.79296875 C45.2205835 119.98043701 45.54663574 121.16790527 45.88256836 122.39135742 C46.53588468 124.76692163 47.20429917 127.13839348 47.88891602 129.50512695 C49.68199917 136.1033479 50.60181139 140.57066838 48 147 C44.78891423 150.13080862 42.35082888 151.84557107 37.890625 152.35546875 C32.85112199 151.89503223 29.92249141 150.03530207 25.75 147.3125 C24.98147705 146.83079346 24.2129541 146.34908691 23.42114258 145.8527832 C19.11727231 143.12423117 14.92593683 140.26343405 10.77734375 137.3046875 C9.92624023 136.70229248 9.07513672 136.09989746 8.19824219 135.47924805 C6.54668689 134.30064397 4.90746358 133.10453125 3.28222656 131.88989258 C-0.73466266 128.77988077 -0.73466266 128.77988077 -5.5234375 128.30078125 C-6.34070313 128.86152344 -7.15796875 129.42226562 -8 130 C-8.59675537 130.37987061 -9.19351074 130.75974121 -9.80834961 131.15112305 C-12.00591039 132.56020414 -14.1582572 134.0256203 -16.3125 135.5 C-17.91837275 136.57946224 -19.52516295 137.65756073 -21.1328125 138.734375 C-24.71187565 141.13557294 -24.71187565 141.13557294 -28.28808594 143.54101562 C-30.41058185 144.9610284 -32.54647029 146.35813964 -34.6875 147.75 C-35.32147705 148.17990234 -35.9554541 148.60980469 -36.60864258 149.05273438 C-40.89668061 151.80563318 -43.94112885 152.54092425 -49 152 C-52.65691682 150.33776508 -55.00179234 148.4968634 -57 145 C-58.4808766 139.56824286 -57.424485 135.53407086 -55.9453125 130.27734375 C-55.72430878 129.4542421 -55.50330505 128.63114044 -55.27560425 127.78309631 C-54.57008924 125.16466304 -53.84807827 122.5511317 -53.125 119.9375 C-52.41274796 117.31940789 -51.70387516 114.70042168 -50.99581909 112.08119202 C-50.55498439 110.45534146 -50.11105367 108.83032628 -49.66360474 107.20628357 C-48.64310532 103.48757317 -47.68686627 99.79854996 -47 96 C-48.32451172 94.96552734 -48.32451172 94.96552734 -49.67578125 93.91015625 C-56.33097683 88.7023096 -62.940143 83.45214137 -69.453125 78.06640625 C-72.63833803 75.48208464 -75.9137252 73.02882694 -79.22265625 70.60546875 C-81.77723884 68.29792272 -82.78800778 66.22732337 -83.37109375 62.8515625 C-83.49616757 58.65791079 -83.37572369 55.85218255 -80.6875 52.5 C-76.6890237 48.78048716 -73.45588904 48.79948708 -68.1640625 48.46484375 C-67.48886566 48.42186661 -66.81366882 48.37888947 -66.11801147 48.33460999 C-64.68410416 48.24443784 -63.25006705 48.15631002 -61.81591797 48.07006836 C-59.66722077 47.9400547 -57.51919391 47.80159962 -55.37109375 47.66210938 C-46.90390625 47.12992604 -38.48807727 46.8761735 -30 47 C-29.85159668 46.46157471 -29.70319336 45.92314941 -29.55029297 45.3684082 C-27.39487794 37.85835063 -24.71567233 30.56571097 -21.92138672 23.27563477 C-21.38793129 21.87690874 -20.86063546 20.47581884 -20.33935547 19.07250977 C-19.57532599 17.01574622 -18.79370223 14.96646398 -18.0078125 12.91796875 C-17.55035645 11.70906982 -17.09290039 10.5001709 -16.62158203 9.25463867 C-13.0525558 2.09133113 -8.06937433 -1.51648586 0 0 Z " fill="#010100" transform="translate(260,63)"/>
<path d="M0 0 C4.69568458 2.53756692 6.80592934 4.62026842 8.75 9.5625 C9.23210937 10.77550781 9.71421875 11.98851563 10.2109375 13.23828125 C10.80944286 14.82471093 11.40546814 16.41207694 12 18 C12.40895508 19.07685059 12.81791016 20.15370117 13.23925781 21.26318359 C15.52701993 27.29582371 17.79277089 33.33663 20.0234375 39.390625 C20.40419434 40.42219727 20.78495117 41.45376953 21.17724609 42.51660156 C22 45 22 45 22 47 C22.74193604 46.99202393 23.48387207 46.98404785 24.24829102 46.97583008 C32.76520713 46.92568844 41.24651529 47.13690154 49.75024414 47.57983398 C51.22050838 47.65220663 52.69127916 47.71487857 54.16235352 47.76831055 C56.32738468 47.8477897 58.4890244 47.95775106 60.65234375 48.07421875 C61.92070068 48.13182373 63.18905762 48.18942871 64.49584961 48.2487793 C69.02406061 49.21953839 70.72871403 50.77411873 74 54 C75.20755308 56.41510615 75.23572748 58.11738049 75.3125 60.8125 C75.36857422 62.09060547 75.36857422 62.09060547 75.42578125 63.39453125 C74.46165525 69.29427478 69.32170649 72.53542472 64.8125 75.9375 C63.57573501 76.89442893 62.34011353 77.85283708 61.10546875 78.8125 C60.44853027 79.32167969 59.7915918 79.83085937 59.11474609 80.35546875 C55.26029379 83.35288167 51.43156008 86.37950864 47.625 89.4375 C46.86936768 90.02845459 46.11373535 90.61940918 45.33520508 91.22827148 C44.63935303 91.79102783 43.94350098 92.35378418 43.2265625 92.93359375 C42.60346191 93.42915771 41.98036133 93.92472168 41.33837891 94.43530273 C39.5666601 96.16344831 39.5666601 96.16344831 40 100 C40.69257727 102.82969871 41.43123209 105.62014403 42.22265625 108.421875 C42.6835129 110.10401056 43.14378076 111.78630751 43.60351562 113.46875 C44.33023959 116.10799576 45.06130993 118.74577177 45.80297852 121.38085938 C46.51871663 123.9327254 47.21565078 126.48916105 47.91015625 129.046875 C48.13405533 129.82424011 48.35795441 130.60160522 48.58863831 131.40252686 C50.00059531 136.67066179 50.11805188 140.63768589 49 146 C46.96115165 148.99455852 45.42706704 150.5379021 41.94921875 151.6640625 C32.16402395 153.3878792 24.33009201 146.38456281 16.625 141.125 C9.86742614 136.53103532 3.05290849 132.12922637 -4 128 C-12.72185776 133.38669271 -21.3851243 138.8315936 -29.86157227 144.59912109 C-42.25359692 152.98129499 -42.25359692 152.98129499 -49 152 C-52.70390021 149.97333762 -54.65363011 148.51955484 -57 145 C-58.95387331 135.50154327 -54.54711545 125.07871704 -51.9375 116.0625 C-51.20790427 113.52298728 -50.48222943 110.98259614 -49.76673889 108.43907166 C-49.32355108 106.86514101 -48.87206351 105.29351818 -48.41136169 103.72462463 C-47.14131183 99.37644476 -47.14131183 99.37644476 -48 95 C-49.98559422 93.28611867 -51.97033151 91.69857508 -54.0625 90.125 C-55.33418739 89.14563923 -56.60498436 88.16512144 -57.875 87.18359375 C-58.5453125 86.66780762 -59.215625 86.15202148 -59.90625 85.62060547 C-63.48898102 82.84749814 -67.03095826 80.02536802 -70.5625 77.1875 C-71.22838135 76.6610791 -71.8942627 76.1346582 -72.58032227 75.59228516 C-82.14513911 67.88847405 -82.14513911 67.88847405 -83.62890625 62.875 C-83.45225834 57.88729424 -82.34875346 54.90687904 -79 51 C-76.11271729 49.23614087 -73.77101251 48.70495021 -70.41503906 48.49755859 C-69.51440735 48.4376474 -68.61377563 48.37773621 -67.68585205 48.31600952 C-66.24033966 48.23306137 -66.24033966 48.23306137 -64.765625 48.1484375 C-63.27588165 48.05280014 -63.27588165 48.05280014 -61.75604248 47.95523071 C-58.58781036 47.7537077 -55.41898911 47.56420771 -52.25 47.375 C-50.10021068 47.24037523 -47.95047021 47.10496791 -45.80078125 46.96875 C-40.53438707 46.6367551 -35.26745888 46.31462498 -30 46 C-29.57178955 44.81446533 -29.1435791 43.62893066 -28.70239258 42.4074707 C-27.10432813 37.99470606 -25.48790945 33.58885244 -23.8659668 29.18481445 C-23.16760853 27.28071596 -22.47418742 25.37479891 -21.78588867 23.46704102 C-20.79349239 20.71914229 -19.78330283 17.97835474 -18.76953125 15.23828125 C-18.46723099 14.38913651 -18.16493073 13.53999176 -17.85346985 12.66511536 C-14.67132535 4.17271882 -9.83227948 -1.84779045 0 0 Z " fill="#010100" transform="translate(437,63)"/>
<path d="M0 0 C5.12515159 4.5556903 7.18485154 12.12184557 9.484375 18.4375 C9.76726379 19.20304199 10.05015259 19.96858398 10.34161377 20.75732422 C11.23205158 23.16998813 12.11612933 25.58492357 13 28 C13.60765134 29.64989491 14.21572053 31.29963599 14.82421875 32.94921875 C16.3043095 36.96438595 17.77870654 40.98160128 19.25 45 C19.80266037 45.03092239 20.35532074 45.06184479 20.92472839 45.09370422 C26.68465437 45.41863261 32.44324129 45.76235755 38.20141602 46.11694336 C40.34956808 46.24675625 42.49801404 46.37179843 44.64672852 46.49194336 C47.73804223 46.66562873 50.82788742 46.85653233 53.91796875 47.05078125 C54.87648239 47.10091873 55.83499603 47.15105621 56.82255554 47.20271301 C61.69664975 47.5265625 65.3023868 47.83514966 69.25 51 C72.01903395 54.34193753 73.00212594 57.53270812 72.7578125 61.9140625 C69.57977889 74.96844673 46.56267671 87.177199 36.25 95 C36.78580475 97.37645165 37.32751047 99.75122676 37.875 102.125 C38.04741211 102.87402588 38.21982422 103.62305176 38.39746094 104.39477539 C39.44539749 108.85486239 40.58928573 113.2712888 41.8515625 117.67578125 C42.12403809 118.63274902 42.39651367 119.5897168 42.67724609 120.57568359 C43.21321159 122.43995291 43.75989573 124.30118451 44.31884766 126.15869141 C46.02023339 132.09658232 47.03497982 137.81255415 46.25 144 C44.20686327 147.50252011 42.15212767 149.77361702 38.25 151 C32.56342944 151.4911758 29.11017345 150.29664215 24.4375 147.25 C23.80658447 146.85603027 23.17566895 146.46206055 22.52563477 146.05615234 C16.40436541 142.197366 10.39306809 138.15407711 4.41674805 134.07519531 C0.47361446 131.39824623 -3.41255205 129.01454928 -7.75 127 C-8.60078125 127.57105469 -9.4515625 128.14210937 -10.328125 128.73046875 C-12.91873195 130.46711335 -15.51659174 132.19241896 -18.1171875 133.9140625 C-21.39445705 136.08612368 -24.64262448 138.29649163 -27.8828125 140.5234375 C-29.62987106 141.70362443 -31.37726311 142.88331784 -33.125 144.0625 C-33.94387695 144.63444092 -34.76275391 145.20638184 -35.60644531 145.7956543 C-40.82192213 149.27948744 -45.36063637 151.3746446 -51.75 151 C-54.625 149.75 -54.625 149.75 -56.75 148 C-57.3275 147.608125 -57.905 147.21625 -58.5 146.8125 C-60.93281379 143.28492001 -61.02312232 138.83376218 -60.40750122 134.70043945 C-59.82212317 132.19258889 -59.1524496 129.72514003 -58.44140625 127.25 C-58.19583481 126.35128174 -57.95026337 125.45256348 -57.69725037 124.52661133 C-56.91613266 121.68038202 -56.11470485 118.84034945 -55.3125 116 C-54.77663889 114.06157223 -54.24211962 112.122773 -53.70898438 110.18359375 C-52.40480654 105.45129058 -51.08239405 100.72443271 -49.75 96 C-54.8915535 91.35859197 -60.06775574 86.84253918 -65.5625 82.625 C-70.28043153 78.95650539 -74.95760768 75.24723747 -79.5625 71.4375 C-80.53832031 70.63183594 -81.51414062 69.82617188 -82.51953125 68.99609375 C-84.91199918 66.8550235 -85.6277049 65.97137247 -86.0234375 62.828125 C-86.33137554 55.01123631 -86.33137554 55.01123631 -83.375 51.4375 C-79.4233377 47.76809929 -77.12710133 47.78983152 -71.79296875 47.46484375 C-71.09416092 47.42186661 -70.39535309 47.37888947 -69.67536926 47.33460999 C-68.18841161 47.24429135 -66.70131889 47.15617407 -65.21411133 47.07006836 C-62.98411823 46.94021461 -60.75479012 46.80174136 -58.52539062 46.66210938 C-49.92389662 46.14029381 -41.37134224 45.8731188 -32.75 46 C-32.596521 45.44924805 -32.44304199 44.89849609 -32.28491211 44.33105469 C-30.21419326 37.15372641 -27.68956431 30.16672899 -25.04370117 23.18505859 C-24.30953725 21.24215934 -23.58727474 19.29508831 -22.86523438 17.34765625 C-22.3913446 16.09087426 -21.91675943 14.83435422 -21.44140625 13.578125 C-21.02060791 12.45825195 -20.59980957 11.33837891 -20.16625977 10.18457031 C-18.40254468 6.21871968 -16.46161175 2.3448378 -13 -0.375 C-8.44395638 -1.64056767 -4.38884098 -1.59594218 0 0 Z " fill="#010100" transform="translate(85.75,64)"/>
<path d="M0 0 C13.39437941 7.53090279 22.00764373 16.89554475 26.85546875 31.60546875 C30.24496703 44.79171045 27.96118425 57.43201288 21.43359375 69.16015625 C13.98971776 81.04634533 3.68104474 88.13657185 -9.78515625 91.9140625 C-23.27759335 94.69099432 -35.82645707 91.76462601 -47.38671875 84.55078125 C-54.93810175 79.22416831 -59.98774519 72.8206554 -64.14453125 64.60546875 C-64.55960938 63.785625 -64.9746875 62.96578125 -65.40234375 62.12109375 C-70.23263834 50.97426008 -69.49408823 37.88626469 -65.46484375 26.6015625 C-58.86560796 11.62637359 -48.67021031 4.04680458 -34.14453125 -2.39453125 C-23.86536858 -5.82091881 -9.66043821 -4.46154779 0 0 Z " fill="#F4DACC" transform="translate(276.14453125,252.39453125)"/>
<path d="M0 0 C0.98097656 0.36351562 1.96195312 0.72703125 2.97265625 1.1015625 C16.47694543 6.39401464 32.14235745 15.54847038 39 29 C38.5625 31.8125 38.5625 31.8125 37 35 C34.09454572 41.46529016 32.12181165 48.01353988 30.36328125 54.86328125 C30.13467407 55.74326782 29.90606689 56.62325439 29.67053223 57.52990723 C29.11086873 59.68589197 28.55410651 61.84258167 28 64 C12.96190046 64.09346901 -2.07617656 64.16399173 -17.11450481 64.20724869 C-24.09718731 64.22786815 -31.07968926 64.25597664 -38.06225586 64.30175781 C-44.79902954 64.34590636 -51.53557675 64.36912843 -58.27250099 64.37950897 C-60.84457161 64.38690794 -63.4166318 64.40135608 -65.98862267 64.42292023 C-69.58728729 64.45189617 -73.18517331 64.45595827 -76.78393555 64.45410156 C-77.85064484 64.46848267 -78.91735413 64.48286377 -80.01638794 64.49768066 C-87.25542069 64.45718382 -87.25542069 64.45718382 -91.11897278 62.0848999 C-94.23122456 58.63533077 -95.54421142 55.94397985 -95.37109375 51.16796875 C-92.56264376 34.76070829 -79.52277083 19.66941039 -66.42578125 10.2421875 C-47.5880289 -2.38960559 -21.8588756 -8.5253025 0 0 Z " fill="#6BF3C1" transform="translate(111,380)"/>
<path d="M0 0 C12.33576288 9.67359072 20.57172017 22.07263468 25.92578125 36.75390625 C26.39527065 41.05755908 26.21264489 43.21091435 24.17578125 47.06640625 C21.54676005 50.20662602 19.73236194 51.55960776 15.63759232 52.00000191 C14.79322994 51.99815832 13.94886757 51.99631474 13.07891846 51.99441528 C12.10579208 51.99716461 11.13266571 51.99991394 10.13005066 52.00274658 C9.06909683 51.99555603 8.00814301 51.98836548 6.91503906 51.98095703 C5.23167198 51.98139511 5.23167198 51.98139511 3.51429749 51.98184204 C-0.19757806 51.98044796 -3.90925324 51.96488282 -7.62109375 51.94921875 C-10.19370413 51.9454889 -12.76631592 51.9426418 -15.33892822 51.94064331 C-21.41975458 51.93378552 -27.50049817 51.91802026 -33.58129334 51.89794433 C-40.50506526 51.87558196 -47.42884063 51.86459106 -54.35263968 51.85455346 C-68.59320468 51.83365391 -82.83370916 51.79848003 -97.07421875 51.75390625 C-97.27981415 50.94505226 -97.27981415 50.94505226 -97.48956299 50.11985779 C-98.12245161 47.64117681 -98.76234616 45.16435454 -99.40234375 42.6875 C-99.61777832 41.83941772 -99.83321289 40.99133545 -100.05517578 40.11755371 C-101.59705908 34.17786388 -103.51626219 28.69308287 -106.05859375 23.1015625 C-107.86427972 18.92764992 -107.86427972 18.92764992 -108.07421875 16.75390625 C-100.03485446 1.33512548 -81.9247027 -8.73842345 -65.94921875 -13.80859375 C-42.40405999 -19.17679007 -19.3707427 -14.15270273 0 0 Z " fill="#6BF3C1" transform="translate(470.07421875,392.24609375)"/>
<path d="M0 0 C0.66 0 1.32 0 2 0 C2.33733154 0.91289795 2.67466309 1.8257959 3.0222168 2.76635742 C4.28510904 6.17282106 5.56601675 9.57227616 6.85229492 12.9699707 C7.40503653 14.43753926 7.95296665 15.90692985 8.49584961 17.37817383 C9.28001226 19.50065989 10.08162065 21.61584906 10.88671875 23.73046875 C11.24173714 24.70888985 11.24173714 24.70888985 11.60392761 25.70707703 C13.30912296 30.11641575 15.35911551 32.98764123 19 36 C21.84163624 36.61374433 24.13762184 36.90284673 27 37 C27.86012695 37.04640625 28.72025391 37.0928125 29.60644531 37.140625 C33.41734529 37.33364983 37.22973568 37.46764105 41.04296875 37.60546875 C45.77567014 37.79425601 50.34236075 38.05906278 55 39 C50.13687226 44.09470525 44.70853273 48.40657458 39.23828125 52.828125 C35.27724496 56.0530395 31.53011167 59.3069601 28 63 C27.67 63.33 27.34 63.66 27 64 C26.16369004 71.80555959 28.39637786 78.31345855 30.6875 85.66796875 C32.45549893 91.3720515 33.7510425 97.16137755 35 103 C32.3855983 101.72818716 29.8903666 100.36945501 27.42578125 98.828125 C26.76271973 98.41353027 26.0996582 97.99893555 25.41650391 97.57177734 C24.72218262 97.13559082 24.02786133 96.6994043 23.3125 96.25 C22.59497559 95.80479004 21.87745117 95.35958008 21.13818359 94.90087891 C17.3400384 92.53122824 13.70757295 90.06353769 10.125 87.375 C6.31485751 84.9099833 3.47637159 84.24361654 -1.03955078 84.35400391 C-7.46447004 85.75597788 -12.74397403 90.21769207 -18 94 C-19.83429953 95.28953902 -21.67297429 96.5724737 -23.5144043 97.85180664 C-25.16862375 99.00573466 -26.81120834 100.17628888 -28.453125 101.34765625 C-31 103 -31 103 -33 103 C-32.42271575 100.43599815 -31.83977895 97.87363953 -31.25 95.3125 C-31.07243164 94.54099609 -30.89486328 93.76949219 -30.71191406 92.97460938 C-29.5961754 88.23321029 -28.28666738 83.62646644 -26.75 79 C-25.21464806 74.12586684 -23.65058582 69.08014749 -25 64 C-27.88508855 59.68630481 -31.54376595 56.78355136 -35.625 53.6875 C-36.87009527 52.72695591 -38.11488454 51.76601505 -39.359375 50.8046875 C-39.97232422 50.33385742 -40.58527344 49.86302734 -41.21679688 49.37792969 C-43.79427288 47.38624368 -46.33499036 45.35176488 -48.875 43.3125 C-49.67679688 42.66925781 -50.47859375 42.02601563 -51.3046875 41.36328125 C-51.86414063 40.91339844 -52.42359375 40.46351563 -53 40 C-50.44947219 37.44947219 -49.41383801 37.71575768 -45.87109375 37.62109375 C-44.83533203 37.58693359 -43.79957031 37.55277344 -42.73242188 37.51757812 C-41.64509766 37.49115234 -40.55777344 37.46472656 -39.4375 37.4375 C-25.35643027 38.03376332 -25.35643027 38.03376332 -13 33 C-11.34804529 29.98734005 -10.17521777 26.84855599 -9 23.625 C-8.6596875 22.73264648 -8.319375 21.84029297 -7.96875 20.92089844 C-7.2859733 19.1266699 -6.61008423 17.32980388 -5.94140625 15.53027344 C-4.66144787 12.09005335 -3.32929949 8.67143562 -2 5.25 C-1.33187127 3.50055768 -0.66454046 1.75080851 0 0 Z " fill="#FCDE75" transform="translate(255,89)"/>
<path d="M0 0 C3.2290413 2.63174501 4.16108511 5.62706609 5.5234375 9.49609375 C5.99179934 10.78985413 6.46056185 12.08346951 6.9296875 13.37695312 C7.65501015 15.40692413 8.37532093 17.4384163 9.08789062 19.47290039 C9.78201402 21.44412479 10.49524966 23.40761427 11.2109375 25.37109375 C11.62649902 26.54599365 12.04206055 27.72089355 12.47021484 28.93139648 C14.25381496 32.50912867 15.54203383 33.99552368 19 36 C21.88216904 36.54296205 24.46193306 36.8755474 27.36328125 37.046875 C28.15526413 37.10780334 28.94724701 37.16873169 29.76322937 37.23150635 C32.27875273 37.42116741 34.79519189 37.58591665 37.3125 37.75 C39.02420902 37.87465865 40.73580046 38.00094318 42.44726562 38.12890625 C46.63038328 38.43811356 50.81449999 38.72500083 55 39 C52.09420369 41.95597242 49.17781146 44.78639282 45.96875 47.41015625 C44.87626953 48.30637695 44.87626953 48.30637695 43.76171875 49.22070312 C43.01535156 49.82849609 42.26898438 50.43628906 41.5 51.0625 C40.75363281 51.67416016 40.00726563 52.28582031 39.23828125 52.91601562 C36.19076816 55.4106613 33.14040092 57.89081981 30.03125 60.30859375 C27.91062765 61.84444011 27.91062765 61.84444011 27 64 C26.61143121 70.43297219 27.72133877 75.92841551 29.375 82.125 C29.59671875 82.99253906 29.8184375 83.86007813 30.046875 84.75390625 C30.97620039 88.34547553 31.9512948 91.85911449 33.1640625 95.3671875 C34 98 34 98 34 102 C30.44329938 100.68486441 27.4076399 99.11366593 24.2421875 97.03125 C23.36949219 96.46019531 22.49679688 95.88914062 21.59765625 95.30078125 C20.69917969 94.70652344 19.80070312 94.11226563 18.875 93.5 C17.51568359 92.60861328 17.51568359 92.60861328 16.12890625 91.69921875 C12.7445453 89.47807519 9.36824991 87.24549994 6 85 C-0.39711968 83.90541674 -5.09147917 84.96913259 -10.41772461 88.55737305 C-11.10487549 89.05406494 -11.79202637 89.55075684 -12.5 90.0625 C-13.22904541 90.56112549 -13.95809082 91.05975098 -14.70922852 91.57348633 C-16.82329111 93.02624482 -18.91395522 94.50738564 -21 96 C-22.07121094 96.75539063 -23.14242187 97.51078125 -24.24609375 98.2890625 C-25.91207149 99.46419339 -27.57008555 100.65081738 -29.21484375 101.85546875 C-31 103 -31 103 -33 103 C-31.50033604 94.7976651 -29.36005682 86.86135837 -27.03515625 78.859375 C-24.54425469 70.65238352 -24.54425469 70.65238352 -26.09375 62.453125 C-28.51216618 59.3409009 -31.36684776 57.08911689 -34.5 54.75 C-35.75328291 53.7899479 -37.00587751 52.82899665 -38.2578125 51.8671875 C-38.88333008 51.38991211 -39.50884766 50.91263672 -40.15332031 50.42089844 C-42.93136203 48.28337823 -45.65513825 46.08621228 -48.375 43.875 C-49.26960938 43.15054688 -50.16421875 42.42609375 -51.0859375 41.6796875 C-51.71757813 41.12539062 -52.34921875 40.57109375 -53 40 C-53 39.67 -53 39.34 -53 39 C-48.44916519 38.30214291 -43.9637428 37.81774195 -39.3671875 37.5703125 C-38.14902344 37.49683594 -36.93085937 37.42335937 -35.67578125 37.34765625 C-33.13458404 37.19878858 -30.59288816 37.0582097 -28.05078125 36.92578125 C-26.83519531 36.84972656 -25.61960937 36.77367187 -24.3671875 36.6953125 C-22.71372314 36.6027417 -22.71372314 36.6027417 -21.02685547 36.50830078 C-17.53147079 35.92131974 -15.72907926 35.27514596 -13 33 C-11.67401441 30.46255662 -10.64332432 28.15289561 -9.66796875 25.48828125 C-9.24575798 24.39594429 -9.24575798 24.39594429 -8.8150177 23.28153992 C-7.92342277 20.96419486 -7.05528367 18.63885272 -6.1875 16.3125 C-5.58551287 14.73574371 -4.98201361 13.15956385 -4.37695312 11.58398438 C-2.90036719 7.72911442 -1.44474787 3.866909 0 0 Z " fill="#FCDE75" transform="translate(78,89)"/>
<path d="M0 0 C2.12915544 3.19373317 3.36932154 6.39667687 4.6796875 9.96875 C5.20130458 11.35826761 5.72345653 12.74758453 6.24609375 14.13671875 C7.06344328 16.32041325 7.87693959 18.50527836 8.68115234 20.69384766 C9.46109805 22.81070701 10.25660959 24.92117157 11.0546875 27.03125 C11.2902536 27.68444214 11.5258197 28.33763428 11.76852417 29.01062012 C13.20962091 32.78003442 14.30699558 35.22075577 18 37 C20.80540426 37.45973207 23.44260637 37.76463733 26.265625 37.94921875 C27.05902283 38.01156204 27.85242065 38.07390533 28.66986084 38.13813782 C31.19580804 38.33374649 33.72266283 38.51085557 36.25 38.6875 C37.96623835 38.81714041 39.68238611 38.94798603 41.3984375 39.08007812 C45.59803662 39.40069597 49.79854546 39.70473357 54 40 C48.71089812 45.34166299 48.71089812 45.34166299 45.94921875 47.68359375 C45.41917236 48.133396 44.88912598 48.58319824 44.34301758 49.04663086 C43.79669678 49.50561768 43.25037598 49.96460449 42.6875 50.4375 C42.11862061 50.91904541 41.54974121 51.40059082 40.96362305 51.89672852 C37.26057317 55.00947516 33.48566604 57.95304611 29.48828125 60.68359375 C27.02551628 62.86194492 26.07426464 64.9279233 25.84765625 68.19921875 C26.43724721 75.0277541 28.10653432 81.25447448 30.12011719 87.77197266 C31.77877073 93.14140948 33.03231817 98.45782226 34 104 C29.18672117 101.46092829 24.56802656 98.77643347 20.09765625 95.66796875 C19.26943359 95.09755859 18.44121094 94.52714844 17.58789062 93.93945312 C15.89772004 92.76692179 14.21798361 91.57921197 12.54882812 90.37695312 C7.46997887 86.92396704 3.55985273 85.07088923 -2.6628418 85.50073242 C-6.56128363 86.33352398 -9.30522932 88.17049058 -12.4375 90.5625 C-13.72070639 91.47877245 -15.00456659 92.39412991 -16.2890625 93.30859375 C-17.22347168 93.99091064 -17.22347168 93.99091064 -18.17675781 94.68701172 C-20.83055472 96.59811506 -23.55675112 98.36377991 -26.3125 100.125 C-27.17488281 100.68445313 -28.03726562 101.24390625 -28.92578125 101.8203125 C-31 103 -31 103 -33 103 C-32.39931844 97.02048814 -31.18073012 91.51250328 -29.5 85.75 C-29.05174504 84.18238836 -28.60381688 82.61468323 -28.15625 81.046875 C-27.95837891 80.36463867 -27.76050781 79.68240234 -27.55664062 78.97949219 C-25.57484927 72.06388957 -25.57484927 72.06388957 -26 65 C-29.34546578 60.3549016 -33.20985092 56.99892532 -37.75 53.5625 C-38.36182129 53.09021973 -38.97364258 52.61793945 -39.60400391 52.13134766 C-41.39788338 50.74784818 -43.19792056 49.37279362 -45 48 C-46.79342038 46.62728816 -48.58540928 45.2527008 -50.375 43.875 C-51.08398438 43.33617187 -51.79296875 42.79734375 -52.5234375 42.2421875 C-53.01070313 41.83226562 -53.49796875 41.42234375 -54 41 C-54 40.67 -54 40.34 -54 40 C-48.03051033 39.16592581 -42.14473491 38.78814699 -36.125 38.5625 C-24.78834265 38.69466894 -24.78834265 38.69466894 -14.5690918 34.91015625 C-12.31471282 32.1657559 -11.29930348 29.04493606 -10.1171875 25.7421875 C-9.72758347 24.68670212 -9.72758347 24.68670212 -9.33010864 23.6098938 C-8.50389298 21.36771725 -7.68894975 19.12165515 -6.875 16.875 C-6.05200444 14.62195968 -5.22667938 12.36981105 -4.39846802 10.11868286 C-3.88415093 8.71881064 -3.37321436 7.31769101 -2.86593628 5.91525269 C-1.11066202 1.11066202 -1.11066202 1.11066202 0 0 Z " fill="#FCDE75" transform="translate(433,88)"/>
<path d="M0 0 C8.66365635 5.38590636 14.97076703 12.35507503 18.65625 21.83203125 C20.60491741 32.10682304 19.17781677 41.29342734 13.59375 50.20703125 C8.16416229 57.78973132 0.6555878 63.63552002 -8.65625 65.45703125 C-19.49149251 66.5104576 -28.7991994 64.4909123 -37.53125 57.76953125 C-43.80171091 51.83635675 -48.18049918 43.48560678 -48.9921875 34.90625 C-49.0727652 27.1466174 -48.84654263 21.09602614 -44.65625 14.45703125 C-44.24375 13.77253906 -43.83125 13.08804687 -43.40625 12.3828125 C-33.94661833 -1.72601315 -15.62887126 -7.37161761 0 0 Z " fill="#F4DACB" transform="translate(438.65625,295.54296875)"/>
<path d="M0 0 C7.2427256 5.90248292 12.01212192 13.44667076 13.0234375 22.8359375 C13.20675284 32.9937638 11.55308597 41.47176702 5.40234375 49.765625 C-2.12606482 56.95183318 -10.34521583 61.4145685 -20.84765625 61.765625 C-31.40381053 61.41277305 -40.43723859 56.83539156 -47.66015625 49.140625 C-53.91796899 41.33574189 -56.28535532 31.19509619 -55.34765625 21.390625 C-53.2779846 11.55968465 -47.77810407 4.30245564 -39.6796875 -1.53125 C-26.88467461 -9.46907188 -12.4447616 -8.53118433 0 0 Z " fill="#F4DACB" transform="translate(109.34765625,299.609375)"/>
<path d="M0 0 C14.55633689 4.81181236 26.01616591 12.33426673 37 23 C38.11955078 24.00933594 38.11955078 24.00933594 39.26171875 25.0390625 C55.19795284 39.89063144 66.4851497 62.9197851 67.50549316 84.74227905 C67.58731667 87.85374504 67.60197757 90.9606366 67.57641602 94.07299805 C67.56236261 96.46084389 67.59700754 98.84489296 67.63476562 101.23242188 C67.68048307 110.33072474 67.06675211 116.74206588 60.55712891 123.49731445 C55.06334298 128.56125336 49.32930002 129.30650368 42.125 129.125 C41.43664062 129.11597656 40.74828125 129.10695313 40.0390625 129.09765625 C38.35922162 129.07432513 36.67956254 129.03846326 35 129 C35.76957031 128.2471875 36.53914063 127.494375 37.33203125 126.71875 C39.32584699 124.68698461 41.05092343 122.80534374 42.6875 120.5 C43.08324219 119.9534375 43.47898437 119.406875 43.88671875 118.84375 C46.74496438 114.11009408 47.30798646 109.86952348 47.30078125 104.41796875 C47.30720894 103.32020866 47.30720894 103.32020866 47.31376648 102.20027161 C47.3194971 100.64955676 47.32001938 99.09881505 47.31567383 97.5480957 C47.31256082 95.23273494 47.33582107 92.91871415 47.36132812 90.60351562 C47.42120597 77.09785495 46.02025951 63.95798159 40.4375 51.5 C39.91978027 50.31736572 39.91978027 50.31736572 39.39160156 49.11083984 C31.45066742 31.53843492 17.86845328 10.93422664 0 2 C0 1.34 0 0.68 0 0 Z " fill="#5FB5FC" transform="translate(291,367)"/>
<path d="M0 0 C1.47823012 1.35670447 2.9565303 2.71333421 4.43652344 4.06811523 C5.47981449 5.0235965 6.52213146 5.98014243 7.56347656 6.93774414 C12.71294122 11.67116475 17.90114498 16.33210094 23.375 20.6875 C27.22739726 24.08127854 27.22739726 24.08127854 28 27 C27.92598764 31.14469235 27.59591132 33.27768325 24.9375 36.5 C21.7221934 38.14185869 19.72261128 38.25033842 16.17797852 37.71777344 C11.90116338 36.30830852 9.08498887 33.0322933 6 29.875 C4.66796801 28.55857776 3.33463591 27.24346972 2 25.9296875 C1.34265869 25.27540771 0.68531738 24.62112793 0.00805664 23.94702148 C-3.20926968 20.82748624 -6.60711499 17.92535801 -10 15 C-11.99082595 13.24154548 -13.96484021 11.46649053 -15.9375 9.6875 C-16.87464844 8.84574219 -17.81179687 8.00398438 -18.77734375 7.13671875 C-21.39040508 4.62468966 -21.9145644 3.7689204 -22.3125 0.1875 C-21.92442854 -3.77082892 -20.82562595 -5.25286366 -18 -8 C-10.91625787 -11.54187107 -4.71914752 -4.42716014 0 0 Z " fill="#000000" transform="translate(190,50)"/>
<path d="M0 0 C1.5980008 3.19600159 1.80836281 4.69651341 1.125 8.25 C-3.26870524 14.91096981 -9.93048532 20.0352012 -15.875 25.25 C-17.56456673 26.76853697 -19.25209043 28.28935035 -20.9375 29.8125 C-21.76121094 30.54597656 -22.58492188 31.27945313 -23.43359375 32.03515625 C-25.05993578 33.51057374 -26.65697063 35.01895947 -28.22265625 36.55859375 C-34.54495304 42.6423133 -34.54495304 42.6423133 -39.125 43.5 C-42.875 43.25 -42.875 43.25 -45.8125 41.75 C-48.4975688 38.49537115 -48.875 36.44763489 -48.875 32.25 C-47.22354191 27.84611175 -43.82339577 25.29395076 -40.31640625 22.3359375 C-37.43766789 19.87634344 -34.65550626 17.31903605 -31.875 14.75 C-27.26929785 10.51053788 -22.6188142 6.33436021 -17.875 2.25 C-17.32070313 1.755 -16.76640625 1.26 -16.1953125 0.75 C-10.72980239 -4.0357203 -5.88079571 -5.48874266 0 0 Z " fill="#000000" transform="translate(342.875,44.75)"/>
<path d="M0 0 C2.09399414 1.49145508 2.09399414 1.49145508 4 4 C4.40979806 6.97980392 4.5849234 9.58321317 4.56640625 12.5625 C4.57570412 13.80495483 4.57570412 13.80495483 4.58518982 15.07250977 C4.59228217 16.82078884 4.58912411 18.56913554 4.57641602 20.31738281 C4.5625441 22.99149824 4.59663146 25.66211732 4.63476562 28.3359375 C4.63571681 30.03645919 4.63385802 31.73698525 4.62890625 33.4375 C4.64216446 34.23551025 4.65542267 35.03352051 4.66908264 35.85571289 C4.60327856 39.78079784 4.37991862 41.5955107 1.64819336 44.50390625 C-1.61368765 46.34670212 -3.30724619 46.61545897 -7 46 C-9.95902701 44.22458379 -11.67825341 43.15128884 -12.62402344 39.76708984 C-13.39595187 34.08589707 -13.22746492 28.34891058 -13.25 22.625 C-13.270625 21.32304687 -13.29125 20.02109375 -13.3125 18.6796875 C-13.36207937 6.53274226 -13.36207937 6.53274226 -10 1 C-6.87057535 -0.56471233 -3.38917777 -0.69701958 0 0 Z " fill="#000000" transform="translate(260,0)"/>
<path d="M0 0 C17.57189219 9.6847172 29.11856129 24.13053457 36 43 C36.4694894 47.30365283 36.28686364 49.4570081 34.25 53.3125 C31.99513829 56.00580704 31.21189598 56.86421442 28 58 C25.21175242 58.13997227 22.53172884 58.1888913 19.75 58.125 C19.00492187 58.11597656 18.25984375 58.10695313 17.4921875 58.09765625 C15.66131941 58.07418358 13.83061762 58.03831525 12 58 C12.61488281 57.31164062 12.61488281 57.31164062 13.2421875 56.609375 C13.78101563 55.99578125 14.31984375 55.3821875 14.875 54.75 C15.40867187 54.14671875 15.94234375 53.5434375 16.4921875 52.921875 C20.86594429 47.34703473 20.78617223 41.87900703 20 35 C16.62857325 23.32041449 9.89715438 12.4380385 1.50390625 3.7421875 C0 2 0 2 0 0 Z " fill="#01E096" transform="translate(460,386)"/>
<path d="M0 0 C8.9018361 7.85456127 13.4773492 18.28912824 14.3515625 30.01953125 C15.02535741 44.31013827 10.60792822 55.91171137 1.4140625 66.89453125 C-3.72094121 72.42731694 -10.47456642 77.51221313 -18 79 C-18 78.34 -18 77.68 -18 77 C-16.49609375 75.7734375 -16.49609375 75.7734375 -14.4375 74.375 C-3.96266438 66.6431354 4.74817196 53.49723367 6.82421875 40.390625 C7.84078224 26.56536149 6.47306247 15.27649779 0 3 C0 2.01 0 1.02 0 0 Z " fill="#EAC5B6" transform="translate(290,263)"/>
<path d="M0 0 C3.06366713 1.21802044 5.55781736 3.00427535 8.25 4.89453125 C9.5691582 5.58882504 10.89649406 6.2698362 12.25 6.89453125 C11.08082031 6.96414062 9.91164063 7.03375 8.70703125 7.10546875 C3.88236942 7.71451997 0.80717841 9.69987747 -3.0625 12.51953125 C-4.36398899 13.42663459 -5.66607782 14.33287789 -6.96875 15.23828125 C-7.60425781 15.686875 -8.23976563 16.13546875 -8.89453125 16.59765625 C-11.5766245 18.47229827 -14.30886587 20.25140828 -17.0625 22.01953125 C-17.92488281 22.57898438 -18.78726562 23.1384375 -19.67578125 23.71484375 C-21.75 24.89453125 -21.75 24.89453125 -23.75 24.89453125 C-23.19854729 19.65573047 -22.32077907 14.92102428 -20.75 9.89453125 C-20.15759521 9.77287598 -19.56519043 9.6512207 -18.95483398 9.52587891 C-14.85793677 8.35274457 -11.42062448 5.41551179 -7.97070312 2.95703125 C-5.19788031 1.07857092 -3.40692696 -0.13066339 0 0 Z " fill="#F6C961" transform="translate(423.75,166.10546875)"/>
<path d="M0 0 C3.70645307 1.46859461 6.89678184 3.2630691 10.3125 5.3125 C10.3125 5.6425 10.3125 5.9725 10.3125 6.3125 C8.48525391 6.54066406 8.48525391 6.54066406 6.62109375 6.7734375 C-0.40734193 8.33470019 -5.88278077 12.81632978 -11.625 16.9375 C-13.32419933 18.14100933 -15.02614418 19.34035227 -16.73158264 20.53500366 C-18.26277714 21.60995889 -19.78579747 22.69652982 -21.30834961 23.78369141 C-23.6875 25.3125 -23.6875 25.3125 -25.6875 25.3125 C-24.3675 19.7025 -23.0475 14.0925 -21.6875 8.3125 C-21.0275 8.9725 -20.3675 9.6325 -19.6875 10.3125 C-18.09808594 9.24708984 -18.09808594 9.24708984 -16.4765625 8.16015625 C-15.08858232 7.23171005 -13.70055926 6.30332796 -12.3125 5.375 C-11.61382812 4.90642578 -10.91515625 4.43785156 -10.1953125 3.95507812 C-9.525 3.50712891 -8.8546875 3.05917969 -8.1640625 2.59765625 C-7.54611816 2.18394775 -6.92817383 1.77023926 -6.29150391 1.34399414 C-3.00583665 -0.76893496 -3.00583665 -0.76893496 0 0 Z " fill="#F6C960" transform="translate(247.6875,166.6875)"/>
<path d="M0 0 C3.20826398 1.0920638 5.65424252 2.84774463 8.3984375 4.81640625 C9.3884375 5.47640625 10.3784375 6.13640625 11.3984375 6.81640625 C10.2228125 6.94015625 9.0471875 7.06390625 7.8359375 7.19140625 C0.06414202 8.89531725 -6.24271067 14.27164648 -12.6015625 18.81640625 C-14.53828623 20.19249943 -16.47566472 21.56767217 -18.4140625 22.94140625 C-19.18363281 23.50085938 -19.95320313 24.0603125 -20.74609375 24.63671875 C-22.6015625 25.81640625 -22.6015625 25.81640625 -24.6015625 25.81640625 C-24.29028734 24.23283166 -23.97748961 22.64955632 -23.6640625 21.06640625 C-23.49003906 20.1846875 -23.31601562 19.30296875 -23.13671875 18.39453125 C-22.96011719 17.54375 -22.78351562 16.69296875 -22.6015625 15.81640625 C-22.49585938 15.09582031 -22.39015625 14.37523437 -22.28125 13.6328125 C-21.32830463 11.08614816 -20.08274012 10.67286292 -17.6640625 9.50390625 C-13.02835824 7.14539005 -9.05461045 4.27156461 -4.9609375 1.07421875 C-2.6015625 -0.18359375 -2.6015625 -0.18359375 0 0 Z " fill="#F6C960" transform="translate(69.6015625,166.18359375)"/>
<path d="M0 0 C1.26328125 0.11988281 2.5265625 0.23976563 3.828125 0.36328125 C5.27445312 0.52376953 5.27445312 0.52376953 6.75 0.6875 C3.14333623 4.38784335 -0.60705922 7.80235976 -4.5625 11.125 C-5.13210449 11.60654541 -5.70170898 12.08809082 -6.28857422 12.58422852 C-9.97008645 15.67580162 -13.71691368 18.62187874 -17.6640625 21.37109375 C-19.54778719 22.93467803 -20.84964142 24.6888064 -22.25 26.6875 C-24.92529107 18.32721539 -24.92529107 18.32721539 -24.25 13.6875 C-22.18992358 11.48750509 -20.35965189 9.80637163 -18 8 C-17.41347656 7.52755859 -16.82695312 7.05511719 -16.22265625 6.56835938 C-15.08293085 5.65529847 -13.93241016 4.75551742 -12.77050781 3.87084961 C-11.1284489 2.6308477 -11.1284489 2.6308477 -9.28125 0.8359375 C-6.1434025 -0.9381532 -3.5262469 -0.35915478 0 0 Z " fill="#FBCD62" transform="translate(480.25,127.3125)"/>
<path d="M0 0 C1.2375 0.2475 1.2375 0.2475 2.5 0.5 C-2.36312774 5.59470525 -7.79146727 9.90657458 -13.26171875 14.328125 C-16.4296347 16.90731321 -19.54485808 19.45486983 -22.40625 22.375 C-24.5 24.5 -24.5 24.5 -26.5 25.5 C-28.9928351 16.84839582 -28.9928351 16.84839582 -27.5 12.5 C-25.42578125 10.4375 -25.42578125 10.4375 -22.8125 8.5 C-19.83945658 6.27338025 -17.03243061 4.09117888 -14.375 1.5 C-9.62755766 -1.80256858 -5.5020919 -0.78601313 0 0 Z " fill="#F9CB62" transform="translate(307.5,127.5)"/>
<path d="M0 0 C-4.20693704 4.39892028 -8.7836581 8.22181744 -13.5 12.0625 C-14.24636719 12.67416016 -14.99273437 13.28582031 -15.76171875 13.91601562 C-18.79536055 16.39930648 -21.83643577 18.87007196 -24.90625 21.30859375 C-27.04949262 22.97902615 -27.04949262 22.97902615 -29 25 C-31.44650472 17.20176621 -31.44650472 17.20176621 -31 13 C-28.91164302 10.08422394 -26.12326229 7.91214052 -23.375 5.625 C-22.6126001 4.98739746 -21.8502002 4.34979492 -21.06469727 3.69287109 C-13.92254164 -1.83237471 -8.81262911 -2.54183597 0 0 Z " fill="#FACC62" transform="translate(133,128)"/>
<path d="M0 0 C5.87112059 2.30240023 10.09469117 5.58943738 14.6875 9.8125 C15.23365967 10.30975586 15.77981934 10.80701172 16.3425293 11.31933594 C20.13888414 14.89359738 23.23108656 18.5697385 26 23 C25.4375 26.1875 25.4375 26.1875 24 29 C23.62875 29.78375 23.2575 30.5675 22.875 31.375 C22.441875 32.179375 22.441875 32.179375 22 33 C21.34 33 20.68 33 20 33 C19.50371094 31.96101563 19.00742188 30.92203125 18.49609375 29.8515625 C14.94016004 22.51425699 11.36512813 15.56012393 6.4453125 9.015625 C5 7 5 7 3.9921875 4.796875 C3.06978248 2.64679974 3.06978248 2.64679974 0 2 C0 1.34 0 0.68 0 0 Z " fill="#02DD95" transform="translate(124,386)"/>
<path d="M0 0 C7.11373737 3.99063316 13.04623962 10.71481132 15.5625 18.578125 C17.31773733 28.29461738 16.6134305 37.24683944 12 46 C10.875 42.25 10.875 42.25 12 40 C12.94558677 26.87029512 11.22974089 16.87023672 3.3671875 5.97265625 C2.03248086 4.04686524 0.99496215 2.11784801 0 0 Z " fill="#E5C1B3" transform="translate(106,298)"/>
<path d="M0 0 C7.31696703 5.56679912 12.25175578 11.78198503 14 21 C14.66767104 28.04631406 13.74520283 34.45180977 11 41 C10.34 41.66 9.68 42.32 9 43 C9.10699219 41.91203125 9.21398437 40.8240625 9.32421875 39.703125 C10.42710198 26.97564914 9.61810653 17.0718008 2.3046875 6.15625 C1.03965723 4.0655413 0.44473417 2.38637847 0 0 Z " fill="#DFBCAF" transform="translate(444,300)"/>
</svg>
