<?xml version="1.0" encoding="UTF-8"?>
<svg version="1.1" xmlns="http://www.w3.org/2000/svg" width="512" height="512">
<path d="M0 0 C1.80483958 -0.000161 1.80483958 -0.000161 3.64614058 -0.00032526 C4.31898767 -0.00583943 4.99183477 -0.0113536 5.68507117 -0.01703486 C7.95625112 -0.0307097 10.22635158 -0.01569135 12.49751234 -0.00095946 C14.13551409 -0.00484949 15.77351248 -0.01048754 17.41150284 -0.01773036 C21.92547694 -0.03254589 26.43910437 -0.02226781 30.95306754 -0.00799364 C35.81612114 0.00307779 40.67912456 -0.00881371 45.54217482 -0.01783568 C55.07395505 -0.03179635 64.60560316 -0.02419114 74.13737714 -0.00916009 C85.22850709 0.0076668 96.31960382 0.00449395 107.41074258 0.00074583 C127.19502301 -0.00513793 146.97923987 0.00905904 166.76350355 0.03369325 C185.97804602 0.05761553 205.19250355 0.06469817 224.40705824 0.05420107 C245.31103317 0.04280154 266.21496877 0.04084984 287.11894321 0.05529916 C289.34636481 0.05682506 291.57378641 0.05834542 293.80120802 0.05986017 C295.44527503 0.06099689 295.44527503 0.06099689 297.12255552 0.06215658 C304.86071132 0.06690688 312.5988496 0.06504269 320.33700514 0.06079477 C329.76227755 0.05587702 339.18746952 0.06181254 348.61272347 0.08168907 C353.4251879 0.09158652 358.23752962 0.09663985 363.05000067 0.08879656 C367.45043731 0.08177132 371.85062567 0.08846981 376.25102943 0.10640018 C377.84788228 0.1104653 379.44475752 0.10941055 381.04160219 0.10288132 C383.20284359 0.09479677 385.36323499 0.10496159 387.52442122 0.11992925 C389.3292608 0.12147295 389.3292608 0.12147295 391.17056179 0.12304783 C394.0852809 0.50024599 394.0852809 0.50024599 395.97173941 1.8970269 C397.43636853 4.00572369 397.46253281 5.34426117 397.46623182 7.90295595 C397.4746913 8.80305895 397.48315077 9.70316194 397.49186659 10.63054079 C397.48275755 12.10808588 397.48275755 12.10808588 397.47346449 13.61548036 C397.48134993 15.17435724 397.48134993 15.17435724 397.48939466 16.76472658 C397.50262357 20.20796822 397.49384611 23.65074945 397.4837184 27.09399599 C397.48573829 29.48148876 397.48864902 31.86898092 397.4924159 34.25647157 C397.49684319 39.26340788 397.49039506 44.27018377 397.47639418 49.27710146 C397.45930226 55.70355936 397.46914126 62.12964142 397.48711157 68.55608553 C397.49793838 73.48707099 397.4945081 78.41796697 397.48672819 83.34895509 C397.48472314 85.7188998 397.48719609 88.08885256 397.49416685 90.45878786 C397.50176303 93.7677489 397.49020234 97.07609641 397.47346449 100.38501161 C397.47953718 101.37004167 397.48560987 102.35507173 397.49186659 103.36995119 C397.48340712 104.27005419 397.47494764 105.17015718 397.46623182 106.09753603 C397.46510075 106.87992899 397.46396967 107.66232195 397.46280432 108.46842378 C396.98488557 111.04057129 396.14521143 111.92998212 394.0852809 113.50024599 C391.52261305 113.86100954 391.52261305 113.86100954 388.42048597 113.84082216 C387.25950895 113.84059557 386.09853193 113.84036897 384.90237379 113.84013551 C383.64917845 113.82465166 382.3959831 113.8091678 381.10481215 113.79321474 C379.82168638 113.7889699 378.53856062 113.78472505 377.21655226 113.78035158 C373.80841952 113.76890761 370.4006715 113.73944494 366.99269056 113.70623964 C363.51384228 113.67552872 360.03492987 113.66167967 356.55598402 113.64673036 C349.73207675 113.61616643 342.90922535 113.55744763 336.0852809 113.50024599 C336.0852809 123.40024599 336.0852809 133.30024599 336.0852809 143.50024599 C338.61305189 143.48453554 341.14082289 143.46882509 343.745193 143.45263857 C352.1190376 143.40281591 360.49288893 143.36974645 368.86684275 143.34480947 C373.94144454 143.32918755 379.01589381 143.30801294 384.09040785 143.27392763 C388.99225876 143.24121005 393.89396341 143.22336687 398.79591513 143.21561426 C400.66131913 143.21009295 402.52671559 143.19931137 404.39205694 143.18305582 C407.01515004 143.16111647 409.63764718 143.1582859 412.260818 143.15966982 C413.0232733 143.14888399 413.78572859 143.13809816 414.57128859 143.12698549 C423.26242391 143.17624801 430.10289777 145.70658376 436.42512465 151.66430849 C442.92157127 158.84861417 442.30028981 167.36647531 442.32551527 176.44238466 C442.33513814 178.53175129 442.36614609 180.62009775 442.3977809 182.70923036 C442.51945041 198.14734395 439.11506123 209.85565665 428.5149684 221.16821474 C421.62325693 227.78292815 413.8054291 232.50024599 404.0852809 232.50024599 C404.0852809 302.46024599 404.0852809 372.42024599 404.0852809 444.50024599 C407.3852809 444.50024599 410.6852809 444.50024599 414.0852809 444.50024599 C422.12077694 445.58612383 427.41011439 448.15605646 432.6946559 454.40258974 C437.03759521 460.95359652 437.03139526 467.87726743 436.0852809 475.50024599 C434.37715826 482.09932847 429.68811192 486.8115494 424.0852809 490.50024599 C419.48822866 492.35704926 415.35111231 492.78582407 410.45084524 492.75472158 C409.69836941 492.75792806 408.94589357 492.76113454 408.17061543 492.76443818 C405.64686386 492.77274558 403.12334914 492.76681132 400.59959364 492.7609424 C398.7728287 492.76396274 396.94606502 492.76785164 395.11930358 492.77253497 C390.09738566 492.78283878 385.07553893 492.78062708 380.05361509 492.77635437 C374.63837614 492.77389147 369.22315453 492.78289589 363.80792189 492.79039186 C353.19807464 492.80315305 342.58825268 492.80493078 331.97839905 492.8025916 C323.35589536 492.80080986 314.73339936 492.80255498 306.11089659 492.80681604 C304.88453428 492.80741123 303.65817197 492.80800642 302.39464717 492.80861964 C299.90343123 492.80983137 297.41221528 492.81104551 294.92099933 492.81226202 C271.54867665 492.82314304 248.17636839 492.82097241 224.80404489 492.81487717 C203.41530962 492.80955502 182.02662085 492.82096365 160.63789447 492.83997539 C138.68378065 492.85934032 116.7296884 492.86761215 94.77556598 492.86385214 C82.44686995 492.86193805 70.11821268 492.86444792 57.7895236 492.87856668 C47.29399355 492.89046431 36.79852611 492.89190355 26.30299522 492.87977652 C20.94711698 492.87387646 15.59135338 492.87281952 10.23548269 492.88477892 C5.33284276 492.89559914 0.4304137 492.89258043 -4.4722162 492.87851723 C-6.24605698 492.87585964 -8.01991408 492.87827002 -9.79373889 492.8862531 C-12.20561398 492.89635451 -14.61675537 492.88794151 -17.02860117 492.8749761 C-17.71659501 492.88228544 -18.40458884 492.88959479 -19.11343098 492.89712563 C-25.29922941 492.82824209 -30.31806149 491.07031803 -35.6022191 487.87524599 C-40.81148871 482.52518531 -43.59114898 476.2536594 -44.2272191 468.87524599 C-44.10119525 462.72299042 -42.10511442 457.19534069 -38.2194066 452.41430849 C-30.11688372 444.63982297 -22.07863244 444.50024599 -10.9147191 444.50024599 C-10.9147191 374.54024599 -10.9147191 304.58024599 -10.9147191 232.50024599 C-13.5547191 232.17024599 -16.1947191 231.84024599 -18.9147191 231.50024599 C-31.09405388 226.7952707 -39.56156929 219.66546202 -45.2115941 207.76977724 C-48.79029299 198.99159194 -49.1942265 191.17697261 -49.26481676 181.7941913 C-49.28130926 180.19215481 -49.30851034 178.59018985 -49.34684801 176.98852724 C-49.7711612 159.1304766 -49.7711612 159.1304766 -43.9147191 151.50024599 C-36.94877845 144.77350859 -29.81875335 143.18420269 -20.40910387 143.27319521 C-19.1786207 143.27275713 -19.1786207 143.27275713 -17.92327929 143.2723102 C-15.23411726 143.27369435 -12.54523848 143.28921214 -9.85612535 143.30493349 C-7.98283079 143.30866687 -6.10953427 143.31151231 -4.23623705 143.31350893 C0.67761139 143.32111975 5.5913403 143.34074621 10.50514174 143.36291689 C15.52597897 143.38343041 20.54683565 143.3925224 25.56770277 143.40258974 C35.40695626 143.42399462 45.2460899 143.45915585 55.0852809 143.50024599 C55.0852809 133.60024599 55.0852809 123.70024599 55.0852809 113.50024599 C50.93321058 113.54665224 46.78114027 113.59305849 42.50324965 113.64087099 C39.19368679 113.66659273 35.88415215 113.68828454 32.57454634 113.70724672 C29.08011796 113.72837494 25.58607726 113.75660992 22.09187269 113.8020038 C18.08312673 113.85375661 14.07479167 113.87318735 10.06574965 113.89087099 C8.18595663 113.9218387 8.18595663 113.9218387 6.268188 113.95343202 C5.10721098 113.95373415 3.94623396 113.95403627 2.75007582 113.95434755 C1.21452291 113.96767122 1.21452291 113.96767122 -0.35205126 113.98126405 C-2.9147191 113.50024599 -2.9147191 113.50024599 -4.55107641 111.74770159 C-6.07088287 109.24286836 -6.29138761 107.95794605 -6.29567003 105.05993837 C-6.30835924 103.73513208 -6.30835924 103.73513208 -6.3213048 102.38356203 C-6.31523211 101.42239977 -6.30915941 100.4612375 -6.3029027 99.47094911 C-6.30815966 98.45266527 -6.31341661 97.43438143 -6.31883287 96.3852405 C-6.33204342 93.01716992 -6.3232908 89.64957143 -6.3131566 86.28149599 C-6.31517703 83.94266857 -6.3180882 81.60384176 -6.32185411 79.2650165 C-6.32627891 74.3624083 -6.31984125 69.45996404 -6.30583239 64.55737489 C-6.28874061 58.2689248 -6.29858094 51.98085881 -6.31654978 45.69242281 C-6.3273833 40.86262289 -6.32394321 36.03291424 -6.3161664 31.20311159 C-6.31416321 28.88423295 -6.31662782 26.56534607 -6.32360506 24.24647707 C-6.33121223 21.00727527 -6.31962505 17.76869807 -6.3029027 14.52954286 C-6.30897539 13.5683806 -6.31504808 12.60721834 -6.3213048 11.61692995 C-6.31284533 10.73372576 -6.30438585 9.85052156 -6.29567003 8.94055361 C-6.29453896 8.17512995 -6.29340788 7.40970628 -6.29224253 6.62108797 C-5.57168688 2.57316784 -4.10205309 0.70402517 0 0 Z " fill="#FEE4C1" transform="translate(59.914719104766846,10.499754011631012)"/>
<path d="M0 0 C1.80483958 -0.000161 1.80483958 -0.000161 3.64614058 -0.00032526 C4.31898767 -0.00583943 4.99183477 -0.0113536 5.68507117 -0.01703486 C7.95625112 -0.0307097 10.22635158 -0.01569135 12.49751234 -0.00095946 C14.13551409 -0.00484949 15.77351248 -0.01048754 17.41150284 -0.01773036 C21.92547694 -0.03254589 26.43910437 -0.02226781 30.95306754 -0.00799364 C35.81612114 0.00307779 40.67912456 -0.00881371 45.54217482 -0.01783568 C55.07395505 -0.03179635 64.60560316 -0.02419114 74.13737714 -0.00916009 C85.22850709 0.0076668 96.31960382 0.00449395 107.41074258 0.00074583 C127.19502301 -0.00513793 146.97923987 0.00905904 166.76350355 0.03369325 C185.97804602 0.05761553 205.19250355 0.06469817 224.40705824 0.05420107 C245.31103317 0.04280154 266.21496877 0.04084984 287.11894321 0.05529916 C289.34636481 0.05682506 291.57378641 0.05834542 293.80120802 0.05986017 C295.44527503 0.06099689 295.44527503 0.06099689 297.12255552 0.06215658 C304.86071132 0.06690688 312.5988496 0.06504269 320.33700514 0.06079477 C329.76227755 0.05587702 339.18746952 0.06181254 348.61272347 0.08168907 C353.4251879 0.09158652 358.23752962 0.09663985 363.05000067 0.08879656 C367.45043731 0.08177132 371.85062567 0.08846981 376.25102943 0.10640018 C377.84788228 0.1104653 379.44475752 0.10941055 381.04160219 0.10288132 C383.20284359 0.09479677 385.36323499 0.10496159 387.52442122 0.11992925 C389.3292608 0.12147295 389.3292608 0.12147295 391.17056179 0.12304783 C394.0852809 0.50024599 394.0852809 0.50024599 395.97173941 1.8970269 C397.43636853 4.00572369 397.46253281 5.34426117 397.46623182 7.90295595 C397.4746913 8.80305895 397.48315077 9.70316194 397.49186659 10.63054079 C397.48275755 12.10808588 397.48275755 12.10808588 397.47346449 13.61548036 C397.48134993 15.17435724 397.48134993 15.17435724 397.48939466 16.76472658 C397.50262357 20.20796822 397.49384611 23.65074945 397.4837184 27.09399599 C397.48573829 29.48148876 397.48864902 31.86898092 397.4924159 34.25647157 C397.49684319 39.26340788 397.49039506 44.27018377 397.47639418 49.27710146 C397.45930226 55.70355936 397.46914126 62.12964142 397.48711157 68.55608553 C397.49793838 73.48707099 397.4945081 78.41796697 397.48672819 83.34895509 C397.48472314 85.7188998 397.48719609 88.08885256 397.49416685 90.45878786 C397.50176303 93.7677489 397.49020234 97.07609641 397.47346449 100.38501161 C397.47953718 101.37004167 397.48560987 102.35507173 397.49186659 103.36995119 C397.48340712 104.27005419 397.47494764 105.17015718 397.46623182 106.09753603 C397.46510075 106.87992899 397.46396967 107.66232195 397.46280432 108.46842378 C396.98488557 111.04057129 396.14521143 111.92998212 394.0852809 113.50024599 C391.52261305 113.86100954 391.52261305 113.86100954 388.42048597 113.84082216 C387.25950895 113.84059557 386.09853193 113.84036897 384.90237379 113.84013551 C383.64917845 113.82465166 382.3959831 113.8091678 381.10481215 113.79321474 C379.82168638 113.7889699 378.53856062 113.78472505 377.21655226 113.78035158 C373.80841952 113.76890761 370.4006715 113.73944494 366.99269056 113.70623964 C363.51384228 113.67552872 360.03492987 113.66167967 356.55598402 113.64673036 C349.73207675 113.61616643 342.90922535 113.55744763 336.0852809 113.50024599 C336.0852809 123.40024599 336.0852809 133.30024599 336.0852809 143.50024599 C338.61305189 143.48453554 341.14082289 143.46882509 343.745193 143.45263857 C352.1190376 143.40281591 360.49288893 143.36974645 368.86684275 143.34480947 C373.94144454 143.32918755 379.01589381 143.30801294 384.09040785 143.27392763 C388.99225876 143.24121005 393.89396341 143.22336687 398.79591513 143.21561426 C400.66131913 143.21009295 402.52671559 143.19931137 404.39205694 143.18305582 C407.01515004 143.16111647 409.63764718 143.1582859 412.260818 143.15966982 C413.0232733 143.14888399 413.78572859 143.13809816 414.57128859 143.12698549 C423.26242391 143.17624801 430.10289777 145.70658376 436.42512465 151.66430849 C442.92157127 158.84861417 442.30028981 167.36647531 442.32551527 176.44238466 C442.33513814 178.53175129 442.36614609 180.62009775 442.3977809 182.70923036 C442.51945041 198.14734395 439.11506123 209.85565665 428.5149684 221.16821474 C419.03859481 230.26370514 409.58969954 233.02227678 396.7102809 232.93774599 C395.6377809 232.95772646 394.5652809 232.97770693 393.4602809 232.99829286 C381.5159893 232.99102748 371.26539875 228.61845949 362.74543715 220.18383974 C357.0852809 213.98651576 357.0852809 213.98651576 357.0852809 211.50024599 C354.65627338 213.86178108 352.36363365 216.10849026 350.3977809 218.87524599 C342.6365271 227.68531787 332.43448972 232.17642183 320.8509059 232.91430849 C306.75114684 233.44578232 296.16647656 231.58058555 285.06574965 222.34008974 C282.14681 219.62841208 279.31644962 216.81637518 277.0852809 213.50024599 C277.0852809 212.84024599 277.0852809 212.18024599 277.0852809 211.50024599 C276.4252809 211.50024599 275.7652809 211.50024599 275.0852809 211.50024599 C274.8171559 212.08032411 274.5490309 212.66040224 274.2727809 213.25805849 C269.27640992 222.69199579 260.24569363 228.33462874 250.42976332 231.89599794 C245.74916643 233.10233735 241.0154051 232.97073997 236.2102809 232.93774599 C234.67307386 232.96771669 234.67307386 232.96771669 233.10481215 232.99829286 C220.34623706 232.99018703 211.48655849 227.7628164 202.0852809 219.50024599 C200.15399798 217.24219503 198.66500526 215.02780498 197.0852809 212.50024599 C196.4252809 212.17024599 195.7652809 211.84024599 195.0852809 211.50024599 C194.82231215 212.24532411 194.5593434 212.99040224 194.2884059 213.75805849 C190.07446164 223.3625678 180.134298 227.53339605 171.0852809 231.50024599 C166.46803386 233.03932833 161.85998645 232.76719791 157.0227809 232.81274599 C156.02311293 232.84174989 155.02344496 232.8707538 153.99348402 232.90063661 C142.33078335 232.99915195 132.65272293 228.49383387 124.07356215 220.66430849 C122.37291099 218.97435325 120.72219006 217.25165398 119.0852809 215.50024599 C118.08873112 214.49680762 117.08978195 213.49572458 116.0852809 212.50024599 C115.50133558 213.35296083 115.50133558 213.35296083 114.9055934 214.22290224 C110.42134818 220.41198722 105.7109291 224.68877027 99.0852809 228.50024599 C98.33375746 228.93594911 97.58223402 229.37165224 96.80793715 229.82055849 C86.49883288 234.59917084 72.14292898 234.12285887 61.24543715 231.61743349 C50.05685043 227.26871639 40.01078658 218.7926281 35.02558851 207.75699037 C31.74505681 199.883693 30.61826737 192.6630705 30.6165309 184.16430849 C30.60511061 182.60164751 30.60511061 182.60164751 30.59345961 181.00741762 C30.58272826 178.82422449 30.57977685 176.64098032 30.58430433 174.45776552 C30.58528448 171.11299811 30.54342009 167.77046892 30.4993434 164.42602724 C30.49414144 162.29712575 30.49144812 160.16821633 30.4915309 158.03930849 C30.47513563 157.04138277 30.45874037 156.04345705 30.44184828 155.01529115 C30.51041533 148.17424354 30.51041533 148.17424354 33.33210707 144.86596864 C36.11550849 143.48525147 37.65960524 143.02607794 40.72981215 143.10962099 C41.48882826 143.11961122 42.24784437 143.12960146 43.02986097 143.13989443 C43.97627455 143.17631044 44.92268812 143.21272646 45.8977809 143.25024599 C48.9296559 143.33274599 51.9615309 143.41524599 55.0852809 143.50024599 C55.0852809 133.60024599 55.0852809 123.70024599 55.0852809 113.50024599 C50.93321058 113.54665224 46.78114027 113.59305849 42.50324965 113.64087099 C39.19368679 113.66659273 35.88415215 113.68828454 32.57454634 113.70724672 C29.08011796 113.72837494 25.58607726 113.75660992 22.09187269 113.8020038 C18.08312673 113.85375661 14.07479167 113.87318735 10.06574965 113.89087099 C8.18595663 113.9218387 8.18595663 113.9218387 6.268188 113.95343202 C5.10721098 113.95373415 3.94623396 113.95403627 2.75007582 113.95434755 C1.21452291 113.96767122 1.21452291 113.96767122 -0.35205126 113.98126405 C-2.9147191 113.50024599 -2.9147191 113.50024599 -4.55107641 111.74770159 C-6.07088287 109.24286836 -6.29138761 107.95794605 -6.29567003 105.05993837 C-6.30412951 104.17673418 -6.31258898 103.29352998 -6.3213048 102.38356203 C-6.31523211 101.42239977 -6.30915941 100.4612375 -6.3029027 99.47094911 C-6.30815966 98.45266527 -6.31341661 97.43438143 -6.31883287 96.3852405 C-6.33204342 93.01716992 -6.3232908 89.64957143 -6.3131566 86.28149599 C-6.31517703 83.94266857 -6.3180882 81.60384176 -6.32185411 79.2650165 C-6.32627891 74.3624083 -6.31984125 69.45996404 -6.30583239 64.55737489 C-6.28874061 58.2689248 -6.29858094 51.98085881 -6.31654978 45.69242281 C-6.3273833 40.86262289 -6.32394321 36.03291424 -6.3161664 31.20311159 C-6.31416321 28.88423295 -6.31662782 26.56534607 -6.32360506 24.24647707 C-6.33121223 21.00727527 -6.31962505 17.76869807 -6.3029027 14.52954286 C-6.30897539 13.5683806 -6.31504808 12.60721834 -6.3213048 11.61692995 C-6.31284533 10.73372576 -6.30438585 9.85052156 -6.29567003 8.94055361 C-6.29453896 8.17512995 -6.29340788 7.40970628 -6.29224253 6.62108797 C-5.57168688 2.57316784 -4.10205309 0.70402517 0 0 Z " fill="#A44F3E" transform="translate(59.914719104766846,10.499754011631012)"/>
<path d="M0 0 C92.73 0 185.46 0 281 0 C281 9.9 281 19.8 281 30 C283.527771 29.98428955 286.05554199 29.9685791 288.65991211 29.95239258 C297.03375671 29.90256993 305.40760804 29.86950046 313.78156185 29.84456348 C318.85616365 29.82894157 323.93061292 29.80776695 329.00512695 29.77368164 C333.90697786 29.74096406 338.80868252 29.72312088 343.71063423 29.71536827 C345.57603824 29.70984697 347.4414347 29.69906539 349.30677605 29.68280983 C351.92986915 29.66087048 354.55236628 29.65803991 357.17553711 29.65942383 C358.31922005 29.64324509 358.31922005 29.64324509 359.48600769 29.6267395 C368.17714302 29.67600202 375.01761687 32.20633777 381.33984375 38.1640625 C387.83629037 45.34836818 387.21500892 53.86622932 387.24023438 62.94213867 C387.24985725 65.0315053 387.2808652 67.11985176 387.3125 69.20898438 C387.43416952 84.64709796 384.02978033 96.35541066 373.4296875 107.66796875 C363.95331391 116.76345916 354.50441864 119.52203079 341.625 119.4375 C340.5525 119.45748047 339.48 119.47746094 338.375 119.49804688 C326.4307084 119.49078149 316.18011785 115.1182135 307.66015625 106.68359375 C302 100.48626977 302 100.48626977 302 98 C299.57099248 100.36153509 297.27835275 102.60824427 295.3125 105.375 C287.5512462 114.18507188 277.34920882 118.67617584 265.765625 119.4140625 C251.66586594 119.94553633 241.08119567 118.08033956 229.98046875 108.83984375 C227.06152911 106.12816609 224.23116872 103.3161292 222 100 C222 99.34 222 98.68 222 98 C221.34 98 220.68 98 220 98 C219.731875 98.58007812 219.46375 99.16015625 219.1875 99.7578125 C214.19112903 109.1917498 205.16041273 114.83438275 195.34448242 118.39575195 C190.66388553 119.60209136 185.9301242 119.47049399 181.125 119.4375 C180.10019531 119.45748047 179.07539063 119.47746094 178.01953125 119.49804688 C165.26095617 119.48994105 156.4012776 114.26257042 147 106 C145.06871708 103.74194904 143.57972437 101.52755899 142 99 C141.34 98.67 140.68 98.34 140 98 C139.73703125 98.74507813 139.4740625 99.49015625 139.203125 100.2578125 C134.98918074 109.86232182 125.0490171 114.03315006 116 118 C111.38275296 119.53908235 106.77470555 119.26695193 101.9375 119.3125 C100.43799805 119.35600586 100.43799805 119.35600586 98.90820312 119.40039062 C87.24550246 119.49890597 77.56744204 114.99358788 68.98828125 107.1640625 C67.2876301 105.47410726 65.63690917 103.751408 64 102 C63.00345023 100.99656164 62.00450106 99.99547859 61 99 C60.61070312 99.56847656 60.22140625 100.13695312 59.8203125 100.72265625 C55.33606729 106.91174123 50.62564821 111.18852428 44 115 C43.24847656 115.43570313 42.49695313 115.87140625 41.72265625 116.3203125 C31.41355198 121.09892485 17.05764809 120.62261289 6.16015625 118.1171875 C-5.02843047 113.7684704 -15.07449431 105.29238211 -20.05969238 94.25674438 C-23.34022408 86.38344701 -24.46701352 79.16282452 -24.46875 70.6640625 C-24.47636353 69.62228851 -24.48397705 68.58051453 -24.49182129 67.50717163 C-24.50255263 65.32397851 -24.50550404 63.14073434 -24.50097656 60.95751953 C-24.49999641 57.61275212 -24.5418608 54.27022293 -24.5859375 50.92578125 C-24.59113946 48.79687976 -24.59383278 46.66797034 -24.59375 44.5390625 C-24.61014526 43.54113678 -24.62654053 42.54321106 -24.64343262 41.51504517 C-24.57486556 34.67399755 -24.57486556 34.67399755 -21.75317383 31.36572266 C-18.9697724 29.98500548 -17.42567566 29.52583195 -14.35546875 29.609375 C-13.59645264 29.61936523 -12.83743652 29.62935547 -12.05541992 29.63964844 C-11.10900635 29.67606445 -10.16259277 29.71248047 -9.1875 29.75 C-6.155625 29.8325 -3.12375 29.915 0 30 C0 20.1 0 10.2 0 0 Z " fill="#F5A86B" transform="translate(115,124)"/>
<path d="M0 0 C10.56633313 9.00223776 18.32189047 21.55992995 20.6875 35.3125 C20.96382203 39.62514223 20.94052043 43.92591096 20.91455078 48.24609375 C20.91484283 49.52497971 20.91513489 50.80386566 20.91543579 52.12150574 C20.91600658 55.60651522 20.90429694 59.09138534 20.89028788 62.57636261 C20.87773459 66.22651959 20.87660641 69.87668023 20.87423706 73.52685547 C20.86803575 80.42919168 20.8516433 87.33146409 20.83153808 94.23377228 C20.80913696 102.09595157 20.79817508 109.958134 20.78814721 117.8203373 C20.76727579 133.9844288 20.73212621 150.14845624 20.6875 166.3125 C21.7850486 166.28704605 21.7850486 166.28704605 22.9047699 166.26107788 C29.8330629 166.10235341 36.76151217 165.95423044 43.69027615 165.81772423 C47.25159884 165.74719499 50.81274315 165.67270819 54.3737793 165.58886719 C58.47685927 165.49244404 62.58011913 165.41379278 66.68359375 165.3359375 C68.58255653 165.28764297 68.58255653 165.28764297 70.5198822 165.2383728 C79.91641777 165.08049288 88.39312384 165.25099028 95.890625 171.50390625 C101.22726024 176.87534563 102.99912956 181.8084237 103.25 189.375 C102.89747251 197.78142471 100.91925247 202.4668066 94.8125 208.1875 C89.50066424 212.8111627 83.91201685 213.61051005 77.05306435 213.56697559 C76.30058851 213.57018207 75.54811267 213.57338855 74.77283454 213.57669219 C72.24908296 213.58499959 69.72556825 213.57906533 67.20181274 213.57319641 C65.3750478 213.57621676 63.54828412 213.58010565 61.72152269 213.58478898 C56.69960476 213.5950928 51.67775803 213.59288109 46.6558342 213.58860838 C41.24059525 213.58614548 35.82537363 213.5951499 30.41014099 213.60264587 C19.80029374 213.61540706 9.19047179 213.61718479 -1.41938184 213.61484561 C-10.04188553 213.61306387 -18.66438154 213.614809 -27.28688431 213.61907005 C-28.51324661 213.61966524 -29.73960892 213.62026043 -31.00313372 213.62087366 C-33.49434967 213.62208539 -35.98556562 213.62329952 -38.47678156 213.62451603 C-61.84910425 213.63539705 -85.22141251 213.63322642 -108.59373601 213.62713119 C-129.98247128 213.62180903 -151.37116005 213.63321766 -172.75988643 213.65222941 C-194.71400024 213.67159433 -216.6680925 213.67986617 -238.62221491 213.67610615 C-250.95091095 213.67419206 -263.27956822 213.67670193 -275.60825729 213.69082069 C-286.10378735 213.70271832 -296.59925478 213.70415757 -307.09478568 213.69203053 C-312.45066391 213.68613047 -317.80642751 213.68507353 -323.1622982 213.69703293 C-328.06493814 213.70785315 -332.96736719 213.70483444 -337.8699971 213.69077124 C-339.64383788 213.68811365 -341.41769498 213.69052403 -343.19151978 213.69850711 C-345.60339488 213.70860852 -348.01453627 213.70019552 -350.42638206 213.68723011 C-351.1143759 213.69453946 -351.80236974 213.7018488 -352.51121187 213.70937964 C-358.69701031 213.6404961 -363.71584239 211.88257204 -369 208.6875 C-374.2092696 203.33743933 -376.98892988 197.06591341 -377.625 189.6875 C-377.49897614 183.53524443 -375.50289532 178.0075947 -371.6171875 173.2265625 C-363.95278128 165.87245613 -354.6009801 164.85639016 -344.35324097 164.98970032 C-343.29522376 164.9912206 -342.23720656 164.99274087 -341.14712822 164.99430722 C-337.62634986 165.00302877 -334.10610241 165.03336988 -330.58544922 165.0637207 C-328.05199188 165.07443628 -325.51852857 165.08381128 -322.98506165 165.09194946 C-317.54323125 165.11243343 -312.10157903 165.14218791 -306.65984726 165.18050575 C-298.79219404 165.23588944 -290.92452843 165.27435203 -283.0567589 165.308777 C-270.28971563 165.36509385 -257.52278433 165.43496339 -244.75585938 165.51342773 C-232.3590803 165.58958801 -219.96229234 165.65932078 -207.56542969 165.72045898 C-206.80039906 165.72423415 -206.03536843 165.72800932 -205.24715506 165.73189888 C-201.4089556 165.7507996 -197.57075553 165.76957448 -193.73255515 165.78828681 C-161.92575076 165.9435167 -130.11910734 166.12099864 -98.3125 166.3125 C-98.31618717 165.67272469 -98.31987434 165.03294937 -98.32367325 164.37378693 C-98.41237989 148.73764617 -98.47838126 133.1015941 -98.51974869 117.46526337 C-98.54029031 109.90334481 -98.56824802 102.3415952 -98.61425781 94.77978516 C-98.65438524 88.1815559 -98.67999369 81.58344913 -98.68885398 74.98510122 C-98.69402542 71.49793406 -98.70599954 68.01111698 -98.73542023 64.52406311 C-98.92834366 40.7036623 -97.76557888 21.63026495 -80.5546875 3.4921875 C-57.70870672 -18.71697151 -25.019972 -18.59069127 0 0 Z " fill="#F5A86C" transform="translate(393.3125,289.6875)"/>
<path d="M0 0 C1.228396 -0.00281982 2.45679199 -0.00563965 3.72241211 -0.00854492 C5.09619155 -0.00660033 6.46997085 -0.00455214 7.84375 -0.00241089 C9.28068079 -0.00376489 10.71761123 -0.00554482 12.15454102 -0.00772095 C16.06765589 -0.01229541 19.98074451 -0.01050567 23.89385986 -0.00734186 C27.9800219 -0.00481833 32.06618163 -0.00715578 36.15234375 -0.00872803 C43.01562912 -0.01054974 49.87890375 -0.00814336 56.7421875 -0.00338745 C64.68847006 0.00205517 72.63472697 0.00029252 80.58100891 -0.00521386 C87.39118164 -0.00974493 94.20134663 -0.01039556 101.01152039 -0.00777519 C105.08434469 -0.00621238 109.15715693 -0.00601874 113.22998047 -0.00931168 C117.05810757 -0.01219031 120.88620145 -0.01021485 124.71432495 -0.00441742 C126.12328028 -0.00308978 127.53223838 -0.00348401 128.94119263 -0.00568008 C130.85662743 -0.0083914 132.77206832 -0.00439694 134.6875 0 C135.76193359 0.00037703 136.83636719 0.00075405 137.94335938 0.0011425 C140.34375 0.12698364 140.34375 0.12698364 141.34375 1.12698364 C141.44457638 2.95730573 141.47451924 4.79155434 141.47746277 6.62464905 C141.48386024 8.41459038 141.48386024 8.41459038 141.49038696 10.24069214 C141.4900374 11.57510379 141.48957584 12.90951542 141.48901367 14.243927 C141.4920036 15.63982738 141.49540574 17.03572692 141.49919128 18.43162537 C141.50805244 22.23323649 141.51037028 26.03482512 141.51100707 29.83644557 C141.51195443 33.00510319 141.51563071 36.17375551 141.51917917 39.3424111 C141.52733177 46.81544515 141.52976267 54.28846714 141.52905273 61.76150513 C141.52845173 69.48170938 141.53900628 77.20184381 141.5547964 84.92203039 C141.56785258 91.54028941 141.57323744 98.15852555 141.57259732 104.77679735 C141.57234177 108.73397908 141.57522447 112.69109879 141.58577538 116.64826775 C141.59542414 120.36890324 141.59555786 124.08941702 141.58825874 127.81005669 C141.58670677 129.83262594 141.59508207 131.85519509 141.60369873 133.87774658 C141.59950424 135.07386063 141.59530975 136.26997467 141.59098816 137.50233459 C141.59153293 138.54634902 141.59207769 139.59036345 141.59263897 140.66601467 C141.34375 143.12698364 141.34375 143.12698364 139.34375 145.12698364 C136.8543396 145.37866592 136.8543396 145.37866592 133.64990234 145.38095093 C131.83265656 145.3894104 131.83265656 145.3894104 129.97869873 145.39804077 C128.62902773 145.39415183 127.27935731 145.39005547 125.9296875 145.38577271 C124.51393453 145.38848157 123.09818296 145.39204191 121.68243408 145.39639282 C117.83126641 145.40553158 113.98020556 145.40196649 110.12903595 145.39563465 C106.10473842 145.39058232 102.08045022 145.39526396 98.05615234 145.39840698 C91.29718376 145.40204887 84.53825884 145.3972417 77.77929688 145.38772583 C69.95738666 145.37684084 62.1355807 145.38036626 54.31367302 145.39137864 C47.60621687 145.40044518 40.89879216 145.4017399 34.19133186 145.3965013 C30.18163468 145.39337811 26.17198654 145.3929818 22.16229248 145.39957428 C18.39320733 145.40533794 14.624257 145.40136896 10.85518646 145.38978577 C9.46922785 145.38713391 8.08325795 145.3879132 6.69730377 145.3923111 C4.8107391 145.39774705 2.92414972 145.38973303 1.03759766 145.38095093 C-0.01986664 145.38019688 -1.07733093 145.37944283 -2.1668396 145.37866592 C-4.65625 145.12698364 -4.65625 145.12698364 -6.65625 143.12698364 C-6.90513897 140.66601467 -6.90513897 140.66601467 -6.90348816 137.50233459 C-6.90768265 136.30622055 -6.91187714 135.11010651 -6.91619873 133.87774658 C-6.91057922 132.55870331 -6.90495972 131.23966003 -6.89916992 129.88064575 C-6.90024239 128.48297537 -6.90218055 127.08530543 -6.90492249 125.68763733 C-6.90977914 121.88611325 -6.90210532 118.08470614 -6.89196944 114.28319621 C-6.88320373 110.31182021 -6.88494609 106.34044803 -6.8853302 102.36906433 C-6.88439298 95.70005326 -6.87570066 89.03108762 -6.86206055 82.36209106 C-6.84632798 74.64129554 -6.84106263 66.92054979 -6.8417961 59.1997394 C-6.84240552 51.78442881 -6.83730839 44.36913451 -6.82900429 36.95382881 C-6.82546515 33.79235266 -6.82364014 30.63088226 -6.82311058 27.46940422 C-6.82210925 23.75042066 -6.81602994 20.03147922 -6.80594444 16.31250954 C-6.8030129 14.94386935 -6.80179539 13.57522432 -6.80237198 12.20658112 C-6.80285939 10.34593256 -6.79661292 8.48528578 -6.78996277 6.62464905 C-6.78828692 5.58101165 -6.78661108 4.53737425 -6.78488445 3.46211147 C-6.53692281 -1.03918758 -3.91786667 0.0013748 0 0 Z " fill="#C7EDFC" transform="translate(112.65625,282.8730163574219)"/>
<path d="M0 0 C1.19689453 0.36738281 1.19689453 0.36738281 2.41796875 0.7421875 C13.88201621 4.75904754 22.95165053 13.16618089 28.50390625 23.91015625 C31.07793885 29.47622674 33.12617501 34.14711612 33.12025452 40.33403015 C33.12231651 41.99359741 33.12231651 41.99359741 33.12442017 43.68669128 C33.11902725 45.50793266 33.11902725 45.50793266 33.11352539 47.3659668 C33.11367142 48.64412262 33.11381744 49.92227844 33.1139679 51.23916626 C33.11425512 54.74508917 33.10837044 58.25097795 33.10139394 61.75689292 C33.09514799 65.42043113 33.09455562 69.0839701 33.09336853 72.74751282 C33.09025889 79.68540846 33.08205042 86.62328837 33.07201904 93.56117707 C33.05875797 102.93602586 33.05335503 112.31087895 33.04751682 121.68573475 C33.0381103 136.45716829 33.01818893 151.22856862 33 166 C1.65 166 -29.7 166 -62 166 C-62.16121214 134.42481175 -62.16121214 134.42481175 -62.1953125 121.13476562 C-62.21899397 111.97915627 -62.24674608 102.82369479 -62.30175781 93.66821289 C-62.34181361 86.99859694 -62.36747705 80.32910161 -62.37635398 73.65936869 C-62.38153731 70.13261669 -62.39358988 66.60620957 -62.42292023 63.07956886 C-62.45551133 59.12826028 -62.45594749 55.17727921 -62.45410156 51.22583008 C-62.46848267 50.07567413 -62.48286377 48.92551819 -62.49768066 47.74050903 C-62.43763413 35.78415515 -59.38852364 25.45731026 -52 16 C-51.1028125 14.77990234 -51.1028125 14.77990234 -50.1875 13.53515625 C-37.75386014 -0.87454423 -17.93829438 -5.70614849 0 0 Z " fill="#C7EEFD" transform="translate(369,290)"/>
<path d="M0 0 C1.80483958 -0.000161 1.80483958 -0.000161 3.64614058 -0.00032526 C4.31898767 -0.00583943 4.99183477 -0.0113536 5.68507117 -0.01703486 C7.95625112 -0.0307097 10.22635158 -0.01569135 12.49751234 -0.00095946 C14.13551409 -0.00484949 15.77351248 -0.01048754 17.41150284 -0.01773036 C21.92547694 -0.03254589 26.43910437 -0.02226781 30.95306754 -0.00799364 C35.81612114 0.00307779 40.67912456 -0.00881371 45.54217482 -0.01783568 C55.07395505 -0.03179635 64.60560316 -0.02419114 74.13737714 -0.00916009 C85.22850709 0.0076668 96.31960382 0.00449395 107.41074258 0.00074583 C127.19502301 -0.00513793 146.97923987 0.00905904 166.76350355 0.03369325 C185.97804602 0.05761553 205.19250355 0.06469817 224.40705824 0.05420107 C245.31103317 0.04280154 266.21496877 0.04084984 287.11894321 0.05529916 C289.34636481 0.05682506 291.57378641 0.05834542 293.80120802 0.05986017 C295.44527503 0.06099689 295.44527503 0.06099689 297.12255552 0.06215658 C304.86071132 0.06690688 312.5988496 0.06504269 320.33700514 0.06079477 C329.76227755 0.05587702 339.18746952 0.06181254 348.61272347 0.08168907 C353.4251879 0.09158652 358.23752962 0.09663985 363.05000067 0.08879656 C367.45043731 0.08177132 371.85062567 0.08846981 376.25102943 0.10640018 C377.84788228 0.1104653 379.44475752 0.10941055 381.04160219 0.10288132 C383.20284359 0.09479677 385.36323499 0.10496159 387.52442122 0.11992925 C389.3292608 0.12147295 389.3292608 0.12147295 391.17056179 0.12304783 C394.0852809 0.50024599 394.0852809 0.50024599 395.97173941 1.8970269 C397.43636853 4.00572369 397.46253281 5.34426117 397.46623182 7.90295595 C397.4746913 8.80305895 397.48315077 9.70316194 397.49186659 10.63054079 C397.48275755 12.10808588 397.48275755 12.10808588 397.47346449 13.61548036 C397.48134993 15.17435724 397.48134993 15.17435724 397.48939466 16.76472658 C397.50262357 20.20796822 397.49384611 23.65074945 397.4837184 27.09399599 C397.48573829 29.48148876 397.48864902 31.86898092 397.4924159 34.25647157 C397.49684319 39.26340788 397.49039506 44.27018377 397.47639418 49.27710146 C397.45930226 55.70355936 397.46914126 62.12964142 397.48711157 68.55608553 C397.49793838 73.48707099 397.4945081 78.41796697 397.48672819 83.34895509 C397.48472314 85.7188998 397.48719609 88.08885256 397.49416685 90.45878786 C397.50176303 93.7677489 397.49020234 97.07609641 397.47346449 100.38501161 C397.47953718 101.37004167 397.48560987 102.35507173 397.49186659 103.36995119 C397.48340712 104.27005419 397.47494764 105.17015718 397.46623182 106.09753603 C397.46510075 106.87992899 397.46396967 107.66232195 397.46280432 108.46842378 C396.96269528 111.15999888 396.28645842 111.87043928 394.0852809 113.50024599 C391.17056179 113.87744415 391.17056179 113.87744415 387.52442122 113.88056272 C386.85157412 113.88522264 386.17872702 113.88988256 385.48549062 113.89468369 C383.21448195 113.90670365 380.94406387 113.89721184 378.67304945 113.88792604 C377.03504889 113.89209591 375.39705122 113.89757151 373.75905895 113.90424585 C369.24514693 113.9187647 364.73141649 113.91443577 360.21749425 113.90707904 C355.3544408 113.90236555 350.49142767 113.91484099 345.62838697 113.92509645 C336.09663478 113.94232524 326.56494838 113.94311608 317.03318465 113.93788355 C309.28918562 113.93384844 301.54520611 113.93527754 293.80120802 113.94063181 C292.70066225 113.94138023 291.60011647 113.94212865 290.46622083 113.94289975 C288.23075362 113.94443117 285.99528641 113.94596951 283.75981921 113.94751472 C262.77879465 113.96125435 241.79780733 113.95579165 220.81678361 113.94432951 C201.60368063 113.93439402 182.39067391 113.94734068 163.17758578 113.9712637 C143.46892 113.9956197 123.76029912 114.0052713 104.05161858 113.99861097 C92.9789028 113.99511116 81.9062611 113.997401 70.83355665 114.014862 C61.40827426 114.02954024 51.98311812 114.03027694 42.55783832 114.01279109 C37.74533347 114.00424274 32.93305455 114.00222445 28.12056112 114.01744264 C23.72006929 114.03118621 19.31999914 114.02666127 14.91953236 114.00720341 C13.32267606 114.00341109 11.72578681 114.00645723 10.1289596 114.01681506 C7.96750251 114.02984475 5.80753152 114.01853043 3.64614058 114.00081724 C2.44291419 114.0007099 1.2396878 114.00060257 0 114.00049198 C-2.9147191 113.50024599 -2.9147191 113.50024599 -4.80117762 111.60151291 C-6.06615456 109.21448536 -6.29169508 107.74987327 -6.29567003 105.05993837 C-6.30412951 104.17673418 -6.31258898 103.29352998 -6.3213048 102.38356203 C-6.31523211 101.42239977 -6.30915941 100.4612375 -6.3029027 99.47094911 C-6.30815966 98.45266527 -6.31341661 97.43438143 -6.31883287 96.3852405 C-6.33204342 93.01716992 -6.3232908 89.64957143 -6.3131566 86.28149599 C-6.31517703 83.94266857 -6.3180882 81.60384176 -6.32185411 79.2650165 C-6.32627891 74.3624083 -6.31984125 69.45996404 -6.30583239 64.55737489 C-6.28874061 58.2689248 -6.29858094 51.98085881 -6.31654978 45.69242281 C-6.3273833 40.86262289 -6.32394321 36.03291424 -6.3161664 31.20311159 C-6.31416321 28.88423295 -6.31662782 26.56534607 -6.32360506 24.24647707 C-6.33121223 21.00727527 -6.31962505 17.76869807 -6.3029027 14.52954286 C-6.30897539 13.5683806 -6.31504808 12.60721834 -6.3213048 11.61692995 C-6.31284533 10.73372576 -6.30438585 9.85052156 -6.29567003 8.94055361 C-6.29453896 8.17512995 -6.29340788 7.40970628 -6.29224253 6.62108797 C-5.57168688 2.57316784 -4.10205309 0.70402517 0 0 Z M7.0852809 12.50024599 C7.0852809 41.87024599 7.0852809 71.24024599 7.0852809 101.50024599 C131.8252809 101.50024599 256.5652809 101.50024599 385.0852809 101.50024599 C385.0852809 72.13024599 385.0852809 42.76024599 385.0852809 12.50024599 C260.3452809 12.50024599 135.6052809 12.50024599 7.0852809 12.50024599 Z " fill="#6D3529" transform="translate(59.914719104766846,10.499754011631012)"/>
<path d="M0 0 C92.73 0 185.46 0 281 0 C281 10.23 281 20.46 281 31 C188.27 31 95.54 31 0 31 C0 20.77 0 10.54 0 0 Z " fill="#FEE3C0" transform="translate(115,124)"/>
<path d="M0 0 C1.93791412 -0.01407143 1.93791412 -0.01407143 3.91497803 -0.02842712 C5.31865093 -0.01794401 6.72231744 -0.00657435 8.12597656 0.00561523 C9.57700676 0.00546009 11.02803737 0.00396863 12.47906494 0.00120544 C15.51878203 -0.00017743 18.55802669 0.01235382 21.59765625 0.03515625 C25.47217705 0.06343964 29.34590735 0.06082995 33.22048569 0.04806614 C36.21818651 0.04106868 39.21570856 0.04894592 42.21338654 0.06132317 C43.6405595 0.0658055 45.0677519 0.06620294 46.49492645 0.06225777 C57.79670697 0.04564872 66.42873912 0.7239569 74.85644531 8.66577148 C81.35289194 15.85007716 80.73161048 24.36793831 80.75683594 33.44384766 C80.76645881 35.53321429 80.79746676 37.62156075 80.82910156 39.71069336 C80.95077108 55.14880695 77.54638189 66.85711965 66.94628906 78.16967773 C57.46991547 87.26516814 48.0210202 90.02373977 35.14160156 89.93920898 C34.06910156 89.95918945 32.99660156 89.97916992 31.89160156 89.99975586 C19.97372764 89.99250654 10.03469978 85.63154503 1.35253906 77.46655273 C-8.59358903 66.90577628 -11.77804061 55.56169551 -11.85449219 41.36108398 C-11.86352066 40.3164801 -11.87254913 39.27187622 -11.8818512 38.19561768 C-11.89628886 36.0004765 -11.90522419 33.80529293 -11.90893555 31.61010742 C-11.92091261 28.24772993 -11.97022994 24.88714189 -12.02050781 21.52514648 C-12.02996406 19.38713457 -12.0372029 17.24911145 -12.04199219 15.11108398 C-12.06152451 14.10688416 -12.08105682 13.10268433 -12.10118103 12.0680542 C-12.0951033 11.13318176 -12.08902557 10.19830933 -12.08276367 9.23510742 C-12.08783432 8.41540466 -12.09290497 7.5957019 -12.09812927 6.75115967 C-10.48042699 0.8315908 -5.42679867 0.00079504 0 0 Z " fill="#A44F3E" transform="translate(421.4833984375,153.498291015625)"/>
<path d="M0 0 C1.87580498 -0.01062721 1.87580498 -0.01062721 3.789505 -0.02146912 C5.17279089 -0.01917535 6.55607643 -0.01666566 7.93936157 -0.01396179 C9.39818076 -0.01830968 10.85699765 -0.02349309 12.31581116 -0.02944946 C16.27662036 -0.04284351 20.23733416 -0.04341761 24.1981616 -0.04088616 C27.50577647 -0.03981657 30.81337203 -0.04469961 34.12098277 -0.04949158 C41.92552867 -0.06058851 49.73002644 -0.06102336 57.53457642 -0.05497742 C65.58256023 -0.04893867 73.63036917 -0.06124565 81.67832315 -0.08254749 C88.59055361 -0.10016965 95.50272844 -0.10616382 102.41498053 -0.10290974 C106.54217827 -0.10109747 110.6692513 -0.10372729 114.79642868 -0.11762428 C118.6788622 -0.13020779 122.56102345 -0.12825372 126.44345284 -0.11521339 C127.86643758 -0.11284906 129.28944151 -0.11557722 130.71240425 -0.12383652 C132.65874888 -0.13431689 134.60517117 -0.12439349 136.55151367 -0.11352539 C137.63956488 -0.11369313 138.72761608 -0.11386087 139.84863853 -0.1140337 C144.69212778 0.48024943 147.99207826 2.52299195 151.73829651 5.55770874 C155.59833333 10.61729324 154.58793078 17.45922175 154.53384399 23.50849915 C154.53898599 24.96599701 154.54626938 26.42348865 154.55552673 27.88096619 C154.57401544 31.82953707 154.56111803 35.77743127 154.54143643 39.72597384 C154.52502431 43.86402567 154.53386653 48.0020355 154.53895569 52.1401062 C154.5434743 59.08967365 154.5276226 66.03897174 154.49966431 72.98847961 C154.46762593 81.01384608 154.46762394 89.03872647 154.48487908 97.06412739 C154.50076524 104.79450263 154.49399639 112.52470031 154.47694206 120.25506783 C154.47008389 123.54002189 154.47109132 126.82483309 154.47848701 130.10978508 C154.4861709 133.98170069 154.47395592 137.85306596 154.44663811 141.72488785 C154.43977462 143.14259902 154.43963444 144.5603618 154.44685364 145.97807121 C154.50899135 159.7746346 154.50899135 159.7746346 149.90274048 165.26069641 C145.62046755 167.8354454 142.45200815 168.63654421 137.48231506 168.64164734 C136.21075562 168.65010681 134.93919617 168.65856628 133.62910461 168.6672821 C132.23260369 168.66145009 130.83610404 168.65530564 129.43960571 168.64888 C127.95916355 168.65294802 126.47872442 168.6582912 124.99829102 168.66481018 C120.98803187 168.67846108 116.97800482 168.67319472 112.96774173 168.66367292 C108.76736253 168.65606619 104.56700292 168.66312462 100.36662292 168.66783142 C93.31457966 168.67328542 86.26263074 168.66610608 79.21060181 168.65180969 C71.06030106 168.6354775 62.91022539 168.64077719 54.75993007 168.65728891 C47.75764619 168.67090638 40.75543002 168.67282236 33.75313717 168.6649729 C29.57291509 168.66029863 25.3927988 168.65966489 21.21258354 168.66958237 C17.28332742 168.6782538 13.35436138 168.67222709 9.42513657 168.6548996 C7.98399779 168.65093595 6.54283457 168.65206675 5.10170555 168.65868759 C3.13320671 168.66689693 1.16465446 168.65477236 -0.80381775 168.64164734 C-1.9049418 168.64051626 -3.00606585 168.63938519 -4.14055729 168.63821983 C-8.9088052 168.0293911 -11.37768981 166.14190448 -14.37542725 162.47077942 C-17.3346283 156.75121025 -16.67133024 150.17314045 -16.64657593 143.89936829 C-16.65527955 142.44172119 -16.66564898 140.98408323 -16.67755127 139.52645874 C-16.70425035 135.58221034 -16.70549815 131.63834615 -16.70042467 127.69402504 C-16.69828023 124.39627186 -16.70806446 121.09859562 -16.71763551 117.80085897 C-16.73979668 110.01967161 -16.74071642 102.23867738 -16.72860718 94.45747375 C-16.71652092 86.4393478 -16.741172 78.42192316 -16.78374732 70.40391684 C-16.81900597 63.50941044 -16.83097817 56.61512705 -16.82447183 49.72053385 C-16.82085077 45.60717586 -16.82607106 41.49431853 -16.85390091 37.38104248 C-16.87909426 33.51306265 -16.87513844 29.64617508 -16.84907913 25.77821159 C-16.84435649 24.36209172 -16.84978579 22.94589451 -16.86632538 21.52986336 C-16.99642868 9.52180264 -16.99642868 9.52180264 -13.30072021 4.9881134 C-9.20860316 0.951672 -5.69843808 0.01075893 0 0 Z M-5.09725952 13.26069641 C-5.1980859 15.0910185 -5.22802876 16.9252671 -5.23097229 18.75836182 C-5.23523727 19.95165604 -5.23950226 21.14495026 -5.24389648 22.37440491 C-5.24354692 23.70881656 -5.24308536 25.04322819 -5.24252319 26.37763977 C-5.24551312 27.77354015 -5.24891526 29.16943969 -5.25270081 30.56533813 C-5.26156196 34.36694925 -5.2638798 38.16853789 -5.26451659 41.97015834 C-5.26546395 45.13881596 -5.26914024 48.30746828 -5.27268869 51.47612387 C-5.28084129 58.94915792 -5.28327219 66.42217991 -5.28256226 73.8952179 C-5.28196125 81.61542215 -5.2925158 89.33555658 -5.30830592 97.05574316 C-5.32136211 103.67400217 -5.32674696 110.29223832 -5.32610685 116.91051012 C-5.32585129 120.86769185 -5.32873399 124.82481156 -5.3392849 128.78198051 C-5.34893366 132.502616 -5.34906738 136.22312979 -5.34176826 139.94376945 C-5.34021629 141.96633871 -5.3485916 143.98890786 -5.35720825 146.01145935 C-5.35301376 147.20757339 -5.34881927 148.40368744 -5.34449768 149.63604736 C-5.34504245 150.68006179 -5.34558722 151.72407621 -5.34614849 152.79972744 C-5.34133364 155.43820103 -5.34133364 155.43820103 -3.09725952 157.26069641 C-0.49350154 157.56580287 -0.49350154 157.56580287 2.59658813 157.5146637 C3.80808533 157.52030334 5.01958252 157.52594299 6.26779175 157.53175354 C7.61746275 157.5278646 8.96713317 157.52376824 10.31680298 157.51948547 C11.73255595 157.52219434 13.14830752 157.52575468 14.5640564 157.53010559 C18.41522407 157.53924435 22.26628492 157.53567926 26.11745453 157.52934742 C30.14175206 157.52429509 34.16604025 157.52897673 38.19033813 157.53211975 C44.94930672 157.53576164 51.70823164 157.53095447 58.4671936 157.5214386 C66.28910381 157.51055361 74.11090978 157.51407903 81.93281746 157.52509141 C88.64027361 157.53415795 95.34769832 157.53545267 102.05515862 157.53021407 C106.0648558 157.52709087 110.07450393 157.52669457 114.084198 157.53328705 C117.85328315 157.53905071 121.62223348 157.53508172 125.39130402 157.52349854 C126.77726263 157.52084668 128.16323253 157.52162597 129.54918671 157.52602386 C131.43575138 157.53145982 133.32234076 157.5234458 135.20889282 157.5146637 C136.79508926 157.51353262 136.79508926 157.51353262 138.41333008 157.51237869 C141.07687869 157.50815399 141.07687869 157.50815399 142.90274048 155.26069641 C143.20490015 152.68737711 143.20490015 152.68737711 143.14997864 149.63604736 C143.15417313 148.43993332 143.15836761 147.24381927 143.16268921 146.01145935 C143.1570697 144.69241608 143.1514502 143.3733728 143.1456604 142.01435852 C143.14673287 140.61668814 143.14867103 139.2190182 143.15141296 137.8213501 C143.15626962 134.01982602 143.14859579 130.21841891 143.13845992 126.41690898 C143.12969421 122.44553298 143.13143657 118.4741608 143.13182068 114.5027771 C143.13088346 107.83376602 143.12219114 101.16480039 143.10855103 94.49580383 C143.09281846 86.77500831 143.08755311 79.05426256 143.08828658 71.33345217 C143.088896 63.91814158 143.08379887 56.50284728 143.07549477 49.08754158 C143.07195563 45.92606543 143.07013062 42.76459503 143.06960106 39.60311699 C143.06859973 35.88413343 143.06252041 32.16519198 143.05243492 28.44622231 C143.04950338 27.07758212 143.04828587 25.70893709 143.04886246 24.34029388 C143.04934987 22.47964533 143.0431034 20.61899855 143.03645325 18.75836182 C143.03393948 17.19290572 143.03393948 17.19290572 143.03137493 15.59582424 C143.16539076 13.30096565 143.16539076 13.30096565 141.90274048 12.26069641 C140.01943501 12.1619636 138.1323821 12.13437454 136.24649048 12.13371277 C135.01809448 12.13089294 133.78969849 12.12807312 132.52407837 12.12516785 C131.15029893 12.12711244 129.77651963 12.12916063 128.40274048 12.13130188 C126.96580969 12.12994788 125.52887924 12.12816795 124.09194946 12.12599182 C120.17883459 12.12141735 116.26574597 12.1232071 112.35263062 12.12637091 C108.26646857 12.12889444 104.18030885 12.12655699 100.09414673 12.12498474 C93.23086135 12.12316303 86.36758672 12.12556941 79.50430298 12.13032532 C71.55802042 12.13576794 63.61176351 12.13400529 55.66548157 12.12849891 C48.85530883 12.12396784 42.04514385 12.12331721 35.23497009 12.12593758 C31.16214578 12.12750039 27.08933355 12.12769403 23.01651001 12.12440109 C19.1883829 12.12152246 15.36028903 12.12349792 11.53216553 12.12929535 C10.1232102 12.13062299 8.71425209 12.13022876 7.30529785 12.12803268 C5.38986304 12.12532137 3.47442216 12.12931583 1.55899048 12.13371277 C0.48455688 12.13408979 -0.58987671 12.13446682 -1.6968689 12.13485527 C-4.04936132 11.98975899 -4.04936132 11.98975899 -5.09725952 13.26069641 Z " fill="#A4503F" transform="translate(111.09725952148438,270.7393035888672)"/>
<path d="M0 0 C0.8112886 0.01712036 1.62257721 0.03424072 2.45845032 0.05187988 C4.30323999 0.09167839 6.14785702 0.14006041 7.99224854 0.1953125 C11.38981287 0.28909905 14.78653461 0.34329132 18.18505859 0.390625 C25.37714428 0.49113345 32.56864131 0.61512934 39.76025391 0.74481201 C43.19366349 0.80635854 46.62710658 0.86597676 50.06054688 0.92578125 C56.74221888 1.04254051 63.42385606 1.16114674 70.10546875 1.28125 C69.44546875 2.27125 68.78546875 3.26125 68.10546875 4.28125 C67.78904614 6.57250105 67.78904614 6.57250105 67.81494141 9.14477539 C67.8021817 10.13333023 67.789422 11.12188507 67.77627563 12.14039612 C67.77404999 13.20910446 67.77182434 14.27781281 67.76953125 15.37890625 C67.76287445 16.48294296 67.75621765 17.58697968 67.74935913 18.72447205 C67.73922377 21.06556532 67.73454238 23.40668754 67.73486328 25.74780273 C67.73051528 29.30567161 67.6942733 32.86227464 67.65625 36.41992188 C67.6503768 38.69791244 67.64641078 40.97590888 67.64453125 43.25390625 C67.63016022 44.30844498 67.61578918 45.3629837 67.60098267 46.44947815 C67.63920944 52.72789812 68.56914076 57.50044388 71.23446655 63.20530701 C72.55957171 66.3635571 72.36951816 68.12112648 71.10546875 71.28125 C65.93668891 79.38468507 56.72559768 85.64624335 47.68359375 88.6171875 C33.32175473 91.28259431 18.98007305 90.77688814 6.60546875 82.63671875 C-4.10981214 74.82936771 -9.95894618 65.13346031 -12.89453125 52.28125 C-13.30652456 48.49712547 -13.36250394 44.74965728 -13.36328125 40.9453125 C-13.37089478 39.90353851 -13.3785083 38.86176453 -13.38635254 37.78842163 C-13.39708388 35.60522851 -13.40003529 33.42198434 -13.39550781 31.23876953 C-13.39452766 27.89400212 -13.43639205 24.55147293 -13.48046875 21.20703125 C-13.48567071 19.07812976 -13.48836403 16.94922034 -13.48828125 14.8203125 C-13.50467651 13.82238678 -13.52107178 12.82446106 -13.53796387 11.79629517 C-13.47009658 5.02506384 -13.47009658 5.02506384 -10.85083008 1.64013672 C-7.12730441 -0.07141204 -4.00638281 -0.16973793 0 0 Z " fill="#A44F3E" transform="translate(103.89453125,153.71875)"/>
<path d="M0 0 C-0.64904297 0.44480713 -1.29808594 0.88961426 -1.96679688 1.34790039 C-5.10358864 5.43951529 -4.572384 9.4117408 -4.53125 14.43359375 C-4.5350769 15.46251236 -4.53890381 16.49143097 -4.54284668 17.55152893 C-4.54556901 19.73284887 -4.53818546 21.91420128 -4.52148438 24.09545898 C-4.50027653 27.39448393 -4.52117337 30.69128166 -4.546875 33.99023438 C-4.56026016 45.01260394 -4.32278463 54.71128638 0 65 C0.33 65.99 0.66 66.98 1 68 C-4.76754757 77.90701865 -14.34674008 85.08290184 -25.265625 88.3359375 C-39.5381253 90.87393441 -53.08066823 90.32514352 -65.46875 82.42578125 C-76.2056955 74.74886522 -82.62763244 63.90468047 -85 51 C-85.28561621 47.3460011 -85.30419794 43.70692096 -85.30078125 40.04296875 C-85.30506638 39.01818924 -85.3093515 37.99340973 -85.31376648 36.93757629 C-85.31948067 34.78529598 -85.32003166 32.63299637 -85.31567383 30.48071289 C-85.31249294 27.18017178 -85.3360816 23.88051001 -85.36132812 20.58007812 C-85.36359924 18.48437613 -85.36430549 16.38867173 -85.36328125 14.29296875 C-85.372491 13.30548141 -85.38170074 12.31799408 -85.39118958 11.30058289 C-85.38496078 10.38565567 -85.37873199 9.47072845 -85.37231445 8.52807617 C-85.37325859 7.32183846 -85.37325859 7.32183846 -85.3742218 6.0912323 C-85 4 -85 4 -83.84062195 2.24401855 C-81.2398461 0.48623586 -79.30460913 0.60052807 -76.17773438 0.56762695 C-74.97797974 0.54783279 -73.7782251 0.52803864 -72.54211426 0.50764465 C-70.58767395 0.49805977 -70.58767395 0.49805977 -68.59375 0.48828125 C-67.23106299 0.47140251 -65.86839125 0.45324806 -64.5057373 0.43388367 C-60.90290234 0.38626952 -57.30012855 0.3565888 -53.69708252 0.33044434 C-50.10390845 0.30109764 -46.51097256 0.25412946 -42.91796875 0.20898438 C-28.61235236 0.03655134 -14.30665773 -0.05215486 0 0 Z " fill="#F5A86B" transform="translate(415,154)"/>
<path d="M0 0 C1.95123024 0.00022659 1.95123024 0.00022659 3.94187927 0.00045776 C5.34154416 0.01066797 6.74120744 0.02109991 8.14086914 0.03173828 C9.58817854 0.03547345 11.0354905 0.03831804 12.48280334 0.04031372 C16.27217726 0.04791054 20.06139524 0.06752453 23.85070801 0.08972168 C27.72540173 0.11026575 31.60012091 0.11933366 35.47485352 0.12939453 C43.06281485 0.15077462 50.65064818 0.18486216 58.23852539 0.22705078 C57.58952774 0.79204285 56.94053009 1.35703491 56.27186584 1.93914795 C53.96228105 4.5378793 53.73153323 5.43804404 53.70507812 8.83349609 C53.68924179 9.742547 53.67340546 10.6515979 53.65708923 11.5881958 C53.66452904 13.05685089 53.66452904 13.05685089 53.67211914 14.55517578 C53.66592056 15.57697937 53.65972198 16.59878296 53.65333557 17.65155029 C53.64622893 19.82026214 53.64942606 21.98902844 53.66210938 24.15771484 C53.67580334 27.42408604 53.64212357 30.68749181 53.60375977 33.95361328 C53.56717027 45.15080276 54.17587868 54.66946797 58.42089844 65.1027832 C59.23852539 68.22705078 59.23852539 68.22705078 58.20068359 71.05322266 C56.44174685 73.53158915 54.57818279 75.29202591 52.23852539 77.22705078 C51.56821289 77.85998047 50.89790039 78.49291016 50.20727539 79.14501953 C38.07409048 89.76155633 24.34811659 90.51984761 8.91333008 89.51367188 C3.34867321 88.91738608 -1.08287541 87.22927893 -5.76147461 84.22705078 C-6.57358398 83.71916016 -7.38569336 83.21126953 -8.22241211 82.68798828 C-18.03926617 75.8064062 -24.40525775 64.92520406 -26.76147461 53.22705078 C-27.03088067 48.32658868 -27.07465368 43.42817485 -27.11157227 38.52099609 C-27.12806477 36.91895961 -27.15526585 35.31699465 -27.19360352 33.71533203 C-27.6179167 15.85728139 -27.6179167 15.85728139 -21.76147461 8.22705078 C-15.41620503 2.09967125 -8.85156657 -0.03450903 0 0 Z " fill="#F5A96B" transform="translate(37.761474609375,153.77294921875)"/>
<path d="M0 0 C1.15645523 -0.00043808 1.15645523 -0.00043808 2.33627319 -0.00088501 C4.88485973 0.00050845 7.43315398 0.01607029 9.98168945 0.03173828 C11.74859965 0.03546836 13.51551192 0.03831535 15.28242493 0.04031372 C19.93329579 0.04795061 24.58404177 0.06759959 29.23486328 0.08972168 C33.98053294 0.1101789 38.72622278 0.11931517 43.47192383 0.12939453 C52.78382766 0.15084542 62.0956388 0.18498205 71.4074707 0.22705078 C70.7474707 1.21705078 70.0874707 2.20705078 69.4074707 3.22705078 C69.09201934 5.33405662 69.09201934 5.33405662 69.11694336 7.67578125 C69.10418365 8.57457001 69.09142395 9.47335876 69.07827759 10.39938354 C69.07605194 11.37118561 69.07382629 12.34298767 69.0715332 13.34423828 C69.0648764 14.35237579 69.0582196 15.36051331 69.05136108 16.39920044 C69.04122486 18.53938982 69.03654436 20.67961086 69.03686523 22.81982422 C69.0325336 26.05507685 68.99633996 29.2889184 68.95825195 32.52392578 C68.89911703 43.5535495 69.25325882 52.8954307 73.4074707 63.22705078 C74.10473633 65.42260742 74.10473633 65.42260742 74.4074707 67.22705078 C70.84117945 73.97307725 64.7459855 79.17241354 58.4074707 83.22705078 C57.61598633 83.73623047 56.82450195 84.24541016 56.0090332 84.77001953 C48.93137649 88.47489262 42.15860478 88.71336303 34.2824707 88.78955078 C33.26918701 88.80429443 32.25590332 88.81903809 31.21191406 88.83422852 C18.73484471 88.66464517 9.58084512 83.49600801 0.4074707 75.22705078 C-6.48961301 67.23325765 -10.67185592 58.65910625 -10.75366211 48.00952148 C-10.76326965 46.99529617 -10.7728772 45.98107086 -10.78277588 44.93611145 C-10.78702576 43.85262924 -10.79127563 42.76914703 -10.7956543 41.65283203 C-10.80135437 40.53265182 -10.80705444 39.41247162 -10.81292725 38.25834656 C-10.82235724 35.89562928 -10.82890326 33.53289896 -10.83276367 31.17016602 C-10.84252159 27.54241458 -10.87358518 23.91521747 -10.9050293 20.28759766 C-10.9115545 17.99267915 -10.91680686 15.69775659 -10.9206543 13.40283203 C-10.9330011 12.31327713 -10.9453479 11.22372223 -10.95806885 10.10115051 C-10.95506775 9.09638168 -10.95206665 8.09161285 -10.94897461 7.05639648 C-10.95262024 6.16990921 -10.95626587 5.28342194 -10.96002197 4.37007141 C-10.83874939 3.6628746 -10.71747681 2.9556778 -10.5925293 2.22705078 C-6.93208262 -0.213247 -4.2286838 -0.04177171 0 0 Z " fill="#A44F3E" transform="translate(261.592529296875,154.77294921875)"/>
<path d="M0 0 C0.66 0 1.32 0 2 0 C3.19140625 1.50390625 3.19140625 1.50390625 4.5625 3.5625 C10.57716565 11.76563436 19.04930241 17.69744307 29 20 C44.07161873 21.67652837 57.36367863 20.7191081 69.9375 11.6875 C73.99111886 8.29203328 77.08885233 4.39526217 80 0 C80.680625 0.680625 81.36125 1.36125 82.0625 2.0625 C82.52785156 2.52011719 82.99320313 2.97773438 83.47265625 3.44921875 C84.49159353 4.48379189 85.47941005 5.54994995 86.43359375 6.64453125 C92.66284343 13.52622104 101.95275996 19.42770152 111.375 20.19287109 C128.40941502 20.97765832 128.40941502 20.97765832 144 15 C144.75152344 14.53078125 145.50304687 14.0615625 146.27734375 13.578125 C151.33241334 10.07628909 156.2195374 5.56092521 159 0 C162 1 162 1 163.875 4 C169.06801911 11.63957827 179.06871742 17.82962082 188 20 C191.92557851 20.45449943 195.80072672 20.52440302 199.75 20.5 C200.81677979 20.49427979 201.88355957 20.48855957 202.98266602 20.48266602 C215.09387301 20.20764281 224.18169034 16.55637967 233 8 C234.7192103 5.89258093 236.30131519 3.76697121 237.80859375 1.50390625 C238.20175781 1.00761719 238.59492188 0.51132813 239 0 C239.66 0 240.32 0 241 0 C242.05014305 1.31566217 243.03976399 2.67985248 244 4.0625 C250.39672033 12.48551062 260.0556877 18.86489101 270.67407227 20.38208008 C273.42046524 20.53420102 276.12509467 20.55574132 278.875 20.5 C280.32181152 20.48078491 280.32181152 20.48078491 281.79785156 20.46118164 C293.5722157 20.1268405 303.1030228 16.92891232 312 9 C314.01815969 6.64860058 315.85791639 4.26708673 317.625 1.72265625 C318.305625 0.86994141 318.305625 0.86994141 319 0 C319.66 0 320.32 0 321 0 C322.19140625 1.50390625 322.19140625 1.50390625 323.5625 3.5625 C329.39528697 11.58080812 338.22395195 17.8764828 348 20 C349.58567839 20.1421701 351.17518632 20.24504041 352.765625 20.31640625 C353.65507812 20.35830078 354.54453125 20.40019531 355.4609375 20.44335938 C356.38132812 20.48267578 357.30171875 20.52199219 358.25 20.5625 C359.65378906 20.62727539 359.65378906 20.62727539 361.0859375 20.69335938 C363.39046222 20.79917939 365.69521239 20.90006917 368 21 C368 24.96 368 28.92 368 33 C350.07492667 33.68141778 333.96850483 31.52348708 320 19 C319.46632813 19.37511719 318.93265625 19.75023437 318.3828125 20.13671875 C306.83080444 28.07122948 295.75464976 33.57204919 281.5625 33.3125 C280.24668945 33.31733398 280.24668945 33.31733398 278.90429688 33.32226562 C269.83284997 33.24873142 261.83788513 31.85146826 253.75 27.6875 C252.04070312 26.82705078 252.04070312 26.82705078 250.296875 25.94921875 C246.81684304 23.8917117 244.02668413 21.66439922 241 19 C238.10468124 20.36364343 235.59673253 21.94855752 233 23.8125 C219.37532182 32.98555066 204.04970887 34.62498887 188 33 C179.03837315 31.18554716 171.1108375 27.05106106 164.015625 21.3203125 C161.84391806 19.63470131 161.84391806 19.63470131 158 20 C156.17732537 21.12592883 156.17732537 21.12592883 154.4375 22.6875 C140.8929892 33.31705115 124.77455361 34.34398949 108.25 32.60546875 C99.01941411 31.00865981 92.61591189 27.19600041 85 22 C83.34034719 20.9884021 81.67608903 19.98412567 80 19 C79.30777344 19.56267578 79.30777344 19.56267578 78.6015625 20.13671875 C63.88102272 31.68623316 47.38902642 34.73897083 29 33 C18.75629762 30.95125952 9.72568421 25.93330634 2 19 C-1.18994412 20.49207064 -3.97333628 22.3236697 -6.875 24.3125 C-20.27928582 32.75419779 -31.58286571 33.6979588 -47 33 C-47 29.04 -47 25.08 -47 21 C-45.77925781 20.98582031 -44.55851562 20.97164062 -43.30078125 20.95703125 C-29.02744185 20.61684369 -16.58077198 18.45277877 -6 8 C-4.28350835 5.8913788 -2.69829655 3.76638826 -1.19140625 1.50390625 C-0.79824219 1.00761719 -0.40507813 0.51132813 0 0 Z " fill="#EFCCA0" transform="translate(96,222)"/>
<path d="M0 0 C10.56633313 9.00223776 18.32189047 21.55992995 20.6875 35.3125 C20.96382203 39.62514223 20.94052043 43.92591096 20.91455078 48.24609375 C20.91484283 49.52497971 20.91513489 50.80386566 20.91543579 52.12150574 C20.91600658 55.60651522 20.90429694 59.09138534 20.89028788 62.57636261 C20.87773459 66.22651959 20.87660641 69.87668023 20.87423706 73.52685547 C20.86803575 80.42919168 20.8516433 87.33146409 20.83153808 94.23377228 C20.80913696 102.09595157 20.79817508 109.958134 20.78814721 117.8203373 C20.76727579 133.98442986 20.7317205 150.14845425 20.6875 166.3125 C17.0575 166.3125 13.4275 166.3125 9.6875 166.3125 C9.68203156 163.98799553 9.68203156 163.98799553 9.67645264 161.61653137 C9.63943397 146.97787708 9.58182041 132.33946544 9.50359726 117.70097828 C9.46390816 110.17605579 9.43146455 102.65123635 9.41650391 95.1262207 C9.40343451 88.56196273 9.37633647 81.99793246 9.33288693 75.43380278 C9.31038984 71.96302746 9.29458216 68.49253171 9.29561615 65.02167702 C9.29651045 61.13246508 9.26606214 57.24381752 9.23339844 53.35473633 C9.2384288 52.22328186 9.24345917 51.09182739 9.24864197 49.92608643 C9.06648318 35.81125258 4.34972318 22.68727955 -5.23046875 12.23046875 C-16.36719639 1.97130689 -28.87134902 -1.11801327 -43.68359375 -0.9609375 C-55.90478388 -0.0400728 -66.23320009 6.28269422 -74.3125 15.3125 C-74.9725 16.034375 -75.6325 16.75625 -76.3125 17.5 C-83.85400048 28.10523505 -85.60778307 38.22802937 -85.63134766 50.97070312 C-85.64139328 52.22032837 -85.6514389 53.46995361 -85.66178894 54.75744629 C-85.6872724 58.16185867 -85.70419317 61.56610652 -85.71721697 64.97057533 C-85.73291393 68.53670548 -85.75968299 72.10275265 -85.7852478 75.66882324 C-85.83191992 82.41172561 -85.86871976 89.1546438 -85.90192068 95.89762449 C-85.94022412 103.5784892 -85.98961257 111.25927033 -86.03990483 118.94006443 C-86.14305251 134.73081673 -86.23197519 150.52161522 -86.3125 166.3125 C-90.2725 166.3125 -94.2325 166.3125 -98.3125 166.3125 C-98.40547592 150.03011792 -98.47667154 133.747847 -98.51974869 117.46526337 C-98.54029031 109.90334481 -98.56824802 102.3415952 -98.61425781 94.77978516 C-98.65438524 88.1815559 -98.67999369 81.58344913 -98.68885398 74.98510122 C-98.69402542 71.49793406 -98.70599954 68.01111698 -98.73542023 64.52406311 C-98.92834366 40.7036623 -97.76557888 21.63026495 -80.5546875 3.4921875 C-57.70870672 -18.71697151 -25.019972 -18.59069127 0 0 Z " fill="#A55241" transform="translate(393.3125,289.6875)"/>
<path d="M0 0 C92.4 0 184.8 0 280 0 C280 3.63 280 7.26 280 11 C187.6 11 95.2 11 0 11 C0 7.37 0 3.74 0 0 Z " fill="#F0CEA1" transform="translate(116,124)"/>
<path d="M0 0 C3.0625 0.3125 3.0625 0.3125 4.57421875 1.39453125 C6.68446362 4.11403317 7.75489423 7.11565909 8.9375 10.3125 C9.21924072 11.05927002 9.50098145 11.80604004 9.79125977 12.57543945 C10.46698109 14.37143107 11.1388882 16.16885989 11.80810547 17.96728516 C13.0300646 21.22600139 14.27320099 24.47584388 15.5213623 27.72457886 C16.7216965 30.85561128 17.91100551 33.99076839 19.09844971 37.12670898 C19.69710959 38.70265448 20.29941928 40.27721857 20.90545654 41.8503418 C21.76977534 44.09798607 22.61885145 46.35087314 23.46484375 48.60546875 C23.72701187 49.27789108 23.98917999 49.95031342 24.2592926 50.64311218 C25.87428766 55.00572154 26.41201776 58.67426587 26.0625 63.3125 C24.875 65.25 24.875 65.25 23.0625 66.3125 C20.5625 66.6875 20.5625 66.6875 18.0625 66.3125 C15.63772658 64.30777206 14.5141148 62.45587444 13.45703125 59.51953125 C13.22089111 58.87733643 12.98475098 58.2351416 12.74145508 57.57348633 C12.4555249 56.76548584 12.16959473 55.95748535 11.875 55.125 C10.946875 52.546875 10.01875 49.96875 9.0625 47.3125 C3.1225 46.9825 -2.8175 46.6525 -8.9375 46.3125 C-9.2675 47.9625 -9.5975 49.6125 -9.9375 51.3125 C-10.70871666 53.55628367 -11.52395489 55.78526243 -12.375 58 C-12.80683594 59.13824219 -13.23867187 60.27648437 -13.68359375 61.44921875 C-14.9375 64.3125 -14.9375 64.3125 -16.9375 66.3125 C-20.4375 66.125 -20.4375 66.125 -23.9375 65.3125 C-25.9375 62.3125 -25.9375 62.3125 -25.77856445 59.74121094 C-24.66049742 55.1832622 -23.10451909 50.85260887 -21.48046875 46.453125 C-21.13623367 45.50870544 -20.7919986 44.56428589 -20.43733215 43.59124756 C-19.70927608 41.59672389 -18.97872708 39.60310867 -18.24584961 37.61035156 C-17.13455548 34.58848358 -16.03044798 31.56407081 -14.92773438 28.5390625 C-14.21656709 26.59359596 -13.50499149 24.64827862 -12.79296875 22.703125 C-12.46677048 21.81111389 -12.1405722 20.91910278 -11.80448914 20.00006104 C-10.17872808 15.58266294 -8.52344027 11.17673604 -6.8215332 6.78808594 C-6.50827591 5.97692322 -6.19501862 5.1657605 -5.87226868 4.33001709 C-4.39087645 1.13271897 -3.54429598 0.37705276 0 0 Z " fill="#FCE1BE" transform="translate(243.9375,33.6875)"/>
<path d="M0 0 C2.3125 1.875 2.3125 1.875 3.3125 3.875 C3.76264808 9.16423988 3.76264808 9.16423988 2.125 11.75 C-0.40351412 13.31942256 -1.7521971 13.36421715 -4.6875 12.875 C-6.3949998 11.59437515 -8.06123596 10.25732443 -9.6875 8.875 C-14.35883208 6.20566738 -19.45691872 6.23013382 -24.6875 6.875 C-30.88568388 8.83510943 -34.430161 12.11276833 -37.765625 17.671875 C-39.87977471 22.72433449 -39.51198589 29.11185811 -37.96484375 34.296875 C-35.34123422 39.9477263 -31.42519078 43.4395773 -25.6875 45.875 C-18.47057497 46.83875086 -12.74872111 45.9109921 -6.6875 41.875 C-5.635625 41.00875 -5.635625 41.00875 -4.5625 40.125 C-1.87111064 38.33074042 0.1570668 38.53201813 3.3125 38.875 C5.3125 40.875 5.3125 40.875 5.875 44.125 C5.1976432 48.64071198 4.17043905 49.7988889 0.6171875 52.453125 C-7.98014981 57.75724496 -16.55496897 60.71408367 -26.6875 58.875 C-37.75201159 54.91592502 -44.78819779 49.41321681 -49.92578125 38.76953125 C-52.83897303 31.52390042 -53.01066228 22.91537053 -50.59375 15.53515625 C-45.70414332 5.22276769 -39.34457133 -0.97867964 -28.6875 -5.125 C-18.58555888 -7.52440205 -8.79306452 -5.63603654 0 0 Z " fill="#FCE1BE" transform="translate(203.6875,39.125)"/>
<path d="M0 0 C1.08003296 0.00326294 1.08003296 0.00326294 2.18188477 0.0065918 C4.37697108 0.0097488 6.57070573 -0.01369198 8.765625 -0.0390625 C10.15950351 -0.04133581 11.55338564 -0.04203884 12.94726562 -0.04101562 C14.85270142 -0.04548706 14.85270142 -0.04548706 16.79663086 -0.05004883 C19.95117188 0.32226562 19.95117188 0.32226562 21.90063477 1.65356445 C22.95117188 3.32226562 22.95117188 3.32226562 22.76367188 6.38476562 C21.95117188 9.32226562 21.95117188 9.32226562 19.95117188 11.32226562 C17.70458984 11.54931641 17.70458984 11.54931641 14.94335938 11.51757812 C13.95722656 11.51113281 12.97109375 11.5046875 11.95507812 11.49804688 C10.40626953 11.47291016 10.40626953 11.47291016 8.82617188 11.44726562 C7.78589844 11.43824219 6.745625 11.42921875 5.67382812 11.41992188 C3.0995119 11.39630429 0.5253135 11.36043247 -2.04882812 11.32226562 C-2.04882812 16.93226562 -2.04882812 22.54226562 -2.04882812 28.32226562 C-0.49550781 28.28746094 1.0578125 28.25265625 2.65820312 28.21679688 C4.69334858 28.18866122 6.72850571 28.16136083 8.76367188 28.13476562 C9.78783203 28.10962891 10.81199219 28.08449219 11.8671875 28.05859375 C13.34155273 28.0440918 13.34155273 28.0440918 14.84570312 28.02929688 C15.75167236 28.01358643 16.6576416 27.99787598 17.59106445 27.98168945 C19.95117188 28.32226562 19.95117188 28.32226562 21.78198242 29.64916992 C22.95117188 31.32226562 22.95117188 31.32226562 22.76367188 34.38476562 C21.95117188 37.32226562 21.95117188 37.32226562 19.95117188 39.32226562 C17.70458984 39.54931641 17.70458984 39.54931641 14.94335938 39.51757812 C13.95722656 39.51113281 12.97109375 39.5046875 11.95507812 39.49804688 C10.92253906 39.48128906 9.89 39.46453125 8.82617188 39.44726562 C7.78589844 39.43824219 6.745625 39.42921875 5.67382812 39.41992188 C3.0995119 39.39630429 0.5253135 39.36043247 -2.04882812 39.32226562 C-2.04882812 44.93226562 -2.04882812 50.54226562 -2.04882812 56.32226562 C-0.49550781 56.27585938 1.0578125 56.22945312 2.65820312 56.18164062 C4.69334019 56.14412658 6.72849799 56.10772603 8.76367188 56.07226562 C9.78783203 56.03875 10.81199219 56.00523438 11.8671875 55.97070312 C13.34155273 55.95136719 13.34155273 55.95136719 14.84570312 55.93164062 C16.20465698 55.90021973 16.20465698 55.90021973 17.59106445 55.86816406 C19.95117188 56.32226562 19.95117188 56.32226562 21.78198242 58.18261719 C22.95117188 60.32226562 22.95117188 60.32226562 22.76367188 62.94726562 C21.95117188 65.32226562 21.95117188 65.32226562 19.95117188 67.32226562 C16.91015625 67.58105469 16.91015625 67.58105469 13.04492188 67.58789062 C12.02416565 67.5907608 12.02416565 67.5907608 10.98278809 67.59368896 C9.54369741 67.59505026 8.10459444 67.59135768 6.66552734 67.58300781 C4.459681 67.5723069 2.25464906 67.58290434 0.04882812 67.59570312 C-1.34830909 67.59438152 -2.7454458 67.5918191 -4.14257812 67.58789062 C-5.41810547 67.58563477 -6.69363281 67.58337891 -8.0078125 67.58105469 C-11.04882812 67.32226562 -11.04882812 67.32226562 -13.04882812 65.32226562 C-13.30279541 62.70349121 -13.30279541 62.70349121 -13.30761719 59.34375 C-13.31392151 58.08904907 -13.32022583 56.83434814 -13.32672119 55.54162598 C-13.32314151 54.1664211 -13.31903958 52.79121751 -13.31445312 51.41601562 C-13.31579985 50.01118909 -13.31774045 48.60636302 -13.32025146 47.20153809 C-13.32320238 44.25589566 -13.31890621 41.31037444 -13.30957031 38.36474609 C-13.29817568 34.5848806 -13.30473534 30.8052991 -13.31671524 27.02544403 C-13.32393477 24.124144 -13.32164551 21.22291154 -13.31645966 18.3216095 C-13.31512341 16.92771878 -13.31677001 15.53382196 -13.32141876 14.13993835 C-13.32648523 12.19355381 -13.31739682 10.24714782 -13.30761719 8.30078125 C-13.306026 7.19206665 -13.30443481 6.08335205 -13.30279541 4.94104004 C-12.63559984 -1.9387228 -5.30223148 0.0212289 0 0 Z " fill="#FEE3C1" transform="translate(337.048828125,33.677734375)"/>
<path d="M0 0 C2.375 1.6875 2.375 1.6875 4 4 C4.40692859 7.06428142 4.38508241 8.46833072 2.55053711 11.0012207 C1.8828833 11.63632568 1.21522949 12.27143066 0.52734375 12.92578125 C-0.20806641 13.64056641 -0.94347656 14.35535156 -1.70117188 15.09179688 C-2.8700293 16.19104492 -2.8700293 16.19104492 -4.0625 17.3125 C-5.57666224 18.76438307 -7.08840269 20.21879621 -8.59765625 21.67578125 C-9.27320557 22.31427002 -9.94875488 22.95275879 -10.64477539 23.6105957 C-12.57030219 25.56406629 -14.35051144 27.54378974 -16.13525391 29.62207031 C-20.60278386 34.77121618 -25.41448502 39.55791059 -30.23828125 44.37109375 C-31.21012184 45.34360956 -32.18181408 46.31627364 -33.15336609 47.28907776 C-35.17297388 49.31014804 -37.19434967 51.329428 -39.21704102 53.34741211 C-41.81075611 55.93538459 -44.39989333 58.52788364 -46.98775959 61.12170315 C-48.98561979 63.12316918 -50.98584582 65.12225709 -52.98680687 67.12062263 C-54.40737545 68.54020078 -55.82593196 69.96179148 -57.24446106 71.38340759 C-58.10262924 72.23842361 -58.96079742 73.09343964 -59.8449707 73.97436523 C-60.60107132 74.72967026 -61.35717194 75.48497528 -62.13618469 76.26316833 C-64.7643359 78.71226092 -65.76760515 78.9788732 -69.4375 79.3125 C-73 79 -73 79 -74.9375 77.3125 C-76.24501151 74.46673965 -76.46390165 73.11440021 -76 70 C-74.24977079 67.78747564 -72.57022755 65.94748496 -70.55566406 64.00390625 C-69.976875 63.42599335 -69.39808594 62.84808044 -68.80175781 62.25265503 C-66.88450411 60.34398567 -64.95026152 58.45353426 -63.015625 56.5625 C-61.67883323 55.23757832 -60.34321643 53.91147017 -59.00872803 52.58422852 C-55.48969656 49.08996557 -51.95637007 45.6105261 -48.41943359 42.13439941 C-43.44535713 37.2406493 -38.49075411 32.32717397 -33.53411865 27.41577148 C-30.8948746 24.80069613 -28.25024866 22.19125691 -25.60113525 19.58618164 C-24.3880384 18.38950912 -23.17496351 17.19281433 -21.96191406 15.99609375 C-21.41525085 15.46088104 -20.86858765 14.92566833 -20.30535889 14.37423706 C-17.95459031 12.05042003 -15.79038898 9.73190281 -13.75238037 7.12524414 C-12.88495209 6.07324829 -12.88495209 6.07324829 -12 5 C-11.34 5 -10.68 5 -10 5 C-9.67 4.01 -9.34 3.02 -9 2 C-5.50875983 -0.32749345 -4.10777749 -0.50299316 0 0 Z " fill="#FDFEFE" transform="translate(216,316)"/>
<path d="M0 0 C0.98178223 -0.00430527 0.98178223 -0.00430527 1.98339844 -0.00869751 C3.36524319 -0.01073618 4.74711693 -0.00521996 6.12890625 0.00732422 C8.2428445 0.02338314 10.35487113 0.00747149 12.46875 -0.01171875 C13.81250422 -0.00973628 15.15625724 -0.00589252 16.5 0 C17.72203125 0.00338379 18.9440625 0.00676758 20.203125 0.01025391 C23.25 0.3984375 23.25 0.3984375 25.1484375 1.76708984 C26.73305134 4.11380741 26.6652195 5.63030748 26.25 8.3984375 C24.60296658 10.61329965 23.74041786 11.32480356 20.98168945 11.73901367 C20.11761475 11.72330322 19.25354004 11.70759277 18.36328125 11.69140625 C17.42548828 11.68173828 16.48769531 11.67207031 15.52148438 11.66210938 C14.54501953 11.63697266 13.56855469 11.61183594 12.5625 11.5859375 C11.08040039 11.56563477 11.08040039 11.56563477 9.56835938 11.54492188 C7.12867383 11.50956411 4.68926837 11.45575712 2.25 11.3984375 C2.25 16.0184375 2.25 20.6384375 2.25 25.3984375 C3.73113281 25.36363281 5.21226562 25.32882813 6.73828125 25.29296875 C8.67967618 25.26483259 10.62108335 25.23753225 12.5625 25.2109375 C13.53896484 25.18580078 14.51542969 25.16066406 15.52148438 25.13476562 C16.45927734 25.12509766 17.39707031 25.11542969 18.36328125 25.10546875 C19.22735596 25.0897583 20.09143066 25.07404785 20.98168945 25.05786133 C23.25 25.3984375 23.25 25.3984375 25.06323242 26.6940918 C26.25 28.3984375 26.25 28.3984375 26.125 31.9609375 C25.25 35.3984375 25.25 35.3984375 22.25 37.3984375 C20.07348633 37.62548828 20.07348633 37.62548828 17.58203125 37.59375 C16.68935547 37.58730469 15.79667969 37.58085938 14.87695312 37.57421875 C13.94818359 37.55746094 13.01941406 37.54070312 12.0625 37.5234375 C11.12212891 37.51441406 10.18175781 37.50539062 9.21289062 37.49609375 C6.89167032 37.47252806 4.57096356 37.43962866 2.25 37.3984375 C2.27356567 38.60173706 2.27356567 38.60173706 2.29760742 39.8293457 C2.35988583 43.45647154 2.39896864 47.08348499 2.4375 50.7109375 C2.46263672 51.97357422 2.48777344 53.23621094 2.51367188 54.53710938 C2.52817383 56.34985352 2.52817383 56.34985352 2.54296875 58.19921875 C2.56653442 59.87238159 2.56653442 59.87238159 2.59057617 61.5793457 C2.25 64.3984375 2.25 64.3984375 0.91918945 66.26245117 C-1.68513508 68.03485457 -3.69135966 67.78076754 -6.75 67.3984375 C-8.41323853 66.24328613 -8.41323853 66.24328613 -9.75 64.3984375 C-10.13095093 61.74206543 -10.13095093 61.74206543 -10.13818359 58.50585938 C-10.14764008 57.29450317 -10.15709656 56.08314697 -10.1668396 54.83508301 C-10.16076691 53.52567749 -10.15469421 52.21627197 -10.1484375 50.8671875 C-10.15045851 49.51102543 -10.15337018 48.15486441 -10.15713501 46.79870605 C-10.16155716 43.95733283 -10.15513123 41.11624265 -10.14111328 38.27490234 C-10.12402097 34.63291647 -10.1338628 30.9915938 -10.15183067 27.34963226 C-10.16267175 24.54948938 -10.15922079 21.7495037 -10.1514473 18.94935608 C-10.14847298 16.953497 -10.1575834 14.95763182 -10.1668396 12.96179199 C-10.15738312 11.75043579 -10.14792664 10.53907959 -10.13818359 9.29101562 C-10.13579681 8.22306763 -10.13341003 7.15511963 -10.13095093 6.05480957 C-9.75 3.3984375 -9.75 3.3984375 -8.41616821 1.55441284 C-5.7301861 -0.30910194 -3.22015231 0.00891656 0 0 Z " fill="#FCE1BE" transform="translate(288.75,33.6015625)"/>
<path d="M0 0 C1.7325 0.1546875 1.7325 0.1546875 3.5 0.3125 C5.58263273 3.4364491 5.75591745 4.17841316 5.79052734 7.73632812 C5.8096669 9.07286438 5.8096669 9.07286438 5.82919312 10.43640137 C5.83253159 11.87553894 5.83253159 11.87553894 5.8359375 13.34375 C5.8425943 14.33121216 5.8492511 15.31867432 5.85610962 16.33605957 C5.8662357 18.4240533 5.87092665 20.51207939 5.87060547 22.60009766 C5.87498337 25.8003438 5.91131686 28.99921626 5.94921875 32.19921875 C5.95508587 34.22655777 5.95905596 36.25390336 5.9609375 38.28125 C5.97530853 39.24067505 5.98967957 40.2001001 6.00448608 41.18859863 C5.99833282 42.0796228 5.99217957 42.97064697 5.98583984 43.88867188 C5.98868988 44.67238159 5.99153992 45.45609131 5.99447632 46.2635498 C5.5 48.3125 5.5 48.3125 3.63369751 50.10070801 C1.5 51.3125 1.5 51.3125 -1.125 51.125 C-3.5 50.3125 -3.5 50.3125 -5.5 48.3125 C-5.75396729 46.33911133 -5.75396729 46.33911133 -5.75878906 43.89453125 C-5.76509338 42.98018311 -5.77139771 42.06583496 -5.77789307 41.1237793 C-5.7738446 40.13418213 -5.76979614 39.14458496 -5.765625 38.125 C-5.76753845 37.11155518 -5.7694519 36.09811035 -5.77142334 35.05395508 C-5.77278591 32.90868888 -5.76908447 30.76341447 -5.76074219 28.61816406 C-5.75004382 25.32598428 -5.76063519 22.03435022 -5.7734375 18.7421875 C-5.77211592 16.66145712 -5.76955355 14.58072709 -5.765625 12.5 C-5.76967346 11.51040283 -5.77372192 10.52080566 -5.77789307 9.5012207 C-5.77158875 8.58687256 -5.76528442 7.67252441 -5.75878906 6.73046875 C-5.75719788 5.92375732 -5.75560669 5.1170459 -5.75396729 4.28588867 C-5.2634352 0.47433293 -3.58985024 0.32052234 0 0 Z " fill="#783B2E" transform="translate(381.5,348.6875)"/>
<path d="M0 0 C3.49154902 0.87288725 4.79857958 1.64328414 6.75 4.6875 C6.79208212 8.15085839 6.54707292 10.65593521 4.3840332 13.45532227 C2.55057935 15.28929309 0.65378533 16.99678543 -1.3125 18.6875 C-1.99699219 19.294729 -2.68148437 19.90195801 -3.38671875 20.52758789 C-4.73432631 21.72131583 -6.08720181 22.90912868 -7.44580078 24.09033203 C-8.93324331 25.40709103 -10.36393709 26.78766353 -11.77734375 28.18359375 C-16.32337522 32.65760888 -16.32337522 32.65760888 -21.125 32.8125 C-24.25 31.6875 -24.25 31.6875 -26.25 28.6875 C-26.8125 25.96484375 -26.8125 25.96484375 -26.25 22.6875 C-24.22326743 19.88534201 -21.77474663 17.60161095 -19.25 15.25 C-18.56172119 14.59056396 -17.87344238 13.93112793 -17.16430664 13.25170898 C-15.8080911 11.95861795 -14.44507462 10.67261485 -13.07470703 9.39453125 C-11.58914475 8.00477323 -10.13193767 6.5847536 -8.68359375 5.15625 C-5.73261484 2.33809401 -4.04289734 0.85522828 0 0 Z " fill="#FDFEFE" transform="translate(168.25,314.3125)"/>
<path d="M0 0 C2.22825644 2.22825644 2.69239369 3.65761628 3.625 6.625 C3.88539063 7.44226563 4.14578125 8.25953125 4.4140625 9.1015625 C4.60742188 9.72804688 4.80078125 10.35453125 5 11 C2.03 11 -0.94 11 -4 11 C-3.5247412 9.35303396 -3.04468109 7.70745272 -2.5625 6.0625 C-2.29566406 5.14597656 -2.02882812 4.22945312 -1.75390625 3.28515625 C-1 1 -1 1 0 0 Z " fill="#AD5E4B" transform="translate(244,57)"/>
</svg>
