<?xml version="1.0" encoding="UTF-8"?>
<svg version="1.1" xmlns="http://www.w3.org/2000/svg" width="512" height="512">
<path d="M0 0 C1.08373911 -0.00453111 2.16747822 -0.00906223 3.28405792 -0.01373065 C6.91034747 -0.02637643 10.53648687 -0.02475412 14.16279602 -0.02310181 C16.76501661 -0.02908698 19.36723543 -0.0358925 21.9694519 -0.04345703 C28.30188555 -0.06004371 34.63428195 -0.06556555 40.9667355 -0.06668179 C46.11711953 -0.0676335 51.26749132 -0.07174997 56.41787148 -0.07808304 C71.03551525 -0.09569019 85.65312971 -0.1049229 100.27078416 -0.10342209 C101.05821448 -0.10334218 101.8456448 -0.10326227 102.65693665 -0.10317993 C103.44533394 -0.10309817 104.23373123 -0.10301641 105.04601935 -0.10293217 C117.81537456 -0.10211974 130.58461169 -0.12124801 143.35393276 -0.14945666 C156.48044476 -0.17822439 169.60689925 -0.19199478 182.73344356 -0.19026911 C190.09689975 -0.18960648 197.46023219 -0.19504265 204.8236599 -0.21662521 C211.75204277 -0.23680315 218.68016083 -0.23612361 225.60855675 -0.22159195 C228.14652895 -0.21950416 230.68451753 -0.22420285 233.2224617 -0.23631287 C236.69735869 -0.2518151 240.17136163 -0.24242321 243.64624023 -0.22705078 C245.1391352 -0.24248147 245.1391352 -0.24248147 246.66218966 -0.25822389 C258.91072944 -0.13915609 269.03986763 4.15716994 278.14057922 12.26742554 C286.23858645 20.8922548 291.38302853 31.01346172 291.39784813 43.00139999 C291.4013542 43.6443866 291.40486028 44.2873732 291.4084726 44.94984424 C291.41774468 47.09516001 291.41287427 49.24020181 291.40800476 51.38552856 C291.41174314 52.94290711 291.41634541 54.50028378 291.42173541 56.05765748 C291.43395763 60.33042177 291.43370585 64.60310771 291.43134665 68.87588549 C291.43093829 73.48679845 291.44197951 78.09768637 291.45146179 82.70858765 C291.46806858 91.73980297 291.4735712 100.77099219 291.47468655 109.80222151 C291.47563719 117.14416514 291.47974828 124.48610017 291.4860878 131.82804108 C291.50369944 152.64855185 291.51292681 173.46904201 291.51142685 194.28956029 C291.51134694 195.41179684 291.51126703 196.53403338 291.51118469 197.6902771 C291.51110293 198.81388556 291.51102117 199.93749402 291.51093693 201.09515122 C291.51012408 219.30351555 291.52926163 237.51179716 291.55746143 255.72013757 C291.58619521 274.42099341 291.60000144 293.12180891 291.59827387 311.82268739 C291.59761014 322.31992477 291.60309529 332.81707542 291.62462997 343.31429291 C291.64284826 352.25212839 291.64718376 361.18983783 291.63361113 370.12768385 C291.62708474 374.68603329 291.62695239 379.24414096 291.64431763 383.80246735 C291.66006797 387.97993281 291.65716484 392.1569652 291.63974936 396.33442023 C291.63668377 397.84112816 291.6402952 399.34786857 291.65146951 400.85453817 C291.744725 414.32676378 288.97353832 425.71520758 279.76557922 435.89242554 C278.89932922 436.67617554 278.03307922 437.45992554 277.14057922 438.26742554 C276.62753235 438.76113647 276.11448547 439.25484741 275.58589172 439.76351929 C265.86355998 448.74659539 254.07668998 450.57764707 241.26170349 450.52812195 C240.20005128 450.5319475 239.13839906 450.53577304 238.04457557 450.53971452 C234.50507386 450.54999169 230.96573597 450.54606239 227.42622375 450.54208374 C224.88119864 450.54643312 222.33617482 450.55161703 219.79115295 450.55757141 C213.60637248 450.56956008 207.4216519 450.57211577 201.23686208 450.56977115 C196.20713182 450.56798455 191.1774147 450.56974494 186.147686 450.57399559 C185.43048744 450.57459078 184.71328888 450.57518597 183.97435703 450.57579919 C182.51713388 450.57701101 181.05991073 450.57822514 179.60268758 450.57944157 C165.95172138 450.59030581 152.30077991 450.5881599 138.64981233 450.58205672 C126.17738847 450.5768885 113.70504273 450.58814249 101.23263432 450.60715494 C88.40777816 450.6265539 75.58295892 450.63478574 62.75808799 450.63103169 C55.56518664 450.62912278 48.37235177 450.63157696 41.17946243 450.64574623 C34.41441682 450.6589385 27.64955254 450.65637214 20.8844986 450.64333534 C18.40577262 450.64097193 15.92703562 450.64369577 13.4483223 450.65195847 C10.05650876 450.66244719 6.66521738 450.65430767 3.27342224 450.64164734 C2.29995602 450.64902162 1.32648979 450.65639591 0.32352459 450.66399366 C-13.43626936 450.55644823 -24.54162477 446.11647402 -34.52738953 436.75961304 C-40.11148295 430.79202241 -45.85942078 421.76475845 -45.85942078 413.26742554 C-46.56550476 413.28313599 -47.27158875 413.29884644 -47.99906921 413.31503296 C-51.20243806 413.37744651 -54.4056789 413.41643665 -57.60942078 413.45492554 C-59.27617859 413.49263062 -59.27617859 413.49263062 -60.97660828 413.53109741 C-62.04653015 413.54076538 -63.11645203 413.55043335 -64.21879578 413.56039429 C-65.20331726 413.57610474 -66.18783875 413.59181519 -67.20219421 413.60800171 C-70.30945175 413.20974516 -71.63279062 412.440965 -73.85942078 410.26742554 C-74.75848444 407.57023453 -74.98981017 405.99576476 -75.00468445 403.22665405 C-75.0110643 402.41894058 -75.01744415 401.61122711 -75.02401733 400.77903748 C-75.02513016 399.9102446 -75.02624298 399.04145172 -75.02738953 398.14633179 C-75.03071793 397.25002548 -75.03404633 396.35371918 -75.03747559 395.43025208 C-75.04253767 393.53475457 -75.04488413 391.63924816 -75.04472351 389.7437439 C-75.04690972 386.84458739 -75.0650722 383.94581158 -75.08403015 381.04672241 C-75.08696427 379.20492684 -75.08894894 377.36312946 -75.08988953 375.52133179 C-75.09707504 374.65456314 -75.10426056 373.78779449 -75.11166382 372.89476013 C-75.10858719 372.0838945 -75.10551056 371.27302887 -75.1023407 370.43759155 C-75.10376572 369.72716202 -75.10519073 369.01673248 -75.10665894 368.28477478 C-74.81488937 365.90406982 -74.0953902 364.31372809 -72.85942078 362.26742554 C-69.81780131 360.17559012 -67.29030001 360.02985717 -63.65629578 360.07211304 C-62.33130066 360.07960571 -62.33130066 360.07960571 -60.97953796 360.08724976 C-59.86739929 360.10545776 -58.75526062 360.12366577 -57.60942078 360.14242554 C-52.28817078 360.20430054 -52.28817078 360.20430054 -46.85942078 360.26742554 C-46.85942078 351.02742554 -46.85942078 341.78742554 -46.85942078 332.26742554 C-53.87506945 332.42512015 -53.87506945 332.42512015 -60.88945007 332.6277771 C-68.1236108 332.70982557 -68.1236108 332.70982557 -72.00395203 330.37680054 C-76.84690151 324.87113165 -75.16567236 315.88178373 -75.20951843 308.87411499 C-75.22607522 306.93323778 -75.25336165 304.99242148 -75.29154968 303.05184937 C-75.34635418 300.25229289 -75.36819741 297.45416516 -75.38285828 294.65414429 C-75.41686234 293.35702766 -75.41686234 293.35702766 -75.45155334 292.03370667 C-75.43647456 287.72695595 -75.24509182 285.80618573 -72.67167664 282.21127319 C-69.52473604 280.0360895 -68.11456213 279.6737065 -64.33988953 279.77914429 C-63.41845154 279.79163208 -62.49701355 279.80411987 -61.5476532 279.81698608 C-59.81479065 279.88526611 -59.81479065 279.88526611 -58.04692078 279.95492554 C-54.35504578 280.05805054 -50.66317078 280.16117554 -46.85942078 280.26742554 C-46.85942078 270.69742554 -46.85942078 261.12742554 -46.85942078 251.26742554 C-54.57857256 251.46483557 -54.57857256 251.46483557 -62.29594421 251.71786499 C-63.26048523 251.73035278 -64.22502625 251.74284058 -65.21879578 251.75570679 C-66.695578 251.79498291 -66.695578 251.79498291 -68.20219421 251.83505249 C-70.85942078 251.26742554 -70.85942078 251.26742554 -73.17875671 249.33065796 C-75.51059944 245.08056635 -75.43475537 241.54347598 -75.39067078 236.76742554 C-75.39449768 235.85412476 -75.39832458 234.94082397 -75.40226746 233.99984741 C-75.40498331 232.07340387 -75.39764502 230.14692326 -75.38090515 228.22055054 C-75.35949046 225.27700345 -75.38071748 222.33589699 -75.40629578 219.39242554 C-75.40365244 217.51742017 -75.39852734 215.64241631 -75.39067078 213.76742554 C-75.3987677 212.89021851 -75.40686462 212.01301147 -75.41520691 211.10922241 C-75.35261124 207.0167057 -75.18403972 204.80055633 -73.01371765 201.23617554 C-69.78388198 198.28452154 -67.1745533 198.14430352 -62.97270203 198.16976929 C-61.70486877 198.17351562 -61.70486877 198.17351562 -60.41142273 198.17733765 C-59.34238708 198.18644165 -58.27335144 198.19554565 -57.17192078 198.20492554 C-52.06723328 198.23586304 -52.06723328 198.23586304 -46.85942078 198.26742554 C-46.85942078 189.02742554 -46.85942078 179.78742554 -46.85942078 170.26742554 C-54.20448115 170.46460105 -54.20448115 170.46460105 -61.5476532 170.71786499 C-62.46909119 170.73035278 -63.39052917 170.74284058 -64.33988953 170.75570679 C-65.27727966 170.78189087 -66.2146698 170.80807495 -67.1804657 170.83505249 C-71.1542715 169.99306776 -72.50536374 168.55691809 -74.85942078 165.26742554 C-75.55353475 162.0906791 -75.51374578 159.00841151 -75.45317078 155.76742554 C-75.4532312 154.39747437 -75.4532312 154.39747437 -75.45329285 152.99984741 C-75.44794328 151.07334493 -75.4303846 149.14684259 -75.40141296 147.22055054 C-75.35955922 144.27716142 -75.36034643 141.3360621 -75.36723328 138.39242554 C-75.35673998 136.51740969 -75.34380112 134.6424056 -75.32817078 132.76742554 C-75.32796936 131.89021851 -75.32776794 131.01301147 -75.32756042 130.10922241 C-75.23604776 125.36817109 -74.96661814 122.10103012 -71.85942078 118.26742554 C-69.30218848 116.98880939 -67.49204975 117.15405944 -64.63285828 117.16976929 C-63.23946228 117.17351562 -63.23946228 117.17351562 -61.81791687 117.17733765 C-60.63536316 117.18644165 -59.45280945 117.19554565 -58.23442078 117.20492554 C-52.60379578 117.23586304 -52.60379578 117.23586304 -46.85942078 117.26742554 C-46.85942078 108.02742554 -46.85942078 98.78742554 -46.85942078 89.26742554 C-53.91963564 89.34635115 -53.91963564 89.34635115 -60.97953796 89.44760132 C-62.30453308 89.45509399 -62.30453308 89.45509399 -63.65629578 89.46273804 C-64.5570282 89.47321167 -65.45776062 89.4836853 -66.38578796 89.49447632 C-69.09299565 89.24598607 -70.62209889 88.80611544 -72.85942078 87.26742554 C-74.5258713 84.49568282 -75.11078674 82.42222918 -75.11820984 79.20492554 C-75.12451416 78.41730835 -75.13081848 77.62969116 -75.13731384 76.81820679 C-75.13326538 75.97644897 -75.12921692 75.13469116 -75.12504578 74.26742554 C-75.12695923 73.39473022 -75.12887268 72.52203491 -75.13084412 71.62289429 C-75.13220322 69.78044343 -75.12852596 67.93798291 -75.12016296 66.09555054 C-75.10945951 63.27762311 -75.12006749 60.46033317 -75.13285828 57.64242554 C-75.13153663 55.85075747 -75.12897414 54.05908979 -75.12504578 52.26742554 C-75.12909424 51.42566772 -75.1331427 50.58390991 -75.13731384 49.71664429 C-75.13100952 48.9290271 -75.1247052 48.14140991 -75.11820984 47.32992554 C-75.11582306 46.29545288 -75.11582306 46.29545288 -75.11338806 45.24008179 C-74.8106292 42.88844362 -74.07648245 41.29329616 -72.85942078 39.26742554 C-69.76359185 37.12201101 -67.14144679 37.03095858 -63.43754578 37.07211304 C-62.41274109 37.07855835 -61.3879364 37.08500366 -60.33207703 37.09164429 C-59.26860046 37.1084021 -58.2051239 37.12515991 -57.10942078 37.14242554 C-55.49100281 37.15596069 -55.49100281 37.15596069 -53.83988953 37.16976929 C-51.179508 37.19331249 -48.51957742 37.22619755 -45.85942078 37.26742554 C-45.74840027 36.68444702 -45.63737976 36.10146851 -45.522995 35.50082397 C-43.18524029 24.03143612 -37.53010455 14.56048395 -28.00395203 7.68539429 C-18.96531456 1.70902744 -10.70741414 -0.0329516 0 0 Z " fill="#4CB4AA" transform="translate(147.8594207763672,31.732574462890625)"/>
<path d="M0 0 C1.08373911 -0.00453111 2.16747822 -0.00906223 3.28405792 -0.01373065 C6.91034747 -0.02637643 10.53648687 -0.02475412 14.16279602 -0.02310181 C16.76501661 -0.02908698 19.36723543 -0.0358925 21.9694519 -0.04345703 C28.30188555 -0.06004371 34.63428195 -0.06556555 40.9667355 -0.06668179 C46.11711953 -0.0676335 51.26749132 -0.07174997 56.41787148 -0.07808304 C71.03551525 -0.09569019 85.65312971 -0.1049229 100.27078416 -0.10342209 C101.05821448 -0.10334218 101.8456448 -0.10326227 102.65693665 -0.10317993 C103.44533394 -0.10309817 104.23373123 -0.10301641 105.04601935 -0.10293217 C117.81537456 -0.10211974 130.58461169 -0.12124801 143.35393276 -0.14945666 C156.48044476 -0.17822439 169.60689925 -0.19199478 182.73344356 -0.19026911 C190.09689975 -0.18960648 197.46023219 -0.19504265 204.8236599 -0.21662521 C211.75204277 -0.23680315 218.68016083 -0.23612361 225.60855675 -0.22159195 C228.14652895 -0.21950416 230.68451753 -0.22420285 233.2224617 -0.23631287 C236.69735869 -0.2518151 240.17136163 -0.24242321 243.64624023 -0.22705078 C245.1391352 -0.24248147 245.1391352 -0.24248147 246.66218966 -0.25822389 C258.91072944 -0.13915609 269.03986763 4.15716994 278.14057922 12.26742554 C286.23858645 20.8922548 291.38302853 31.01346172 291.39784813 43.00139999 C291.4013542 43.6443866 291.40486028 44.2873732 291.4084726 44.94984424 C291.41774468 47.09516001 291.41287427 49.24020181 291.40800476 51.38552856 C291.41174314 52.94290711 291.41634541 54.50028378 291.42173541 56.05765748 C291.43395763 60.33042177 291.43370585 64.60310771 291.43134665 68.87588549 C291.43093829 73.48679845 291.44197951 78.09768637 291.45146179 82.70858765 C291.46806858 91.73980297 291.4735712 100.77099219 291.47468655 109.80222151 C291.47563719 117.14416514 291.47974828 124.48610017 291.4860878 131.82804108 C291.50369944 152.64855185 291.51292681 173.46904201 291.51142685 194.28956029 C291.51134694 195.41179684 291.51126703 196.53403338 291.51118469 197.6902771 C291.51110293 198.81388556 291.51102117 199.93749402 291.51093693 201.09515122 C291.51012408 219.30351555 291.52926163 237.51179716 291.55746143 255.72013757 C291.58619521 274.42099341 291.60000144 293.12180891 291.59827387 311.82268739 C291.59761014 322.31992477 291.60309529 332.81707542 291.62462997 343.31429291 C291.64284826 352.25212839 291.64718376 361.18983783 291.63361113 370.12768385 C291.62708474 374.68603329 291.62695239 379.24414096 291.64431763 383.80246735 C291.66006797 387.97993281 291.65716484 392.1569652 291.63974936 396.33442023 C291.63668377 397.84112816 291.6402952 399.34786857 291.65146951 400.85453817 C291.744725 414.32676378 288.97353832 425.71520758 279.76557922 435.89242554 C278.89932922 436.67617554 278.03307922 437.45992554 277.14057922 438.26742554 C276.62753235 438.76113647 276.11448547 439.25484741 275.58589172 439.76351929 C265.86355998 448.74659539 254.07668998 450.57764707 241.26170349 450.52812195 C240.20005128 450.5319475 239.13839906 450.53577304 238.04457557 450.53971452 C234.50507386 450.54999169 230.96573597 450.54606239 227.42622375 450.54208374 C224.88119864 450.54643312 222.33617482 450.55161703 219.79115295 450.55757141 C213.60637248 450.56956008 207.4216519 450.57211577 201.23686208 450.56977115 C196.20713182 450.56798455 191.1774147 450.56974494 186.147686 450.57399559 C185.43048744 450.57459078 184.71328888 450.57518597 183.97435703 450.57579919 C182.51713388 450.57701101 181.05991073 450.57822514 179.60268758 450.57944157 C165.95172138 450.59030581 152.30077991 450.5881599 138.64981233 450.58205672 C126.17738847 450.5768885 113.70504273 450.58814249 101.23263432 450.60715494 C88.40777816 450.6265539 75.58295892 450.63478574 62.75808799 450.63103169 C55.56518664 450.62912278 48.37235177 450.63157696 41.17946243 450.64574623 C34.41441682 450.6589385 27.64955254 450.65637214 20.8844986 450.64333534 C18.40577262 450.64097193 15.92703562 450.64369577 13.4483223 450.65195847 C10.05650876 450.66244719 6.66521738 450.65430767 3.27342224 450.64164734 C2.29995602 450.64902162 1.32648979 450.65639591 0.32352459 450.66399366 C-13.43626936 450.55644823 -24.54162477 446.11647402 -34.52738953 436.75961304 C-40.11148295 430.79202241 -45.85942078 421.76475845 -45.85942078 413.26742554 C-46.56550476 413.28313599 -47.27158875 413.29884644 -47.99906921 413.31503296 C-51.20243806 413.37744651 -54.4056789 413.41643665 -57.60942078 413.45492554 C-59.27617859 413.49263062 -59.27617859 413.49263062 -60.97660828 413.53109741 C-62.04653015 413.54076538 -63.11645203 413.55043335 -64.21879578 413.56039429 C-65.20331726 413.57610474 -66.18783875 413.59181519 -67.20219421 413.60800171 C-70.30945175 413.20974516 -71.63279062 412.440965 -73.85942078 410.26742554 C-74.75848444 407.57023453 -74.98981017 405.99576476 -75.00468445 403.22665405 C-75.0110643 402.41894058 -75.01744415 401.61122711 -75.02401733 400.77903748 C-75.02513016 399.9102446 -75.02624298 399.04145172 -75.02738953 398.14633179 C-75.03071793 397.25002548 -75.03404633 396.35371918 -75.03747559 395.43025208 C-75.04253767 393.53475457 -75.04488413 391.63924816 -75.04472351 389.7437439 C-75.04690972 386.84458739 -75.0650722 383.94581158 -75.08403015 381.04672241 C-75.08696427 379.20492684 -75.08894894 377.36312946 -75.08988953 375.52133179 C-75.09707504 374.65456314 -75.10426056 373.78779449 -75.11166382 372.89476013 C-75.10858719 372.0838945 -75.10551056 371.27302887 -75.1023407 370.43759155 C-75.10376572 369.72716202 -75.10519073 369.01673248 -75.10665894 368.28477478 C-74.81488937 365.90406982 -74.0953902 364.31372809 -72.85942078 362.26742554 C-69.81780131 360.17559012 -67.29030001 360.02985717 -63.65629578 360.07211304 C-62.33130066 360.07960571 -62.33130066 360.07960571 -60.97953796 360.08724976 C-59.86739929 360.10545776 -58.75526062 360.12366577 -57.60942078 360.14242554 C-52.28817078 360.20430054 -52.28817078 360.20430054 -46.85942078 360.26742554 C-46.85942078 351.02742554 -46.85942078 341.78742554 -46.85942078 332.26742554 C-53.87506945 332.42512015 -53.87506945 332.42512015 -60.88945007 332.6277771 C-68.1236108 332.70982557 -68.1236108 332.70982557 -72.00395203 330.37680054 C-76.84690151 324.87113165 -75.16567236 315.88178373 -75.20951843 308.87411499 C-75.22607522 306.93323778 -75.25336165 304.99242148 -75.29154968 303.05184937 C-75.34635418 300.25229289 -75.36819741 297.45416516 -75.38285828 294.65414429 C-75.41686234 293.35702766 -75.41686234 293.35702766 -75.45155334 292.03370667 C-75.43647456 287.72695595 -75.24509182 285.80618573 -72.67167664 282.21127319 C-69.52473604 280.0360895 -68.11456213 279.6737065 -64.33988953 279.77914429 C-63.41845154 279.79163208 -62.49701355 279.80411987 -61.5476532 279.81698608 C-59.81479065 279.88526611 -59.81479065 279.88526611 -58.04692078 279.95492554 C-54.35504578 280.05805054 -50.66317078 280.16117554 -46.85942078 280.26742554 C-46.85942078 270.69742554 -46.85942078 261.12742554 -46.85942078 251.26742554 C-54.57857256 251.46483557 -54.57857256 251.46483557 -62.29594421 251.71786499 C-63.26048523 251.73035278 -64.22502625 251.74284058 -65.21879578 251.75570679 C-66.695578 251.79498291 -66.695578 251.79498291 -68.20219421 251.83505249 C-70.85942078 251.26742554 -70.85942078 251.26742554 -73.17875671 249.33065796 C-75.51059944 245.08056635 -75.43475537 241.54347598 -75.39067078 236.76742554 C-75.39449768 235.85412476 -75.39832458 234.94082397 -75.40226746 233.99984741 C-75.40498331 232.07340387 -75.39764502 230.14692326 -75.38090515 228.22055054 C-75.35949046 225.27700345 -75.38071748 222.33589699 -75.40629578 219.39242554 C-75.40365244 217.51742017 -75.39852734 215.64241631 -75.39067078 213.76742554 C-75.3987677 212.89021851 -75.40686462 212.01301147 -75.41520691 211.10922241 C-75.35261124 207.0167057 -75.18403972 204.80055633 -73.01371765 201.23617554 C-69.78388198 198.28452154 -67.1745533 198.14430352 -62.97270203 198.16976929 C-61.70486877 198.17351562 -61.70486877 198.17351562 -60.41142273 198.17733765 C-59.34238708 198.18644165 -58.27335144 198.19554565 -57.17192078 198.20492554 C-52.06723328 198.23586304 -52.06723328 198.23586304 -46.85942078 198.26742554 C-46.85942078 189.02742554 -46.85942078 179.78742554 -46.85942078 170.26742554 C-54.20448115 170.46460105 -54.20448115 170.46460105 -61.5476532 170.71786499 C-62.46909119 170.73035278 -63.39052917 170.74284058 -64.33988953 170.75570679 C-65.27727966 170.78189087 -66.2146698 170.80807495 -67.1804657 170.83505249 C-71.1542715 169.99306776 -72.50536374 168.55691809 -74.85942078 165.26742554 C-75.55353475 162.0906791 -75.51374578 159.00841151 -75.45317078 155.76742554 C-75.4532312 154.39747437 -75.4532312 154.39747437 -75.45329285 152.99984741 C-75.44794328 151.07334493 -75.4303846 149.14684259 -75.40141296 147.22055054 C-75.35955922 144.27716142 -75.36034643 141.3360621 -75.36723328 138.39242554 C-75.35673998 136.51740969 -75.34380112 134.6424056 -75.32817078 132.76742554 C-75.32796936 131.89021851 -75.32776794 131.01301147 -75.32756042 130.10922241 C-75.23604776 125.36817109 -74.96661814 122.10103012 -71.85942078 118.26742554 C-69.30218848 116.98880939 -67.49204975 117.15405944 -64.63285828 117.16976929 C-63.23946228 117.17351562 -63.23946228 117.17351562 -61.81791687 117.17733765 C-60.63536316 117.18644165 -59.45280945 117.19554565 -58.23442078 117.20492554 C-52.60379578 117.23586304 -52.60379578 117.23586304 -46.85942078 117.26742554 C-46.85942078 108.02742554 -46.85942078 98.78742554 -46.85942078 89.26742554 C-53.91963564 89.34635115 -53.91963564 89.34635115 -60.97953796 89.44760132 C-62.30453308 89.45509399 -62.30453308 89.45509399 -63.65629578 89.46273804 C-64.5570282 89.47321167 -65.45776062 89.4836853 -66.38578796 89.49447632 C-69.09299565 89.24598607 -70.62209889 88.80611544 -72.85942078 87.26742554 C-74.5258713 84.49568282 -75.11078674 82.42222918 -75.11820984 79.20492554 C-75.12451416 78.41730835 -75.13081848 77.62969116 -75.13731384 76.81820679 C-75.13326538 75.97644897 -75.12921692 75.13469116 -75.12504578 74.26742554 C-75.12695923 73.39473022 -75.12887268 72.52203491 -75.13084412 71.62289429 C-75.13220322 69.78044343 -75.12852596 67.93798291 -75.12016296 66.09555054 C-75.10945951 63.27762311 -75.12006749 60.46033317 -75.13285828 57.64242554 C-75.13153663 55.85075747 -75.12897414 54.05908979 -75.12504578 52.26742554 C-75.12909424 51.42566772 -75.1331427 50.58390991 -75.13731384 49.71664429 C-75.13100952 48.9290271 -75.1247052 48.14140991 -75.11820984 47.32992554 C-75.11582306 46.29545288 -75.11582306 46.29545288 -75.11338806 45.24008179 C-74.8106292 42.88844362 -74.07648245 41.29329616 -72.85942078 39.26742554 C-69.76359185 37.12201101 -67.14144679 37.03095858 -63.43754578 37.07211304 C-62.41274109 37.07855835 -61.3879364 37.08500366 -60.33207703 37.09164429 C-59.26860046 37.1084021 -58.2051239 37.12515991 -57.10942078 37.14242554 C-55.49100281 37.15596069 -55.49100281 37.15596069 -53.83988953 37.16976929 C-51.179508 37.19331249 -48.51957742 37.22619755 -45.85942078 37.26742554 C-45.74840027 36.68444702 -45.63737976 36.10146851 -45.522995 35.50082397 C-43.18524029 24.03143612 -37.53010455 14.56048395 -28.00395203 7.68539429 C-18.96531456 1.70902744 -10.70741414 -0.0329516 0 0 Z M-24.85942078 26.26742554 C-28.46941735 31.89965683 -28.46941735 31.89965683 -29.85942078 38.26742554 C-28.83787903 38.28144409 -28.83787903 38.28144409 -27.79570007 38.29574585 C-24.71203431 38.34940684 -21.62989284 38.43306104 -18.54692078 38.51742554 C-16.93913757 38.53869507 -16.93913757 38.53869507 -15.2988739 38.56039429 C-14.27084656 38.59262085 -13.24281921 38.62484741 -12.18363953 38.65805054 C-11.23577576 38.6789978 -10.28791199 38.69994507 -9.31132507 38.7215271 C-6.85942078 39.26742554 -6.85942078 39.26742554 -5.05155945 40.74301147 C-3.25531615 44.54664769 -3.43099264 48.11031515 -3.46098328 52.26742554 C-3.4581131 53.14012085 -3.45524292 54.01281616 -3.45228577 54.91195679 C-3.45024711 56.75441132 -3.45576313 58.59688758 -3.4683075 60.43930054 C-3.48436424 63.25750175 -3.46845239 66.07426886 -3.44926453 68.89242554 C-3.45124699 70.68409537 -3.45509074 72.4757643 -3.46098328 74.26742554 C-3.45187424 75.53006226 -3.45187424 75.53006226 -3.44258118 76.81820679 C-3.48347759 80.22441204 -3.58501504 82.67961627 -5.03788757 85.7918396 C-7.53578583 87.81533471 -9.20716791 87.8091768 -12.40238953 87.87680054 C-13.3694281 87.90741577 -14.33646667 87.93803101 -15.33280945 87.96957397 C-17.17129456 87.9932605 -17.17129456 87.9932605 -19.04692078 88.01742554 C-22.94504578 88.09992554 -26.84317078 88.18242554 -30.85942078 88.26742554 C-30.85942078 98.16742554 -30.85942078 108.06742554 -30.85942078 118.26742554 C-23.09647979 118.43777327 -23.09647979 118.43777327 -15.33280945 118.5652771 C-14.36577087 118.59589233 -13.3987323 118.62650757 -12.40238953 118.65805054 C-11.41263123 118.6789978 -10.42287292 118.69994507 -9.40312195 118.7215271 C-6.85942078 119.26742554 -6.85942078 119.26742554 -5.03349304 120.7293396 C-3.24064486 124.60508294 -3.47097803 128.26708223 -3.53129578 132.48617554 C-3.53316895 133.38106689 -3.53504211 134.27595825 -3.53697205 135.19796753 C-3.54368607 137.08753187 -3.55758768 138.97708247 -3.57817078 140.86654663 C-3.60930647 143.75681502 -3.61914194 146.64653733 -3.62504578 149.53695679 C-3.63421719 151.37420301 -3.6445934 153.21144369 -3.65629578 155.04867554 C-3.66054565 155.91230713 -3.66479553 156.77593872 -3.66917419 157.66574097 C-3.67878174 158.47337891 -3.68838928 159.28101685 -3.69828796 160.11312866 C-3.70511597 160.82054199 -3.71194397 161.52795532 -3.71897888 162.25680542 C-3.86583992 164.35932446 -4.28924458 166.24201079 -4.85942078 168.26742554 C-7.95892701 169.15616151 -10.84446445 169.45286336 -14.06254578 169.58383179 C-14.94587585 169.6219397 -15.82920593 169.66004761 -16.73930359 169.6993103 C-17.85144226 169.74241333 -18.96358093 169.78551636 -20.10942078 169.82992554 C-25.43067078 170.04648804 -25.43067078 170.04648804 -30.85942078 170.26742554 C-30.85942078 179.83742554 -30.85942078 189.40742554 -30.85942078 199.26742554 C-23.47064215 199.43767546 -23.47064215 199.43767546 -16.08110046 199.5652771 C-14.69519714 199.61119995 -14.69519714 199.61119995 -13.28129578 199.65805054 C-12.33866882 199.6789978 -11.39604187 199.69994507 -10.42485046 199.7215271 C-6.92413757 200.46644469 -5.84494574 201.26676437 -3.85942078 204.26742554 C-3.29605901 207.42931307 -3.34666903 210.53611318 -3.39848328 213.74008179 C-3.39985794 215.1192704 -3.39985794 215.1192704 -3.40126038 216.52632141 C-3.40729488 218.46717501 -3.42303636 220.40801937 -3.44779968 222.34872437 C-3.48433108 225.32262393 -3.48881882 228.29527805 -3.48832703 231.26937866 C-3.49815749 233.15545716 -3.50981419 235.04152721 -3.52348328 236.92758179 C-3.52570892 237.81824844 -3.52793457 238.7089151 -3.53022766 239.62657166 C-3.54298737 240.45430588 -3.55574707 241.2820401 -3.56889343 242.13485718 C-3.57651703 242.86225601 -3.58414063 243.58965485 -3.59199524 244.33909607 C-3.85942078 246.26742554 -3.85942078 246.26742554 -5.85942078 249.26742554 C-8.77892508 250.24059364 -10.91387029 250.46038014 -13.96488953 250.58383179 C-14.85071716 250.6219397 -15.7365448 250.66004761 -16.6492157 250.6993103 C-17.77045837 250.74241333 -18.89170105 250.78551636 -20.04692078 250.82992554 C-25.39910828 251.04648804 -25.39910828 251.04648804 -30.85942078 251.26742554 C-30.85942078 260.83742554 -30.85942078 270.40742554 -30.85942078 280.26742554 C-23.79969401 280.51657842 -23.79969401 280.51657842 -16.73930359 280.74545288 C-15.85597351 280.78106323 -14.97264343 280.81667358 -14.06254578 280.85336304 C-13.16181335 280.88478394 -12.26108093 280.91620483 -11.33305359 280.94857788 C-8.73528942 281.28342589 -7.06550975 281.87172394 -4.85942078 283.26742554 C-3.15851703 286.66923303 -3.65278762 290.54655113 -3.62113953 294.29086304 C-3.61306778 295.18858429 -3.60499603 296.08630554 -3.59667969 297.01123047 C-3.58283787 298.91268989 -3.57211615 300.81417417 -3.56425476 302.71566772 C-3.54702976 305.62402337 -3.50314386 308.53124586 -3.45903015 311.43930054 C-3.44890432 313.28564634 -3.44038788 315.1320018 -3.43363953 316.97836304 C-3.41613144 317.84826874 -3.39862335 318.71817444 -3.38058472 319.61444092 C-3.39424085 323.41451188 -3.41034886 325.59092692 -5.54716492 328.80990601 C-8.32072385 330.55820575 -10.01509992 330.80421841 -13.28129578 330.87680054 C-14.20523132 330.90741577 -15.12916687 330.93803101 -16.08110046 330.96957397 C-17.24544617 330.98536499 -18.40979187 331.00115601 -19.60942078 331.01742554 C-23.32192078 331.09992554 -27.03442078 331.18242554 -30.85942078 331.26742554 C-30.85942078 341.16742554 -30.85942078 351.06742554 -30.85942078 361.26742554 C-23.09647979 361.43777327 -23.09647979 361.43777327 -15.33280945 361.5652771 C-14.36577087 361.59589233 -13.3987323 361.62650757 -12.40238953 361.65805054 C-10.91775208 361.68947144 -10.91775208 361.68947144 -9.40312195 361.7215271 C-6.85942078 362.26742554 -6.85942078 362.26742554 -5.03349304 363.7293396 C-3.24064486 367.60508294 -3.47097803 371.26708223 -3.53129578 375.48617554 C-3.53316895 376.38106689 -3.53504211 377.27595825 -3.53697205 378.19796753 C-3.54368607 380.08753187 -3.55758768 381.97708247 -3.57817078 383.86654663 C-3.60930647 386.75681502 -3.61914194 389.64653733 -3.62504578 392.53695679 C-3.63421719 394.37420301 -3.6445934 396.21144369 -3.65629578 398.04867554 C-3.66054565 398.91230713 -3.66479553 399.77593872 -3.66917419 400.66574097 C-3.67878174 401.47337891 -3.68838928 402.28101685 -3.69828796 403.11312866 C-3.70511597 403.82054199 -3.71194397 404.52795532 -3.71897888 405.25680542 C-3.85942078 407.26742554 -3.85942078 407.26742554 -4.85942078 411.26742554 C-13.10942078 411.59742554 -21.35942078 411.92742554 -29.85942078 412.26742554 C-27.18739216 421.61952569 -24.31200979 425.73398191 -16.23832703 431.00570679 C-9.94214097 434.34506327 -4.34994885 434.55681907 2.62072754 434.53485107 C3.67573293 434.53938219 4.73073831 434.5439133 5.81771356 434.54858172 C9.35270745 434.56124138 12.88754759 434.5596043 16.42256165 434.55795288 C18.95729267 434.56393721 21.49202186 434.57074253 24.02674866 434.57830811 C30.1978991 434.59415011 36.36899324 434.60041702 42.54016211 434.60153286 C47.55899983 434.60248421 52.57782497 434.60659883 57.59665871 434.61293411 C71.83791376 434.63054392 86.07913871 434.6397736 100.32040473 434.63827316 C101.47142895 434.6381533 101.47142895 434.6381533 102.64570618 434.63803101 C103.41399698 434.63794924 104.18228778 434.63786748 104.97386012 434.63778324 C117.41739622 434.63697082 129.86081113 434.65609807 142.30431219 434.68430774 C155.09291422 434.71307001 167.88145722 434.72684614 180.6700924 434.72512019 C187.84517905 434.72445735 195.02013871 434.72990261 202.19519615 434.75147629 C208.94628558 434.77164557 215.69706299 434.77098028 222.44818115 434.75644302 C224.92207036 434.75435421 227.39597633 434.75906007 229.86983681 434.77116394 C233.25537491 434.78665164 236.63999369 434.77728388 240.0255127 434.76190186 C241.48294515 434.77733254 241.48294515 434.77733254 242.96982068 434.79307497 C252.76976131 434.69514388 261.33962161 431.9898439 268.48823547 425.11898804 C276.69652434 415.92104732 276.43535558 405.1138152 276.40800476 393.44667053 C276.41174442 391.93380167 276.41634719 390.42093475 276.42173541 388.90807086 C276.43394172 384.76298253 276.43370774 380.61797505 276.43134665 376.47287285 C276.43093789 371.99762938 276.44198325 367.52241162 276.45146179 363.04718018 C276.4680594 354.28414209 276.47357076 345.52113091 276.47468655 336.75807842 C276.47563754 329.63402667 276.47975039 322.50998378 276.4860878 315.38593483 C276.50369627 295.18004489 276.5129272 274.97417617 276.51142685 254.7682785 C276.51134694 253.67946431 276.51126703 252.59065012 276.51118469 251.46884155 C276.51106205 249.83362226 276.51106205 249.83362226 276.51093693 248.16536824 C276.51012398 230.49702136 276.52926494 212.82875971 276.55746143 195.16043749 C276.58619681 177.01099586 276.60000138 158.8615958 276.59827387 140.71213084 C276.59761023 130.52566318 276.60309125 120.33928491 276.62462997 110.15283775 C276.64285028 101.4803594 276.64718205 92.80801095 276.63361113 84.13552173 C276.62708599 79.71285549 276.62694785 75.29043841 276.64431763 70.86779594 C276.66007338 66.81434424 276.65715943 62.76133875 276.63974936 58.70789776 C276.63668498 57.24630685 276.64029064 55.78468242 276.65146951 54.32313105 C276.73985385 41.94156648 274.99330696 32.24201356 266.21870422 23.14242554 C258.36116295 16.05291462 249.8141047 14.9674984 239.65406799 15 C238.61045884 14.99546889 237.56684968 14.99093777 236.49161601 14.98626935 C233.0011861 14.97362809 229.51091228 14.97524558 226.02046204 14.97689819 C223.51513977 14.97091277 221.00981934 14.96410719 218.50450134 14.95654297 C212.40902036 14.94071129 206.31359637 14.93443461 200.21809676 14.93331821 C195.26078177 14.93236643 190.30347949 14.92824961 185.34616852 14.92191696 C171.27683412 14.90431134 157.20753019 14.89507696 143.1381847 14.89657791 C142.38036161 14.89665782 141.62253852 14.89673773 140.8417511 14.89682007 C139.70362091 14.89694271 139.70362091 14.89694271 138.5424982 14.89706783 C126.25098843 14.89788041 113.95960129 14.87874805 101.66812697 14.85054334 C89.03317487 14.82178034 76.3982825 14.80800493 63.76329684 14.80973089 C56.67541494 14.81039364 49.58766159 14.80495198 42.49980927 14.78337479 C35.83160377 14.76320448 29.16371417 14.76387149 22.49547958 14.77840805 C20.05222807 14.78049666 17.60895957 14.77579224 15.16573715 14.76368713 C11.82184986 14.74819661 8.47889302 14.75756894 5.13502502 14.77294922 C4.17575835 14.76266209 3.21649168 14.75237497 2.22815633 14.74177611 C-8.23832947 14.84764092 -18.01156381 18.04070144 -24.85942078 26.26742554 Z " fill="#000000" transform="translate(147.8594207763672,31.732574462890625)"/>
<path d="M0 0 C3.55484581 0.68071515 4.714546 1.76322459 6.9375 4.5625 C8.11176264 6.91102528 8.05258173 8.30024065 8.03515625 10.9140625 C8.03032227 12.19023437 8.03032227 12.19023437 8.02539062 13.4921875 C8.01282227 14.82636719 8.01282227 14.82636719 8 16.1875 C7.99548828 17.0846875 7.99097656 17.981875 7.98632812 18.90625 C7.97452591 21.12506648 7.95806155 23.34375018 7.9375 25.5625 C8.87299683 25.60020508 8.87299683 25.60020508 9.82739258 25.63867188 C27.84986803 26.53635061 42.57664311 36.25365232 54.9375 48.5625 C55.68128906 49.27148438 56.42507813 49.98046875 57.19140625 50.7109375 C66.66878442 60.39232968 74.7028275 76.87248119 75.03125 90.43359375 C75.0003125 91.46613281 74.969375 92.49867188 74.9375 93.5625 C75.89011719 93.50449219 76.84273437 93.44648438 77.82421875 93.38671875 C89.35768736 92.97184578 89.35768736 92.97184578 92.375 95.625 C94.85823198 100.29347611 93.2756775 104.29197655 91.95703125 109.24609375 C89.59420308 116.59456583 87.27233041 122.83151882 81.9375 128.5625 C81.18726563 129.46355469 81.18726563 129.46355469 80.421875 130.3828125 C73.46957201 138.17884158 62.85318399 142.94914825 52.47284698 143.75347519 C49.65703311 143.8353075 46.84728129 143.85560557 44.03027344 143.85302734 C42.96573441 143.85974457 41.90119537 143.86646179 40.80439758 143.87338257 C37.30184194 143.89230567 33.79947852 143.89628401 30.296875 143.8984375 C27.84840823 143.90486965 25.39994223 143.91159832 22.95147705 143.91860962 C17.8239158 143.93056839 12.69642186 143.9342919 7.56884766 143.93310547 C1.02118181 143.93290243 -5.52604928 143.9601959 -12.07361221 143.99464989 C-17.13018753 144.01696493 -22.186659 144.02094158 -27.2432785 144.01988602 C-29.65603889 144.02223536 -32.06880243 144.031021 -34.48151398 144.04655075 C-58.64016542 144.1874874 -58.64016542 144.1874874 -68.0625 139.5625 C-69.15046875 139.04429687 -70.2384375 138.52609375 -71.359375 137.9921875 C-83.91471638 130.03513994 -89.97862908 119.19142189 -93.58984375 105.08203125 C-94.31866853 101.19697353 -94.17018469 98.25826456 -91.98828125 94.91796875 C-89.0023301 92.81629522 -85.88095228 93.24733227 -82.375 93.375 C-81.67310547 93.38853516 -80.97121094 93.40207031 -80.24804688 93.41601562 C-78.51920171 93.45129818 -76.79075235 93.50510417 -75.0625 93.5625 C-75.04123047 92.48935547 -75.04123047 92.48935547 -75.01953125 91.39453125 C-74.12467354 72.69926068 -63.9694366 56.06884795 -50.72265625 43.30859375 C-38.50338999 32.91916769 -24.05511978 26.42938967 -8.0625 25.5625 C-8.08868408 24.98282471 -8.11486816 24.40314941 -8.1418457 23.8059082 C-8.24620612 21.16255125 -8.31094327 18.51962801 -8.375 15.875 C-8.41689453 14.96298828 -8.45878906 14.05097656 -8.50195312 13.11132812 C-8.58669051 8.4507721 -8.6038474 6.28550761 -5.734375 2.453125 C-3.0625 0.5625 -3.0625 0.5625 0 0 Z " fill="#010101" transform="translate(274.0625,164.4375)"/>
<path d="M0 0 C0.90105469 0.40089844 1.80210937 0.80179688 2.73046875 1.21484375 C18.42100861 8.84987372 28.54418047 22.01026689 34.30859375 38.26953125 C35.19744195 41.77972837 35.55087204 45.40697634 36 49 C-3.6 49 -43.2 49 -84 49 C-82.26418633 33.37767698 -75.26495209 19.17040921 -63 9 C-45.47985825 -3.95084552 -20.44708766 -10.14404504 0 0 Z " fill="#EDEDED" transform="translate(298,209)"/>
<path d="M0 0 C50.16 0 100.32 0 152 0 C147.9827232 9.37364588 144.64525675 13.67477482 135.46484375 18.0546875 C129.66511987 20.27898731 123.99095682 20.15978618 117.8605957 20.17700195 C116.84205002 20.18357315 115.82350433 20.19014435 114.77409363 20.19691467 C111.4079887 20.21660227 108.04192829 20.22830038 104.67578125 20.23828125 C103.52339651 20.24235678 102.37101177 20.2464323 101.18370628 20.25063133 C95.08381709 20.27147299 88.98395027 20.28578282 82.8840332 20.29516602 C76.59729704 20.30622475 70.31091536 20.34062442 64.02430439 20.38033772 C59.17798726 20.40653358 54.33175424 20.41486053 49.48537254 20.41844749 C47.16863804 20.42330592 44.85190711 20.43489855 42.53524208 20.45348549 C39.28533771 20.47793882 36.03634594 20.47690021 32.78637695 20.4699707 C31.83900665 20.48278076 30.89163635 20.49559082 29.91555786 20.50878906 C20.38599631 20.43513593 12.64179053 17.39962714 5.6953125 10.875 C2.95512264 7.84437527 0 4.24038795 0 0 Z " fill="#ECECEC" transform="translate(198,273)"/>
<path d="M0 0 C1.03501533 -0.00935994 1.03501533 -0.00935994 2.09094006 -0.01890898 C4.40269506 -0.03486191 6.71339896 -0.0222267 9.02516174 -0.00964355 C10.68264888 -0.01506374 12.3401312 -0.02218582 13.99760437 -0.03088379 C18.49974569 -0.04913394 23.00152074 -0.04204233 27.50366855 -0.02936745 C32.21389176 -0.01924682 36.92408343 -0.02863067 41.63430786 -0.03491211 C49.54573705 -0.04219197 57.45701694 -0.0325927 65.36842346 -0.0135498 C74.51506475 0.00821209 83.66134929 0.00117393 92.80798191 -0.02085543 C100.65948682 -0.03900877 108.51088434 -0.04156785 116.36240345 -0.03110075 C121.05240638 -0.02486449 125.74224165 -0.02403368 130.43223381 -0.0372467 C134.84250071 -0.04880337 139.25230793 -0.04078298 143.66252518 -0.01766968 C145.28104069 -0.01238126 146.8995949 -0.01389868 148.51809502 -0.02272034 C150.72808003 -0.03365508 152.93659312 -0.01993961 155.14648438 0 C156.38294425 0.0015081 157.61940413 0.0030162 158.89333248 0.00457001 C162.76666133 0.60569709 164.44049418 1.69766718 167.13673401 4.50793457 C167.69923401 8.00793457 167.69923401 8.00793457 167.13673401 11.50793457 C164.922549 14.52802005 163.7340534 15.41205696 160.00076294 16.01129913 C158.75600693 16.01280724 157.51125092 16.01431534 156.22877502 16.01586914 C155.53397569 16.0221091 154.83917635 16.02834907 154.12332249 16.03477812 C151.79541643 16.05073174 149.46855406 16.0380956 147.14064026 16.0255127 C145.47167856 16.0309328 143.80272164 16.03805483 142.1337738 16.04675293 C137.6007097 16.06500263 133.06800936 16.05791203 128.53493881 16.04523659 C123.79355124 16.03511742 119.05219505 16.04449925 114.31080627 16.05078125 C106.34810284 16.05806082 98.38554774 16.04846184 90.42286682 16.02941895 C81.21372241 16.0076496 72.00493222 16.01470075 62.79579639 16.03672457 C54.89250307 16.05486976 46.98931645 16.05744121 39.08600903 16.04696989 C34.3641803 16.04073011 29.64251813 16.03991262 24.92070007 16.05311584 C20.48171004 16.06466094 16.04317718 16.05667336 11.6042366 16.03353882 C9.97401311 16.02824452 8.34375121 16.02977783 6.71354294 16.03858948 C4.49007157 16.04950083 2.26807035 16.0358372 0.04469299 16.01586914 C-1.20006302 16.01436104 -2.44481903 16.01285294 -3.72729492 16.01129913 C-7.45973154 15.41219401 -8.65270699 14.53043775 -10.86326599 11.50793457 C-11.41402581 7.65261582 -11.60007265 5.51361597 -9.26097012 2.32093048 C-6.04126771 -0.11360981 -4.01696869 0.00490097 0 0 Z " fill="#000000" transform="translate(201.86326599121094,331.4920654296875)"/>
<path d="M0 0 C5.17676426 1.76230273 7.50629709 5.618331 10.171875 10.203125 C10.74550781 11.1828125 11.31914062 12.1625 11.91015625 13.171875 C12.49667969 14.18765625 13.08320313 15.2034375 13.6875 16.25 C14.28949219 17.28125 14.89148438 18.3125 15.51171875 19.375 C16.99251773 21.91351253 18.46753893 24.45520136 19.9375 27 C24.66689237 21.5640478 28.010591 15.25095477 31.60351562 9.04101562 C32.11720703 8.16767578 32.63089844 7.29433594 33.16015625 6.39453125 C33.85250366 5.20114136 33.85250366 5.20114136 34.55883789 3.98364258 C35.9375 2 35.9375 2 38.9375 0 C44.98883728 0.32417878 44.98883728 0.32417878 47.6309967 2.20643616 C49.44612847 4.69824365 49.32487635 6.44192155 49.34155273 9.50952148 C49.35423691 10.63756699 49.36692108 11.76561249 49.37998962 12.92784119 C49.37705399 14.14661453 49.37411835 15.36538788 49.37109375 16.62109375 C49.3763356 17.87253677 49.38157745 19.1239798 49.38697815 20.41334534 C49.39340767 23.0624221 49.39348483 25.7106394 49.38354492 28.35961914 C49.37205949 31.7505656 49.3922568 35.14047002 49.42146206 38.53127956 C49.44424541 41.76955629 49.43735655 45.00775563 49.43359375 48.24609375 C49.44482773 49.46284286 49.45606171 50.67959198 49.46763611 51.93321228 C49.45356468 53.63000877 49.45356468 53.63000877 49.43920898 55.36108398 C49.43904282 56.3557518 49.43887665 57.35041962 49.43870544 58.37522888 C48.79489485 61.7468113 47.63031678 62.92846231 44.9375 65 C41.4375 65.5625 41.4375 65.5625 37.9375 65 C35.29627071 62.776807 34.09548946 60.95254481 33.52734375 57.52709961 C33.31944297 54.57597867 33.22913622 51.64556416 33.1875 48.6875 C33.15785156 47.66076172 33.12820312 46.63402344 33.09765625 45.57617188 C33.02717806 43.05070325 32.9743734 40.52614585 32.9375 38 C32.46699219 38.77085938 31.99648437 39.54171875 31.51171875 40.3359375 C30.88910156 41.33882812 30.26648438 42.34171875 29.625 43.375 C29.01011719 44.37273437 28.39523438 45.37046875 27.76171875 46.3984375 C25.9375 49 25.9375 49 22.9375 51 C19.6875 51.25 19.6875 51.25 15.9375 50 C12.71864104 46.36765125 10.10729303 42.33958606 7.9375 38 C7.9281543 38.64026123 7.91880859 39.28052246 7.90917969 39.94018555 C7.85531153 42.85672375 7.77169801 45.77168625 7.6875 48.6875 C7.66623047 50.19860352 7.66623047 50.19860352 7.64453125 51.74023438 C7.49686098 56.21464351 7.37290871 59.22878588 5.14453125 63.17578125 C2.78455377 65.12641751 1.8860555 65.63923956 -1.125 65.5 C-5.0625 65 -5.0625 65 -6.78234863 63.8188324 C-8.56433306 61.2869982 -8.45676478 59.48159908 -8.48242188 56.39868164 C-8.49833374 55.25061539 -8.51424561 54.10254913 -8.53063965 52.91969299 C-8.53084106 51.67904587 -8.53104248 50.43839874 -8.53125 49.16015625 C-8.53886353 47.88651718 -8.54647705 46.61287811 -8.55432129 45.30064392 C-8.56513732 42.60449107 -8.56933519 39.90921386 -8.56347656 37.21313477 C-8.557581 33.76148743 -8.58816187 30.31124704 -8.62859344 26.85987186 C-8.66069008 23.56415941 -8.65635416 20.26850095 -8.65625 16.97265625 C-8.67264526 15.73403336 -8.68904053 14.49541046 -8.70593262 13.21925354 C-8.6966272 12.06803513 -8.68732178 10.91681671 -8.67773438 9.73071289 C-8.67978882 8.71828018 -8.68184326 7.70584747 -8.68395996 6.66273499 C-8.0625 4 -8.0625 4 -5.7154541 1.64183044 C-3.0625 0 -3.0625 0 0 0 Z " fill="#000101" transform="translate(169.0625,79)"/>
<path d="M0 0 C1.27018478 -0.0112793 2.54036957 -0.02255859 3.8490448 -0.03417969 C5.24917832 -0.02640315 6.64930957 -0.01821051 8.04943848 -0.00964355 C9.52973621 -0.01506602 11.01002854 -0.02218938 12.49031067 -0.03088379 C16.50481991 -0.04910559 20.51891756 -0.04205454 24.53343391 -0.02936745 C28.73649319 -0.01923378 32.93951745 -0.02863414 37.14257812 -0.03491211 C44.20062582 -0.04218746 51.25850605 -0.03260382 58.31652832 -0.0135498 C66.47425238 0.00821881 74.63157654 0.00116735 82.7892909 -0.02085543 C89.79581609 -0.03901269 96.80222096 -0.04156618 103.80876207 -0.03110075 C107.99238165 -0.02486758 112.17581331 -0.02402524 116.35942078 -0.0372467 C120.29285063 -0.04880943 124.22576538 -0.04077228 128.15913963 -0.01766968 C129.60188632 -0.01238477 131.04467642 -0.01389272 132.48740578 -0.02272034 C134.45814074 -0.03366608 136.42897054 -0.01749979 138.3996582 0 C139.50208107 0.0015081 140.60450394 0.0030162 141.74033356 0.00457001 C145.39033661 0.62537925 147.07348492 1.94822183 149.6998291 4.50793457 C150.3638916 6.50793457 150.3638916 6.50793457 150.3248291 8.50793457 C150.33771973 9.16793457 150.35061035 9.82793457 150.3638916 10.50793457 C149.32686771 13.63120653 147.39403104 14.706849 144.6998291 16.50793457 C141.74033356 17.01129913 141.74033356 17.01129913 138.3996582 17.01586914 C137.12947342 17.02714844 135.85928864 17.03842773 134.5506134 17.05004883 C133.15047989 17.04227229 131.75034863 17.03407965 130.35021973 17.0255127 C128.869922 17.03093516 127.38962966 17.03805852 125.90934753 17.04675293 C121.89483829 17.06497473 117.88074064 17.05792368 113.86622429 17.04523659 C109.66316501 17.03510292 105.46014075 17.04450328 101.25708008 17.05078125 C94.19903238 17.0580566 87.14115215 17.04847296 80.08312988 17.02941895 C71.92540583 17.00765033 63.76808166 17.01470179 55.6103673 17.03672457 C48.60384211 17.05488183 41.59743724 17.05743532 34.59089613 17.04696989 C30.40727656 17.04073672 26.22384489 17.03989438 22.04023743 17.05311584 C18.10680758 17.06467857 14.17389283 17.05664142 10.24051857 17.03353882 C8.79777189 17.02825391 7.35498178 17.02976186 5.91225243 17.03858948 C3.94151746 17.04953522 1.97068766 17.03336893 0 17.01586914 C-1.6536343 17.01360699 -1.6536343 17.01360699 -3.34067535 17.01129913 C-6.9906784 16.39048989 -8.67382672 15.06764731 -11.3001709 12.50793457 C-11.9642334 10.50793457 -11.9642334 10.50793457 -11.9251709 8.50793457 C-11.93806152 7.84793457 -11.95095215 7.18793457 -11.9642334 6.50793457 C-10.13329512 0.99357929 -5.19491514 0.00710659 0 0 Z " fill="#030707" transform="translate(202.3001708984375,376.4920654296875)"/>
<path d="M0 0 C4.1581721 1.3455658 5.45513859 2.68371379 8.1015625 6.125 C8.50834229 6.64320312 8.91512207 7.16140625 9.33422852 7.6953125 C10.73481664 9.49073755 12.10477774 11.30748763 13.4765625 13.125 C14.61708715 14.6052483 15.75907986 16.08436632 16.90234375 17.5625 C21.13543542 23.05205291 25.31976848 28.57750543 29.4765625 34.125 C29.48067139 33.27268799 29.48478027 32.42037598 29.48901367 31.54223633 C29.5160667 28.36404652 29.5652268 25.18716708 29.62915039 22.00952148 C29.65227228 20.63724569 29.66671253 19.26479391 29.67211914 17.89233398 C29.68144915 15.91365529 29.72513269 13.93523376 29.76953125 11.95703125 C29.79309692 10.17389526 29.79309692 10.17389526 29.81713867 8.35473633 C30.66252221 4.21420362 32.17041446 2.68487999 35.4765625 0.125 C39.1015625 0.0625 39.1015625 0.0625 42.4765625 1.125 C45.47220097 4.18287079 45.85727623 6.44939923 45.88061523 10.65625 C45.89329941 11.76419922 45.90598358 12.87214844 45.91905212 14.01367188 C45.91611649 15.20541016 45.91318085 16.39714844 45.91015625 17.625 C45.9153981 18.85283203 45.92063995 20.08066406 45.92604065 21.34570312 C45.93246349 23.94139856 45.93112051 26.53712308 45.92260742 29.1328125 C45.91409482 33.10990041 45.94286271 37.08555392 45.97460938 41.0625 C45.97622134 43.5833329 45.97564395 46.10416835 45.97265625 48.625 C45.98950722 50.41260742 45.98950722 50.41260742 46.00669861 52.23632812 C45.99262718 53.89825195 45.99262718 53.89825195 45.97827148 55.59375 C45.97810532 56.56763672 45.97793915 57.54152344 45.97776794 58.54492188 C45.32946812 61.88220444 44.13707781 63.06645052 41.4765625 65.125 C38.0390625 65.6875 38.0390625 65.6875 34.4765625 65.125 C30.62338275 61.70412822 27.48535512 57.75746504 24.3515625 53.6875 C23.39463439 52.45695104 22.43759974 51.22648492 21.48046875 49.99609375 C20.99078613 49.36429199 20.50110352 48.73249023 19.99658203 48.08154297 C17.44179456 44.79306452 14.86433456 41.52244283 12.2890625 38.25 C11.35796974 37.06518524 10.42697043 35.88029704 9.49609375 34.6953125 C8.82964844 33.84710938 8.16320312 32.99890625 7.4765625 32.125 C7.4672168 32.98254883 7.45787109 33.84009766 7.44824219 34.72363281 C7.40414959 37.91472679 7.34250194 41.10486756 7.26904297 44.29541016 C7.24087151 45.67451651 7.21963778 47.05378318 7.20556641 48.43310547 C7.18408705 50.41922949 7.13533118 52.40499909 7.0859375 54.390625 C7.06499023 55.58461914 7.04404297 56.77861328 7.02246094 58.00878906 C6.3744862 61.70769315 5.46916278 62.91505917 2.4765625 65.125 C-1.0234375 65.625 -1.0234375 65.625 -4.5234375 65.125 C-7.18196121 63.07334651 -8.37281544 61.87811923 -9.0381012 58.551651 C-9.04429977 57.58078049 -9.05049835 56.60990997 -9.05688477 55.60961914 C-9.0727211 54.50489761 -9.08855743 53.40017609 -9.10487366 52.26197815 C-9.09991379 51.07337692 -9.09495392 49.8847757 -9.08984375 48.66015625 C-9.09604233 47.43469589 -9.10224091 46.20923553 -9.10862732 44.94664001 C-9.1157311 42.35514114 -9.11254188 39.76359669 -9.09985352 37.17211914 C-9.08600102 33.20568836 -9.12004025 29.24162162 -9.15820312 25.27539062 C-9.15915441 22.75781192 -9.15729499 20.24023026 -9.15234375 17.72265625 C-9.16560196 16.53607925 -9.17886017 15.34950226 -9.19252014 14.12696838 C-9.08892253 4.96938035 -9.08892253 4.96938035 -6.2043457 1.84545898 C-3.5234375 0.125 -3.5234375 0.125 0 0 Z " fill="#000101" transform="translate(289.5234375,78.875)"/>
<path d="M0 0 C3.45117201 1.17486707 4.72517953 2.10964427 6.9375 5 C7.30841108 7.66338935 7.44914945 9.92495631 7.40625 12.58203125 C7.41329956 13.31443527 7.42034912 14.04683929 7.4276123 14.80143738 C7.45700901 17.92290617 7.4405313 21.04374579 7.42822266 24.1652832 C7.4258271 26.45040461 7.44684221 28.73453359 7.46875 31.01953125 C7.45743042 31.71456253 7.44611084 32.40959381 7.43444824 33.12568665 C7.4901907 38.58923117 8.92478628 41.60164432 11.9375 46 C16.61156056 49.36967157 21.35185747 49.87427448 26.9375 49 C30.55174727 47.70472063 33.22785178 45.91825218 35.60522461 42.84204102 C37.28119579 39.26682011 37.37827079 36.08505518 37.37890625 32.21484375 C37.39211411 31.47673965 37.40532196 30.73863556 37.41893005 29.97816467 C37.45965565 27.63123748 37.48144982 25.28469948 37.5 22.9375 C37.52383149 20.5868487 37.55200323 18.23656148 37.59178162 15.88612366 C37.61602947 14.42713611 37.63097674 12.96795615 37.63539124 11.5087738 C37.69134534 7.86002941 37.85560291 5.0629299 39.9375 2 C42.43619682 0.12597739 43.7905634 -0.00306118 46.9375 0.0625 C50.79501694 1.26797404 51.7723184 2.61790616 53.9375 6 C54.45507812 9.31469727 54.45507812 9.31469727 54.46875 13.06640625 C54.4725769 13.74114487 54.47640381 14.41588348 54.48034668 15.11106873 C54.48306011 16.53735854 54.47573849 17.96369859 54.45898438 19.38989258 C54.4377957 21.53259764 54.45867673 23.67185969 54.484375 25.81445312 C54.51270281 38.494829 52.37115371 48.62885105 43.3203125 57.93359375 C35.97539481 64.3032027 28.18776992 65.46521888 18.73828125 65.2734375 C9.94796628 64.64104074 3.9333421 60.22697434 -2.0625 54 C-7.31780529 47.36171963 -8.37573675 40.56979348 -8.43359375 32.36328125 C-8.44262222 31.56141891 -8.4516507 30.75955658 -8.46095276 29.93339539 C-8.47537522 28.25014947 -8.48432192 26.56684852 -8.48803711 24.88354492 C-8.50001727 22.3087882 -8.54934526 19.73636747 -8.59960938 17.16210938 C-8.60906591 15.52084495 -8.61630462 13.87956593 -8.62109375 12.23828125 C-8.64062607 11.47155594 -8.66015839 10.70483063 -8.68028259 9.91487122 C-8.64755227 6.04892373 -8.39610175 4.35799892 -5.71899414 1.48510742 C-3.0625 0 -3.0625 0 0 0 Z " fill="#010303" transform="translate(355.0625,79)"/>
<path d="M0 0 C1.90458984 -0.00290039 1.90458984 -0.00290039 3.84765625 -0.00585938 C5.16636719 0.01798828 6.48507813 0.04183594 7.84375 0.06640625 C9.16246094 0.05544922 10.48117188 0.04449219 11.83984375 0.03320312 C21.51591449 0.10687879 21.51591449 0.10687879 25.22460938 2.44555664 C27.34375 4.62890625 27.34375 4.62890625 27.90625 8.12890625 C27.34375 11.62890625 27.34375 11.62890625 25.94921875 13.83203125 C21.88226931 16.63682397 17.90453595 16.05408893 13.09375 15.87890625 C12.15789062 15.86085938 11.22203125 15.8428125 10.2578125 15.82421875 C7.95268562 15.77717534 5.64808646 15.70543403 3.34375 15.62890625 C3.34375 18.92890625 3.34375 22.22890625 3.34375 25.62890625 C5.31408203 25.55929688 5.31408203 25.55929688 7.32421875 25.48828125 C9.05987304 25.45075359 10.79555199 25.4143545 12.53125 25.37890625 C13.39556641 25.34539062 14.25988281 25.311875 15.15039062 25.27734375 C19.35106882 25.21296554 21.72509811 25.26776428 25.421875 27.42578125 C27.34375 29.62890625 27.34375 29.62890625 27.90625 33.12890625 C27.34375 36.62890625 27.34375 36.62890625 25.94921875 38.83203125 C21.88226931 41.63682397 17.90453595 41.05408893 13.09375 40.87890625 C11.68996094 40.85183594 11.68996094 40.85183594 10.2578125 40.82421875 C7.95268562 40.77717534 5.64808646 40.70543403 3.34375 40.62890625 C3.34375 43.92890625 3.34375 47.22890625 3.34375 50.62890625 C4.65730469 50.5825 5.97085938 50.53609375 7.32421875 50.48828125 C9.05987304 50.45075359 10.79555199 50.4143545 12.53125 50.37890625 C13.39556641 50.34539062 14.25988281 50.311875 15.15039062 50.27734375 C19.35106882 50.21296554 21.72509811 50.26776428 25.421875 52.42578125 C27.34375 54.62890625 27.34375 54.62890625 27.90625 58.12890625 C27.24727069 62.22922193 26.61004364 63.16392917 23.34375 65.62890625 C20.10742187 66.14648438 20.10742187 66.14648438 16.3125 66.16015625 C15.63956909 66.16398315 14.96663818 66.16781006 14.27331543 66.17175293 C12.8545583 66.17446755 11.43575073 66.16713759 10.01708984 66.15039062 C7.85009797 66.128969 5.68642049 66.15020163 3.51953125 66.17578125 C2.13801354 66.17313789 0.7564979 66.16801272 -0.625 66.16015625 C-1.87732422 66.15564453 -3.12964844 66.15113281 -4.41992188 66.14648438 C-8.30985322 65.52437707 -9.24464323 64.67439858 -11.65625 61.62890625 C-12.1709137 59.05555725 -12.1709137 59.05555725 -12.18969727 56.11352539 C-12.2055336 55.00880386 -12.22136993 53.90408234 -12.23768616 52.7658844 C-12.23272629 51.57728317 -12.22776642 50.38868195 -12.22265625 49.1640625 C-12.22885483 47.93860214 -12.23505341 46.71314178 -12.24143982 45.45054626 C-12.2485436 42.85904739 -12.24535438 40.26750294 -12.23266602 37.67602539 C-12.21881352 33.70959461 -12.25285275 29.74552787 -12.29101562 25.77929688 C-12.29196691 23.26171817 -12.29010749 20.74413651 -12.28515625 18.2265625 C-12.29841446 17.0399855 -12.31167267 15.85340851 -12.32533264 14.63087463 C-12.23348479 6.51191552 -12.23348479 6.51191552 -9.53295898 2.38085938 C-6.08194031 0.27914419 -4.02743544 -0.00252416 0 0 Z " fill="#000101" transform="translate(241.65625,78.37109375)"/>
<path d="M0 0 C1.13532669 -0.00700928 2.27065338 -0.01401855 3.44038391 -0.02124023 C7.19813399 -0.03886417 10.95513271 -0.02718106 14.71289062 -0.01367188 C17.32076156 -0.0163655 19.92863153 -0.02024684 22.53649902 -0.02526855 C28.00407064 -0.03254347 33.47142606 -0.02296159 38.93896484 -0.00390625 C45.25799114 0.01786251 51.57650118 0.01081101 57.89551497 -0.01121187 C63.97710989 -0.03155803 70.05847614 -0.02939571 76.14009094 -0.01768494 C78.72691418 -0.01501305 81.31375057 -0.01830354 83.90055847 -0.02760315 C87.51348981 -0.03774065 91.12542432 -0.02230505 94.73828125 0 C95.81165237 -0.00809692 96.8850235 -0.01619385 97.99092102 -0.02453613 C105.20802116 0.05817669 105.20802116 0.05817669 108.52966309 2.36633301 C110.40484216 5.37793247 110.5093284 7.03211134 109.86914062 10.51757812 C107.81884567 13.47565831 106.18351534 15.25441465 102.56834221 15.97824287 C99.60717193 16.16352499 96.68344784 16.18139449 93.71655273 16.14868164 C92.02797401 16.1594146 92.02797401 16.1594146 90.30528259 16.17036438 C86.58527009 16.1872695 82.86645944 16.16783758 79.14648438 16.14648438 C76.56246338 16.14731284 73.97844244 16.14977136 71.39442444 16.15379333 C65.97981528 16.15665254 60.56565114 16.14246598 55.15112305 16.11450195 C48.89397526 16.082435 42.63745062 16.0824729 36.3802585 16.09971672 C30.35576914 16.11558657 24.33156963 16.10874904 18.30706978 16.09177971 C15.74537225 16.0865903 13.18365678 16.08708885 10.62196159 16.09332466 C7.04502383 16.09876353 3.46915053 16.07844285 -0.10766602 16.05102539 C-1.70134003 16.06081421 -1.70134003 16.06081421 -3.32720947 16.07080078 C-10.45697147 15.97768677 -10.45697147 15.97768677 -13.78855896 13.70298767 C-15.77782853 10.4642427 -15.6620712 8.23606089 -15.13085938 4.51757812 C-11.68665177 -1.12077325 -5.88476471 -0.04439144 0 0 Z " fill="#000000" transform="translate(206.130859375,422.482421875)"/>
<path d="M0 0 C13.53 0 27.06 0 41 0 C41 7.26 41 14.52 41 22 C27.47 22 13.94 22 0 22 C0 14.74 0 7.48 0 0 Z " fill="#E87081" transform="translate(89,246)"/>
<path d="M0 0 C13.53 0 27.06 0 41 0 C41 6.93 41 13.86 41 21 C27.47 21 13.94 21 0 21 C0 14.07 0 7.14 0 0 Z " fill="#EE7284" transform="translate(89,408)"/>
<path d="M0 0 C13.53 0 27.06 0 41 0 C41 6.93 41 13.86 41 21 C27.47 21 13.94 21 0 21 C0 14.07 0 7.14 0 0 Z " fill="#EE7284" transform="translate(89,165)"/>
<path d="M0 0 C13.53 0 27.06 0 41 0 C41 6.6 41 13.2 41 20 C27.47 20 13.94 20 0 20 C0 13.4 0 6.8 0 0 Z " fill="#ED7284" transform="translate(89,328)"/>
<path d="M0 0 C13.53 0 27.06 0 41 0 C41 6.6 41 13.2 41 20 C27.47 20 13.94 20 0 20 C0 13.4 0 6.8 0 0 Z " fill="#EE7284" transform="translate(89,85)"/>
</svg>
