<?xml version="1.0" encoding="UTF-8"?>
<svg version="1.1" xmlns="http://www.w3.org/2000/svg" width="512" height="512">
<path d="M0 0 C1.00425748 -0.00445784 2.00851496 -0.00891569 3.04320449 -0.01350862 C4.70280093 -0.01323207 4.70280093 -0.01323207 6.39592457 -0.01294994 C7.5689064 -0.01662663 8.74188822 -0.02030332 9.95041496 -0.02409142 C13.21185157 -0.03321981 16.47325861 -0.0378283 19.73470581 -0.04048073 C23.25018431 -0.04438364 26.76564824 -0.053962 30.28111744 -0.0626936 C38.77385732 -0.08245859 47.26659839 -0.09252434 55.75935552 -0.10142139 C59.75855173 -0.1058043 63.75774663 -0.11117111 67.7569418 -0.11641026 C81.05092786 -0.13342271 94.3449131 -0.14791689 107.63890839 -0.155159 C111.08898577 -0.1570689 114.53906315 -0.15898923 117.98914051 -0.16094494 C119.27539361 -0.16167055 119.27539361 -0.16167055 120.58763162 -0.16241082 C134.47864297 -0.17071114 148.3695682 -0.196048 162.26054194 -0.22852562 C176.52143377 -0.26159632 190.78228185 -0.27960777 205.04321223 -0.28280324 C213.05047241 -0.28496835 221.05760702 -0.29371704 229.06482983 -0.31926441 C235.8842046 -0.34097161 242.70342331 -0.34902179 249.52282872 -0.33929763 C253.0013454 -0.3347529 256.47954007 -0.33664869 259.95801258 -0.35605907 C263.73226691 -0.37370652 267.50570337 -0.36670573 271.27995777 -0.35352612 C272.9228238 -0.36997998 272.9228238 -0.36997998 274.59887904 -0.38676625 C282.56300938 -0.31958882 287.85804004 1.28650088 293.90540028 6.50922108 C302.65949502 16.72233161 302.4414113 26.39801856 302.35071278 39.22797108 C302.34697712 40.78595262 302.34413276 42.34393653 302.34213734 43.90192127 C302.33454435 47.97897431 302.31493371 52.05588216 302.29272938 56.1328783 C302.27217696 60.30257676 302.26311563 64.47229894 302.25305653 68.64203358 C302.23168322 76.80616229 302.19760039 84.97017356 302.15540028 93.13422108 C302.91159657 93.11851063 303.66779285 93.10280018 304.44690418 93.08661366 C307.89132604 93.02404061 311.33562802 92.98515902 314.78040028 92.94672108 C315.97020496 92.92158436 317.16000965 92.89644764 318.38586903 92.8705492 C329.73241103 92.77546645 329.73241103 92.77546645 334.15540028 96.13422108 C336.44896683 99.59092254 336.40687258 102.60925544 336.40987587 106.69204712 C336.41308235 107.35243187 336.41628883 108.01281661 336.41959247 108.69321302 C336.4279227 110.91575799 336.42195771 113.13803561 336.41609669 115.36058521 C336.41911602 116.96629715 336.4230044 118.57200766 336.42768925 120.1777156 C336.4380066 124.59794112 336.43577794 129.01808587 336.43150866 133.43831813 C336.42904812 138.20261797 336.43804733 142.96689802 336.44554615 147.73119068 C336.45831497 157.06895841 336.46008404 166.40669742 336.45774589 175.74447241 C336.45596462 183.33440687 336.45770825 190.9243326 336.46197033 198.51426601 C336.46256552 199.59351643 336.46316071 200.67276685 336.46377393 201.78472183 C336.46498566 203.97709411 336.46619979 206.16946639 336.46741631 208.36183868 C336.47830073 228.93720597 336.47612538 249.51255689 336.47003146 270.08792511 C336.46486426 288.91213644 336.47611097 307.73629599 336.49512968 326.56049707 C336.51450207 345.8827541 336.52276496 365.20498664 336.51900643 384.52725345 C336.51709312 395.37768685 336.51959436 406.22807621 336.53372097 417.0785017 C336.54562826 426.31801788 336.54704714 435.55746291 336.5349308 444.79698005 C336.52903691 449.51096434 336.52795673 454.22481847 336.5399332 458.93879414 C336.55077461 463.2562256 336.54770937 467.57341793 336.53367152 471.89083812 C336.53101974 473.45076057 336.53340625 475.01070165 336.54140738 476.57060584 C336.59732198 488.28728261 335.77085848 498.40369917 327.15540028 507.13422108 C319.43504592 512.66126799 311.69688606 512.84811312 302.50500965 512.76913929 C301.0350673 512.77490873 299.56513218 512.78285536 298.09521198 512.79277551 C294.07795277 512.81355959 290.06129095 512.80337257 286.04403019 512.78784442 C281.70310227 512.77650001 277.36227483 512.7940089 273.02136707 512.80774403 C264.52624386 512.82994808 256.03134185 512.82518789 247.53621006 512.81068082 C240.63052783 512.79937742 233.72490747 512.79786245 226.81921864 512.8032999 C225.34353893 512.80444915 225.34353893 512.80444915 223.8380475 512.80562162 C221.83934814 512.80722028 219.84064879 512.80884135 217.84194946 512.81048457 C199.11110513 512.82473378 180.38038326 512.80836234 161.64955902 512.78148274 C145.58634063 512.75914472 129.52330291 512.76302509 113.46008778 512.78607655 C94.79513291 512.81284918 76.1302853 512.82336056 57.46531391 512.80801523 C55.47406993 512.80642252 53.48282593 512.80485067 51.49158192 512.8032999 C50.51191566 512.80252853 49.5322494 512.80175715 48.52289629 512.8009624 C41.62750353 512.79664979 34.73217896 512.80392248 27.83679676 512.81569767 C19.4307233 512.82973745 11.02488321 512.82589165 2.6188364 512.79929395 C-1.66806662 512.78617563 -5.9545809 512.7809693 -10.24148083 512.79753971 C-14.16970766 512.8124938 -18.09718724 512.8041622 -22.02534676 512.77765195 C-23.44243638 512.77208995 -24.85958979 512.77485604 -26.27663803 512.78703089 C-34.81475194 512.85473182 -41.74638753 512.21587277 -48.84459972 507.13422108 C-58.08458213 497.77083414 -58.28360787 486.70031636 -58.22555065 474.27966785 C-58.22901045 472.66678846 -58.23377718 471.05391143 -58.23973238 469.44103932 C-58.25222719 465.02434796 -58.24607898 460.60785169 -58.23677373 456.19115973 C-58.22997758 451.42224828 -58.24046713 446.65337004 -58.24871349 441.88446522 C-58.26204573 432.54937752 -58.2591757 423.21436223 -58.25047557 413.87927172 C-58.24369906 406.29418705 -58.24278216 398.70912266 -58.24604702 391.12403584 C-58.24650672 390.04430798 -58.24696642 388.96458012 -58.24744005 387.85213323 C-58.24839922 385.65870569 -58.24937186 383.46527815 -58.25035782 381.27185062 C-58.2589098 360.7108788 -58.24907973 340.14994713 -58.23295672 319.5889819 C-58.2195461 301.94030457 -58.22188814 284.29168641 -58.23571301 266.64301014 C-58.25175908 246.14915786 -58.25809387 225.65534073 -58.24887621 205.16148305 C-58.24792056 202.97736979 -58.24697744 200.79325653 -58.24604702 198.60914326 C-58.24558419 197.5344987 -58.24512137 196.45985415 -58.24464452 195.35264461 C-58.24205227 187.77315247 -58.2464305 180.1936826 -58.25348568 172.61419392 C-58.26188973 163.38273103 -58.25964331 154.1513447 -58.24364345 144.91989061 C-58.23574715 140.20839582 -58.23269236 135.49702877 -58.2425909 130.78553486 C-58.25150973 126.47529092 -58.2466516 122.16529353 -58.23065825 117.85507205 C-58.22729858 116.29335375 -58.22903103 114.73161475 -58.23628561 113.16990969 C-58.24537452 111.05133962 -58.23608674 108.93362022 -58.22212315 106.81509495 C-58.22163609 105.63714477 -58.22114903 104.4591946 -58.22064722 103.24554896 C-57.80233554 99.78453726 -56.92211016 97.90857039 -54.84459972 95.13422108 C-51.12819744 93.03455431 -47.88444667 92.89737529 -43.66881847 92.93890858 C-41.93341808 92.94857655 -41.93341808 92.94857655 -40.1629591 92.95843983 C-38.36568371 92.98357655 -38.36568371 92.98357655 -36.53209972 93.00922108 C-35.31458019 93.01824451 -34.09706066 93.02726795 -32.8426466 93.03656483 C-29.84309698 93.06009071 -26.84394928 93.09296455 -23.84459972 93.13422108 C-23.85126156 92.27946186 -23.85792339 91.42470264 -23.8647871 90.54404163 C-23.92512261 82.45330786 -23.97068758 74.36265064 -24.00003624 66.27174282 C-24.01563238 62.11301092 -24.03675869 57.95446631 -24.07091808 53.79584217 C-24.10372922 49.77578761 -24.12149815 45.75591221 -24.12923145 41.73573399 C-24.13473621 40.20887276 -24.14548473 38.68202033 -24.16178989 37.15523624 C-24.2699432 26.59954291 -24.12427031 16.3509404 -17.37194347 7.66937733 C-12.51743057 2.79003316 -6.87093232 0.0141352 0 0 Z " fill="#010100" transform="translate(116.84459972381592,-0.13422107696533203)"/>
<path d="M0 0 C2.77000574 2.77000574 4.08221302 4.7442346 5.85546875 8.15625 C6.66661133 9.69152344 6.66661133 9.69152344 7.49414062 11.2578125 C8.60603821 13.38670522 9.71549321 15.51687581 10.82226562 17.6484375 C18.62688907 32.39356825 26.89296523 43.40949462 42.96208477 49.03741741 C47.85466547 50.40616292 52.71167864 50.27984635 57.75898743 50.26069641 C59.36833681 50.26643473 59.36833681 50.26643473 61.0101983 50.27228898 C64.59970374 50.28259483 68.18904851 50.27863134 71.77856445 50.2746582 C74.35447335 50.27900603 76.93038095 50.28418942 79.50628662 50.29014587 C85.7738848 50.30288058 92.04144011 50.30468806 98.30904905 50.30234561 C103.40557864 50.30056071 108.50209524 50.30231578 113.59862328 50.30657005 C114.6877498 50.30746284 114.6877498 50.30746284 115.79887887 50.30837366 C117.27406183 50.30958544 118.74924478 50.31079958 120.22442772 50.31201603 C134.05228198 50.3228871 147.88011185 50.32073129 161.70796748 50.31463119 C174.34609008 50.3094639 186.98413556 50.32071324 199.62224291 50.33972941 C212.61088263 50.35912257 225.5994859 50.36736112 238.58814019 50.36360615 C245.87549546 50.36169616 253.16278512 50.36416185 260.45012856 50.37832069 C267.30460378 50.39150407 274.1589224 50.38895437 281.01339722 50.37590981 C283.52640523 50.37354449 286.0394241 50.37627706 288.55241966 50.38453293 C291.9884788 50.39500562 295.42402087 50.38689485 298.86006165 50.3742218 C299.84947779 50.38159609 300.83889394 50.38897037 301.8582924 50.39656812 C313.91683966 50.30329995 325.29938081 46.13442094 334.27734375 37.93359375 C338.25680813 33.46684802 341.05937678 28.17897478 344 23 C344.53592773 22.0605957 345.07185547 21.12119141 345.62402344 20.15332031 C349.4430173 13.45063928 353.23186943 6.7313926 357 0 C357.33 0 357.66 0 358 0 C358 101.31 358 202.62 358 307 C239.86 307 121.72 307 0 307 C0 205.69 0 104.38 0 0 Z " fill="#FE9710" transform="translate(77,137)"/>
<path d="M0 0 C0.8209826 -0.00427212 1.64196519 -0.00854425 2.48782605 -0.01294583 C5.23675904 -0.02117691 7.98416371 0.00631026 10.73295593 0.03364563 C12.70411137 0.03505608 14.67526943 0.03426419 16.64642334 0.03143311 C21.99742612 0.02999743 27.34786948 0.05941215 32.69874215 0.09430289 C38.29078101 0.12554088 43.88283242 0.12849512 49.47494507 0.13442993 C60.06427658 0.14997585 70.65335026 0.19101463 81.24256819 0.24117738 C93.29804109 0.2970474 105.35352625 0.32455149 117.40909636 0.34965456 C142.20819189 0.40192967 167.00705849 0.48988669 191.80595398 0.60127258 C191.81182022 1.38165894 191.81768646 2.16204529 191.82373047 2.96607971 C191.88165176 10.32312157 191.9537247 17.67982453 192.04166889 25.03656387 C192.08638283 28.81869117 192.1256364 32.6007105 192.15238953 36.38301086 C192.17841277 40.03366374 192.21880742 43.68390137 192.26914024 47.33429718 C192.28581575 48.72648196 192.29732581 50.11873857 192.30356789 51.51100922 C192.31320057 53.46211124 192.34295764 55.41308243 192.37358093 57.3639679 C192.38468399 58.47427368 192.39578705 59.58457947 192.40722656 60.72853088 C192.84972511 63.91663375 193.5815988 65.31118897 195.80595398 67.60127258 C197.74339597 68.19213258 197.74339597 68.19213258 199.80595398 68.03877258 C200.48657898 68.03748352 201.16720398 68.03619446 201.86845398 68.03486633 C204.38285457 67.47216781 205.11508524 66.53138727 206.80595398 64.60127258 C207.6835105 63.14764403 208.50688196 61.66051583 209.28642273 60.15205383 C209.94867859 58.88071594 209.94867859 58.88071594 210.62431335 57.58369446 C211.30203796 56.26208313 211.30203796 56.26208313 211.99345398 54.91377258 C212.45687195 54.0210968 212.92028992 53.12842102 213.39775085 52.20869446 C214.53888395 50.00877807 215.67472618 47.80629417 216.80595398 45.60127258 C218.82726475 48.19372875 220.52051859 50.75822078 222.03251648 53.67549133 C222.62032898 54.7998761 222.62032898 54.7998761 223.22001648 55.94697571 C223.61962585 56.71976868 224.01923523 57.49256165 224.43095398 58.28877258 C225.23402233 59.83518742 226.03862871 61.38080483 226.84501648 62.92549133 C227.37409607 63.94775818 227.37409607 63.94775818 227.91386414 64.99067688 C228.7031764 66.5904773 228.7031764 66.5904773 229.80595398 67.60127258 C235.68241429 68.06458696 235.68241429 68.06458696 240.80595398 65.60127258 C241.88165491 62.37416978 241.96306558 59.96469848 242.01127625 56.56929016 C242.03122147 55.32823013 242.05116669 54.0871701 242.07171631 52.8085022 C242.08869925 51.45427068 242.10557811 50.10003785 242.12236023 48.74580383 C242.14293626 47.36002999 242.1639329 45.97426233 242.18533325 44.58850098 C242.24048699 40.94386306 242.28992572 37.29916912 242.33818054 33.6544342 C242.38844454 29.93418909 242.44410502 26.21402516 242.49931335 22.49385071 C242.60681297 15.19639345 242.70827605 7.89886861 242.80595398 0.60127258 C247.34728195 0.45568848 251.88800739 0.36709925 256.43095398 0.28877258 C257.71614929 0.24687805 259.0013446 0.20498352 260.32548523 0.16181946 C262.1914032 0.13764954 262.1914032 0.13764954 264.09501648 0.11299133 C265.23664246 0.08680725 266.37826843 0.06062317 267.55448914 0.03364563 C270.85919937 0.61056794 273.17394661 1.36431069 275.65251541 3.69560623 C278.35042596 8.15298913 277.64977022 13.77714961 277.61405945 18.81758118 C277.62547067 20.1764246 277.63940071 21.53524885 277.65565491 22.89404297 C277.69151379 26.57826059 277.68918275 30.26152549 277.67777014 33.94586515 C277.67158415 37.02484752 277.68377382 40.10364714 277.69584763 43.18260348 C277.72393438 50.44894238 277.72082058 57.71481104 277.69804382 64.9811554 C277.675091 72.46896001 277.70321319 79.95533114 277.75683677 87.44294679 C277.80119688 93.87887495 277.81441533 100.3143539 277.80268395 106.75042403 C277.79595149 110.59121689 277.80072499 114.43109139 277.835186 118.27175522 C277.86619706 121.88563146 277.85814493 125.49739146 277.82057571 129.11118507 C277.80972651 131.0624079 277.83818437 133.0137265 277.8679657 134.9647522 C277.72877954 143.25837316 277.72877954 143.25837316 275.23927689 146.88110733 C267.86635559 153.80642487 259.78798604 155.04859644 250.0785675 154.99568176 C249.0211477 155.00177287 247.9637279 155.00786397 246.87426507 155.01413965 C243.34308369 155.0307433 239.81226393 155.02599747 236.28105164 155.02119446 C233.74440131 155.02853627 231.20775432 155.03712283 228.67111206 155.04685974 C222.50322283 155.06676643 216.33546591 155.07245705 210.16754891 155.07067186 C205.15208152 155.06936215 200.13664338 155.07317901 195.12118149 155.08059692 C193.67425899 155.08269621 192.22733649 155.08479381 190.78041399 155.08688974 C189.70001856 155.08845504 189.70001856 155.08845504 188.59779696 155.09005195 C174.98834753 155.10893708 161.37895204 155.10790937 147.76949494 155.10108262 C135.3318443 155.09550783 122.89439969 155.11633284 110.4567972 155.14944309 C97.67151761 155.18321352 84.88633663 155.1983443 72.10101163 155.19372606 C64.92875703 155.19148483 57.75669286 155.19667372 50.58447647 155.22161865 C43.839048 155.2448804 37.09411793 155.24200851 30.34865761 155.22169113 C27.87595982 155.21828096 25.40323318 155.22337036 22.93057442 155.23767471 C19.54898714 155.2558843 16.1688518 155.24310338 12.78730774 155.22273254 C11.8141375 155.23525039 10.84096727 155.24776824 9.83830702 155.26066542 C1.47417238 155.15300734 -4.35342773 152.07218751 -11.27861023 147.61677551 C-14.49167529 142.5583929 -13.88758497 137.21439305 -13.84101868 131.35322571 C-13.84779766 129.99114819 -13.85670239 128.62907985 -13.86756897 127.26702881 C-13.89033639 123.57472897 -13.88153721 119.88312873 -13.86567354 116.19081688 C-13.85300099 112.32407645 -13.8647584 108.45739529 -13.87260437 104.59065247 C-13.88169704 98.09750124 -13.86972328 91.60463451 -13.84590149 85.11152649 C-13.81869065 77.60808593 -13.8275051 70.10532468 -13.85503352 62.60190058 C-13.8777347 56.15585602 -13.88091983 49.71001578 -13.86784017 43.26394415 C-13.86005109 39.41562613 -13.85898877 35.56762726 -13.87552261 31.71932983 C-13.88998317 28.10094521 -13.87991843 24.48343503 -13.85105133 20.86514473 C-13.84130289 18.90642621 -13.85612735 16.9476336 -13.87168884 14.98895264 C-13.85758972 13.8197377 -13.8434906 12.65052277 -13.82896423 11.44587708 C-13.82707911 10.43194633 -13.82519398 9.41801559 -13.82325172 8.37335968 C-12.13318453 0.92744267 -6.76386449 -0.12900346 0 0 Z " fill="#94C6ED" transform="translate(124.19404602050781,16.398727416992188)"/>
<path d="M0 0 C118.14 0 236.28 0 358 0 C358 9.57 358 19.14 358 29 C353.34246989 33.65753011 352.53720355 34.12328618 346.3486433 34.13701439 C344.534188 34.1446262 344.534188 34.1446262 342.68307704 34.15239179 C341.32860963 34.15299352 339.97414217 34.15349258 338.61967468 34.15390015 C337.19020509 34.15791333 335.76073663 34.16235131 334.33126956 34.1671797 C330.38909603 34.17916701 326.44693475 34.18479863 322.50474656 34.18936086 C318.25855778 34.19530871 314.01238371 34.20692051 309.76620483 34.21765137 C299.50515982 34.24219285 289.24410993 34.25680442 278.98304459 34.26971143 C276.08641217 34.27342188 273.18978022 34.27739522 270.29314828 34.2814641 C252.31718786 34.30669744 234.34122672 34.32875717 216.36525249 34.34119225 C212.19996322 34.34412209 208.03467398 34.34708373 203.86938477 34.35009766 C202.83408399 34.35084371 201.79878322 34.35158976 200.7321097 34.35235842 C183.9516935 34.36501866 167.1713831 34.39824979 150.39101639 34.43989949 C133.17518928 34.4822809 115.9594164 34.50588283 98.74353725 34.51111281 C89.07245429 34.51453108 79.40153671 34.5263352 69.73050499 34.55921555 C61.49613914 34.58716506 53.26197255 34.59823786 45.02756294 34.58702008 C40.82434229 34.58182043 36.62153927 34.5848043 32.41837883 34.60948563 C28.57216536 34.63188297 24.7266718 34.63131344 20.88044653 34.61228175 C19.48741541 34.60946828 18.09433645 34.61515484 16.7013826 34.63009469 C14.81064005 34.64913717 12.91964727 34.63445113 11.02888012 34.61803246 C9.97775923 34.61938898 8.92663834 34.62074551 7.8436653 34.62214315 C5 34 5 34 0 29 C0 19.43 0 9.86 0 0 Z " fill="#FEA632" transform="translate(77,461)"/>
<path d="M0 0 C6.26750259 3.94347898 10.46461193 9.31687574 12.328125 16.46484375 C13.37431753 25.1427355 12.5073815 32.2915735 7.328125 39.46484375 C3.87637181 43.2401988 1.34186388 45.21140903 -3.671875 46.46484375 C-3.671875 66.92484375 -3.671875 87.38484375 -3.671875 108.46484375 C-9.611875 108.46484375 -15.551875 108.46484375 -21.671875 108.46484375 C-21.671875 88.00484375 -21.671875 67.54484375 -21.671875 46.46484375 C-23.321875 45.80484375 -24.971875 45.14484375 -26.671875 44.46484375 C-32.46871764 40.78909114 -36.00447981 36.1344245 -37.671875 29.46484375 C-38.56288089 21.20278915 -38.43825805 13.30733624 -33.1953125 6.56640625 C-24.11291228 -3.26249262 -12.37434196 -5.60837111 0 0 Z " fill="#070400" transform="translate(268.671875,207.53515625)"/>
<path d="M0 0 C50.82 0 101.64 0 154 0 C154 5.94 154 11.88 154 18 C103.18 18 52.36 18 0 18 C0 12.06 0 6.12 0 0 Z " fill="#080A0C" transform="translate(145,85)"/>
<path d="M0 0 C39.6 0 79.2 0 120 0 C120 5.94 120 11.88 120 18 C80.4 18 40.8 18 0 18 C0 12.06 0 6.12 0 0 Z " fill="#080B0D" transform="translate(145,136)"/>
<path d="M0 0 C33.99 0 67.98 0 103 0 C103 5.61 103 11.22 103 17 C69.01 17 35.02 17 0 17 C0 11.39 0 5.78 0 0 Z " fill="#020304" transform="translate(196,51)"/>
<path d="M0 0 C28.38 0 56.76 0 86 0 C86 5.61 86 11.22 86 17 C57.62 17 29.24 17 0 17 C0 11.39 0 5.78 0 0 Z " fill="#040607" transform="translate(281,137)"/>
<path d="M0 0 C11.22 0 22.44 0 34 0 C34 5.61 34 11.22 34 17 C22.78 17 11.56 17 0 17 C0 11.39 0 5.78 0 0 Z " fill="#010203" transform="translate(145,51)"/>
<path d="M0 0 C9.24 0 18.48 0 28 0 C28 0.33 28 0.66 28 1 C21.4 1 14.8 1 8 1 C8 19.48 8 37.96 8 57 C2.95335625 51.95335625 -0.19808416 46.03751684 -0.56762695 38.82568359 C-0.56685064 37.0164084 -0.53952246 35.2069871 -0.48828125 33.3984375 C-0.48120651 32.435961 -0.47413177 31.4734845 -0.46684265 30.48184204 C-0.43913305 27.44539483 -0.37644116 24.41087791 -0.3125 21.375 C-0.28738676 19.30080812 -0.26457894 17.22658697 -0.24414062 15.15234375 C-0.19366001 10.10024338 -0.09576716 5.05224961 0 0 Z " fill="#78B8E9" transform="translate(367,17)"/>
<path d="M0 0 C5.61 0 11.22 0 17 0 C17 7.59 17 15.18 17 23 C15.35 21.68 13.7 20.36 12 19 C9.06684926 18.30631258 7.08830309 18.65685521 4 19 C2.68 19.99 1.36 20.98 0 22 C0 14.74 0 7.48 0 0 Z " fill="#F94E22" transform="translate(333,17)"/>
<path d="M0 0 C2.9375 1.5 2.9375 1.5 5 4 C5.7975483 9.02455429 5.82360163 10.83726829 2.875 15 C0 17 0 17 -3 17.625 C-7.14182881 16.762119 -8.56226471 15.44150865 -11 12 C-11.89291241 8.07894985 -11.6077527 4.97240433 -9.4375 1.5 C-6.03618625 -0.59311615 -3.92927257 -0.55147685 0 0 Z " fill="#F74D22" transform="translate(259,222)"/>
<path d="M0 0 C3.63 0 7.26 0 11 0 C9.73652837 2.60797351 8.46464776 5.21123407 7.1875 7.8125 C6.83107422 8.55048828 6.47464844 9.28847656 6.10742188 10.04882812 C5.75615234 10.76103516 5.40488281 11.47324219 5.04296875 12.20703125 C4.72352295 12.8616333 4.40407715 13.51623535 4.07495117 14.19067383 C3 16 3 16 0 19 C0 12.73 0 6.46 0 0 Z " fill="#C36F00" transform="translate(418,111)"/>
<path d="M0 0 C3.63 0 7.26 0 11 0 C11 6.27 11 12.54 11 19 C8.51072979 16.51072979 7.42166753 15.20833511 5.95703125 12.20703125 C5.60576172 11.49482422 5.25449219 10.78261719 4.89257812 10.04882812 C4.53615234 9.31083984 4.17972656 8.57285156 3.8125 7.8125 C3.44447266 7.06291016 3.07644531 6.31332031 2.69726562 5.54101562 C1.79271782 3.69667788 0.89562424 1.84868755 0 0 Z " fill="#E28000" transform="translate(83,111)"/>
<path d="M0 0 C2.32472205 2.85306797 3.7508258 5.54074837 5 9 C4.01 9.33 3.02 9.66 2 10 C1.26676204 12.01508358 1.26676204 12.01508358 1 14 C0.67 14 0.34 14 0 14 C-0.33 11.36 -0.66 8.72 -1 6 C-1.99 6.495 -1.99 6.495 -3 7 C-1.125 1.125 -1.125 1.125 0 0 Z " fill="#79B1DC" transform="translate(341,62)"/>
</svg>
