<?xml version="1.0" encoding="UTF-8"?>
<svg version="1.1" xmlns="http://www.w3.org/2000/svg" width="512" height="512">
<path d="M0 0 C0.64743164 0.34111816 1.29486328 0.68223633 1.96191406 1.03369141 C17.98445467 9.50252318 32.49632132 19.93744198 46 32 C46.54108398 32.47937012 47.08216797 32.95874023 47.63964844 33.45263672 C61.07859788 45.40581375 72.40029063 58.49819982 83 73 C83.43666992 73.59055176 83.87333984 74.18110352 84.32324219 74.78955078 C97.72408706 93.10545573 108.0109085 114.45409798 115 136 C115.23428711 136.71687988 115.46857422 137.43375977 115.70996094 138.17236328 C121.15803785 155.42730525 120.59028469 172.56569527 112.9375 189.0625 C103.97903564 205.94648209 90.43050184 216.9419728 72.23286915 222.54486179 C65.22946424 224.4240409 58.38464242 224.4211334 51.18034363 224.38768005 C49.70414508 224.39186005 48.22794975 224.39734121 46.7517603 224.40399987 C42.72181345 224.41838609 38.69207229 224.41423125 34.6621145 224.40683305 C30.30547023 224.40208665 25.94886951 224.41462427 21.59223938 224.42485046 C13.06721902 224.44201548 4.54227244 224.44288318 -3.98276071 224.43763756 C-10.915071 224.43359006 -17.84735955 224.43504631 -24.77966881 224.44038582 C-25.76771562 224.44113424 -26.75576244 224.44188266 -27.77375006 224.44265376 C-29.78121896 224.4441853 -31.78868784 224.44572365 -33.79615673 224.44726873 C-52.60721138 224.46098567 -71.41822441 224.45556193 -90.22927811 224.44408352 C-107.42012267 224.43415377 -124.61085956 224.44708879 -141.80168752 224.47101771 C-159.47324848 224.49542955 -177.14475933 224.50501134 -194.81633681 224.49836498 C-204.72954196 224.49487717 -214.64266434 224.4970758 -224.5558567 224.51461601 C-232.99542276 224.52936414 -241.43484778 224.52993945 -249.87441114 224.5125451 C-254.17595132 224.50405387 -258.47723982 224.50183931 -262.77876663 224.51719666 C-266.72494286 224.53111027 -270.67065339 224.52619589 -274.61680313 224.50695742 C-276.03595901 224.50321739 -277.4551528 224.50606107 -278.87427471 224.51656907 C-298.07647836 224.64851871 -314.14461131 218.35002497 -328 205 C-340.70408517 190.36172885 -346.40992363 173.34228524 -345.20263672 154.12451172 C-341.67044982 117.09187265 -316.62459985 78.88377668 -292.0234375 52.2109375 C-290.2440646 50.26668063 -288.55911974 48.27607298 -286.875 46.25 C-249.87595123 3.94090256 -193.15247822 -21.05279747 -138 -27 C-137.01902344 -27.11214844 -136.03804687 -27.22429687 -135.02734375 -27.33984375 C-88.66429373 -31.79900403 -40.95990475 -22.02560916 0 0 Z " fill="#7FB3FA" transform="translate(369,279)"/>
<path d="M0 0 C1.78992366 1.54059412 3.56072224 3.10366553 5.3125 4.6875 C6.22773438 5.50863281 7.14296875 6.32976563 8.0859375 7.17578125 C27.06426685 25.11747917 38.59290111 50.76530035 39.53515625 76.8359375 C40.15866101 104.49973201 32.29380965 131.01896282 13.3125 151.6875 C12.65556152 152.41598145 12.65556152 152.41598145 11.98535156 153.15917969 C-6.17839677 173.11751148 -31.52600349 184.94745355 -58.47216797 186.6015625 C-85.99632076 187.66928366 -112.29630029 179.5170153 -133.0625 161.125 C-134.61317194 159.65527667 -136.15544776 158.17662258 -137.6875 156.6875 C-138.71423828 155.75357422 -138.71423828 155.75357422 -139.76171875 154.80078125 C-153.47016637 141.95416138 -162.22542701 123.74715333 -166.6875 105.6875 C-166.91179687 104.80964844 -167.13609375 103.93179688 -167.3671875 103.02734375 C-173.11239995 75.67855846 -166.45193358 47.04423901 -151.6875 23.6875 C-148.91812682 19.78288744 -145.92311391 16.21247776 -142.6875 12.6875 C-141.84316406 11.76195312 -140.99882812 10.83640625 -140.12890625 9.8828125 C-103.79348502 -28.19291193 -41.33590276 -32.78768491 0 0 Z " fill="#FEDCCD" transform="translate(320.6875,30.3125)"/>
<path d="M0 0 C0.64743164 0.34111816 1.29486328 0.68223633 1.96191406 1.03369141 C17.98445467 9.50252318 32.49632132 19.93744198 46 32 C46.54108398 32.47937012 47.08216797 32.95874023 47.63964844 33.45263672 C61.07859788 45.40581375 72.40029063 58.49819982 83 73 C83.43666992 73.59055176 83.87333984 74.18110352 84.32324219 74.78955078 C97.72408706 93.10545573 108.0109085 114.45409798 115 136 C115.23428711 136.71687988 115.46857422 137.43375977 115.70996094 138.17236328 C121.15803785 155.42730525 120.59028469 172.56569527 112.9375 189.0625 C103.97903564 205.94648209 90.43050184 216.9419728 72.23286915 222.54486179 C65.22946424 224.4240409 58.38464242 224.4211334 51.18034363 224.38768005 C49.70414508 224.39186005 48.22794975 224.39734121 46.7517603 224.40399987 C42.72181345 224.41838609 38.69207229 224.41423125 34.6621145 224.40683305 C30.30547023 224.40208665 25.94886951 224.41462427 21.59223938 224.42485046 C13.06721902 224.44201548 4.54227244 224.44288318 -3.98276071 224.43763756 C-10.915071 224.43359006 -17.84735955 224.43504631 -24.77966881 224.44038582 C-25.76771562 224.44113424 -26.75576244 224.44188266 -27.77375006 224.44265376 C-29.78121896 224.4441853 -31.78868784 224.44572365 -33.79615673 224.44726873 C-52.60721138 224.46098567 -71.41822441 224.45556193 -90.22927811 224.44408352 C-107.42012267 224.43415377 -124.61085956 224.44708879 -141.80168752 224.47101771 C-159.47324848 224.49542955 -177.14475933 224.50501134 -194.81633681 224.49836498 C-204.72954196 224.49487717 -214.64266434 224.4970758 -224.5558567 224.51461601 C-232.99542276 224.52936414 -241.43484778 224.52993945 -249.87441114 224.5125451 C-254.17595132 224.50405387 -258.47723982 224.50183931 -262.77876663 224.51719666 C-266.72494286 224.53111027 -270.67065339 224.52619589 -274.61680313 224.50695742 C-276.03595901 224.50321739 -277.4551528 224.50606107 -278.87427471 224.51656907 C-298.07647836 224.64851871 -314.14461131 218.35002497 -328 205 C-340.70408517 190.36172885 -346.40992363 173.34228524 -345.20263672 154.12451172 C-341.67044982 117.09187265 -316.62459985 78.88377668 -292.0234375 52.2109375 C-290.2440646 50.26668063 -288.55911974 48.27607298 -286.875 46.25 C-249.87595123 3.94090256 -193.15247822 -21.05279747 -138 -27 C-137.01902344 -27.11214844 -136.03804687 -27.22429687 -135.02734375 -27.33984375 C-88.66429373 -31.79900403 -40.95990475 -22.02560916 0 0 Z M-155 0 C-155.91555664 0.20399414 -156.83111328 0.40798828 -157.77441406 0.61816406 C-197.10908551 9.65290806 -232.93047887 27.81838025 -262 56 C-262.55929199 56.53351074 -263.11858398 57.06702148 -263.69482422 57.61669922 C-284.98150757 77.96383241 -301.04533746 102.3098081 -312.4375 129.4375 C-313.0572168 130.91077759 -313.0572168 130.91077759 -313.68945312 132.41381836 C-317.49545109 141.73772701 -320.58940388 150.84303979 -320.5 161 C-320.49427979 161.77400146 -320.48855957 162.54800293 -320.48266602 163.34545898 C-320.27344284 170.09202574 -318.68456461 175.29125686 -315 181 C-314.48050781 181.80953125 -313.96101563 182.6190625 -313.42578125 183.453125 C-307.10721888 192.3491895 -298.45965513 197.26379974 -288 200 C-283.15803839 200.54317602 -278.34299519 200.54631935 -273.47732544 200.5146637 C-272.03340952 200.51999829 -270.58949916 200.52706921 -269.14559925 200.53571075 C-265.20487826 200.55424439 -261.26453546 200.54806544 -257.32379937 200.53755772 C-253.06327614 200.53053913 -248.80282854 200.5465838 -244.54232788 200.55955505 C-236.20612127 200.58115636 -227.87005139 200.58107803 -219.53382601 200.57292951 C-212.75548686 200.56661997 -205.97718747 200.56777529 -199.19884872 200.57420158 C-198.23271608 200.57510324 -197.26658343 200.57600489 -196.27117404 200.57693387 C-194.30823541 200.57878515 -192.34529679 200.58064771 -190.38235818 200.58252143 C-171.99003294 200.59908662 -153.59778449 200.59039181 -135.20546387 200.57353585 C-118.39544296 200.55884221 -101.58560084 200.57346486 -84.77560295 200.60230602 C-67.49615283 200.6317308 -50.21678513 200.64266317 -32.93731105 200.63312382 C-30.98113499 200.63210131 -29.0249589 200.6311067 -27.06878281 200.6301403 C-26.10641834 200.62966391 -25.14405386 200.62918752 -24.15252683 200.6286967 C-17.38726792 200.62653652 -10.6220874 200.63631558 -3.85684586 200.65091133 C4.39503304 200.66846675 12.64668412 200.66827143 20.89855419 200.64555968 C25.10483413 200.6344462 29.31071317 200.63118878 33.5169754 200.64986038 C37.37499674 200.66676509 41.23227064 200.66018089 45.09024443 200.63564359 C47.13105109 200.62851167 49.17189923 200.64570756 51.21263587 200.66405493 C63.67469108 200.53904034 75.05131838 196.98491111 84 188 C92.42743098 178.02313103 95.18632369 166.7659709 94.20556641 153.94628906 C90.77355914 121.4522725 65.85550995 86.29678873 43.54052734 63.57568359 C41.92029985 61.91848102 40.32946048 60.23586306 38.73828125 58.55078125 C25.86517284 45.09725179 11.08590552 34.31145248 -5 25 C-5.66435059 24.61360352 -6.32870117 24.22720703 -7.01318359 23.82910156 C-17.77562981 17.65176293 -28.92113192 13.02016828 -40.59912109 8.859375 C-42.70666005 8.10499864 -44.80119126 7.32388991 -46.89453125 6.53125 C-57.65183735 2.64106654 -68.72151293 0.73209951 -80 -1 C-81.66071533 -1.27034058 -81.66071533 -1.27034058 -83.35498047 -1.54614258 C-93.64166083 -3.09487557 -103.73935711 -3.3594246 -114.125 -3.3125 C-114.98472412 -3.31034485 -115.84444824 -3.3081897 -116.73022461 -3.30596924 C-129.68745669 -3.25389227 -142.31035623 -2.85097723 -155 0 Z " fill="#000000" transform="translate(369,279)"/>
<path d="M0 0 C1.78992366 1.54059412 3.56072224 3.10366553 5.3125 4.6875 C6.22773438 5.50863281 7.14296875 6.32976563 8.0859375 7.17578125 C27.06426685 25.11747917 38.59290111 50.76530035 39.53515625 76.8359375 C40.15866101 104.49973201 32.29380965 131.01896282 13.3125 151.6875 C12.65556152 152.41598145 12.65556152 152.41598145 11.98535156 153.15917969 C-6.17839677 173.11751148 -31.52600349 184.94745355 -58.47216797 186.6015625 C-85.99632076 187.66928366 -112.29630029 179.5170153 -133.0625 161.125 C-134.61317194 159.65527667 -136.15544776 158.17662258 -137.6875 156.6875 C-138.71423828 155.75357422 -138.71423828 155.75357422 -139.76171875 154.80078125 C-153.47016637 141.95416138 -162.22542701 123.74715333 -166.6875 105.6875 C-166.91179687 104.80964844 -167.13609375 103.93179688 -167.3671875 103.02734375 C-173.11239995 75.67855846 -166.45193358 47.04423901 -151.6875 23.6875 C-148.91812682 19.78288744 -145.92311391 16.21247776 -142.6875 12.6875 C-141.84316406 11.76195312 -140.99882812 10.83640625 -140.12890625 9.8828125 C-103.79348502 -28.19291193 -41.33590276 -32.78768491 0 0 Z M-126.4140625 31.19091797 C-138.43466619 45.31789278 -144.24845355 62.82923634 -144.0625 81.125 C-144.07410156 82.26259766 -144.08570313 83.40019531 -144.09765625 84.57226562 C-144.02815418 104.87845282 -135.35371436 123.83291918 -121.6875 138.6875 C-108.83308986 150.93076544 -90.85759204 161.28131314 -72.6875 161.6875 C-72.05473145 161.71183105 -71.42196289 161.73616211 -70.77001953 161.76123047 C-60.66199347 162.12701878 -51.42689255 161.74809791 -41.6875 158.6875 C-40.63304687 158.35878906 -39.57859375 158.03007812 -38.4921875 157.69140625 C-29.67001384 154.61958916 -22.27119664 150.03165125 -14.6875 144.6875 C-14.01074219 144.21828125 -13.33398438 143.7490625 -12.63671875 143.265625 C1.87601273 132.04336963 11.6393956 112.55346489 14.3125 94.6875 C15.30205681 79.77901246 15.51180177 65.47716638 9.3125 51.6875 C9.03374023 51.05457031 8.75498047 50.42164063 8.46777344 49.76953125 C4.00132471 39.85727959 -1.92764775 32.23612418 -9.6875 24.6875 C-10.46351563 23.92566406 -11.23953125 23.16382812 -12.0390625 22.37890625 C-20.75724025 14.23064471 -30.44516916 9.48886366 -41.6875 5.6875 C-43.05261719 5.20410156 -43.05261719 5.20410156 -44.4453125 4.7109375 C-74.47287572 -4.44276411 -106.20028893 8.70023982 -126.4140625 31.19091797 Z " fill="#010100" transform="translate(320.6875,30.3125)"/>
<path d="M0 0 C29.39575586 7.07925313 56.28871093 20.34577964 80 39 C80.83015625 39.62519531 81.6603125 40.25039063 82.515625 40.89453125 C98.15015262 53.05205503 111.64166571 67.83363342 123 84 C123.45165527 84.63357422 123.90331055 85.26714844 124.36865234 85.91992188 C140.24558833 108.31659782 156.20765549 136.90758386 154 165 C151.78725965 175.18363456 146.2690017 184.30731343 137.69921875 190.32055664 C127.57064352 196.62251657 117.88782875 197.68828319 106.1875 197.3125 C104.80147344 197.28733494 103.41540182 197.26453652 102.02929688 197.24414062 C98.68500748 197.18587774 95.34312171 197.10412214 92 197 C94.5416824 194.41124941 96.98374923 192.01236471 99.875 189.8125 C108.17544447 182.92035716 113.95574624 172.15733298 115.31884766 161.50927734 C118.58160143 123.29727895 93.0758662 84.83686499 69.54614258 56.56396484 C60.0308571 45.33101141 49.73136438 34.92348143 38 26 C37.3596582 25.51031738 36.71931641 25.02063477 36.05957031 24.51611328 C24.64140925 15.84305745 12.83159481 8.41579741 0 2 C0 1.34 0 0.68 0 0 Z " fill="#60A1F7" transform="translate(309,282)"/>
<path d="M0 0 C11.46223042 1.41430836 22.88194672 13.40535718 30 22 C40.88682036 36.57259931 46.55902144 52.33183524 46.375 70.4375 C46.38660156 71.57509766 46.39820313 72.71269531 46.41015625 73.88476562 C46.33818389 94.91269053 37.1208354 113.7311292 23 129 C10.82492348 140.55705233 -6.10347863 149.60336695 -23 151 C-25.31640625 150.54296875 -25.31640625 150.54296875 -27 150 C-25.65808594 149.38125 -25.65808594 149.38125 -24.2890625 148.75 C-16.34142012 144.99008594 -9.65959096 140.81573868 -3 135 C-1.52660156 133.824375 -1.52660156 133.824375 -0.0234375 132.625 C14.90679836 120.17683312 24.45512768 98.85815644 27 80 C29.00886126 53.08125908 24.68698319 28.95877033 6.796875 8.02734375 C6.20390625 7.35832031 5.6109375 6.68929687 5 6 C3.99661465 4.79447634 2.99610086 3.58654964 2 2.375 C1.34 1.59125 0.68 0.8075 0 0 Z " fill="#FCB89A" transform="translate(289,41)"/>
</svg>
