<?xml version="1.0" encoding="UTF-8"?>
<svg version="1.1" xmlns="http://www.w3.org/2000/svg" width="512" height="512">
<path d="M0 0 C1.39992369 -0.00373921 2.79984529 -0.00834181 4.1997636 -0.01373065 C8.03733995 -0.02594288 11.874829 -0.02570228 15.71242034 -0.02334189 C19.85504677 -0.02293327 23.99764537 -0.03397727 28.14025879 -0.04345703 C36.25338779 -0.06005873 44.36648772 -0.06556622 52.47963228 -0.06668179 C59.07643032 -0.06763274 65.67321879 -0.07174543 72.27001381 -0.07808304 C90.98263333 -0.09569392 109.69522993 -0.10492226 128.4078578 -0.10342209 C129.92055979 -0.10330222 129.92055979 -0.10330222 131.46382141 -0.10317993 C132.4735242 -0.10309817 133.48322698 -0.10301641 134.52352683 -0.10293217 C150.88179307 -0.10211952 167.23996718 -0.1212522 183.59820678 -0.14945666 C200.40403732 -0.17820363 217.20982296 -0.19199593 234.0156787 -0.19026911 C243.44710386 -0.18960579 252.87843246 -0.19507256 262.30983543 -0.21662521 C270.34111912 -0.23486096 278.37226247 -0.23916479 286.40355792 -0.22560637 C290.49825524 -0.21908851 294.59268353 -0.21891646 298.68735504 -0.23631287 C302.4423759 -0.25210158 306.19691572 -0.24912151 309.95192526 -0.2317446 C311.93998235 -0.22724889 313.92805471 -0.24228647 315.916053 -0.25822389 C330.55518328 -0.14638623 341.411528 4.68066203 352.08125305 14.57992554 C362.06666955 25.13055429 364.79212002 36.94289788 364.71893311 51.08209229 C364.72701141 52.96880966 364.72701141 52.96880966 364.73525292 54.89364254 C364.74962925 58.35964194 364.74548752 61.82540196 364.7380861 65.29141402 C364.73333722 69.03930972 364.74587944 72.78715491 364.75610352 76.53503418 C364.77326342 83.86771369 364.77413736 91.2003074 364.76889061 98.53300177 C364.76484235 104.4956746 364.76630026 110.45832217 364.77163887 116.4209938 C364.77238729 117.27098549 364.77313571 118.12097718 364.77390682 118.99672619 C364.77543836 120.72371808 364.77697671 122.45070997 364.77852178 124.17770185 C364.79223673 140.35815198 364.78681627 156.53855372 364.77533657 172.71900274 C364.7654058 187.50572089 364.77834394 202.29231389 364.80227076 217.07901274 C364.82668222 232.28032709 364.83626457 247.4815832 364.82961804 262.68291676 C364.82613029 271.20997261 364.82832844 279.73693225 364.84586906 288.26397324 C364.86061668 295.52298342 364.86119317 302.78182962 364.84379815 310.04083668 C364.83530665 313.74063232 364.83309283 317.44013535 364.84844971 321.13991547 C364.86492788 325.15977614 364.85010218 329.17893578 364.8324585 333.1987915 C364.8420635 334.35542828 364.85166851 335.51206506 364.86156458 336.70375144 C364.7333654 350.94986437 359.5929091 361.8050205 349.89375305 372.07992554 C335.93123454 385.23929033 320.07087644 384.82699192 301.97187805 384.65805054 C299.61248761 384.65057939 297.25309091 384.64489059 294.89369202 384.64089966 C288.7188519 384.62571225 282.54439509 384.58649014 276.3697052 384.54208374 C270.05485721 384.50098178 263.73994658 384.48285688 257.42500305 384.46273804 C245.06022521 384.41998889 232.69583115 384.34969574 220.33125305 384.26742554 C220.33125305 394.82742554 220.33125305 405.38742554 220.33125305 416.26742554 C227.23466614 416.23600464 227.23466614 416.23600464 234.27754211 416.20394897 C249.5005995 416.13760545 264.72366266 416.09325657 279.94682693 416.06017685 C289.17465355 416.03959006 298.40234277 416.0115441 307.63008118 415.96566772 C315.67709377 415.92568064 323.72400682 415.89996452 331.77111602 415.89107156 C336.02830954 415.88587682 340.28521837 415.87374922 344.54232025 415.84450531 C348.55769797 415.81714807 352.57267651 415.80902105 356.58813858 415.81499481 C358.0537725 415.81390357 359.5194212 415.80607127 360.98497391 415.79060364 C376.90232197 415.63099553 388.39194969 419.73470754 400.08125305 430.57992554 C410.07416343 441.13847235 412.84565086 452.68570477 412.75093079 466.79769897 C412.35648377 480.35855909 407.12835765 490.29714807 397.89375305 500.07992554 C385.9711594 511.31670628 372.13030254 512.86349933 356.41670227 512.77536011 C354.61647984 512.77997537 352.81626119 512.78633247 351.01605034 512.79426908 C346.09514003 512.81089962 341.17454177 512.80274466 336.25363064 512.79032421 C330.93656789 512.78125028 325.6195577 512.79525506 320.30250549 512.8062439 C309.89664714 512.8240087 299.49090436 512.82019819 289.08504152 512.80859333 C280.6262292 512.79955127 272.1674492 512.79833836 263.70863342 512.8026886 C262.50366648 512.80330153 261.29869953 512.80391446 260.05721843 512.80454597 C257.60917361 512.8058249 255.16112879 512.80712175 252.71308398 512.80843633 C229.77027389 512.81983616 206.82752779 512.80673778 183.88472819 512.78523487 C164.20866799 512.76736445 144.53270218 512.77046872 124.85664368 512.78890991 C101.99462645 512.81032715 79.13266527 512.81873758 56.27063942 512.80646086 C53.83171718 512.80518669 51.39279494 512.80392921 48.95387268 512.8026886 C47.753949 512.8020715 46.55402532 512.80145439 45.31774032 512.80081859 C36.87136415 512.79736826 28.4250236 512.80318722 19.97865295 512.81260681 C9.68208409 512.82383762 -0.61436283 512.8207639 -10.91091776 512.79948384 C-16.16204697 512.78898809 -21.41297304 512.78482653 -26.66410065 512.79808044 C-31.47549127 512.81004059 -36.28649132 512.80338213 -41.09784675 512.78217024 C-42.83389075 512.77771951 -44.56996806 512.77993586 -46.30599046 512.78967339 C-62.90625008 512.87560902 -75.17638767 509.44528839 -87.48124695 497.82992554 C-97.16378402 487.5564355 -100.32588279 475.64883312 -100.20927429 461.77890015 C-99.67749951 447.33780612 -93.70702695 436.83880057 -83.35624695 427.01742554 C-75.24452106 420.08031072 -65.72503473 416.00937446 -54.98052979 416.0269165 C-53.67512741 416.02416718 -52.36972504 416.02141785 -51.02476501 416.01858521 C-49.59562589 416.02566171 -48.16648772 416.03293131 -46.73735046 416.04037476 C-45.21909594 416.04093944 -43.70084087 416.0406212 -42.18258667 416.03948975 C-38.0756459 416.03891746 -33.96882268 416.05065166 -29.86190915 416.06463766 C-25.56444986 416.07716571 -21.26698768 416.07831715 -16.96951294 416.08068848 C-8.83821407 416.08689715 -0.70696916 416.10329968 7.42430598 416.12338746 C16.68426035 416.14576552 25.94421734 416.15674468 35.20419204 416.16677833 C54.2465825 416.18766646 73.288899 416.22433504 92.33125305 416.26742554 C92.33125305 405.70742554 92.33125305 395.14742554 92.33125305 384.26742554 C87.60893372 384.29884644 87.60893372 384.29884644 82.79121399 384.3309021 C72.35784712 384.39735514 61.92447059 384.44143396 51.49094772 384.47467422 C45.16872152 384.49549667 38.84671324 384.52371682 32.52461243 384.56918335 C26.41674423 384.61283137 20.30908489 384.63660278 14.20107269 384.64693451 C11.8776089 384.65429189 9.55415578 384.6686587 7.23078156 384.69034576 C-11.76066185 384.86047318 -25.09794871 383.4072631 -39.48124695 369.82992554 C-49.25337001 359.46138182 -52.28330479 347.21332405 -52.18341064 333.22570801 C-52.19382894 331.33854405 -52.19382894 331.33854405 -52.2044577 329.41325557 C-52.22293592 325.95557311 -52.21683204 322.49832325 -52.20630467 319.0406239 C-52.19927 315.29816385 -52.21534278 311.55578892 -52.228302 307.81335449 C-52.2498768 300.49496222 -52.24983184 293.17672585 -52.24167646 285.85831226 C-52.23536076 279.90618622 -52.23652784 273.95410542 -52.24294853 268.00197983 C-52.24385019 267.15283657 -52.24475184 266.3036933 -52.24568082 265.42881843 C-52.24753214 263.70344106 -52.2493947 261.97806371 -52.25126838 260.25268637 C-52.26782435 244.09504325 -52.25914666 227.9374876 -52.2422828 211.77984975 C-52.22759026 197.02044751 -52.24221185 182.26124893 -52.27105296 167.50187291 C-52.30049553 152.32081664 -52.31140494 137.13985419 -52.30187076 121.95877063 C-52.30084829 120.23934803 -52.29985367 118.51992541 -52.29888725 116.80050278 C-52.29841086 115.95466664 -52.29793447 115.1088305 -52.29744365 114.23736296 C-52.2952858 108.29860801 -52.30505005 102.35994255 -52.31965828 96.42120743 C-52.33723578 89.17471208 -52.3369871 81.92847616 -52.31430662 74.68199076 C-52.30321285 70.98997833 -52.29988995 67.29842203 -52.31860733 63.60643005 C-52.41279364 43.5374159 -52.24934369 28.15258049 -37.5710907 13.11898804 C-26.3512699 2.4730205 -15.01334215 -0.03592497 0 0 Z " fill="#5359F1" transform="translate(99.66874694824219,-0.267425537109375)"/>
<path d="M0 0 C0.83972925 -0.00453111 1.67945851 -0.00906223 2.5446341 -0.01373065 C5.33321921 -0.02629997 8.12160715 -0.02475914 10.91021729 -0.02310181 C12.91998544 -0.02909173 14.9297513 -0.03589834 16.93951416 -0.04345703 C22.38184166 -0.06107713 27.8241062 -0.06581073 33.26645947 -0.0670886 C36.67158596 -0.06851304 40.0766966 -0.07278819 43.48181915 -0.07808304 C55.37527986 -0.09657024 67.26869581 -0.10475531 79.16217041 -0.10317993 C90.22584223 -0.10197895 101.28931884 -0.1230762 112.35294127 -0.15466726 C121.87087852 -0.18087044 131.38875216 -0.19154553 140.90672517 -0.19026911 C146.58284264 -0.18976066 152.25878652 -0.19537909 157.93486786 -0.21662521 C163.2767453 -0.23607566 168.61828477 -0.23608558 173.96017456 -0.22159195 C175.91237129 -0.21951118 177.86458956 -0.22416072 179.81674957 -0.23631287 C197.18526425 -0.337365 211.58899791 2.09958682 224.87213135 14.32992554 C237.07578826 27.16107545 238.48699325 41.32433325 238.47515869 58.05551147 C238.48115086 59.75001316 238.48795798 61.44451213 238.49551392 63.13900757 C238.51311152 67.7218607 238.51786667 72.30463904 238.51914549 76.8875227 C238.52057124 79.75661932 238.52484887 82.62569718 238.53013992 85.49478912 C238.5486199 95.52090147 238.55681313 105.54696079 238.55523682 115.5730896 C238.55403613 124.89176635 238.57512947 134.21021123 238.60672414 143.52882934 C238.63294923 151.55208852 238.6436015 159.57527225 238.642326 167.59857392 C238.64181818 172.38044289 238.64740131 177.16210563 238.6686821 181.94393158 C238.68816977 186.44535466 238.68811765 190.946377 238.67364883 195.44781494 C238.6715726 197.09040163 238.67619011 198.7330141 238.68836975 200.37555695 C238.80169756 216.73130704 235.42382945 230.58972243 224.18463135 242.95492554 C214.46712518 252.22848473 201.72536542 256.59309083 188.47605896 256.52812195 C187.635773 256.5319475 186.79548704 256.53577304 185.92973787 256.53971452 C183.13337118 256.54997662 180.33721243 256.54606533 177.54083252 256.54208374 C175.52796744 256.54643401 173.51510402 256.55161821 171.50224304 256.55757141 C166.04758797 256.57093969 160.59300229 256.57154242 155.13833404 256.56900811 C150.57838648 256.56793679 146.01845287 256.57282597 141.45850831 256.57761353 C130.69655104 256.58870152 119.93462867 256.5891503 109.17266846 256.58309937 C98.08572017 256.57706134 86.99889885 256.58936792 75.91197222 256.61066943 C66.37965023 256.62830784 56.84736857 256.6342832 47.31503087 256.63103169 C41.62781878 256.62922205 35.94069724 256.63182311 30.25349998 256.64574623 C24.90265531 256.65835612 19.55200793 256.65635052 14.20116615 256.64333534 C12.24329689 256.64097679 10.2854136 256.64367825 8.32756042 256.65195847 C-9.67162232 256.72256038 -22.9771547 254.37646841 -36.5223999 241.65023804 C-42.83162954 235.09379838 -46.16240083 227.90657715 -48.81536865 219.26742554 C-48.99318249 218.70090302 -49.17099632 218.13438051 -49.35419846 217.55069065 C-49.98497173 214.42771646 -49.94831867 211.44110312 -49.95581055 208.25471497 C-49.95878167 207.54852038 -49.96175279 206.84232579 -49.96481395 206.11473137 C-49.97348577 203.74821832 -49.97500793 201.38175595 -49.97650146 199.01522827 C-49.98113086 197.31822095 -49.98615568 195.62121467 -49.99154663 193.92420959 C-50.00466438 189.3122851 -50.01111483 184.70037517 -50.01555729 180.08843493 C-50.01849013 177.20447835 -50.02259543 174.32052572 -50.02706146 171.43657112 C-50.0407372 162.40610314 -50.05040244 153.37564424 -50.05426335 144.34516662 C-50.0587389 133.93507618 -50.07626309 123.52511738 -50.10526395 113.11506695 C-50.1269202 105.06052587 -50.1369698 97.00602171 -50.13830447 88.95145184 C-50.13935004 84.14501162 -50.14520442 79.33869514 -50.16312408 74.53228569 C-50.17967214 70.00555427 -50.18172775 65.47903867 -50.17298508 60.95228767 C-50.17221819 59.29757736 -50.1765111 57.64285512 -50.18644333 55.98817444 C-50.27774819 39.81885604 -47.63620126 26.23233277 -36.25286865 14.01742554 C-25.83951484 4.16865115 -14.09054125 -0.05693934 0 0 Z " fill="#282FD7" transform="translate(161.81536865234375,63.732574462890625)"/>
<path d="M0 0 C9.43813302 8.69008538 15.14290672 19.89159652 15.82276917 32.73165894 C15.93481877 37.20228669 15.9340821 41.67276662 15.9296875 46.14453125 C15.93358079 47.79881395 15.93791676 49.45309566 15.94267273 51.1073761 C15.95010044 54.55932878 15.94986732 58.0111791 15.94458008 61.46313477 C15.93876772 65.87807742 15.95577548 70.29260295 15.97892475 74.70747662 C15.9936745 78.11762422 15.99453249 81.52767138 15.99141502 84.93784523 C15.99192688 86.56568037 15.99713904 88.19352134 16.00722694 89.8213253 C16.01960858 92.09689764 16.01279178 94.37165681 16.0012207 96.6472168 C16.00185013 97.93911423 16.00247955 99.23101166 16.00312805 100.5620575 C15.52805159 105.01580491 14.16157194 108.38996808 11.12890625 111.71484375 C5.7216976 115.92514424 1.34996948 116.89893673 -5.37109375 116.0703125 C-10.67461655 113.36851787 -14.46941673 109.77534355 -16.37109375 104.0703125 C-16.45216061 102.51609521 -16.47866273 100.95864223 -16.46875 99.40234375 C-16.46625244 98.59772705 -16.46375488 97.79311035 -16.46118164 96.96411133 C-16.45207764 95.94728271 -16.44297363 94.9304541 -16.43359375 93.8828125 C-16.41296875 90.6446875 -16.39234375 87.4065625 -16.37109375 84.0703125 C-26.93109375 84.0703125 -37.49109375 84.0703125 -48.37109375 84.0703125 C-48.25303713 90.38248204 -48.25303713 90.38248204 -48.10083008 96.69384766 C-48.04434946 102.70265656 -48.65477077 107.09226048 -52.87109375 111.71484375 C-58.2783024 115.92514424 -62.65003052 116.89893673 -69.37109375 116.0703125 C-74.67461655 113.36851787 -78.46941673 109.77534355 -80.37109375 104.0703125 C-80.4763352 101.72179528 -80.51980783 99.37037252 -80.53222656 97.01953125 C-80.53719147 96.3052446 -80.54215637 95.59095795 -80.54727173 94.85502625 C-80.56188617 92.4892785 -80.56869709 90.123598 -80.57421875 87.7578125 C-80.57997446 86.10693359 -80.58573214 84.45605468 -80.5914917 82.80517578 C-80.60200217 79.33837575 -80.60784332 75.87159888 -80.61132812 72.40478516 C-80.61678763 67.98794636 -80.64076044 63.57141979 -80.66930008 59.15467834 C-80.68804417 55.7400426 -80.69313846 52.32547994 -80.694664 48.91079712 C-80.69766881 47.28429473 -80.70562287 45.65779294 -80.71884918 44.03134155 C-80.84161315 27.76245602 -78.26764257 14.11646716 -66.80859375 1.8203125 C-47.62337089 -16.32474768 -20.32664272 -16.54260544 0 0 Z " fill="#FEFEFE" transform="translate(256.37109375,139.9296875)"/>
<path d="M0 0 C42.24 0 84.48 0 128 0 C128 10.56 128 21.12 128 32 C85.76 32 43.52 32 0 32 C0 21.44 0 10.88 0 0 Z " fill="#282FD7" transform="translate(192,384)"/>
<path d="M0 0 C5.67476113 1.96434039 9.31400331 5.62800662 12 11 C12.0979326 12.39279304 12.13501041 13.79011909 12.14044189 15.18634033 C12.14615204 16.06390488 12.15186218 16.94146942 12.15774536 17.84562683 C12.15886322 18.81083755 12.15998108 19.77604828 12.16113281 20.77050781 C12.16858017 22.29267662 12.16858017 22.29267662 12.17617798 23.84559631 C12.19082556 27.21477936 12.19760646 30.5839153 12.203125 33.953125 C12.20887498 36.29001874 12.21463273 38.62691245 12.22039795 40.96380615 C12.23091579 45.86991598 12.23675311 50.77600938 12.24023438 55.68212891 C12.24571611 61.96815961 12.26973419 68.25397337 12.29820633 74.53993607 C12.31683383 79.3697981 12.32203841 84.19960794 12.32357025 89.02950287 C12.32659781 91.34674005 12.33462977 93.6639763 12.34775543 95.98117828 C12.36481541 99.22492433 12.36293538 102.46814132 12.35644531 105.71191406 C12.37026749 107.14758476 12.37026749 107.14758476 12.3843689 108.61225891 C12.34710103 114.56025714 11.67915285 119.06269961 7.5 123.64453125 C2.09279135 127.85483174 -2.27893677 128.82862423 -9 128 C-14.3035228 125.29820537 -18.09832298 121.70503105 -20 116 C-20.0965537 114.56687928 -20.13913407 113.12975226 -20.14717102 111.69340515 C-20.15432632 110.81446594 -20.16148163 109.93552673 -20.16885376 109.029953 C-20.17154266 108.06833755 -20.17423157 107.10672211 -20.17700195 106.1159668 C-20.18357315 105.10104156 -20.19014435 104.08611633 -20.19691467 103.04043579 C-20.21664996 99.67669605 -20.22831014 96.31300094 -20.23828125 92.94921875 C-20.24235678 91.80103983 -20.2464323 90.65286091 -20.25063133 89.46988869 C-20.27149193 83.3940715 -20.28579435 77.3182769 -20.29516602 71.24243164 C-20.3062371 64.96421203 -20.34064548 58.6863462 -20.38033772 52.40825176 C-20.40646848 47.58268062 -20.41485467 42.75719428 -20.41844749 37.93155861 C-20.42332171 35.61710022 -20.43495931 33.30264583 -20.45348549 30.98825645 C-20.47780335 27.74929021 -20.47692512 24.51124617 -20.4699707 21.2722168 C-20.48278076 20.31667404 -20.49559082 19.36113129 -20.50878906 18.37663269 C-20.46465295 12.73617193 -19.80111541 9.4560857 -16 5 C-10.58420856 0.22894564 -7.09115125 -0.64682799 0 0 Z " fill="#FDFEFE" transform="translate(324,128)"/>
<path d="M0 0 C5.67476113 1.96434039 9.31400331 5.62800662 12 11 C12.08400529 12.59447464 12.10727467 14.19240545 12.09765625 15.7890625 C12.09515869 16.63678223 12.09266113 17.48450195 12.09008789 18.35791016 C12.08098389 19.4360498 12.07187988 20.51418945 12.0625 21.625 C12.041875 25.04875 12.02125 28.4725 12 32 C1.44 32 -9.12 32 -20 32 C-20.12375 26.988125 -20.12375 26.988125 -20.25 21.875 C-20.30462402 20.31241455 -20.30462402 20.31241455 -20.36035156 18.71826172 C-20.42915293 12.94893426 -19.94667903 9.52791721 -16 5 C-10.58420856 0.22894564 -7.09115125 -0.64682799 0 0 Z " fill="#2A31D7" transform="translate(228,160)"/>
</svg>
