<?xml version="1.0" encoding="UTF-8"?>
<svg version="1.1" xmlns="http://www.w3.org/2000/svg" width="512" height="512">
<path d="M0 0 C9.82628693 7.89475471 15.47345195 17.63593475 17.50390625 30.01171875 C17.73895596 33.54831997 17.70499489 37.06253394 17.64819336 40.60522461 C17.64056976 41.6243544 17.63294617 42.64348419 17.62509155 43.6934967 C17.60863389 45.89183094 17.58826096 48.09013872 17.56434441 50.28840446 C17.50753604 56.1901915 17.50841063 62.09212286 17.49804688 67.99414062 C17.48051806 75.48447881 17.44637516 82.97376945 17.35668945 90.46362305 C17.28546483 96.53695649 17.26806798 102.60840185 17.28595161 108.6821003 C17.28283834 110.98775919 17.26006035 113.2934824 17.21681023 115.59873772 C16.4063469 128.23398821 16.4063469 128.23398821 20.85037231 139.55618286 C23.61366489 142.1048914 26.30983129 144.04566096 29.50390625 146.01171875 C31.27126227 147.42782572 33.02383057 148.86280013 34.75390625 150.32421875 C35.65882813 151.05511719 36.56375 151.78601563 37.49609375 152.5390625 C41.0109175 155.4285215 44.4480434 158.39850568 47.87890625 161.38671875 C52.58122301 165.48188291 57.29905993 169.55487784 62.06640625 173.57421875 C68.35556712 178.87705417 74.61786608 184.2114182 80.83984375 189.59301758 C81.98816319 190.57202056 83.15067758 191.53453135 84.32421875 192.4831543 C92.95386375 199.55121156 99.08932769 209.87191259 100.50390625 221.01171875 C101.90937153 236.77562225 99.55369969 249.96635923 89.51025391 262.59106445 C82.10181253 271.32758789 71.9135548 277.34514087 60.50390625 279.01171875 C57.44009335 279.14967245 54.38284681 279.15140242 51.31640625 279.13671875 C50.49720703 279.14058594 49.67800781 279.14445312 48.83398438 279.1484375 C42.75733833 279.13843479 42.75733833 279.13843479 40.50390625 278.01171875 C40.50759342 278.87402635 40.51128059 279.73633394 40.5150795 280.62477207 C40.60362848 301.65990266 40.66971188 322.69500087 40.71115494 343.73027897 C40.73173202 353.90301798 40.75975925 364.07563216 40.80566406 374.24829102 C40.84568104 383.1204579 40.87137429 391.99253432 40.88026023 400.86478895 C40.88544993 405.55746032 40.89754508 410.249873 40.92682648 414.94246101 C40.95423112 419.37068852 40.96230136 423.79855388 40.95633698 428.22685814 C40.95742613 429.84119773 40.96522953 431.45555103 40.98072815 433.06981659 C41.14983515 451.61251638 37.14305888 467.63409252 23.81640625 481.32421875 C8.81597384 495.97225259 -8.88390142 499.17564675 -29.0824585 499.14543152 C-30.77104866 499.14882985 -30.77104866 499.14882985 -32.49375176 499.15229684 C-36.24421751 499.15859784 -39.99464675 499.15780999 -43.74511719 499.15698242 C-46.44305555 499.15997634 -49.14099112 499.16335142 -51.83892822 499.16716003 C-58.3942045 499.17543964 -64.94947178 499.17821365 -71.50475284 499.17877241 C-76.83715678 499.17924883 -82.16955776 499.18130987 -87.50196075 499.18447304 C-102.64511933 499.19327212 -117.78827083 499.19789356 -132.93143198 499.19714256 C-133.7465106 499.19710261 -134.56158922 499.19706265 -135.40136719 499.19702148 C-136.2174495 499.1969806 -137.03353182 499.19693972 -137.8743439 499.1968976 C-151.09477562 499.1964913 -164.31517883 499.20605876 -177.5356023 499.22015985 C-191.13455774 499.23454939 -204.73349931 499.24142862 -218.33246255 499.24056607 C-225.95747091 499.240235 -233.58244939 499.24294256 -241.20745087 499.25374413 C-247.70000344 499.2628831 -254.19251257 499.26499662 -260.68506882 499.2582347 C-263.99215713 499.25498659 -267.2990948 499.25595359 -270.60618591 499.26358795 C-292.66910545 499.31120227 -312.36493519 499.2804298 -330.49609375 485.01171875 C-331.32109375 484.39425781 -332.14609375 483.77679688 -332.99609375 483.140625 C-343.18511049 474.46404043 -348.91240816 461.92928575 -351.49609375 449.01171875 C-351.6630973 446.53142254 -351.74025853 444.04377084 -351.73660278 441.55786133 C-351.73831163 440.85273848 -351.74002048 440.14761562 -351.74178112 439.42112541 C-351.7450483 437.08272677 -351.73411866 434.74462174 -351.72314453 432.40625 C-351.72257982 430.72036241 -351.72289815 429.03447434 -351.72402954 427.34858704 C-351.7246017 422.78924534 -351.71286957 418.23000959 -351.69888163 413.67069244 C-351.68635143 408.899445 -351.68520196 404.12819495 -351.68283081 399.35693359 C-351.67662276 390.32964662 -351.66022109 381.30240827 -351.64013183 372.27514267 C-351.6177518 361.99462753 -351.60677411 351.71411003 -351.59674096 341.43357658 C-351.57585426 320.2929302 -351.54069143 299.15232754 -351.49609375 278.01171875 C-352.15609375 278.34171875 -352.81609375 278.67171875 -353.49609375 279.01171875 C-369.27046909 280.03428718 -382.70533091 278.08444449 -395.49609375 268.01171875 C-404.93941199 259.4865009 -411.13719775 247.53173839 -411.83203125 234.75 C-412.1567724 219.06939082 -408.57083975 207.17744977 -398.49609375 195.01171875 C-395.34661547 191.76064439 -392.00991574 188.86105095 -388.49609375 186.01171875 C-387.65433594 185.32078125 -386.81257813 184.62984375 -385.9453125 183.91796875 C-384.14692721 182.44728922 -382.34466999 180.98133477 -380.5390625 179.51953125 C-376.35579472 176.07196012 -372.27470865 172.51222862 -368.18701172 168.95239258 C-363.60409734 164.96394634 -358.98517802 161.02197643 -354.34033203 157.10595703 C-350.37509352 153.76100636 -346.43144246 150.39176953 -342.49609375 147.01171875 C-337.47975652 142.70399365 -332.44287222 138.4217726 -327.390625 134.15625 C-323.41025774 130.7926951 -319.44965751 127.40672162 -315.49609375 124.01171875 C-310.48127788 119.70539784 -305.44675485 115.4235758 -300.39501953 111.16064453 C-296.36746903 107.75854318 -292.36709359 104.32578292 -288.37109375 100.88671875 C-284.20925195 97.30545273 -280.01340206 93.78013745 -275.74609375 90.32421875 C-271.3645758 86.76903971 -267.17898694 83.04402338 -263.0078125 79.24609375 C-260.49458143 77.01037342 -257.92297896 74.87794193 -255.30859375 72.76171875 C-250.16914947 68.60087106 -245.17283223 64.29437386 -240.18701172 59.95239258 C-235.60409734 55.96394634 -230.98517802 52.02197643 -226.34033203 48.10595703 C-222.37509352 44.76100636 -218.43144246 41.39176953 -214.49609375 38.01171875 C-209.48087716 33.70495599 -204.45611929 29.41004842 -199.38842773 25.16503906 C-196.56478977 22.79343929 -193.78913662 20.38515984 -191.0625 17.90234375 C-179.62001896 7.58158058 -168.50459531 0.60632093 -152.6171875 0.80078125 C-140.22022226 1.63862371 -130.87961132 8.41866712 -122.0625 16.65625 C-119.45101744 19.05309015 -116.75570421 21.28772888 -113.99609375 23.51171875 C-110.40131725 26.41985255 -106.91348747 29.39713207 -103.49609375 32.51171875 C-99.30901801 36.3241268 -94.98115308 39.90979311 -90.578125 43.46875 C-86.15587961 47.11752281 -81.84321901 50.88924024 -77.53442383 54.67089844 C-76.61826294 55.47188965 -76.61826294 55.47188965 -75.68359375 56.2890625 C-75.14089844 56.76593506 -74.59820312 57.24280762 -74.0390625 57.73413086 C-72.31103976 59.20976476 -72.31103976 59.20976476 -69.49609375 61.01171875 C-69.51704102 60.07489258 -69.53798828 59.13806641 -69.55957031 58.17285156 C-69.62845011 54.63905662 -69.67823028 51.10599262 -69.71582031 47.57177734 C-69.73572257 46.0531069 -69.76285479 44.53451087 -69.79785156 43.01611328 C-70.12663078 28.36609816 -67.89225254 15.90745705 -57.4609375 4.85546875 C-41.56397875 -10.1723441 -18.2387946 -12.66361721 0 0 Z " fill="#00EED0" transform="translate(411.49609375,10.98828125)"/>
<path d="M0 0 C9.82628693 7.89475471 15.47345195 17.63593475 17.50390625 30.01171875 C17.73895596 33.54831997 17.70499489 37.06253394 17.64819336 40.60522461 C17.64056976 41.6243544 17.63294617 42.64348419 17.62509155 43.6934967 C17.60863389 45.89183094 17.58826096 48.09013872 17.56434441 50.28840446 C17.50753604 56.1901915 17.50841063 62.09212286 17.49804688 67.99414062 C17.48051806 75.48447881 17.44637516 82.97376945 17.35668945 90.46362305 C17.28546483 96.53695649 17.26806798 102.60840185 17.28595161 108.6821003 C17.28283834 110.98775919 17.26006035 113.2934824 17.21681023 115.59873772 C16.4063469 128.23398821 16.4063469 128.23398821 20.85037231 139.55618286 C23.61366489 142.1048914 26.30983129 144.04566096 29.50390625 146.01171875 C31.27126227 147.42782572 33.02383057 148.86280013 34.75390625 150.32421875 C35.65882813 151.05511719 36.56375 151.78601563 37.49609375 152.5390625 C41.0109175 155.4285215 44.4480434 158.39850568 47.87890625 161.38671875 C52.58122301 165.48188291 57.29905993 169.55487784 62.06640625 173.57421875 C68.35556712 178.87705417 74.61786608 184.2114182 80.83984375 189.59301758 C81.98816319 190.57202056 83.15067758 191.53453135 84.32421875 192.4831543 C92.95386375 199.55121156 99.08932769 209.87191259 100.50390625 221.01171875 C101.90937153 236.77562225 99.55369969 249.96635923 89.51025391 262.59106445 C82.10181253 271.32758789 71.9135548 277.34514087 60.50390625 279.01171875 C57.44009335 279.14967245 54.38284681 279.15140242 51.31640625 279.13671875 C50.49720703 279.14058594 49.67800781 279.14445312 48.83398438 279.1484375 C42.75733833 279.13843479 42.75733833 279.13843479 40.50390625 278.01171875 C40.50759342 278.87402635 40.51128059 279.73633394 40.5150795 280.62477207 C40.60362848 301.65990266 40.66971188 322.69500087 40.71115494 343.73027897 C40.73173202 353.90301798 40.75975925 364.07563216 40.80566406 374.24829102 C40.84568104 383.1204579 40.87137429 391.99253432 40.88026023 400.86478895 C40.88544993 405.55746032 40.89754508 410.249873 40.92682648 414.94246101 C40.95423112 419.37068852 40.96230136 423.79855388 40.95633698 428.22685814 C40.95742613 429.84119773 40.96522953 431.45555103 40.98072815 433.06981659 C41.14983515 451.61251638 37.14305888 467.63409252 23.81640625 481.32421875 C8.81597384 495.97225259 -8.88390142 499.17564675 -29.0824585 499.14543152 C-30.77104866 499.14882985 -30.77104866 499.14882985 -32.49375176 499.15229684 C-36.24421751 499.15859784 -39.99464675 499.15780999 -43.74511719 499.15698242 C-46.44305555 499.15997634 -49.14099112 499.16335142 -51.83892822 499.16716003 C-58.3942045 499.17543964 -64.94947178 499.17821365 -71.50475284 499.17877241 C-76.83715678 499.17924883 -82.16955776 499.18130987 -87.50196075 499.18447304 C-102.64511933 499.19327212 -117.78827083 499.19789356 -132.93143198 499.19714256 C-133.7465106 499.19710261 -134.56158922 499.19706265 -135.40136719 499.19702148 C-136.2174495 499.1969806 -137.03353182 499.19693972 -137.8743439 499.1968976 C-151.09477562 499.1964913 -164.31517883 499.20605876 -177.5356023 499.22015985 C-191.13455774 499.23454939 -204.73349931 499.24142862 -218.33246255 499.24056607 C-225.95747091 499.240235 -233.58244939 499.24294256 -241.20745087 499.25374413 C-247.70000344 499.2628831 -254.19251257 499.26499662 -260.68506882 499.2582347 C-263.99215713 499.25498659 -267.2990948 499.25595359 -270.60618591 499.26358795 C-292.66910545 499.31120227 -312.36493519 499.2804298 -330.49609375 485.01171875 C-331.32109375 484.39425781 -332.14609375 483.77679688 -332.99609375 483.140625 C-343.18511049 474.46404043 -348.91240816 461.92928575 -351.49609375 449.01171875 C-351.6630973 446.53142254 -351.74025853 444.04377084 -351.73660278 441.55786133 C-351.73831163 440.85273848 -351.74002048 440.14761562 -351.74178112 439.42112541 C-351.7450483 437.08272677 -351.73411866 434.74462174 -351.72314453 432.40625 C-351.72257982 430.72036241 -351.72289815 429.03447434 -351.72402954 427.34858704 C-351.7246017 422.78924534 -351.71286957 418.23000959 -351.69888163 413.67069244 C-351.68635143 408.899445 -351.68520196 404.12819495 -351.68283081 399.35693359 C-351.67662276 390.32964662 -351.66022109 381.30240827 -351.64013183 372.27514267 C-351.6177518 361.99462753 -351.60677411 351.71411003 -351.59674096 341.43357658 C-351.57585426 320.2929302 -351.54069143 299.15232754 -351.49609375 278.01171875 C-352.15609375 278.34171875 -352.81609375 278.67171875 -353.49609375 279.01171875 C-369.27046909 280.03428718 -382.70533091 278.08444449 -395.49609375 268.01171875 C-404.93941199 259.4865009 -411.13719775 247.53173839 -411.83203125 234.75 C-412.1567724 219.06939082 -408.57083975 207.17744977 -398.49609375 195.01171875 C-395.34661547 191.76064439 -392.00991574 188.86105095 -388.49609375 186.01171875 C-387.65433594 185.32078125 -386.81257813 184.62984375 -385.9453125 183.91796875 C-384.14692721 182.44728922 -382.34466999 180.98133477 -380.5390625 179.51953125 C-376.35579472 176.07196012 -372.27470865 172.51222862 -368.18701172 168.95239258 C-363.60409734 164.96394634 -358.98517802 161.02197643 -354.34033203 157.10595703 C-350.37509352 153.76100636 -346.43144246 150.39176953 -342.49609375 147.01171875 C-337.47975652 142.70399365 -332.44287222 138.4217726 -327.390625 134.15625 C-323.41025774 130.7926951 -319.44965751 127.40672162 -315.49609375 124.01171875 C-310.48127788 119.70539784 -305.44675485 115.4235758 -300.39501953 111.16064453 C-296.36746903 107.75854318 -292.36709359 104.32578292 -288.37109375 100.88671875 C-284.20925195 97.30545273 -280.01340206 93.78013745 -275.74609375 90.32421875 C-271.3645758 86.76903971 -267.17898694 83.04402338 -263.0078125 79.24609375 C-260.49458143 77.01037342 -257.92297896 74.87794193 -255.30859375 72.76171875 C-250.16914947 68.60087106 -245.17283223 64.29437386 -240.18701172 59.95239258 C-235.60409734 55.96394634 -230.98517802 52.02197643 -226.34033203 48.10595703 C-222.37509352 44.76100636 -218.43144246 41.39176953 -214.49609375 38.01171875 C-209.48087716 33.70495599 -204.45611929 29.41004842 -199.38842773 25.16503906 C-196.56478977 22.79343929 -193.78913662 20.38515984 -191.0625 17.90234375 C-179.62001896 7.58158058 -168.50459531 0.60632093 -152.6171875 0.80078125 C-140.22022226 1.63862371 -130.87961132 8.41866712 -122.0625 16.65625 C-119.45101744 19.05309015 -116.75570421 21.28772888 -113.99609375 23.51171875 C-110.40131725 26.41985255 -106.91348747 29.39713207 -103.49609375 32.51171875 C-99.30901801 36.3241268 -94.98115308 39.90979311 -90.578125 43.46875 C-86.15587961 47.11752281 -81.84321901 50.88924024 -77.53442383 54.67089844 C-76.61826294 55.47188965 -76.61826294 55.47188965 -75.68359375 56.2890625 C-75.14089844 56.76593506 -74.59820312 57.24280762 -74.0390625 57.73413086 C-72.31103976 59.20976476 -72.31103976 59.20976476 -69.49609375 61.01171875 C-69.51704102 60.07489258 -69.53798828 59.13806641 -69.55957031 58.17285156 C-69.62845011 54.63905662 -69.67823028 51.10599262 -69.71582031 47.57177734 C-69.73572257 46.0531069 -69.76285479 44.53451087 -69.79785156 43.01611328 C-70.12663078 28.36609816 -67.89225254 15.90745705 -57.4609375 4.85546875 C-41.56397875 -10.1723441 -18.2387946 -12.66361721 0 0 Z M-170.49609375 130.01171875 C-171.529634 130.87277277 -172.56352073 131.73341099 -173.59765625 132.59375 C-176.64264232 135.1549814 -179.643363 137.76394322 -182.63623047 140.38574219 C-185.63630387 143.00854198 -188.65892582 145.60485924 -191.68359375 148.19921875 C-192.26544434 148.69921387 -192.84729492 149.19920898 -193.44677734 149.71435547 C-197.00461707 152.76292988 -200.6052488 155.74967347 -204.24609375 158.69921875 C-208.6276117 162.25439779 -212.81320056 165.97941412 -216.984375 169.77734375 C-219.49760607 172.01306408 -222.06920854 174.14549557 -224.68359375 176.26171875 C-231.12321368 181.4769039 -237.35064778 186.92503627 -243.59960938 192.36523438 C-248.29393896 196.440744 -253.02508116 200.47355722 -257.74902344 204.51464844 C-259.53444999 206.04458634 -261.3164552 207.57842676 -263.09765625 209.11328125 C-268.43159439 213.7054901 -273.77651588 218.26816832 -279.24609375 222.69921875 C-283.6276117 226.25439779 -287.81320056 229.97941412 -291.984375 233.77734375 C-295.38202228 236.79982313 -298.91498884 239.63966986 -302.44921875 242.5 C-305.9968355 245.42450971 -309.46781325 248.42862465 -312.93359375 251.44921875 C-317.69254831 255.59313635 -322.4680705 259.71318639 -327.30859375 263.76171875 C-328.74138672 264.96054687 -328.74138672 264.96054687 -330.203125 266.18359375 C-332.49609375 268.01171875 -332.49609375 268.01171875 -334.49609375 269.01171875 C-334.56628011 291.62161374 -334.61912904 314.23149067 -334.65153027 336.84147263 C-334.66697686 347.34047851 -334.68802406 357.83941657 -334.72241211 368.33837891 C-334.75238217 377.49288297 -334.77168479 386.64733789 -334.77835923 395.80188966 C-334.78225862 400.64587887 -334.79137648 405.48972755 -334.81328392 410.33367157 C-334.8337694 414.90055763 -334.83990335 419.46724632 -334.83541679 424.03417397 C-334.83623663 425.7029789 -334.84213002 427.371791 -334.85371017 429.04055595 C-334.94294826 442.57333408 -334.01287664 453.98328406 -325.49609375 465.01171875 C-324.91859375 465.87796875 -324.34109375 466.74421875 -323.74609375 467.63671875 C-316.08189954 475.72670152 -305.84598395 481.01421592 -294.64146328 481.51508331 C-292.50477336 481.53680801 -290.36779254 481.5371527 -288.23106384 481.51965332 C-287.04449064 481.52589328 -285.85791744 481.53213325 -284.63538748 481.5385623 C-281.37288317 481.55167092 -278.11098366 481.54707017 -274.84849536 481.53461742 C-271.31809924 481.52551498 -267.78778086 481.53956215 -264.25740051 481.55053711 C-257.35396034 481.56827133 -250.45069467 481.56450537 -243.54724782 481.55288655 C-237.93449982 481.54383307 -232.32180053 481.54263648 -226.70904732 481.54698181 C-225.90857018 481.54759474 -225.10809303 481.54820768 -224.28335901 481.54883918 C-222.65694318 481.55011815 -221.03052737 481.551415 -219.40411157 481.55272955 C-204.17366755 481.56412022 -188.94332002 481.55104506 -173.71289182 481.52952808 C-160.65774874 481.51165503 -147.60274794 481.51476582 -134.54760742 481.53320312 C-119.36810181 481.55463071 -104.18868063 481.56302532 -89.00916201 481.55075407 C-87.38921616 481.54947994 -85.76927029 481.54822246 -84.14932442 481.54698181 C-83.35238443 481.54636471 -82.55544443 481.54574761 -81.73435475 481.54511181 C-76.13088049 481.54166482 -70.52745999 481.54747309 -64.92399406 481.55690002 C-58.09166879 481.56814225 -51.25952724 481.56503327 -44.4272229 481.54377705 C-40.94437154 481.53329688 -37.461826 481.52909248 -33.9789772 481.54237366 C-30.19706107 481.5533257 -26.41600176 481.53956759 -22.63414001 481.51965332 C-21.54239674 481.52857621 -20.45065347 481.53749909 -19.32582706 481.54669237 C-8.92062164 481.4406283 -0.95537711 477.86668341 7.50390625 472.01171875 C8.37015625 471.43421875 9.23640625 470.85671875 10.12890625 470.26171875 C18.98375835 461.8729115 23.15761894 450.45817226 23.64930058 438.46533871 C23.65876933 437.20382268 23.66823809 435.94230665 23.67799377 434.64256287 C23.68449273 433.93436073 23.69099168 433.22615859 23.69768757 432.49649578 C23.71794317 430.14147368 23.73125505 427.7864683 23.74438477 425.43139648 C23.75720925 423.73568494 23.770345 422.03997572 23.7837677 420.3442688 C23.89924969 404.92266323 23.95622612 389.50043187 24.00053501 374.078475 C24.0338299 362.6839102 24.09353542 351.29013609 24.18804604 339.89591068 C24.25232563 331.87537056 24.28606276 323.85504648 24.29728454 315.83425862 C24.30484779 311.04610445 24.32605435 306.25890876 24.38031197 301.47103691 C24.43072354 296.97020173 24.44336301 292.47083367 24.42706108 287.96976089 C24.42766502 286.31933906 24.44195447 284.6688563 24.4710083 283.01869011 C24.93708918 274.40915093 24.93708918 274.40915093 21.77869987 266.76628304 C19.74771058 265.22761619 17.78358236 264.13384105 15.50390625 263.01171875 C14.36116447 262.11362744 13.23907639 261.18776709 12.15234375 260.22265625 C11.61867188 259.76246094 11.085 259.30226563 10.53515625 258.828125 C9.98859375 258.35246094 9.44203125 257.87679687 8.87890625 257.38671875 C7.65761064 256.33196345 6.43625475 255.27727793 5.21484375 254.22265625 C4.59963867 253.68995117 3.98443359 253.15724609 3.35058594 252.60839844 C0.41027958 250.06614518 -2.54328944 247.53943216 -5.49609375 245.01171875 C-6.66153892 244.01311488 -7.82690335 243.01441676 -8.9921875 242.015625 C-9.56952637 241.52078613 -10.14686523 241.02594727 -10.74169922 240.51611328 C-12.50550277 239.00365051 -14.26847471 237.49022353 -16.03125 235.9765625 C-21.67031031 231.1359532 -27.318228 226.30678242 -32.99609375 221.51171875 C-40.45487973 215.21263469 -47.86024609 208.85177104 -55.26660156 202.49121094 C-61.49312614 197.1448577 -67.72598765 191.80694045 -73.99609375 186.51171875 C-78.49013224 182.71641931 -82.96873587 178.90380992 -87.43359375 175.07421875 C-88.01278564 174.57752686 -88.59197754 174.08083496 -89.1887207 173.5690918 C-92.16365416 171.01661457 -95.13586455 168.46101893 -98.10546875 165.90234375 C-103.43730009 161.31335965 -108.77939046 156.75294041 -114.24609375 152.32421875 C-117.75493365 149.47713374 -121.15476012 146.55359323 -124.49609375 143.51171875 C-129.67551042 138.80913726 -134.99204246 134.32976809 -140.49609375 130.01171875 C-141.14964844 129.45871094 -141.80320312 128.90570313 -142.4765625 128.3359375 C-147.65771254 124.41417148 -152.80767281 124.2671068 -159.18359375 124.55078125 C-164.13498017 125.23977134 -166.75002944 126.7863168 -170.49609375 130.01171875 Z " fill="#073963" transform="translate(411.49609375,10.98828125)"/>
<path d="M0 0 C0.99386719 -0.03738281 1.98773438 -0.07476563 3.01171875 -0.11328125 C10.66773616 0.87429969 16.0776867 5.44840406 21.625 10.5 C22.94293293 11.67178591 24.26194907 12.84235462 25.58203125 14.01171875 C26.21963379 14.57938965 26.85723633 15.14706055 27.51416016 15.73193359 C29.89512526 17.82457113 32.34428106 19.82390507 34.8125 21.8125 C41.14449516 26.94376127 47.26539447 32.31106275 53.41162109 37.66162109 C61.35776132 44.56269998 69.37703874 51.37884968 77.41845703 58.16845703 C81.99260709 62.03356537 86.53879901 65.93066847 91.08203125 69.83203125 C94.97833531 73.17542298 98.88955217 76.50042482 102.8125 79.8125 C107.92364862 84.127752 113.00719142 88.47416658 118.08203125 92.83203125 C121.97833531 96.17542298 125.88955217 99.50042482 129.8125 102.8125 C134.92364862 107.127752 140.00719142 111.47416658 145.08203125 115.83203125 C148.97833531 119.17542298 152.88955217 122.50042482 156.8125 125.8125 C161.92364862 130.127752 167.00719142 134.47416658 172.08203125 138.83203125 C176.50831333 142.63019348 180.95609339 146.40210747 185.41357422 150.16357422 C189.44112472 153.56567557 193.44150016 156.99843583 197.4375 160.4375 C201.5993418 164.01876602 205.79519169 167.5440813 210.0625 171 C214.49306751 174.59780298 218.75894035 178.33738328 222.9609375 182.19921875 C224.44924083 183.53671393 225.9725421 184.83705977 227.5390625 186.08203125 C233.75815484 191.05497587 236.81263025 196.81289076 239.3125 204.3125 C240.27724265 215.58891818 238.24861786 224.572189 231.15234375 233.4921875 C224.78091497 239.79597903 216.46214954 243.58861501 207.5625 243.6875 C192.81999866 243.44127868 183.52884178 233.5974907 172.95703125 224.45703125 C169.59578501 221.5511854 166.20922181 218.67672899 162.8125 215.8125 C155.35319687 209.51403675 147.94834075 203.15254636 140.54199219 196.79199219 C134.31546761 191.44563895 128.0826061 186.1077217 121.8125 180.8125 C114.35371402 174.51341594 106.94834766 168.15255229 99.54199219 161.79199219 C93.31546761 156.44563895 87.0826061 151.1077217 80.8125 145.8125 C73.35371402 139.51341594 65.94834766 133.15255229 58.54199219 126.79199219 C55.03728858 123.78270775 51.53011621 120.77634763 48.01953125 117.77392578 C46.89352637 116.80992904 45.76850343 115.84478398 44.64453125 114.87841797 C22.08014893 95.07057249 22.08014893 95.07057249 -6.74755859 90.13769531 C-15.20298737 90.89959904 -21.46939141 95.97857377 -27.6875 101.3125 C-28.74853403 102.21243285 -29.80974403 103.11215824 -30.87109375 104.01171875 C-33.87859575 106.57107739 -36.86947346 109.14923122 -39.85693359 111.73193359 C-42.79323124 114.2672218 -45.74066335 116.78947806 -48.6875 119.3125 C-52.2262781 122.34347137 -55.76319754 125.37650958 -59.29296875 128.41796875 C-64.62585322 133.00856553 -69.96935945 137.57011398 -75.4375 142 C-79.81901795 145.55517904 -84.00460681 149.28019537 -88.17578125 153.078125 C-90.68901232 155.31384533 -93.26061479 157.44627682 -95.875 159.5625 C-102.31461993 164.77768515 -108.54205403 170.22581752 -114.79101562 175.66601562 C-119.48845523 179.7442253 -124.22233503 183.78022568 -128.94921875 187.82421875 C-130.70702918 189.32922049 -132.46314446 190.83617703 -134.21875 192.34375 C-140.39117013 197.64304426 -146.58011071 202.9214737 -152.79541016 208.17041016 C-156.1628793 211.01651728 -159.52049552 213.87370494 -162.86767578 216.74365234 C-164.03793945 217.74678194 -165.20948804 218.7484145 -166.38232422 219.74853516 C-169.37597901 222.30587451 -172.33912818 224.88894937 -175.26171875 227.52734375 C-185.79068191 236.94860229 -195.68362503 243.73616523 -210.33203125 243.58984375 C-218.82782915 242.88762995 -226.47002181 237.86956734 -232.19140625 231.6875 C-238.47808138 223.58050402 -239.82103371 214.36482646 -238.6875 204.3125 C-234.58699335 190.20255147 -222.62510437 181.61530481 -211.69140625 172.78125 C-206.22608758 168.28959669 -200.92365296 163.60796767 -195.58837891 158.96337891 C-187.64223868 152.06230002 -179.62296126 145.24615032 -171.58154297 138.45654297 C-167.60125869 135.09324493 -163.64088958 131.7073533 -159.6875 128.3125 C-154.67111424 124.00483099 -149.63427896 119.72255426 -144.58203125 115.45703125 C-140.60166399 112.09347635 -136.64106376 108.70750287 -132.6875 105.3125 C-127.67111424 101.00483099 -122.63427896 96.72255426 -117.58203125 92.45703125 C-113.60166399 89.09347635 -109.64106376 85.70750287 -105.6875 82.3125 C-100.67111424 78.00483099 -95.63427896 73.72255426 -90.58203125 69.45703125 C-86.60166399 66.09347635 -82.64106376 62.70750287 -78.6875 59.3125 C-73.67111424 55.00483099 -68.63427896 50.72255426 -63.58203125 46.45703125 C-59.60166399 43.09347635 -55.64106376 39.70750287 -51.6875 36.3125 C-46.67462981 32.00784988 -41.64511111 27.72397774 -36.59082031 23.46801758 C-33.73258683 21.05763192 -30.89402522 18.62774041 -28.078125 16.16796875 C-9.8043114 0.23851718 -9.8043114 0.23851718 0 0 Z " fill="#00ABE9" transform="translate(255.6875,29.6875)"/>
<path d="M0 0 C0.92941406 0.63550781 1.85882813 1.27101563 2.81640625 1.92578125 C7.81203258 5.17697195 7.81203258 5.17697195 13.671875 5.7421875 C17.9740778 4.27258548 21.66358832 1.63033606 25.4453125 -0.84375 C38.50019533 -9.2862289 53.30823392 -14.05795141 68.87890625 -12.01171875 C82.74568404 -8.48856348 94.10182232 -0.47992124 101.56640625 11.67578125 C111.49225246 29.47538861 112.45423354 51.22274538 107.52148438 70.82177734 C100.1461742 95.68822965 82.2671552 117.47722126 61.87890625 132.98828125 C61.0597876 133.62781738 61.0597876 133.62781738 60.22412109 134.28027344 C50.35052008 141.97852312 39.99110267 148.24144213 28.87890625 153.98828125 C28.17072754 154.36065918 27.46254883 154.73303711 26.73291016 155.11669922 C24.73019381 156.16051366 22.71542439 157.17400483 20.69140625 158.17578125 C19.54285156 158.74683594 18.39429688 159.31789063 17.2109375 159.90625 C9.78314564 162.31832309 3.62705136 158.83232457 -2.99609375 155.61328125 C-3.91648437 155.16919922 -4.836875 154.72511719 -5.78515625 154.26757812 C-14.71488411 149.85821665 -22.98386518 144.71179881 -31.12109375 138.98828125 C-31.6816748 138.60269043 -32.24225586 138.21709961 -32.81982422 137.81982422 C-48.52204559 126.92780715 -62.74400842 112.69778988 -72.12109375 95.98828125 C-72.61657715 95.1072876 -72.61657715 95.1072876 -73.12207031 94.20849609 C-84.4836492 73.58364793 -90.26238513 50.16870891 -84.49609375 26.86328125 C-79.37863582 10.65502599 -70.90634066 -1.29369081 -55.7421875 -9.26171875 C-37.37355806 -17.33830696 -15.96263448 -10.28880695 0 0 Z " fill="#FDDA41" transform="translate(244.12109375,287.01171875)"/>
<path d="M0 0 C2.30669054 1.40168524 2.30669054 1.40168524 4.71484375 0.55078125 C5.59011719 0.08027344 6.46539062 -0.39023437 7.3671875 -0.875 C8.49769531 -1.45894531 9.62820313 -2.04289062 10.79296875 -2.64453125 C11.41550537 -2.97388672 12.03804199 -3.30324219 12.67944336 -3.64257812 C31.12819032 -13.28015129 51.06256242 -18.10552108 71.7421875 -12.25 C73.64206841 -11.52005914 75.52040842 -10.73043447 77.3671875 -9.875 C78.78451172 -9.23884766 78.78451172 -9.23884766 80.23046875 -8.58984375 C96.98737371 -0.26933354 108.28369141 14.78308582 114.3671875 32.125 C119.8490209 49.17563767 120.76507916 67.93010319 115.3671875 85.125 C115.026875 86.37023437 114.6865625 87.61546875 114.3359375 88.8984375 C104.50160182 123.96667757 79.18183136 151.40920248 49.3671875 171.125 C48.44945557 171.73190674 48.44945557 171.73190674 47.51318359 172.35107422 C14.55867123 193.7994038 14.55867123 193.7994038 -2.6328125 192.125 C-6.26975341 191.1027284 -9.55753942 189.59645943 -12.9453125 187.9375 C-13.88173584 187.4940625 -14.81815918 187.050625 -15.78295898 186.59375 C-36.66342811 176.48170425 -54.87600359 164.10297131 -71.6328125 148.125 C-72.42429688 147.38636719 -73.21578125 146.64773438 -74.03125 145.88671875 C-95.015217 125.74947323 -110.76409736 96.00365558 -111.96875 66.58203125 C-112.15602587 54.75985371 -111.38330062 44.37646435 -107.6328125 33.125 C-107.2821875 32.01125 -106.9315625 30.8975 -106.5703125 29.75 C-100.4690075 12.12400776 -89.22347685 -1.30826382 -72.6328125 -9.875 C-48.46868217 -19.48274245 -20.78004304 -15.53648078 0 0 Z M-81.01171875 17.171875 C-93.806551 32.58733554 -95.60148121 51.87719406 -94.6328125 71.125 C-94.07394813 75.6574848 -93.03846396 79.78604569 -91.6328125 84.125 C-91.33479736 85.09614746 -91.33479736 85.09614746 -91.03076172 86.08691406 C-80.14214753 121.30566768 -53.10008662 147.48282044 -21.19384766 164.71606445 C-19.01329209 165.86530208 -16.82426305 166.99670381 -14.6328125 168.125 C-13.93430176 168.49447754 -13.23579102 168.86395508 -12.51611328 169.24462891 C-10.52493113 170.29219863 -8.52093474 171.30785419 -6.5078125 172.3125 C-5.37085938 172.88355469 -4.23390625 173.45460938 -3.0625 174.04296875 C3.88296175 176.23419074 9.13825396 174.09809661 15.36865234 170.99047852 C16.19316895 170.56049561 17.01768555 170.1305127 17.8671875 169.6875 C18.73939941 169.24011475 19.61161133 168.79272949 20.51025391 168.33178711 C43.36335768 156.43008406 64.75719721 140.84595358 80.3671875 120.125 C80.96917969 119.35027344 81.57117188 118.57554687 82.19140625 117.77734375 C97.59960709 97.03686666 103.803695 72.87636693 100.9375 47.2890625 C98.19468254 32.22049742 90.62958455 18.86450886 78.1171875 9.8125 C66.19471978 2.58489004 53.97622775 -0.18954757 40.3203125 2.9765625 C29.50894338 5.88625663 19.3742983 11.00060563 10.1640625 17.32421875 C7.25033499 19.20023604 5.16142671 19.94730087 1.671875 19.76953125 C-2.49690198 18.60368684 -5.72699468 15.85207596 -9.21484375 13.36328125 C-31.60142669 -1.96500609 -61.56899088 -3.48321697 -81.01171875 17.171875 Z " fill="#093A63" transform="translate(252.6328125,272.875)"/>
<path d="M0 0 C7.91645548 6.00405331 11.34128814 11.25638113 13 21 C13.24586293 24.03874739 13.25476984 27.0525039 13.22705078 30.09985352 C13.22734283 30.95948196 13.22763489 31.81911041 13.22793579 32.70478821 C13.22655553 35.5129345 13.21105646 38.32080699 13.1953125 41.12890625 C13.19157773 43.08902339 13.18873295 45.04914241 13.18673706 47.00926208 C13.17913718 52.14337407 13.15952031 57.27737111 13.1373291 62.41143799 C13.11679181 67.66034389 13.10771855 72.90926854 13.09765625 78.15820312 C13.07627072 88.43885231 13.04217921 98.71941656 13 109 C11.71955128 108.04785033 10.440227 107.09418839 9.16137695 106.13989258 C8.44883255 105.60898514 7.73628815 105.0780777 7.00215149 104.53108215 C4.60999104 102.70175296 2.39229603 100.73784447 0.1875 98.6875 C-4.06787088 94.80075548 -8.46078998 91.14606342 -12.94140625 87.5234375 C-17.17959406 84.02679724 -21.31260553 80.4131272 -25.43432617 76.78027344 C-26.02576416 76.26239258 -26.61720215 75.74451172 -27.2265625 75.2109375 C-27.78982742 74.71112869 -28.35309235 74.21131989 -28.9334259 73.69636536 C-30.97532192 71.9509437 -30.97532192 71.9509437 -33.3001709 70.53599548 C-39.50238576 66.45394098 -39.50238576 66.45394098 -40.82406616 62.59222412 C-41.12329397 59.74644473 -41.14425437 57.02805445 -41.0546875 54.16796875 C-41.05381134 53.13617996 -41.05293518 52.10439117 -41.05203247 51.04133606 C-41.04066503 48.86514902 -41.00741811 46.68897923 -40.95361328 44.51342773 C-40.87546132 41.20701742 -40.87151694 37.90681902 -40.87890625 34.59960938 C-40.85857001 32.47651576 -40.8339684 30.35345785 -40.8046875 28.23046875 C-40.80104691 26.76591499 -40.80104691 26.76591499 -40.79733276 25.27177429 C-40.52798291 16.46322047 -37.58049804 9.57339193 -31.625 3.0625 C-23.17950988 -4.57265524 -9.86022728 -6.11334091 0 0 Z " fill="#00EDCF" transform="translate(399,24)"/>
</svg>
