<?xml version="1.0" encoding="UTF-8"?>
<svg version="1.1" xmlns="http://www.w3.org/2000/svg" width="512" height="512">
<path d="M0 0 C0.94488785 -0.00705963 1.8897757 -0.01411926 2.86329651 -0.02139282 C41.99391276 -0.24748734 41.99391276 -0.24748734 58.76953125 3.203125 C59.77677246 3.40180176 60.78401367 3.60047852 61.82177734 3.80517578 C84.32243107 8.33107193 106.13694201 15.09530687 126.76953125 25.203125 C127.60049316 25.60901855 128.43145508 26.01491211 129.28759766 26.43310547 C150.10962835 36.71831379 169.38901253 49.3607047 186.5 65.1171875 C188.59713175 67.04467176 190.7332948 68.91073857 192.89453125 70.765625 C199.73247112 76.73678376 205.94721225 83.24528681 211.76953125 90.203125 C212.21345215 90.72793457 212.65737305 91.25274414 213.11474609 91.79345703 C232.6538938 115.00949948 232.6538938 115.00949948 233.76953125 128.203125 C233.84945313 128.96625 233.929375 129.729375 234.01171875 130.515625 C234.59908538 141.29553015 230.72581006 152.01266769 223.76953125 160.203125 C215.82867571 168.48995142 206.0751981 173.24845807 194.6015625 174.16015625 C182.2304539 174.34785583 171.10040082 170.6901209 162.08203125 162.078125 C158.06132141 157.76867478 154.62716649 153.07931377 151.15625 148.32421875 C147.04840041 142.95241544 142.42628359 138.09796693 137.76953125 133.203125 C137.14949219 132.51863281 136.52945312 131.83414063 135.890625 131.12890625 C107.843294 101.19920404 63.3148036 83.83191786 22.89941406 82.07861328 C-23.70710907 80.86560807 -70.28576111 94.04813903 -105.10546875 126.265625 C-106.66957189 127.75421971 -108.21956061 129.25526798 -109.76025391 130.76806641 C-111.17189177 132.14594874 -112.61278269 133.49366706 -114.0546875 134.83984375 C-125.79417954 146.04343886 -134.78203024 159.09839555 -142.29150391 173.42773438 C-143.11120434 174.97762037 -143.97037057 176.50650436 -144.8359375 178.03125 C-164.57152134 214.22197211 -166.99318725 260.59707781 -155.49169922 299.71582031 C-151.8410757 311.4398951 -147.15704016 322.45860945 -141.23046875 333.203125 C-140.89321777 333.82493652 -140.5559668 334.44674805 -140.20849609 335.08740234 C-128.34565334 356.73554206 -110.5962874 376.25183044 -90.23046875 390.203125 C-89.64394531 390.60692383 -89.05742187 391.01072266 -88.453125 391.42675781 C-49.44209935 417.88085185 -1.20896199 428.08485516 45.21289062 419.70361328 C72.48667992 414.36449295 98.93146609 403.58553117 120.76953125 386.203125 C121.31512695 385.77032227 121.86072266 385.33751953 122.42285156 384.89160156 C133.7390729 375.81608486 143.80354872 366.06814373 152.51953125 354.453125 C161.6752047 342.26292346 169.9616374 333.47039111 185.70703125 330.703125 C197.8419164 329.40534787 208.30693954 331.76367098 218.17578125 338.95703125 C227.59573462 346.72849278 232.7045555 356.61834325 234.05078125 368.734375 C234.90580743 391.25006447 216.91595802 408.66498039 202.70703125 424.015625 C161.25124222 467.9920638 104.6400196 495.74598599 44.76953125 503.203125 C44.10644958 503.28932098 43.44336792 503.37551697 42.76019287 503.46432495 C37.05105512 504.16108221 31.42014174 504.37761923 25.671875 504.40625 C24.25652214 504.41683945 24.25652214 504.41683945 22.81257629 504.42764282 C-16.81645008 504.65676056 -16.81645008 504.65676056 -34.23046875 501.203125 C-35.76477539 500.90510986 -35.76477539 500.90510986 -37.33007812 500.60107422 C-60.64970734 495.93784699 -82.86780182 488.64750056 -104.23046875 478.203125 C-104.9471875 477.85701172 -105.66390625 477.51089844 -106.40234375 477.15429688 C-129.69097117 465.79030924 -150.64027011 450.16046581 -169.23046875 432.203125 C-170.16173584 431.304729 -170.16173584 431.304729 -171.11181641 430.38818359 C-179.01369018 422.72366272 -186.55372575 414.98068768 -193.23046875 406.203125 C-193.64184082 405.67348145 -194.05321289 405.14383789 -194.47705078 404.59814453 C-212.60793555 381.1950158 -226.52175278 354.49452214 -235.23046875 326.203125 C-235.46314453 325.46078613 -235.69582031 324.71844727 -235.93554688 323.95361328 C-255.46762002 260.83608062 -247.15649526 192.32601979 -216.8984375 134.09375 C-209.87877649 120.99317981 -201.65004136 108.69005358 -192.23046875 97.203125 C-191.8039502 96.67509277 -191.37743164 96.14706055 -190.93798828 95.60302734 C-178.97731355 80.85548463 -165.4607053 66.5926932 -150.23046875 55.203125 C-149.14438719 54.36476993 -148.05845954 53.52621545 -146.97265625 52.6875 C-105.36702066 20.96965891 -52.72528747 0.26320332 0 0 Z M-150.23046875 89.203125 C-150.88063965 89.82074707 -151.53081055 90.43836914 -152.20068359 91.07470703 C-192.69639867 129.70963037 -219.75151613 184.68141385 -221.23046875 241.203125 C-221.25093262 241.97769043 -221.27139648 242.75225586 -221.29248047 243.55029297 C-222.44715395 294.7090081 -207.76671253 343.96260011 -177.23046875 385.203125 C-176.76898438 385.82832031 -176.3075 386.45351563 -175.83203125 387.09765625 C-161.74076732 405.89898354 -144.48396598 422.76624663 -125.23046875 436.203125 C-124.03891711 437.06360079 -122.84750708 437.92427271 -121.65625 438.78515625 C-93.26216192 458.87461042 -59.40702103 471.57875969 -25.23046875 477.203125 C-24.21774902 477.37086426 -24.21774902 477.37086426 -23.18457031 477.54199219 C36.58537987 487.04880313 100.56225659 471.76524932 149.8203125 436.74511719 C153.92816359 433.71100565 157.86309798 430.49024568 161.76953125 427.203125 C162.93874453 426.23821151 164.10801657 425.27336921 165.27734375 424.30859375 C177.24215511 414.33737023 188.30098077 403.60441236 197.76953125 391.203125 C198.43009521 390.35717773 198.43009521 390.35717773 199.10400391 389.49414062 C200.51207952 387.68200853 201.89359867 385.85224819 203.26953125 384.015625 C203.70354248 383.4575415 204.13755371 382.89945801 204.5847168 382.32446289 C207.84500028 377.86243669 208.55383355 374.59003684 208.76953125 369.203125 C207.20602106 363.77682494 204.72307257 359.99218414 199.76953125 357.203125 C194.34105218 355.00157515 190.12804588 354.83918225 184.69140625 356.98828125 C179.67608393 360.15853581 176.24454494 365.03997942 172.70703125 369.703125 C139.92602305 412.02896136 92.10001349 438.9400338 39.01953125 446.078125 C-15.88425334 452.57697719 -69.82009909 437.94121013 -113.47265625 404.21484375 C-119.01209093 399.83708513 -124.15230051 395.10693553 -129.23046875 390.203125 C-130.07996094 389.40519531 -130.92945313 388.60726563 -131.8046875 387.78515625 C-167.8906955 353.05874667 -186.1819822 303.22596729 -187.2265625 253.828125 C-187.64782087 201.37762854 -167.08078116 153.84332085 -131.23046875 116.203125 C-130.46605469 115.37425781 -129.70164062 114.54539062 -128.9140625 113.69140625 C-117.18559875 101.36758901 -102.86809246 91.73333928 -88.23046875 83.203125 C-87.63089355 82.84911621 -87.03131836 82.49510742 -86.41357422 82.13037109 C-41.09191867 55.64820823 15.86403305 50.76340592 66.10449219 63.73339844 C81.4515438 67.9024197 95.78666048 73.65361901 109.76953125 81.203125 C110.37104004 81.52394043 110.97254883 81.84475586 111.59228516 82.17529297 C135.93929547 95.24844904 158.01162024 113.96620611 174.12109375 136.4609375 C174.89195312 137.53085938 175.6628125 138.60078125 176.45703125 139.703125 C177.14152344 140.6828125 177.82601563 141.6625 178.53125 142.671875 C181.8577231 146.43375034 185.35037044 147.83519442 190.14453125 149.078125 C195.48745058 149.2623636 199.37488925 148.12091189 203.57421875 144.7578125 C207.14765058 141.08179411 208.5206319 137.75115469 209.15234375 132.70703125 C208.05860599 125.55309346 203.22264751 119.84469587 198.70703125 114.453125 C197.85093262 113.4165979 197.85093262 113.4165979 196.97753906 112.35913086 C191.77763275 106.11188084 186.37773562 100.08657867 180.76953125 94.203125 C180.0115625 93.40390625 179.25359375 92.6046875 178.47265625 91.78125 C172.94582275 86.0976269 166.98828496 81.11004548 160.76953125 76.203125 C159.79371094 75.41035156 158.81789063 74.61757812 157.8125 73.80078125 C126.76768526 49.0820797 88.77279607 33.60929504 49.76953125 27.203125 C49.08906738 27.09129883 48.40860352 26.97947266 47.70751953 26.86425781 C-23.636122 15.62652645 -98.28412613 39.29621204 -150.23046875 89.203125 Z " fill="#000000" transform="translate(262.23046875,3.796875)"/>
<path d="M0 0 C2.58381649 2.0547493 5.05371768 4.20425985 7.5234375 6.39453125 C9.28894944 7.83856191 11.05992962 9.27592925 12.8359375 10.70703125 C16.87646341 14.01549559 20.86344307 17.38033072 24.8359375 20.76953125 C29.27210183 24.55229171 33.78943466 28.19985143 38.3984375 31.76953125 C44.14209115 36.22379326 49.6507777 40.9038222 55.11962891 45.68994141 C60.48764008 50.38467185 65.97835658 54.91039257 71.5234375 59.39453125 C74.28909468 61.66088784 77.05269421 63.92964601 79.8125 66.203125 C81.61734809 67.66208721 83.44589259 69.09221911 85.296875 70.4921875 C95.82694185 78.50553749 95.82694185 78.50553749 96.92578125 86.21875 C97.22649485 92.06432892 96.8343585 96.68700093 93.32421875 101.47265625 C89.46160449 105.59501247 84.98584414 108.9532838 80.5234375 112.39453125 C78.72637222 113.84620681 76.93465052 115.3045232 75.1484375 116.76953125 C74.24351562 117.50945312 73.33859375 118.249375 72.40625 119.01171875 C69.2571694 121.61461735 66.13736715 124.24979877 63.0234375 126.89453125 C56.37295371 132.54294097 49.62223186 138.06276274 42.8515625 143.56640625 C38.47685693 147.13191773 34.12750256 150.72051517 29.8347168 154.3840332 C24.17614592 159.21223794 18.43887911 163.91144872 12.55249023 168.46020508 C9.89502263 170.51497109 7.30439139 172.58530333 4.76953125 174.79296875 C-0.61598917 179.46210539 -5.163398 182.42952247 -12.4765625 182.39453125 C-18.20353915 181.55260092 -22.25761062 179.28389257 -26.28515625 175.1875 C-29.19394279 170.81001468 -29.72281743 166.26627925 -29.671875 161.12109375 C-29.66220703 159.39052734 -29.66220703 159.39052734 -29.65234375 157.625 C-29.63558594 156.43519531 -29.61882812 155.24539063 -29.6015625 154.01953125 C-29.59253906 152.80652344 -29.58351563 151.59351563 -29.57421875 150.34375 C-29.55072838 147.36047352 -29.51787932 144.37760531 -29.4765625 141.39453125 C-30.29893906 141.39821842 -31.12131561 141.40190559 -31.96861267 141.4057045 C-51.99151666 141.49409464 -72.01438695 141.56025992 -92.03744507 141.60177994 C-101.72050998 141.62239312 -111.40344454 141.65048994 -121.08642578 141.69628906 C-129.52746767 141.73619491 -137.96841515 141.76197311 -146.40954876 141.77088523 C-150.87787758 141.77609363 -155.34593632 141.78830929 -159.81417847 141.81745148 C-164.02324207 141.84467986 -168.23192534 141.85296132 -172.44106865 141.84696198 C-173.98255927 141.8480589 -175.52406313 141.85596867 -177.06547737 141.87135315 C-186.76864848 141.9634161 -193.46847589 141.49205666 -201.2265625 135.14453125 C-208.09312709 126.75206341 -208.07219415 118.96842059 -208.0078125 108.58203125 C-208.01051183 107.0432104 -208.0143979 105.50439123 -208.01940918 103.96557617 C-208.02528361 100.75129853 -208.01680843 97.53746761 -207.99804688 94.32324219 C-207.97525793 90.22102797 -207.98839218 86.11986082 -208.01233673 82.01768494 C-208.02685088 78.84330479 -208.02216322 75.66916936 -208.01182556 72.49478149 C-208.00917374 70.98304111 -208.01237318 69.47127788 -208.02174377 67.95956421 C-208.06886179 58.22369424 -207.59135839 51.42372623 -201.2265625 43.64453125 C-192.83931324 36.7822364 -185.15825645 36.83693731 -174.7890625 36.94042969 C-173.20169605 36.94155926 -171.61432752 36.94092216 -170.02696228 36.93865967 C-165.73606551 36.93751587 -161.44561949 36.96097065 -157.15482712 36.9889555 C-152.66386982 37.01402516 -148.17290125 37.01631553 -143.68188477 37.02105713 C-135.18576139 37.03347059 -126.68984483 37.06627006 -118.19381237 37.10645509 C-108.51790307 37.15122361 -98.8419837 37.1731726 -89.16599655 37.19323683 C-69.26940327 37.23500419 -49.37299594 37.30532446 -29.4765625 37.39453125 C-29.50012817 36.26809204 -29.50012817 36.26809204 -29.52416992 35.11889648 C-29.58684008 31.69001914 -29.62565511 28.2612627 -29.6640625 24.83203125 C-29.68919922 23.65060547 -29.71433594 22.46917969 -29.74023438 21.25195312 C-29.80172974 13.93400484 -29.69472433 8.32164457 -24.8984375 2.46875 C-17.2029704 -3.91417248 -8.74645552 -5.67002085 0 0 Z M-4.4765625 30.39453125 C-4.49058105 31.445802 -4.49058105 31.445802 -4.50488281 32.51831055 C-4.55870794 35.7069215 -4.64233186 38.89408458 -4.7265625 42.08203125 C-4.74074219 43.18482422 -4.75492188 44.28761719 -4.76953125 45.42382812 C-5.01428127 53.5250537 -5.01428127 53.5250537 -7.1484375 57.5390625 C-11.82488569 61.26609755 -16.71225842 61.64672236 -22.53805542 61.67300415 C-23.56867511 61.68169275 -23.56867511 61.68169275 -24.6201154 61.69055688 C-26.90938961 61.70748561 -29.19846135 61.71042717 -31.48779297 61.71337891 C-33.13398224 61.72268202 -34.78016681 61.73285126 -36.42634583 61.74382019 C-40.88658212 61.77109109 -45.34678688 61.78626098 -49.80708456 61.79924822 C-54.47161565 61.81489147 -59.13608247 61.8416779 -63.80056763 61.86727905 C-72.62954426 61.91404566 -81.45853301 61.95080004 -90.28757012 61.98395193 C-100.34076209 62.02218826 -110.39388947 62.07159448 -120.44702697 62.12193608 C-141.12349704 62.22522447 -161.79999432 62.31302047 -182.4765625 62.39453125 C-182.4765625 80.21453125 -182.4765625 98.03453125 -182.4765625 116.39453125 C-174.9431604 116.41640503 -174.9431604 116.41640503 -167.25756836 116.4387207 C-150.67730297 116.4890228 -134.09713137 116.55545965 -117.51695919 116.63024616 C-107.46289557 116.67520103 -97.40886734 116.71461644 -87.35473633 116.7409668 C-78.59098574 116.76394934 -69.8273472 116.7973503 -61.06368548 116.84323281 C-56.4239041 116.86716152 -51.78423368 116.88589262 -47.14439201 116.89214516 C-42.77525079 116.89819758 -38.40639343 116.91820317 -34.03735733 116.94880676 C-32.43582315 116.95758445 -30.83425188 116.96131012 -29.23269463 116.95953941 C-27.04090691 116.95788158 -24.84997936 116.9746279 -22.65830994 116.99580383 C-21.43324706 117.0004128 -20.20818419 117.00502176 -18.94599819 117.00977039 C-14.17852094 117.53848422 -10.10530951 118.82609274 -6.57104492 122.22949219 C-5.19642991 124.94867263 -5.04576044 126.99268859 -4.96484375 130.03515625 C-4.92939453 131.10507812 -4.89394531 132.175 -4.85742188 133.27734375 C-4.83486328 134.38851562 -4.81230469 135.4996875 -4.7890625 136.64453125 C-4.75490234 137.77117187 -4.72074219 138.8978125 -4.68554688 140.05859375 C-4.60313236 142.83714026 -4.53395952 145.61537377 -4.4765625 148.39453125 C-0.45915419 146.51768715 2.59984199 143.87450866 5.8984375 140.95703125 C10.65074597 136.81301827 15.46854648 132.80820287 20.4609375 128.95703125 C25.46008729 125.09086306 30.27494964 121.06439867 35.0234375 116.89453125 C39.83724953 112.6691225 44.7184064 108.57877305 49.7734375 104.64453125 C50.34465332 104.19988525 50.91586914 103.75523926 51.50439453 103.29711914 C52.62606786 102.42515435 53.74797094 101.553485 54.87011719 100.68212891 C57.56265889 98.58519078 60.23577238 96.46693026 62.8984375 94.33203125 C63.79304687 93.61917969 64.68765625 92.90632813 65.609375 92.171875 C66.24101562 91.58535156 66.87265625 90.99882812 67.5234375 90.39453125 C67.5234375 89.73453125 67.5234375 89.07453125 67.5234375 88.39453125 C65.97455248 86.97746623 64.35582216 85.63643629 62.7109375 84.33203125 C61.19693359 83.11966797 61.19693359 83.11966797 59.65234375 81.8828125 C58.61980469 81.06167969 57.58726562 80.24054688 56.5234375 79.39453125 C54.7288429 77.93980249 52.93710106 76.48154638 51.1484375 75.01953125 C50.23964844 74.27703125 49.33085937 73.53453125 48.39453125 72.76953125 C45.30732028 70.21575673 42.25853437 67.62024493 39.2109375 65.01953125 C34.77482474 61.23671776 30.25747684 57.58915677 25.6484375 54.01953125 C19.19745342 49.0177273 13.03200405 43.72380844 6.8984375 38.33984375 C5.77393044 37.35750835 4.64894214 36.37572352 3.5234375 35.39453125 C2.96269531 34.90178711 2.40195312 34.40904297 1.82421875 33.90136719 C-0.9304987 31.23731251 -0.9304987 31.23731251 -4.4765625 30.39453125 Z " fill="#000000" transform="translate(382.4765625,166.60546875)"/>
</svg>
