<?xml version="1.0" encoding="UTF-8"?>
<svg version="1.1" xmlns="http://www.w3.org/2000/svg" width="512" height="512">
<path d="M0 0 C1.52827475 -0.01064158 1.52827475 -0.01064158 3.08742374 -0.02149814 C6.48225164 -0.03902117 9.87592603 -0.02100145 13.27073669 -0.00291443 C15.71226013 -0.00805535 18.15377985 -0.01533793 20.59529114 -0.02459717 C26.52649195 -0.04117695 32.45739129 -0.03449271 38.38856263 -0.01650894 C43.21048077 -0.00245566 48.03230948 0.00140402 52.85424614 -0.00195122 C53.5417819 -0.00242866 54.22931765 -0.0029061 54.93768783 -0.00339801 C56.33460119 -0.00442439 57.73151453 -0.00547975 59.12842786 -0.00656378 C71.46645742 -0.01512138 83.80432788 0.00151421 96.14231873 0.03126526 C108.10332419 0.06010671 120.06410052 0.06718205 132.02513123 0.05177307 C145.0643423 0.03499801 158.10344472 0.03098949 171.14265865 0.04848343 C172.53398858 0.05032774 173.92531853 0.05216246 175.31664848 0.0539875 C176.34337279 0.05535564 176.34337279 0.05535564 177.390839 0.05675141 C182.20524521 0.06234823 187.01959822 0.05905769 191.83400154 0.05244255 C198.31755607 0.04388722 204.80085515 0.05691319 211.28435898 0.08429146 C213.66274347 0.09117387 216.04115876 0.09127485 218.41954231 0.08407593 C221.66808288 0.0753767 224.91560683 0.09134662 228.1640625 0.11352539 C229.10346682 0.10528462 230.04287113 0.09704386 231.01074225 0.08855337 C237.92042164 0.1755218 243.17654641 1.8114602 248.50682068 6.30397034 C248.94381287 6.84408752 249.38080505 7.38420471 249.83103943 7.94068909 C250.50586365 8.73926331 250.50586365 8.73926331 251.19432068 9.55397034 C255.38274544 16.11460028 255.95830858 21.47929973 255.92259216 29.11817932 C255.93288704 30.66588516 255.93288704 30.66588516 255.94338989 32.24485779 C255.96163259 35.64230767 255.9578239 39.03929467 255.95213318 42.43678284 C255.95669612 44.80658111 255.96200203 47.17637806 255.96801758 49.5461731 C255.9769437 54.5082182 255.97453103 59.47010232 255.96458435 64.43214417 C255.95309453 70.78184595 255.97330956 77.13099164 256.00250149 83.48062038 C256.02087248 88.37320468 256.02056919 93.26565593 256.01486397 98.15826607 C256.01471087 100.49896589 256.02074562 102.83967479 256.03315544 105.18034172 C256.04808029 108.45684797 256.03737641 111.7323295 256.02024841 115.00880432 C256.02991638 115.96957382 256.03958435 116.93034332 256.04954529 117.92022705 C255.97141659 125.07990423 254.30130222 130.3251198 249.65916443 135.83522034 C249.03525818 136.36502502 248.41135193 136.89482971 247.76853943 137.44068909 C246.8481488 138.25473206 246.8481488 138.25473206 245.90916443 139.08522034 C237.66978825 144.40311836 229.37346698 144.0399596 219.9228363 143.96876526 C218.34532182 143.96791807 216.76780616 143.96839593 215.19029236 143.97009277 C210.92633453 143.97095056 206.66263188 143.95336005 202.39873314 143.9323709 C197.93579287 143.91356786 193.47284621 143.91185081 189.00987244 143.90829468 C180.56691608 143.89898485 172.12407679 143.87438548 163.68117189 143.84424621 C154.06570822 143.81066909 144.45023884 143.79420787 134.8347311 143.7791599 C115.06260197 143.74783496 95.29057808 143.69509517 75.51853943 143.62818909 C74.05791092 146.27557825 73.51853943 147.52267243 73.51853943 150.62818909 C75.50394156 152.17963576 75.50394156 152.17963576 78.14353943 153.62818909 C95.91311233 164.51262057 111.79217575 179.16175761 124.51853943 195.62818909 C124.98824158 196.22873108 125.45794373 196.82927307 125.94187927 197.44801331 C141.09441734 217.06996867 151.91510904 239.78072957 158.51853943 263.62818909 C163.26580386 259.19983878 167.05859781 254.18076754 170.95603943 249.00318909 C171.65253601 248.08400696 172.34903259 247.16482483 173.06663513 246.2177887 C178.41423975 239.14237527 183.69259116 232.01634068 188.91282654 224.84645081 C197.61819957 212.92830237 197.61819957 212.92830237 201.51853943 211.62818909 C203.83758069 211.52307609 206.15955283 211.47948708 208.48094177 211.46705627 C209.18535904 211.46209137 209.88977631 211.45712646 210.61553955 211.45201111 C212.94519529 211.43740968 215.27478295 211.43059106 217.60447693 211.42506409 C219.22488914 211.4193112 220.84530133 211.41355348 222.4657135 211.40779114 C225.8635337 211.39728706 229.26133028 211.39144044 232.65916443 211.38795471 C237.0093349 211.38246964 241.35919243 211.35843902 245.70926476 211.32998276 C249.0567465 211.31134381 252.40415303 211.30615013 255.75168228 211.30461884 C257.35523312 211.30159487 258.95878272 211.29357494 260.56228256 211.28043365 C262.80754557 211.26334559 265.05204606 211.26525968 267.29734802 211.27174377 C268.57403351 211.26809814 269.85071899 211.26445251 271.16609192 211.26069641 C274.76916959 211.65566297 276.65187339 212.45192798 279.51853943 214.62818909 C280.93895764 217.4690255 280.83306215 219.48296186 280.51853943 222.62818909 C278.92900085 224.79512024 278.92900085 224.79512024 276.51853943 226.62818909 C273.38005066 227.10920715 273.38005066 227.10920715 269.63865662 227.08229065 C268.95532257 227.08287476 268.27198853 227.08345886 267.56794739 227.08406067 C265.31658043 227.08128109 263.06654911 227.05019816 260.81541443 227.01881409 C259.25172143 227.01135117 257.68801906 227.00565848 256.12431335 227.00166321 C252.0141251 226.98641063 247.90450471 226.94713269 243.79454041 226.90284729 C239.59845155 226.8618861 235.4022707 226.84365042 231.20603943 226.82350159 C222.97661253 226.78063751 214.74764668 226.71239142 206.51853943 226.62818909 C206.21449188 227.24972366 205.91044434 227.87125824 205.59718323 228.5116272 C204.49967538 230.66520495 203.25927559 232.49448188 201.82322693 234.43678284 C201.28028992 235.17315979 200.73735291 235.90953674 200.17796326 236.66822815 C199.58910339 237.45939026 199.00024353 238.25055237 198.39353943 239.06568909 C197.77825378 239.89681213 197.16296814 240.72793518 196.52903748 241.58424377 C192.51591164 246.98883519 188.45717449 252.35752801 184.37034607 257.70655823 C183.01264798 259.48523537 181.65895178 261.26697448 180.30931091 263.05177307 C177.28652956 267.04437119 174.24271998 270.99236359 171.02635193 274.83131409 C170.50323425 275.47874573 169.98011658 276.12617737 169.44114685 276.79322815 C168.49775211 277.95886269 167.52878019 279.10459299 166.52757263 280.22096252 C162.7445963 284.99776542 163.44384398 289.20456477 164.12229919 295.05055237 C169.57691271 344.30003267 154.01088322 394.0140803 123.84275818 432.85865784 C117.63472742 440.25612642 117.63472742 440.25612642 113.51853943 441.62818909 C109.82324123 441.62818909 108.40480604 440.90682062 105.51853943 438.62818909 C104.17958311 436.96603641 102.84723801 435.29855301 101.51853943 433.62818909 C99.45857028 431.79441263 97.35808675 430.02536889 95.22557068 428.27662659 C93.51853943 426.62818909 93.51853943 426.62818909 92.51853943 423.62818909 C91.85853943 423.62818909 91.19853943 423.62818909 90.51853943 423.62818909 C90.51853943 422.96818909 90.51853943 422.30818909 90.51853943 421.62818909 C89.68322693 421.28787659 89.68322693 421.28787659 88.83103943 420.94068909 C83.59706429 417.97005455 79.91746251 412.8393356 76.06932068 408.30006409 C74.60503476 406.52492546 74.60503476 406.52492546 72.51853943 405.62818909 C72.51853943 404.96818909 72.51853943 404.30818909 72.51853943 403.62818909 C71.85853943 403.62818909 71.19853943 403.62818909 70.51853943 403.62818909 C70.51853943 402.96818909 70.51853943 402.30818909 70.51853943 401.62818909 C69.68322693 401.31881409 69.68322693 401.31881409 68.83103943 401.00318909 C66.25143839 399.46937225 64.77911405 397.60467138 62.93650818 395.26881409 C61.42033936 393.51456917 59.80659978 392.10207832 58.01853943 390.62818909 C55.71733523 388.72546181 53.75739468 386.83593874 51.89353943 384.50318909 C49.68516519 381.62449655 49.68516519 381.62449655 47.14353943 379.75318909 C44.85794649 377.90294719 43.21048582 376.17225658 41.33103943 373.94068909 C38.721958 370.88066043 35.98984652 368.18463679 32.96580505 365.53590393 C27.29582718 360.48153622 21.91283933 355.16815162 16.54978943 349.79225159 C15.53768694 348.7808249 14.52543624 347.76954652 13.51304626 346.75840759 C11.41396973 344.66079031 9.31667468 342.56141308 7.22068787 340.46070862 C4.53646831 337.77074083 1.84771284 335.08535835 -0.84235382 332.4012394 C-2.92363702 330.32356607 -5.00253742 328.24352173 -7.08071899 326.16274643 C-8.07194693 325.17085307 -9.06391366 324.17969743 -10.05664062 323.18930435 C-11.43699498 321.81148911 -12.81380363 320.43012437 -14.19044495 319.04859924 C-14.97302673 318.26522186 -15.75560852 317.48184448 -16.56190491 316.67472839 C-20.41898148 312.56249609 -20.73043567 310.17127422 -20.72628784 304.63961792 C-20.72855241 303.92399396 -20.73081699 303.20836999 -20.73315018 302.47106045 C-20.7384584 300.06672271 -20.72960511 297.6626411 -20.72096252 295.25831604 C-20.72207511 293.53688474 -20.72413246 291.81545382 -20.72706604 290.09402466 C-20.73179392 286.38300786 -20.73066213 282.6720543 -20.7252903 278.96103859 C-20.71769146 273.09029186 -20.72832448 267.21966742 -20.74249268 261.34893799 C-20.78026124 244.6533615 -20.79843068 227.95783956 -20.78688049 211.26222229 C-20.78066048 202.04429522 -20.79226524 192.82656486 -20.82332581 183.60868615 C-20.84197077 177.77593221 -20.83866976 171.94373576 -20.8191582 166.11099112 C-20.8122648 162.47548306 -20.82625708 158.84027562 -20.84610748 155.20482445 C-20.851145 153.5230633 -20.84769508 151.84125123 -20.83497429 150.15953064 C-20.77350628 141.40872333 -20.75375028 134.70478353 -26.48146057 127.62818909 C-27.40530581 124.85665337 -27.61072535 123.19502734 -27.62190247 120.33505249 C-27.62761261 119.4590036 -27.63332275 118.58295471 -27.63920593 117.68035889 C-27.64032379 116.72188553 -27.64144165 115.76341217 -27.64259338 114.77589417 C-27.64755829 113.76418152 -27.65252319 112.75246887 -27.65763855 111.71009827 C-27.67226817 108.35596541 -27.67906431 105.00187989 -27.68458557 101.64772034 C-27.69033733 99.3170471 -27.69609506 96.98637389 -27.70185852 94.65570068 C-27.71237145 89.76395955 -27.71821189 84.87223486 -27.72169495 79.98048401 C-27.72717356 73.72046171 -27.75118702 67.46065759 -27.7796669 61.20070362 C-27.79831806 56.38363008 -27.80350026 51.56660877 -27.80503082 46.74950218 C-27.80805338 44.44229124 -27.81606846 42.13508112 -27.829216 39.82790565 C-27.84632432 36.59425554 -27.84438409 33.36113403 -27.83790588 30.12745667 C-27.84712067 29.17910446 -27.85633545 28.23075226 -27.86582947 27.25366211 C-27.81788064 19.58974073 -26.41589603 12.87538943 -21.03768533 7.0000028 C-14.61575937 1.33906852 -8.35872142 -0.10556375 0 0 Z " fill="#EAEDEF" transform="translate(224.48146057128906,3.3718109130859375)"/>
<path d="M0 0 C2.93655396 1.92982483 2.93655396 1.92982483 5.70751953 4.69165039 C6.22479897 5.19644991 6.74207842 5.70124943 7.275033 6.2213459 C8.99709796 7.91159321 10.68924964 9.62888758 12.3828125 11.34765625 C13.61385453 12.56785387 14.84659105 13.78634396 16.08088684 15.00325012 C19.42358079 18.3094934 22.74049678 21.64052085 26.05228806 24.97768402 C29.52232238 28.46798234 33.01184457 31.9387081 36.49829102 35.41259766 C42.34976075 41.24951565 48.18416697 47.10309267 54.00927734 52.96630859 C60.74277597 59.74334497 67.50461201 66.49107814 74.28189087 73.22431087 C80.10145783 79.00756603 85.90527914 84.8062762 91.69624329 90.61817265 C95.15430398 94.08870131 98.61753224 97.55360854 102.09503174 101.00466919 C105.36372642 104.25024199 108.61220674 107.51478485 111.84616661 110.79495811 C113.03571087 111.99507434 114.2321045 113.18844604 115.43573952 114.3744297 C117.07916753 115.99596523 118.69592594 117.6401936 120.30834961 119.29248047 C121.21975204 120.20689911 122.13115448 121.12131775 123.07017517 122.06344604 C125.72284281 126.09992724 125.53343448 128.23469779 125 133 C122.86328125 135.70703125 122.86328125 135.70703125 120 138 C118.62908203 139.15048828 118.62908203 139.15048828 117.23046875 140.32421875 C91.81993116 160.05897516 62.78003816 173.43753648 31 179 C29.5135498 179.26490234 29.5135498 179.26490234 27.99707031 179.53515625 C18.18265354 181.12132462 8.53989622 181.39945408 -1.375 181.375 C-2.20804657 181.37445618 -3.04109314 181.37391235 -3.89938354 181.37335205 C-17.91743586 181.33143655 -31.33055624 180.30420329 -45 177 C-45.89912109 176.78569336 -46.79824219 176.57138672 -47.72460938 176.35058594 C-93.05305287 165.20504525 -133.47173376 137.45932066 -160 99 C-161.54586876 95.90826248 -161.29359521 93.40570448 -161 90 C-158.25536733 86.68500713 -155.1255095 84.72912607 -151.3984375 82.63671875 C-150.28194824 82.00499756 -149.16545898 81.37327637 -148.01513672 80.72241211 C-146.80176234 80.04409998 -145.58838331 79.36579616 -144.375 78.6875 C-143.11301227 77.97545541 -141.85146267 77.26263379 -140.59033203 76.54907227 C-138.64596335 75.44906737 -136.70133341 74.34955572 -134.75534058 73.25242615 C-128.43720944 69.69008611 -122.15340573 66.06935324 -115.875 62.4375 C-113.72659533 61.19655775 -111.5781578 59.95567238 -109.4296875 58.71484375 C-108.36975586 58.10237793 -107.30982422 57.48991211 -106.21777344 56.85888672 C-100.81329355 53.73675395 -95.40652588 50.61858796 -90 47.5 C-87.8333225 46.25001878 -85.66665583 45.00001879 -83.5 43.75 C-70.5 36.25 -70.5 36.25 -67.24780273 34.3737793 C-65.08840605 33.1279423 -62.92906331 31.88201182 -60.76977539 30.63598633 C-55.24232403 27.44651047 -49.71384879 24.25883115 -44.18359375 21.07421875 C-43.0632373 20.428479 -41.94288086 19.78273926 -40.78857422 19.11743164 C-38.57916269 17.84499989 -36.36857574 16.57460661 -34.15673828 15.30639648 C-29.35320165 12.54589142 -24.57545634 9.76280737 -19.87109375 6.8359375 C-19.101604 6.36260986 -18.33211426 5.88928223 -17.53930664 5.40161133 C-16.15786457 4.54687813 -14.78487926 3.67821644 -13.42358398 2.79174805 C-9.01489016 0.07694854 -5.09223253 -0.87211823 0 0 Z " fill="#FEEA86" transform="translate(200,327)"/>
<path d="M0 0 C8.91 0 17.82 0 27 0 C27.33 17.82 27.66 35.64 28 54 C35.34480366 55.7317897 35.34480366 55.7317897 38.6796875 53.46484375 C41.35097048 50.62716772 43.78191129 47.67073147 46.125 44.5625 C50.37625481 39.03228767 54.75846876 33.64979916 59.29541016 28.35180664 C61.92488763 25.28044602 64.49197876 22.17139577 67 19 C81.11165682 20.84734417 94.96560858 36.69200392 105 46 C105.96292969 46.86431641 105.96292969 46.86431641 106.9453125 47.74609375 C128.261444 67.76898715 143.7110823 96.89135605 151 125 C151.22300781 125.83789062 151.44601562 126.67578125 151.67578125 127.5390625 C152.20904855 129.7084084 152.70060604 131.78606046 153 134 C153.24363281 135.55847656 153.24363281 135.55847656 153.4921875 137.1484375 C152.75100421 142.94849083 149.50119873 146.30313307 145.875 150.75 C144.40085543 152.6173156 142.92822954 154.48583099 141.45703125 156.35546875 C140.71018066 157.29567871 139.96333008 158.23588867 139.19384766 159.20458984 C135.28119608 164.19010737 131.56114752 169.31524146 127.83325195 174.43945312 C125.31851721 177.88664228 122.7918398 181.29900442 120.09375 184.60546875 C119.66118896 185.14486084 119.22862793 185.68425293 118.78295898 186.23999023 C117.66324522 187.62535323 116.52207319 188.99330074 115.37890625 190.359375 C113.49104346 193.97465897 113.93143019 196.12930078 115 200 C117.807035 202.2924985 117.807035 202.2924985 120.9375 201.8984375 C124.65271919 200.8085135 125.66891318 199.67985168 128 196.625 C128.76183594 195.63886719 129.52367187 194.65273438 130.30859375 193.63671875 C131.20843794 192.42648853 132.10529953 191.21403782 133 190 C133.54285645 189.2673291 134.08571289 188.5346582 134.64501953 187.77978516 C137.06691845 184.50703932 139.48249461 181.229799 141.88745117 177.94458008 C151.06766191 165.40829832 151.06766191 165.40829832 155 161 C155.33 161 155.66 161 156 161 C156.95975198 206.09849927 146.166213 244.70276343 119 281 C118.07344101 280.18274948 117.14688202 279.36549896 116.19224548 278.52348328 C112.26425375 275.15659102 108.15745934 272.0626364 104.02128601 268.95761871 C87.23524584 256.3115022 71.20475261 242.84435458 55.5625 228.8125 C54.9015332 228.22157185 54.24056641 227.63064369 53.55957031 227.02180862 C20.14774201 197.05991791 -4.41643737 168.39320186 -7.2604115 122.11698318 C-8.10398432 106.20816608 -7.83154123 90.40251002 -7 74.5 C-6.92916018 73.11032792 -6.92916018 73.11032792 -6.85688925 71.69258165 C-5.60741634 47.64725835 -3.21617452 23.85977385 0 0 Z " fill="#84C9FE" transform="translate(218,146)"/>
<path d="M0 0 C1.52827475 -0.01064158 1.52827475 -0.01064158 3.08742374 -0.02149814 C6.48225164 -0.03902117 9.87592603 -0.02100145 13.27073669 -0.00291443 C15.71226013 -0.00805535 18.15377985 -0.01533793 20.59529114 -0.02459717 C26.52649195 -0.04117695 32.45739129 -0.03449271 38.38856263 -0.01650894 C43.21048077 -0.00245566 48.03230948 0.00140402 52.85424614 -0.00195122 C53.5417819 -0.00242866 54.22931765 -0.0029061 54.93768783 -0.00339801 C56.33460119 -0.00442439 57.73151453 -0.00547975 59.12842786 -0.00656378 C71.46645742 -0.01512138 83.80432788 0.00151421 96.14231873 0.03126526 C108.10332419 0.06010671 120.06410052 0.06718205 132.02513123 0.05177307 C145.0643423 0.03499801 158.10344472 0.03098949 171.14265865 0.04848343 C172.53398858 0.05032774 173.92531853 0.05216246 175.31664848 0.0539875 C176.34337279 0.05535564 176.34337279 0.05535564 177.390839 0.05675141 C182.20524521 0.06234823 187.01959822 0.05905769 191.83400154 0.05244255 C198.31755607 0.04388722 204.80085515 0.05691319 211.28435898 0.08429146 C213.66274347 0.09117387 216.04115876 0.09127485 218.41954231 0.08407593 C221.66808288 0.0753767 224.91560683 0.09134662 228.1640625 0.11352539 C229.10346682 0.10528462 230.04287113 0.09704386 231.01074225 0.08855337 C237.92042164 0.1755218 243.17654641 1.8114602 248.50682068 6.30397034 C248.94381287 6.84408752 249.38080505 7.38420471 249.83103943 7.94068909 C250.50586365 8.73926331 250.50586365 8.73926331 251.19432068 9.55397034 C255.38274544 16.11460028 255.95830858 21.47929973 255.92259216 29.11817932 C255.93288704 30.66588516 255.93288704 30.66588516 255.94338989 32.24485779 C255.96163259 35.64230767 255.9578239 39.03929467 255.95213318 42.43678284 C255.95669612 44.80658111 255.96200203 47.17637806 255.96801758 49.5461731 C255.9769437 54.5082182 255.97453103 59.47010232 255.96458435 64.43214417 C255.95309453 70.78184595 255.97330956 77.13099164 256.00250149 83.48062038 C256.02087248 88.37320468 256.02056919 93.26565593 256.01486397 98.15826607 C256.01471087 100.49896589 256.02074562 102.83967479 256.03315544 105.18034172 C256.04808029 108.45684797 256.03737641 111.7323295 256.02024841 115.00880432 C256.02991638 115.96957382 256.03958435 116.93034332 256.04954529 117.92022705 C255.97141659 125.07990423 254.30130222 130.3251198 249.65916443 135.83522034 C249.03525818 136.36502502 248.41135193 136.89482971 247.76853943 137.44068909 C246.8481488 138.25473206 246.8481488 138.25473206 245.90916443 139.08522034 C237.66978825 144.40311836 229.37346698 144.0399596 219.9228363 143.96876526 C218.34532182 143.96791807 216.76780616 143.96839593 215.19029236 143.97009277 C210.92633453 143.97095056 206.66263188 143.95336005 202.39873314 143.9323709 C197.93579287 143.91356786 193.47284621 143.91185081 189.00987244 143.90829468 C180.56691608 143.89898485 172.12407679 143.87438548 163.68117189 143.84424621 C154.06570822 143.81066909 144.45023884 143.79420787 134.8347311 143.7791599 C115.06260197 143.74783496 95.29057808 143.69509517 75.51853943 143.62818909 C74.05791092 146.27557825 73.51853943 147.52267243 73.51853943 150.62818909 C75.50394156 152.17963576 75.50394156 152.17963576 78.14353943 153.62818909 C95.91311233 164.51262057 111.79217575 179.16175761 124.51853943 195.62818909 C124.98824158 196.22873108 125.45794373 196.82927307 125.94187927 197.44801331 C141.09441734 217.06996867 151.91510904 239.78072957 158.51853943 263.62818909 C163.26580386 259.19983878 167.05859781 254.18076754 170.95603943 249.00318909 C171.65253601 248.08400696 172.34903259 247.16482483 173.06663513 246.2177887 C178.41423975 239.14237527 183.69259116 232.01634068 188.91282654 224.84645081 C197.61819957 212.92830237 197.61819957 212.92830237 201.51853943 211.62818909 C203.83758069 211.52307609 206.15955283 211.47948708 208.48094177 211.46705627 C209.18535904 211.46209137 209.88977631 211.45712646 210.61553955 211.45201111 C212.94519529 211.43740968 215.27478295 211.43059106 217.60447693 211.42506409 C219.22488914 211.4193112 220.84530133 211.41355348 222.4657135 211.40779114 C225.8635337 211.39728706 229.26133028 211.39144044 232.65916443 211.38795471 C237.0093349 211.38246964 241.35919243 211.35843902 245.70926476 211.32998276 C249.0567465 211.31134381 252.40415303 211.30615013 255.75168228 211.30461884 C257.35523312 211.30159487 258.95878272 211.29357494 260.56228256 211.28043365 C262.80754557 211.26334559 265.05204606 211.26525968 267.29734802 211.27174377 C268.57403351 211.26809814 269.85071899 211.26445251 271.16609192 211.26069641 C274.76916959 211.65566297 276.65187339 212.45192798 279.51853943 214.62818909 C280.93895764 217.4690255 280.83306215 219.48296186 280.51853943 222.62818909 C278.92900085 224.79512024 278.92900085 224.79512024 276.51853943 226.62818909 C273.38005066 227.10920715 273.38005066 227.10920715 269.63865662 227.08229065 C268.95532257 227.08287476 268.27198853 227.08345886 267.56794739 227.08406067 C265.31658043 227.08128109 263.06654911 227.05019816 260.81541443 227.01881409 C259.25172143 227.01135117 257.68801906 227.00565848 256.12431335 227.00166321 C252.0141251 226.98641063 247.90450471 226.94713269 243.79454041 226.90284729 C239.59845155 226.8618861 235.4022707 226.84365042 231.20603943 226.82350159 C222.97661253 226.78063751 214.74764668 226.71239142 206.51853943 226.62818909 C206.21449188 227.24972366 205.91044434 227.87125824 205.59718323 228.5116272 C204.49967538 230.66520495 203.25927559 232.49448188 201.82322693 234.43678284 C201.28028992 235.17315979 200.73735291 235.90953674 200.17796326 236.66822815 C199.58910339 237.45939026 199.00024353 238.25055237 198.39353943 239.06568909 C197.77825378 239.89681213 197.16296814 240.72793518 196.52903748 241.58424377 C192.51591164 246.98883519 188.45717449 252.35752801 184.37034607 257.70655823 C183.01264798 259.48523537 181.65895178 261.26697448 180.30931091 263.05177307 C177.28652956 267.04437119 174.24271998 270.99236359 171.02635193 274.83131409 C170.50323425 275.47874573 169.98011658 276.12617737 169.44114685 276.79322815 C168.49775211 277.95886269 167.52878019 279.10459299 166.52757263 280.22096252 C162.7445963 284.99776542 163.44384398 289.20456477 164.12229919 295.05055237 C169.57691271 344.30003267 154.01088322 394.0140803 123.84275818 432.85865784 C117.63472742 440.25612642 117.63472742 440.25612642 113.51853943 441.62818909 C109.82324123 441.62818909 108.40480604 440.90682062 105.51853943 438.62818909 C104.17958311 436.96603641 102.84723801 435.29855301 101.51853943 433.62818909 C99.45857028 431.79441263 97.35808675 430.02536889 95.22557068 428.27662659 C93.51853943 426.62818909 93.51853943 426.62818909 92.51853943 423.62818909 C91.85853943 423.62818909 91.19853943 423.62818909 90.51853943 423.62818909 C90.51853943 422.96818909 90.51853943 422.30818909 90.51853943 421.62818909 C89.68322693 421.28787659 89.68322693 421.28787659 88.83103943 420.94068909 C83.59706429 417.97005455 79.91746251 412.8393356 76.06932068 408.30006409 C74.60503476 406.52492546 74.60503476 406.52492546 72.51853943 405.62818909 C72.51853943 404.96818909 72.51853943 404.30818909 72.51853943 403.62818909 C71.85853943 403.62818909 71.19853943 403.62818909 70.51853943 403.62818909 C70.51853943 402.96818909 70.51853943 402.30818909 70.51853943 401.62818909 C69.68322693 401.31881409 69.68322693 401.31881409 68.83103943 401.00318909 C66.25143839 399.46937225 64.77911405 397.60467138 62.93650818 395.26881409 C61.42033936 393.51456917 59.80659978 392.10207832 58.01853943 390.62818909 C55.71733523 388.72546181 53.75739468 386.83593874 51.89353943 384.50318909 C49.68516519 381.62449655 49.68516519 381.62449655 47.14353943 379.75318909 C44.85794649 377.90294719 43.21048582 376.17225658 41.33103943 373.94068909 C38.721958 370.88066043 35.98984652 368.18463679 32.96580505 365.53590393 C27.29582718 360.48153622 21.91283933 355.16815162 16.54978943 349.79225159 C15.53768694 348.7808249 14.52543624 347.76954652 13.51304626 346.75840759 C11.41396973 344.66079031 9.31667468 342.56141308 7.22068787 340.46070862 C4.53646831 337.77074083 1.84771284 335.08535835 -0.84235382 332.4012394 C-2.92363702 330.32356607 -5.00253742 328.24352173 -7.08071899 326.16274643 C-8.07194693 325.17085307 -9.06391366 324.17969743 -10.05664062 323.18930435 C-11.43699498 321.81148911 -12.81380363 320.43012437 -14.19044495 319.04859924 C-14.97302673 318.26522186 -15.75560852 317.48184448 -16.56190491 316.67472839 C-20.41898148 312.56249609 -20.73043567 310.17127422 -20.72628784 304.63961792 C-20.72855241 303.92399396 -20.73081699 303.20836999 -20.73315018 302.47106045 C-20.7384584 300.06672271 -20.72960511 297.6626411 -20.72096252 295.25831604 C-20.72207511 293.53688474 -20.72413246 291.81545382 -20.72706604 290.09402466 C-20.73179392 286.38300786 -20.73066213 282.6720543 -20.7252903 278.96103859 C-20.71769146 273.09029186 -20.72832448 267.21966742 -20.74249268 261.34893799 C-20.78026124 244.6533615 -20.79843068 227.95783956 -20.78688049 211.26222229 C-20.78066048 202.04429522 -20.79226524 192.82656486 -20.82332581 183.60868615 C-20.84197077 177.77593221 -20.83866976 171.94373576 -20.8191582 166.11099112 C-20.8122648 162.47548306 -20.82625708 158.84027562 -20.84610748 155.20482445 C-20.851145 153.5230633 -20.84769508 151.84125123 -20.83497429 150.15953064 C-20.77350628 141.40872333 -20.75375028 134.70478353 -26.48146057 127.62818909 C-27.40530581 124.85665337 -27.61072535 123.19502734 -27.62190247 120.33505249 C-27.62761261 119.4590036 -27.63332275 118.58295471 -27.63920593 117.68035889 C-27.64032379 116.72188553 -27.64144165 115.76341217 -27.64259338 114.77589417 C-27.64755829 113.76418152 -27.65252319 112.75246887 -27.65763855 111.71009827 C-27.67226817 108.35596541 -27.67906431 105.00187989 -27.68458557 101.64772034 C-27.69033733 99.3170471 -27.69609506 96.98637389 -27.70185852 94.65570068 C-27.71237145 89.76395955 -27.71821189 84.87223486 -27.72169495 79.98048401 C-27.72717356 73.72046171 -27.75118702 67.46065759 -27.7796669 61.20070362 C-27.79831806 56.38363008 -27.80350026 51.56660877 -27.80503082 46.74950218 C-27.80805338 44.44229124 -27.81606846 42.13508112 -27.829216 39.82790565 C-27.84632432 36.59425554 -27.84438409 33.36113403 -27.83790588 30.12745667 C-27.84712067 29.17910446 -27.85633545 28.23075226 -27.86582947 27.25366211 C-27.81788064 19.58974073 -26.41589603 12.87538943 -21.03768533 7.0000028 C-14.61575937 1.33906852 -8.35872142 -0.10556375 0 0 Z M-11.48146057 18.62818909 C-13.28596674 21.39935904 -13.73343476 23.51062035 -13.74888611 26.78929138 C-13.75741608 27.61070618 -13.76594604 28.43212097 -13.7747345 29.27842712 C-13.77382812 30.17099213 -13.77292175 31.06355713 -13.77198792 31.98316956 C-13.77870514 32.92996582 -13.78542236 33.87676208 -13.79234314 34.85224915 C-13.81134693 37.98334496 -13.81524853 41.11422669 -13.81739807 44.24537659 C-13.82382427 46.42247099 -13.8305525 48.59956453 -13.83757019 50.7766571 C-13.84954887 55.34128319 -13.85325039 59.90583355 -13.85206604 64.47047424 C-13.85186281 70.31711965 -13.87916732 76.16327923 -13.91361046 82.00980949 C-13.93585687 86.50684333 -13.93990427 91.00375982 -13.93884659 95.50084305 C-13.94120586 97.65620219 -13.95004765 99.8115644 -13.96551132 101.96686935 C-13.98512537 104.98306471 -13.97935095 107.99820694 -13.96730042 111.01441956 C-13.97853943 111.9029361 -13.98977844 112.79145264 -14.00135803 113.70689392 C-13.94605181 119.15943668 -13.15579859 122.32871718 -9.48146057 126.62818909 C-5.73496914 129.12585004 -2.7902512 128.90731928 1.54588318 128.90162659 C3.15852035 128.92191367 4.77115051 128.94276442 6.3837738 128.96412659 C8.92281518 128.98673735 11.46157969 129.00320184 14.00071716 129.00904846 C16.45377975 129.0185703 18.90559914 129.05233899 21.35838318 129.08912659 C22.11578293 129.08408112 22.87318268 129.07903564 23.65353394 129.07383728 C26.9287016 129.13495388 29.17051816 129.41652341 31.99046326 131.13160706 C34.1698669 134.69233267 34.12159645 138.05694242 34.12791443 142.11256409 C34.14445068 142.92815796 34.16098694 143.74375183 34.17802429 144.58406067 C34.22650526 147.18218006 34.24787466 149.77971418 34.26853943 152.37818909 C34.29669915 154.14254145 34.32662659 155.90686655 34.35838318 157.67115784 C34.43226385 161.99012006 34.48183755 166.30875738 34.51853943 170.62818909 C37.78454233 168.06585893 40.48556832 165.67105153 43.01853943 162.37818909 C46.63321008 157.7503153 50.30710659 153.17846003 54.01853943 148.62818909 C58.57140812 143.04598514 58.57140812 143.04598514 63.06150818 137.41334534 C63.76920349 136.51486877 64.4768988 135.61639221 65.20603943 134.69068909 C65.80803162 133.91854065 66.4100238 133.14639221 67.03025818 132.35084534 C68.51853943 130.62818909 68.51853943 130.62818909 70.51853943 129.62818909 C72.65887553 129.53254712 74.80227599 129.50354215 76.94474792 129.50361633 C77.94551499 129.50150111 77.94551499 129.50150111 78.96649957 129.49934316 C81.21270825 129.49567945 83.45885423 129.49903129 85.70506287 129.50221252 C87.31136627 129.50081824 88.9176693 129.49891924 90.52397156 129.49655151 C93.98889715 129.49204876 97.45381088 129.4901983 100.91873932 129.49008942 C106.39818331 129.48895073 111.87755967 129.47612426 117.35697937 129.46052551 C118.28113828 129.45795266 119.2052972 129.45537981 120.15746093 129.45272899 C122.04754898 129.44746221 123.93763698 129.44217672 125.82772493 129.43687296 C138.58762917 129.40174436 151.34745004 129.37521086 164.10740662 129.37770081 C172.70968709 129.37928921 181.3117377 129.36325683 189.91394448 129.32699418 C194.46713387 129.30852701 199.01993947 129.29919764 203.57315826 129.31147003 C207.8579127 129.32290634 212.14198029 129.31120443 216.42664337 129.28183556 C217.99796812 129.2751945 219.56935573 129.2770627 221.14065552 129.28813362 C223.28938847 129.30201493 225.43580553 129.28510467 227.58439636 129.26069641 C229.38629236 129.25849657 229.38629236 129.25849657 231.2245903 129.25625229 C235.67984943 128.40676002 237.33704662 126.83249498 240.51853943 123.62818909 C241.4204021 120.92260106 241.65090507 119.32993744 241.67243958 116.54937744 C241.68104004 115.72092316 241.6896405 114.89246887 241.69850159 114.03890991 C241.70276154 113.1333989 241.70702148 112.22788788 241.71141052 111.29493713 C241.71958801 110.33853333 241.7277655 109.38212952 241.7361908 108.39674377 C241.7610288 105.22780483 241.77755579 102.0589106 241.79197693 98.88990784 C241.79996244 97.26693252 241.79996244 97.26693252 241.80810928 95.61116982 C241.8348325 89.88548618 241.85421105 84.1598243 241.86863708 78.43409729 C241.88529307 72.51898671 241.93008167 66.60443239 241.98100853 60.68953228 C242.01465185 56.14190017 242.02621128 51.59440068 242.03186417 47.04665565 C242.03858343 44.86615047 242.0538229 42.68565421 242.07775497 40.50527 C242.10934925 37.45292553 242.10945171 34.40208947 242.10203552 31.34962463 C242.11844086 30.45018631 242.13484619 29.55074799 242.15174866 28.62405396 C242.10934333 24.35769767 241.86789689 21.49646508 239.16957092 18.08309937 C235.90010779 15.05550853 233.7091914 14.50455816 229.41519356 14.49396801 C228.57628897 14.48951017 227.73738438 14.48505232 226.87305844 14.48045939 C225.49054074 14.48073594 225.49054074 14.48073594 224.08009338 14.48101807 C222.61146137 14.47550303 222.61146137 14.47550303 221.11316001 14.46987659 C217.81745442 14.45882335 214.52178033 14.45499316 211.22605896 14.45118713 C208.86922607 14.44492385 206.51239417 14.43827717 204.15556335 14.43127441 C197.07330709 14.41203777 189.99105437 14.40144601 182.90877849 14.39254662 C179.57415763 14.38816322 176.23953827 14.38279664 172.90491867 14.37755775 C161.82157025 14.36054818 150.73822282 14.34605288 139.65486336 14.33880901 C136.77918115 14.33689911 133.90349895 14.33497878 131.02781677 14.33302307 C130.31307728 14.33253933 129.5983378 14.33205559 128.86193953 14.33155719 C117.27744329 14.3232526 105.69305016 14.29790729 94.10859896 14.26544239 C82.21735727 14.23238907 70.32616802 14.21436192 58.43488014 14.21116477 C51.75736776 14.20899832 45.07998569 14.19978806 38.40251541 14.1747036 C32.12344512 14.1514966 25.84464612 14.14715999 19.56554413 14.15746498 C17.25845057 14.15796221 14.95134399 14.15158715 12.64429092 14.13790894 C9.49951608 14.12030406 6.35572702 14.12724027 3.21095276 14.14044189 C2.29373573 14.12947265 1.37651871 14.1185034 0.43150723 14.10720176 C-4.79004395 14.16028137 -7.78391075 14.56387053 -11.48146057 18.62818909 Z M-6.48146057 142.62818909 C-10.0102869 167.29684754 -12.507845 191.86962345 -13.85646057 216.75318909 C-13.93333225 218.13073514 -13.93333225 218.13073514 -14.0117569 219.5361104 C-16.51638617 265.67114569 -13.79777714 304.78338878 17.855865 340.57373714 C28.75941527 352.69370786 40.40108363 363.92031391 52.51853943 374.81568909 C53.22343789 375.45143765 53.92833635 376.08718622 54.65459538 376.7421999 C72.94829174 393.21252013 91.85459442 408.8225828 111.51853943 423.62818909 C132.34155647 403.06706521 144.70519617 369.14947542 148.51853943 340.62818909 C148.65884583 339.67480652 148.65884583 339.67480652 148.80198669 338.7021637 C149.75592785 331.50545803 149.62923082 324.31293307 149.58103943 317.06568909 C149.57427185 315.12339417 149.57427185 315.12339417 149.56736755 313.14186096 C149.55566544 309.97058809 149.53927056 306.79941363 149.51853943 303.62818909 C145.18939566 307.73076084 141.58459982 312.21512206 137.95603943 316.94068909 C137.04664612 318.11534729 137.04664612 318.11534729 136.11888123 319.31373596 C133.0567045 323.28119986 130.02834471 327.27131356 127.04197693 331.29615784 C126.50000671 332.02600891 125.9580365 332.75585999 125.39964294 333.50782776 C124.37439879 334.89370254 123.35384047 336.28305937 122.33860779 337.67628479 C120.21236303 340.55756796 118.52677939 342.62269578 115.51853943 344.62818909 C112.45603943 344.44068909 112.45603943 344.44068909 109.51853943 343.62818909 C107.33978261 340.36005386 107.06057953 339.41546741 107.51853943 335.62818909 C108.76512146 333.43434143 108.76512146 333.43434143 110.52635193 331.21412659 C111.17660339 330.38002258 111.82685486 329.54591858 112.49681091 328.6865387 C113.20523132 327.80103333 113.91365173 326.91552795 114.64353943 326.00318909 C116.11759461 324.11756309 117.59022242 322.23082051 119.06150818 320.34303284 C119.80835876 319.39025452 120.55520935 318.4374762 121.32469177 317.45582581 C125.21451422 312.44225763 128.95108353 307.31755609 132.68748474 302.18922424 C135.19799172 298.75060372 137.71952755 295.33955789 140.38963318 292.02272034 C140.8176825 291.48332825 141.24573181 290.94393616 141.68675232 290.38819885 C142.7923835 289.0047619 143.91630492 287.6359939 145.04197693 286.26881409 C148.36136976 280.33254543 146.08070749 273.80732383 144.39353943 267.62818909 C144.05576477 266.37751648 144.05576477 266.37751648 143.71116638 265.10157776 C137.07325742 241.28293082 124.86553913 218.19124333 108.51853943 199.62818909 C107.76572693 198.76580627 107.01291443 197.90342346 106.23728943 197.01490784 C104.02840487 194.52234804 101.78596947 192.06751815 99.51853943 189.62818909 C98.9075238 188.96303284 98.29650818 188.29787659 97.66697693 187.61256409 C89.4684901 179.0303183 79.75481363 171.92846419 69.89353943 165.37818909 C69.3139447 164.983172 68.73434998 164.58815491 68.13719177 164.1811676 C65.90296764 162.7409321 64.12895127 161.65452956 61.43650818 161.53834534 C58.47779711 163.21956812 56.55801595 165.70323795 54.45603943 168.31568909 C53.98142273 168.89077209 53.50680603 169.4658551 53.01780701 170.05836487 C49.51808776 174.32344974 46.10944224 178.66113892 42.70603943 183.00318909 C42.24286316 183.59212952 41.77968689 184.18106995 41.30247498 184.78785706 C39.42124639 187.18301376 37.5526887 189.58203128 35.74119568 192.03053284 C33.24541945 195.26775983 31.83930476 196.54120188 27.83103943 197.62818909 C24.51853943 197.62818909 24.51853943 197.62818909 21.51853943 196.62818909 C21.18853943 178.80818909 20.85853943 160.98818909 20.51853943 142.62818909 C11.60853943 142.62818909 2.69853943 142.62818909 -6.48146057 142.62818909 Z " fill="#010101" transform="translate(224.48146057128906,3.3718109130859375)"/>
<path d="M0 0 C7.10374468 5.06642117 13.09826994 11.93672099 19.26538086 18.08837891 C20.37804549 19.19476541 21.49089452 20.30096649 22.60391235 21.40699768 C26.22775094 25.00998397 29.84642351 28.61813609 33.46484375 32.2265625 C34.71541238 33.47307891 35.96601337 34.71956285 37.21664619 35.96601486 C43.08446948 41.81484159 48.94991749 47.66603744 54.81243032 53.52018702 C61.57145942 60.26941211 68.33871768 67.01024559 75.11295217 73.74420798 C80.35916573 78.96030119 85.59771725 84.18400965 90.83055025 89.41352594 C93.95272026 92.53334433 97.07811625 95.649762 100.21165276 98.75816727 C103.15317329 101.67646842 106.08509842 104.60407427 109.00987625 107.53915215 C110.08476107 108.61453363 111.16308068 109.68649439 112.24503899 110.75475883 C113.72066432 112.21274382 115.18344874 113.68251678 116.6436615 115.15591431 C117.46565001 115.97551447 118.28763853 116.79511463 119.13453579 117.63955116 C121.17110011 120.21650003 121.7575172 121.75083117 122 125 C120.7300459 129.65856335 118.51306332 131.55263908 114.51953125 133.9375 C112.62573354 134.97410151 110.72268333 135.99391249 108.8125 137 C106.70996528 138.14665661 104.60843259 139.29515214 102.5078125 140.4453125 C100.88601074 141.32558105 100.88601074 141.32558105 99.23144531 142.22363281 C94.16021563 145.01135321 89.17505107 147.94097582 84.1875 150.875 C82.17873464 152.05137779 80.16961579 153.22715214 78.16015625 154.40234375 C77.15098145 154.99257324 76.14180664 155.58280273 75.10205078 156.19091797 C66.51566825 161.19840219 57.89528643 166.14748796 49.28222656 171.10888672 C43.85340059 174.23680148 38.42680025 177.36857247 33 180.5 C26.41827123 184.29739963 19.83635928 188.09448093 13.25390625 191.890625 C12.14370117 192.53112793 11.03349609 193.17163086 9.88964844 193.83154297 C7.69435942 195.09736195 5.4984094 196.36203534 3.30175781 197.62548828 C-1.69882238 200.50407648 -6.6873206 203.3988159 -11.64453125 206.3515625 C-12.51215088 206.86493164 -13.37977051 207.37830078 -14.27368164 207.90722656 C-15.86738815 208.85185473 -17.45680902 209.80377086 -19.04077148 210.76464844 C-22.97177913 213.08659544 -26.31295802 214.96072311 -31 215 C-33.92086116 213.99310581 -35.43536757 212.93514767 -37.04248047 210.2734375 C-38.10965932 208.04701776 -39.03772304 205.7992007 -39.9375 203.5 C-40.27813477 202.6541333 -40.61876953 201.8082666 -40.96972656 200.93676758 C-59.88922716 153.07504125 -60.54775264 99.47659431 -40.203125 51.859375 C-33.24184154 36.20596265 -24.68454131 21.90770484 -14.1875 8.375 C-13.71900635 7.77002686 -13.2505127 7.16505371 -12.76782227 6.54174805 C-8.95254021 1.72037425 -6.37325666 -1.08225113 0 0 Z " fill="#010201" transform="translate(62,190)"/>
<path d="M0 0 C0.99515625 -0.03738281 1.9903125 -0.07476562 3.015625 -0.11328125 C6.58595077 0.44266948 7.53720963 1.48915894 9.75 4.3125 C10.25336456 7.24544525 10.25336456 7.24544525 10.25793457 10.72692871 C10.26417453 11.36864187 10.2704145 12.01035502 10.27684355 12.67151403 C10.29278681 14.81979561 10.28016556 16.96694458 10.26757812 19.11523438 C10.27299871 20.6561194 10.28012101 22.19699925 10.28881836 23.73786926 C10.30706245 27.92178095 10.29997986 32.10529836 10.28730202 36.289217 C10.27717991 40.66625156 10.2865655 45.04325221 10.29284668 49.42028809 C10.3001254 56.77097642 10.29052954 64.12150403 10.27148438 71.47216797 C10.24971514 79.972412 10.25676636 88.47227227 10.27879 96.972507 C10.29693765 104.26858923 10.29950545 111.56455589 10.28903532 118.8606534 C10.28279687 123.21919324 10.28197434 127.57755266 10.29518127 131.93608093 C10.30672999 136.03364222 10.29873238 140.13070841 10.27560425 144.22821617 C10.27031186 145.73265956 10.27184004 147.23714456 10.28065491 148.74157143 C10.2915742 150.79430186 10.27789415 152.84544241 10.25793457 154.89807129 C10.25642647 156.04696083 10.25491837 157.19585037 10.25336456 158.37955475 C9.63784023 161.96601934 8.6121194 163.12992239 5.75 165.3125 C2.625 166.125 2.625 166.125 -1.25 165.3125 C-3.46085358 163.61491966 -3.46085358 163.61491966 -5.86096191 161.38485718 C-6.7439949 160.56555096 -7.62702789 159.74624474 -8.53681946 158.90211105 C-12.86488851 154.7711602 -17.12389544 150.5777495 -21.34960938 146.34228516 C-22.31313917 145.38011475 -23.2768806 144.41815624 -24.24081421 143.45639038 C-26.82523816 140.87647258 -29.40655302 138.29346597 -31.9871273 135.7096982 C-34.69926096 132.99501044 -37.41385887 130.28278852 -40.12805176 127.57015991 C-44.67538099 123.02464136 -49.22061653 118.47703729 -53.76464844 113.92822266 C-59.01612886 108.67127876 -64.27123285 103.41797776 -69.52818823 98.16650927 C-74.05506599 93.64416677 -78.57999575 89.11988209 -83.10329676 84.59396207 C-85.79949529 81.896206 -88.49636163 79.19912684 -91.19499207 76.50380325 C-93.72538345 73.97629735 -96.25332209 71.44636377 -98.77937698 68.91452408 C-100.14893138 67.54301539 -101.52095059 66.1739694 -102.89303589 64.80499268 C-104.11236313 63.5814357 -104.11236313 63.5814357 -105.35632324 62.3331604 C-106.06417717 61.62492945 -106.7720311 60.91669849 -107.50133514 60.187006 C-110.08239804 57.42019916 -111.19538027 55.73385221 -111.6875 51.9375 C-111.12167357 47.24922383 -109.84559848 46.30883207 -106.25 43.3125 C-105.72664063 42.81363281 -105.20328125 42.31476563 -104.6640625 41.80078125 C-78.07426327 16.8946156 -36.20708634 0.90043801 0 0 Z " fill="#FD5370" transform="translate(182.25,126.6875)"/>
<path d="M0 0 C2.93655396 1.92982483 2.93655396 1.92982483 5.70751953 4.69165039 C6.22479897 5.19644991 6.74207842 5.70124943 7.275033 6.2213459 C8.99709796 7.91159321 10.68924964 9.62888758 12.3828125 11.34765625 C13.61385453 12.56785387 14.84659105 13.78634396 16.08088684 15.00325012 C19.42358079 18.3094934 22.74049678 21.64052085 26.05228806 24.97768402 C29.52232238 28.46798234 33.01184457 31.9387081 36.49829102 35.41259766 C42.34976075 41.24951565 48.18416697 47.10309267 54.00927734 52.96630859 C60.74277597 59.74334497 67.50461201 66.49107814 74.28189087 73.22431087 C80.10145783 79.00756603 85.90527914 84.8062762 91.69624329 90.61817265 C95.15430398 94.08870131 98.61753224 97.55360854 102.09503174 101.00466919 C105.36372642 104.25024199 108.61220674 107.51478485 111.84616661 110.79495811 C113.03571087 111.99507434 114.2321045 113.18844604 115.43573952 114.3744297 C117.07916753 115.99596523 118.69592594 117.6401936 120.30834961 119.29248047 C121.21975204 120.20689911 122.13115448 121.12131775 123.07017517 122.06344604 C125.72284281 126.09992724 125.53343448 128.23469779 125 133 C122.86328125 135.70703125 122.86328125 135.70703125 120 138 C118.62908203 139.15048828 118.62908203 139.15048828 117.23046875 140.32421875 C91.81993116 160.05897516 62.78003816 173.43753648 31 179 C29.5135498 179.26490234 29.5135498 179.26490234 27.99707031 179.53515625 C18.18265354 181.12132462 8.53989622 181.39945408 -1.375 181.375 C-2.20804657 181.37445618 -3.04109314 181.37391235 -3.89938354 181.37335205 C-17.91743586 181.33143655 -31.33055624 180.30420329 -45 177 C-45.89912109 176.78569336 -46.79824219 176.57138672 -47.72460938 176.35058594 C-93.05305287 165.20504525 -133.47173376 137.45932066 -160 99 C-161.54586876 95.90826248 -161.29359521 93.40570448 -161 90 C-158.25536733 86.68500713 -155.1255095 84.72912607 -151.3984375 82.63671875 C-150.28194824 82.00499756 -149.16545898 81.37327637 -148.01513672 80.72241211 C-146.80176234 80.04409998 -145.58838331 79.36579616 -144.375 78.6875 C-143.11301227 77.97545541 -141.85146267 77.26263379 -140.59033203 76.54907227 C-138.64596335 75.44906737 -136.70133341 74.34955572 -134.75534058 73.25242615 C-128.43720944 69.69008611 -122.15340573 66.06935324 -115.875 62.4375 C-113.72659533 61.19655775 -111.5781578 59.95567238 -109.4296875 58.71484375 C-108.36975586 58.10237793 -107.30982422 57.48991211 -106.21777344 56.85888672 C-100.81329355 53.73675395 -95.40652588 50.61858796 -90 47.5 C-87.8333225 46.25001878 -85.66665583 45.00001879 -83.5 43.75 C-70.5 36.25 -70.5 36.25 -67.24780273 34.3737793 C-65.08840605 33.1279423 -62.92906331 31.88201182 -60.76977539 30.63598633 C-55.24232403 27.44651047 -49.71384879 24.25883115 -44.18359375 21.07421875 C-43.0632373 20.428479 -41.94288086 19.78273926 -40.78857422 19.11743164 C-38.57916269 17.84499989 -36.36857574 16.57460661 -34.15673828 15.30639648 C-29.35320165 12.54589142 -24.57545634 9.76280737 -19.87109375 6.8359375 C-19.101604 6.36260986 -18.33211426 5.88928223 -17.53930664 5.40161133 C-16.15786457 4.54687813 -14.78487926 3.67821644 -13.42358398 2.79174805 C-9.01489016 0.07694854 -5.09223253 -0.87211823 0 0 Z M-10.72265625 18.5703125 C-11.72353271 19.12968506 -12.72440918 19.68905762 -13.75561523 20.26538086 C-14.84688721 20.87905518 -15.93815918 21.49272949 -17.0625 22.125 C-18.18922119 22.75736572 -19.31594238 23.38973145 -20.47680664 24.04125977 C-30.01156439 29.40382438 -39.46516024 34.90147819 -48.90234375 40.43359375 C-55.25046615 44.15334912 -61.62362113 47.82895249 -68 51.5 C-77.32994081 56.8738409 -86.63886257 62.28228033 -95.93457031 67.71508789 C-104.57868221 72.76319784 -113.24677144 77.76907715 -121.921875 82.76367188 C-128.96220595 86.81814818 -135.98643744 90.89939127 -143 95 C-141.34171264 99.527721 -138.9874068 102.54671108 -135.6875 106 C-134.9769043 106.76183594 -134.9769043 106.76183594 -134.25195312 107.5390625 C-131.23357556 110.75976633 -128.1237411 113.88137141 -125 117 C-124.36320312 117.68320312 -123.72640625 118.36640625 -123.0703125 119.0703125 C-112.49829706 130.23673845 -99.3586137 138.55160284 -86 146 C-85.09507813 146.51191895 -85.09507813 146.51191895 -84.171875 147.03417969 C-65.87620369 157.24730817 -45.63220806 162.91264006 -25 166 C-23.75347656 166.19335938 -22.50695312 166.38671875 -21.22265625 166.5859375 C-6.08253605 168.38474501 10.02135269 167.67047883 25 165 C26.86205078 164.76023437 26.86205078 164.76023437 28.76171875 164.515625 C57.49911271 160.60984475 83.79862374 146.81129323 107 130 C105.47378673 126.39944073 103.3443913 124.09529629 100.5901947 121.34295654 C99.19990303 119.94637314 99.19990303 119.94637314 97.78152466 118.52157593 C96.75150013 117.49703451 95.72137593 116.47259327 94.69116211 115.44824219 C93.60833705 114.36434405 92.52594513 113.28001305 91.44395447 112.19528198 C88.50651838 109.25300008 85.56287292 106.31700349 82.61794353 103.38222408 C79.54015412 100.31321471 76.46763439 97.23893805 73.39442444 94.16534424 C68.23534739 89.00720355 63.07241225 83.85295038 57.90698242 78.70117188 C51.92670955 72.73664501 45.9517001 66.76688693 39.97966188 60.79411578 C34.24121588 55.05506054 28.49992322 49.31886248 22.75702095 43.58426666 C20.30927654 41.14006154 17.8623912 38.69500107 15.41615105 36.24929047 C12.54001518 33.3741554 9.66135583 30.50157108 6.7806797 27.63098526 C5.72077773 26.57401614 4.66173265 25.516187 3.60358429 24.45746231 C2.1656403 23.01903135 0.72433201 21.58396583 -0.71717834 20.14910889 C-1.52483674 19.34312634 -2.33249514 18.53714378 -3.16462803 17.70673752 C-6.21439906 14.8707137 -7.27531688 16.64225079 -10.72265625 18.5703125 Z " fill="#020200" transform="translate(200,327)"/>
<path d="M0 0 C2.63119031 4.21113402 2.87942963 8.61584549 3.421875 13.48828125 C3.54691406 14.46087891 3.67195312 15.43347656 3.80078125 16.43554688 C5.51290949 30.33012606 5.51290949 30.33012606 3.109375 34.17578125 C0.671875 35.67578125 0.671875 35.67578125 -2.828125 35.80078125 C-7.23292367 34.38495311 -7.98523265 32.52922262 -10.328125 28.67578125 C-16.94090423 39.9833408 -23.54331197 51.29593892 -30.07104492 62.65283203 C-35.36173751 71.85338006 -40.67001762 81.04364812 -46.078125 90.17578125 C-46.56748535 91.01270508 -47.0568457 91.84962891 -47.56103516 92.71191406 C-48.01526855 93.47342773 -48.46950195 94.23494141 -48.9375 95.01953125 C-49.32905273 95.68146484 -49.72060547 96.34339844 -50.12402344 97.02539062 C-51.328125 98.67578125 -51.328125 98.67578125 -54.328125 100.67578125 C-57.67578125 100.796875 -57.67578125 100.796875 -61.328125 99.67578125 C-63.64206002 97.33031049 -65.14828174 94.59258619 -66.765625 91.73828125 C-67.80065898 90.00773936 -68.83582252 88.27727496 -69.87109375 86.546875 C-70.42200684 85.6069873 -70.97291992 84.66709961 -71.54052734 83.69873047 C-74.12932661 79.32089484 -76.81166013 75.00176431 -79.48852539 70.67749023 C-82.12526435 66.41662605 -84.7459234 62.1460573 -87.36132812 57.87207031 C-88.76165819 55.59636013 -90.17079384 53.32812236 -91.59179688 51.06542969 C-91.9628656 50.47144379 -92.33393433 49.87745789 -92.71624756 49.26547241 C-93.75806973 47.59879475 -94.80421022 45.93481872 -95.85058594 44.27099609 C-97.328125 41.67578125 -97.328125 41.67578125 -97.328125 39.67578125 C-97.988125 39.67578125 -98.648125 39.67578125 -99.328125 39.67578125 C-99.55757813 40.34351563 -99.78703125 41.01125 -100.0234375 41.69921875 C-101.69937618 45.52276748 -103.88454923 48.83981684 -106.203125 52.30078125 C-106.63753906 52.96851563 -107.07195312 53.63625 -107.51953125 54.32421875 C-111.75182455 60.6790135 -111.75182455 60.6790135 -115.328125 62.67578125 C-121.63677643 62.92812731 -125.28864496 59.90337938 -130.19140625 56.171875 C-132.16644191 54.48459363 -132.16644191 54.48459363 -134.328125 54.67578125 C-134.70098633 55.38186523 -135.07384766 56.08794922 -135.45800781 56.81542969 C-137.15720856 60.0229216 -138.86752364 63.224356 -140.578125 66.42578125 C-141.16464844 67.53695312 -141.75117188 68.648125 -142.35546875 69.79296875 C-142.92910156 70.86289063 -143.50273437 71.9328125 -144.09375 73.03515625 C-144.61743164 74.01967773 -145.14111328 75.00419922 -145.68066406 76.01855469 C-147.34269377 78.69927955 -148.90131458 80.66419117 -151.328125 82.67578125 C-157.36985692 83.41774833 -157.36985692 83.41774833 -159.94235229 81.42591858 C-161.54789455 79.39822715 -162.18676855 77.70858914 -162.93798828 75.23608398 C-163.21482452 74.34183212 -163.49166077 73.44758026 -163.77688599 72.52622986 C-164.06449799 71.56366776 -164.35210999 70.60110565 -164.6484375 69.609375 C-164.95256561 68.61954117 -165.25669373 67.62970734 -165.57003784 66.60987854 C-166.53998013 63.44699004 -167.49692918 60.28034974 -168.453125 57.11328125 C-169.41910232 53.94350322 -170.38769724 50.77454036 -171.3576355 47.60597229 C-171.96040211 45.63365864 -172.56035284 43.66048186 -173.15725708 41.68638611 C-173.427789 40.79528641 -173.69832092 39.90418671 -173.97705078 38.98608398 C-174.21449005 38.20015366 -174.45192932 37.41422333 -174.69656372 36.60447693 C-175.29283322 34.62414334 -175.29283322 34.62414334 -176.328125 32.67578125 C-176.60261475 33.24981689 -176.87710449 33.82385254 -177.15991211 34.4152832 C-179.91117836 40.16558135 -182.67070041 45.9118523 -185.43588257 51.6554718 C-187.50910492 55.96461118 -189.5705991 60.27922566 -191.62782288 64.59602356 C-193.14566377 67.77640361 -194.67080044 70.95325249 -196.19729614 74.12948608 C-196.94920883 75.69790025 -197.69814901 77.26774304 -198.44406128 78.83901978 C-199.50176633 81.06579363 -200.56999961 83.28722793 -201.640625 85.5078125 C-201.95379166 86.17349243 -202.26695831 86.83917236 -202.58961487 87.52502441 C-204.37655342 91.20035791 -206.1362613 94.08717023 -209.328125 96.67578125 C-212.328125 97.23828125 -212.328125 97.23828125 -215.328125 96.67578125 C-217.765625 94.55078125 -217.765625 94.55078125 -219.328125 91.67578125 C-219.0128022 86.24210269 -216.74169405 81.91673601 -214.34765625 77.140625 C-213.94274963 76.3169191 -213.53784302 75.4932132 -213.1206665 74.64454651 C-211.80112194 71.96387035 -210.47093961 69.28862654 -209.140625 66.61328125 C-208.22825183 64.76473405 -207.31671741 62.91577264 -206.40600586 61.06640625 C-205.03068836 58.27381598 -203.65483336 55.48150757 -202.27601624 52.69064331 C-199.50820001 47.08656773 -196.76675292 41.47095696 -194.0625 35.8359375 C-193.74339157 35.17125961 -193.42428314 34.50658173 -193.09550476 33.82176208 C-191.6376185 30.78238663 -190.18333359 27.74133872 -188.73168945 24.69897461 C-180.77731717 8.12497342 -180.77731717 8.12497342 -178.328125 5.67578125 C-172.09953467 5.08817839 -172.09953467 5.08817839 -169.24609375 7.26171875 C-166.85293205 10.27388561 -166.02839133 12.91848313 -164.953125 16.61328125 C-164.74888916 17.29986816 -164.54465332 17.98645508 -164.33422852 18.69384766 C-163.12231173 22.80026738 -161.97557135 26.92531719 -160.81640625 31.046875 C-160.55843262 31.96025635 -160.30045898 32.8736377 -160.03466797 33.81469727 C-159.53621406 35.58808551 -159.04395703 37.3632319 -158.55908203 39.14038086 C-156.88101274 45.16850418 -154.75735475 50.91049129 -152.328125 56.67578125 C-151.90515137 55.88143677 -151.90515137 55.88143677 -151.47363281 55.07104492 C-150.18461371 52.66323959 -148.88157055 50.26330529 -147.578125 47.86328125 C-147.1346875 47.02990234 -146.69125 46.19652344 -146.234375 45.33789062 C-145.79609375 44.53544922 -145.3578125 43.73300781 -144.90625 42.90625 C-144.30925293 41.79866333 -144.30925293 41.79866333 -143.70019531 40.66870117 C-142.14267222 38.40641274 -140.66803831 37.10487863 -138.328125 35.67578125 C-133.22617186 35.7806159 -130.05962492 37.86373131 -125.953125 40.73828125 C-124.89351563 41.47175781 -123.83390625 42.20523438 -122.7421875 42.9609375 C-121.94554687 43.52683594 -121.14890625 44.09273437 -120.328125 44.67578125 C-116.42834738 41.200285 -113.99228333 37.16643533 -111.328125 32.73828125 C-105.42451441 22.97943405 -105.42451441 22.97943405 -102.328125 19.67578125 C-97.43107036 18.47158749 -97.43107036 18.47158749 -94.328125 19.67578125 C-92.62084961 21.57470703 -92.62084961 21.57470703 -90.98046875 24.05859375 C-90.07470093 25.42141479 -90.07470093 25.42141479 -89.15063477 26.81176758 C-86.27240936 31.33480337 -83.46023951 35.89043652 -80.703125 40.48828125 C-79.48495709 42.50295624 -78.26619249 44.51727055 -77.046875 46.53125 C-76.43328125 47.54622559 -75.8196875 48.56120117 -75.1875 49.60693359 C-72.21248606 54.51711284 -69.21381199 59.41241042 -66.203125 64.30078125 C-65.67122559 65.17065674 -65.13932617 66.04053223 -64.59130859 66.93676758 C-62.0471616 71.06089927 -59.48224537 74.97836742 -56.328125 78.67578125 C-55.97733887 78.04414062 -55.62655273 77.4125 -55.26513672 76.76171875 C-44.58592836 57.55505701 -33.67250086 38.49875805 -22.328125 19.67578125 C-24.2153125 19.76859375 -24.2153125 19.76859375 -26.140625 19.86328125 C-28.65926451 19.8409924 -30.05808106 19.81080322 -32.328125 18.67578125 C-33.90714911 15.51773303 -34.20562099 12.10285221 -33.328125 8.67578125 C-29.22748346 5.14139697 -24.55644804 3.73922704 -19.515625 1.98828125 C-18.63841797 1.66794922 -17.76121094 1.34761719 -16.85742188 1.01757812 C-5.32392265 -3.02820433 -5.32392265 -3.02820433 0 0 Z " fill="#030404" transform="translate(440.328125,26.32421875)"/>
<path d="M0 0 C0.99515625 -0.03738281 1.9903125 -0.07476562 3.015625 -0.11328125 C6.58595077 0.44266948 7.53720963 1.48915894 9.75 4.3125 C10.25336456 7.24544525 10.25336456 7.24544525 10.25793457 10.72692871 C10.26417453 11.36864187 10.2704145 12.01035502 10.27684355 12.67151403 C10.29278681 14.81979561 10.28016556 16.96694458 10.26757812 19.11523438 C10.27299871 20.6561194 10.28012101 22.19699925 10.28881836 23.73786926 C10.30706245 27.92178095 10.29997986 32.10529836 10.28730202 36.289217 C10.27717991 40.66625156 10.2865655 45.04325221 10.29284668 49.42028809 C10.3001254 56.77097642 10.29052954 64.12150403 10.27148438 71.47216797 C10.24971514 79.972412 10.25676636 88.47227227 10.27879 96.972507 C10.29693765 104.26858923 10.29950545 111.56455589 10.28903532 118.8606534 C10.28279687 123.21919324 10.28197434 127.57755266 10.29518127 131.93608093 C10.30672999 136.03364222 10.29873238 140.13070841 10.27560425 144.22821617 C10.27031186 145.73265956 10.27184004 147.23714456 10.28065491 148.74157143 C10.2915742 150.79430186 10.27789415 152.84544241 10.25793457 154.89807129 C10.25642647 156.04696083 10.25491837 157.19585037 10.25336456 158.37955475 C9.63784023 161.96601934 8.6121194 163.12992239 5.75 165.3125 C2.625 166.125 2.625 166.125 -1.25 165.3125 C-3.46085358 163.61491966 -3.46085358 163.61491966 -5.86096191 161.38485718 C-6.7439949 160.56555096 -7.62702789 159.74624474 -8.53681946 158.90211105 C-12.86488851 154.7711602 -17.12389544 150.5777495 -21.34960938 146.34228516 C-22.31313917 145.38011475 -23.2768806 144.41815624 -24.24081421 143.45639038 C-26.82523816 140.87647258 -29.40655302 138.29346597 -31.9871273 135.7096982 C-34.69926096 132.99501044 -37.41385887 130.28278852 -40.12805176 127.57015991 C-44.67538099 123.02464136 -49.22061653 118.47703729 -53.76464844 113.92822266 C-59.01612886 108.67127876 -64.27123285 103.41797776 -69.52818823 98.16650927 C-74.05506599 93.64416677 -78.57999575 89.11988209 -83.10329676 84.59396207 C-85.79949529 81.896206 -88.49636163 79.19912684 -91.19499207 76.50380325 C-93.72538345 73.97629735 -96.25332209 71.44636377 -98.77937698 68.91452408 C-100.14893138 67.54301539 -101.52095059 66.1739694 -102.89303589 64.80499268 C-104.11236313 63.5814357 -104.11236313 63.5814357 -105.35632324 62.3331604 C-106.06417717 61.62492945 -106.7720311 60.91669849 -107.50133514 60.187006 C-110.08239804 57.42019916 -111.19538027 55.73385221 -111.6875 51.9375 C-111.12167357 47.24922383 -109.84559848 46.30883207 -106.25 43.3125 C-105.72664063 42.81363281 -105.20328125 42.31476563 -104.6640625 41.80078125 C-78.07426327 16.8946156 -36.20708634 0.90043801 0 0 Z M-16.21875 16.23046875 C-17.11118408 16.42970947 -18.00361816 16.6289502 -18.9230957 16.83422852 C-20.32241333 17.1637854 -20.32241333 17.1637854 -21.75 17.5 C-23.22182739 17.84599243 -23.22182739 17.84599243 -24.72338867 18.19897461 C-46.14432623 23.34639656 -67.56548527 31.93765692 -85.25 45.3125 C-86.06855469 45.91320312 -86.88710937 46.51390625 -87.73046875 47.1328125 C-89.58665807 48.50658429 -91.42612021 49.89631099 -93.25 51.3125 C-91.8548981 54.45854118 -90.22240701 56.59112055 -87.79602051 59.02044678 C-87.0809584 59.74114853 -86.3658963 60.46185028 -85.62916565 61.20439148 C-84.84468552 61.98482315 -84.06020538 62.76525482 -83.25195312 63.56933594 C-82.01275368 64.81379234 -82.01275368 64.81379234 -80.7485199 66.08338928 C-78.01444346 68.82627392 -75.27310941 71.561772 -72.53125 74.296875 C-70.63243432 76.19613574 -68.73481669 78.09659223 -66.83703613 79.99688721 C-62.85930419 83.97825563 -58.87737804 87.9553927 -54.89306641 91.93017578 C-50.28248133 96.52986197 -45.67916571 101.13672918 -41.07953119 105.74736381 C-37.13157439 109.70438473 -33.17974825 113.65750965 -29.22463751 117.60738015 C-26.86167289 119.96722217 -24.50008696 122.32840991 -22.14198303 124.6931076 C-19.51546597 127.32467597 -16.88267145 129.94979427 -14.24804688 132.57324219 C-13.46356674 133.36177078 -12.67908661 134.15029938 -11.87083435 134.96272278 C-11.15577225 135.67214523 -10.44071014 136.38156769 -9.70397949 137.11248779 C-9.08160149 137.73411175 -8.45922348 138.3557357 -7.81798553 138.99619675 C-6.33590888 140.52682054 -6.33590888 140.52682054 -4.25 140.3125 C-4.25 99.0625 -4.25 57.8125 -4.25 15.3125 C-10.41533811 15.29170668 -10.41533811 15.29170668 -16.21875 16.23046875 Z " fill="#000000" transform="translate(182.25,126.6875)"/>
<path d="M0 0 C0.55300781 0.70640625 1.10601562 1.4128125 1.67578125 2.140625 C5.45505601 6.79008571 9.54018499 11.15317213 13.62890625 15.52929688 C14.81243614 16.7988097 15.98536555 18.07818984 17.15625 19.359375 C28.20515284 31.00321877 41.78777905 39.73288774 56 47 C56.6923877 47.35578125 57.38477539 47.7115625 58.09814453 48.078125 C71.2379473 54.74617476 84.42988239 59.13485772 98.8125 62.25 C99.56450684 62.41338867 100.31651367 62.57677734 101.09130859 62.74511719 C140.25328338 70.74989652 184.74063309 62.27876559 218.2109375 40.296875 C220.19968282 38.96513856 222.172558 37.61712409 224.12841797 36.23754883 C230.164119 32.01222362 230.164119 32.01222362 233 32 C234.921875 33.36328125 234.921875 33.36328125 236.75 35.3125 C237.67039062 36.26576172 237.67039062 36.26576172 238.609375 37.23828125 C240 39 240 39 240 41 C235.87962198 44.28657471 231.41165032 47.1200312 227 50 C226.41202637 50.38671875 225.82405273 50.7734375 225.21826172 51.171875 C215.02467518 57.80295775 204.35140145 62.68130455 193 67 C192.25347168 67.28504395 191.50694336 67.57008789 190.73779297 67.86376953 C147.22710616 84.15504723 98.75140358 80.97838213 56.6015625 62.1953125 C36.49671762 52.84244708 19.56819551 39.61801374 4 24 C3.2471875 23.27039063 2.494375 22.54078125 1.71875 21.7890625 C-2.72259246 17.45718974 -6.67726436 13.25206601 -10 8 C-10 7.34 -10 6.68 -10 6 C-7.8125 4.4921875 -7.8125 4.4921875 -5 2.875 C-4.071875 2.33617187 -3.14375 1.79734375 -2.1875 1.2421875 C-1.465625 0.83226562 -0.74375 0.42234375 0 0 Z " fill="#F8D835" transform="translate(67,416)"/>
<path d="M0 0 C2.5063724 1.02837799 3.91160925 2.3397095 5.796875 4.27734375 C6.41046875 4.89480469 7.0240625 5.51226562 7.65625 6.1484375 C9.046875 7.83984375 9.046875 7.83984375 9.046875 9.83984375 C8.0259375 10.39929688 7.005 10.95875 5.953125 11.53515625 C-3.95114703 16.9873791 -13.75024366 22.60241171 -23.50634766 28.31518555 C-30.93151252 32.66294532 -38.37306596 36.98104657 -45.828125 41.27734375 C-47.44750977 42.21066528 -47.44750977 42.21066528 -49.09960938 43.1628418 C-51.2899502 44.42495892 -53.48038002 45.6869216 -55.67089844 46.94873047 C-60.01894085 49.45393253 -64.36553165 51.96164587 -68.71191406 54.46972656 C-70.8620882 55.71033622 -73.01247674 56.95057437 -75.16308594 58.19042969 C-80.20834012 61.09944643 -85.25185206 64.0113578 -90.28912354 66.93417358 C-92.06992501 67.96727315 -93.85128358 68.99940546 -95.6328125 70.03125 C-97.86569583 71.32490463 -100.0975341 72.62036539 -102.328125 73.91796875 C-107.79194904 77.08086944 -113.26823568 80.09282889 -118.953125 82.83984375 C-123.10491071 74.80412946 -123.10491071 74.80412946 -123.953125 70.83984375 C-114.57554714 65.09846955 -105.07036035 59.59321229 -95.515625 54.15234375 C-86.5935878 49.07136306 -77.69035341 43.96232044 -68.828125 38.77734375 C-60.59292653 33.95974239 -52.34389468 29.16732413 -44.078125 24.40234375 C-43.01440674 23.78907227 -41.95068848 23.17580078 -40.85473633 22.54394531 C-35.7305359 19.59068918 -30.60517781 16.63944831 -25.47912598 13.68940735 C-23.07095025 12.30324637 -20.66321801 10.91631626 -18.2555542 9.52926636 C-16.55054266 8.54745077 -14.8448583 7.56680391 -13.13916016 6.58618164 C-12.10968262 5.99313232 -11.08020508 5.40008301 -10.01953125 4.7890625 C-9.11146729 4.26658936 -8.20340332 3.74411621 -7.26782227 3.20581055 C-1.61149772 -0.13214281 -1.61149772 -0.13214281 0 0 Z " fill="#A9FAA9" transform="translate(154.953125,304.16015625)"/>
<path d="M0 0 C13.88076784 1.37336219 28.22146718 17.92934077 38 27 C38.96292969 27.86431641 38.96292969 27.86431641 39.9453125 28.74609375 C61.261444 48.76898715 76.7110823 77.89135605 84 106 C84.22300781 106.83789062 84.44601562 107.67578125 84.67578125 108.5390625 C86.1457225 114.51882349 87.32506462 119.7326672 84.06640625 125.30859375 C83.24884178 126.36499728 82.41372265 127.40802436 81.5625 128.4375 C81.14162109 128.97826172 80.72074219 129.51902344 80.28710938 130.07617188 C79.22929437 131.41494254 78.11892216 132.71186466 77 134 C76.67 134 76.34 134 76 134 C75.88785156 132.74123047 75.88785156 132.74123047 75.7734375 131.45703125 C71.33649915 90.87209512 49.36459535 50.8556903 17.48071289 25.25415039 C9.73075695 19.20100706 1.41087568 14.07459765 -7 9 C-6.02180976 7.68677212 -5.0424189 6.37443848 -4.0625 5.0625 C-3.51722656 4.33160156 -2.97195313 3.60070312 -2.41015625 2.84765625 C-1 1 -1 1 0 0 Z " fill="#4DAEF8" transform="translate(285,165)"/>
<path d="M0 0 C6.9609375 5.671875 6.9609375 5.671875 9 10 C-6.54233359 19.08931944 -22.11608853 28.12181577 -37.71777344 37.10888672 C-43.14659944 40.23680149 -48.57317941 43.36860767 -54 46.5 C-56.15103629 47.74089474 -58.30207797 48.98178014 -60.453125 50.22265625 C-66.09120649 53.4753303 -71.72840589 56.72953019 -77.36523438 59.984375 C-80.64326262 61.8759089 -83.92315348 63.76418226 -87.203125 65.65234375 C-90.70331636 67.66875834 -94.19453728 69.69834849 -97.671875 71.75390625 C-98.33477539 72.14263916 -98.99767578 72.53137207 -99.68066406 72.93188477 C-101.34240268 73.90747608 -102.9995741 74.8908361 -104.65625 75.875 C-105.4296875 76.24625 -106.203125 76.6175 -107 77 C-107.66 76.67 -108.32 76.34 -109 76 C-109.6328125 73.27734375 -109.6328125 73.27734375 -110.125 69.9375 C-110.29257813 68.83277344 -110.46015625 67.72804688 -110.6328125 66.58984375 C-110.81457031 65.30787109 -110.81457031 65.30787109 -111 64 C-110.42894531 63.67950684 -109.85789062 63.35901367 -109.26953125 63.02880859 C-97.23307472 56.26667374 -85.25006938 49.42357766 -73.33789062 42.44482422 C-65.58812847 37.91083957 -57.80121122 33.4445483 -50 29 C-38.21851925 22.28649201 -26.4897469 15.48576713 -14.7890625 8.63232422 C-9.8627268 5.7491414 -4.93117093 2.87490277 0 0 Z " fill="#A9F9A9" transform="translate(135,284)"/>
<path d="M0 0 C3.08683312 2.42725339 5.36106639 5.40974625 7.828125 8.4375 C1.06198309 13.14048121 -5.95759997 17.21519821 -13.171875 21.1875 C-20.3607963 25.17925552 -27.53831618 29.17736478 -34.609375 33.375 C-42.71617674 38.18675323 -50.88028541 42.89597883 -59.05249023 47.59570312 C-64.75161458 50.87637372 -70.43955108 54.17412599 -76.10546875 57.51171875 C-77.20882568 58.16043945 -78.31218262 58.80916016 -79.44897461 59.47753906 C-81.56262004 60.7219336 -83.67419001 61.96986157 -85.78344727 63.22167969 C-86.72631592 63.77629883 -87.66918457 64.33091797 -88.640625 64.90234375 C-89.47013672 65.393396 -90.29964844 65.88444824 -91.15429688 66.39038086 C-93.171875 67.4375 -93.171875 67.4375 -95.171875 67.4375 C-96.50231226 63.38459391 -97.177136 59.62901059 -96.19433594 55.40869141 C-92.50102603 48.2883991 -81.4305568 44.66522571 -74.63574219 41.22607422 C-69.11273689 38.37426023 -63.78142165 35.20750747 -58.421875 32.0625 C-56.2552717 30.81013478 -54.08728155 29.56016601 -51.91796875 28.3125 C-50.82210449 27.68214844 -49.72624023 27.05179687 -48.59716797 26.40234375 C-45.01204147 24.34581502 -41.42292775 22.29642933 -37.83203125 20.25 C-37.22134796 19.90177185 -36.61066467 19.5535437 -35.98147583 19.19476318 C-32.96032941 17.47229419 -29.93788543 15.75217892 -26.91308594 14.03613281 C-21.96345741 11.21921394 -17.03564021 8.39263987 -12.21484375 5.359375 C-11.51383545 4.92028809 -10.81282715 4.48120117 -10.09057617 4.02880859 C-8.33709996 2.91723988 -6.59745541 1.78392871 -4.859375 0.6484375 C-2.171875 -0.5625 -2.171875 -0.5625 0 0 Z " fill="#A9FAA9" transform="translate(117.171875,265.5625)"/>
<path d="M0 0 C0.33 0 0.66 0 1 0 C1.95975198 45.09849927 -8.833787 83.70276343 -36 120 C-43.48291572 113.84965831 -43.48291572 113.84965831 -46 110 C-45.26394531 109.30519531 -44.52789062 108.61039062 -43.76953125 107.89453125 C-24.90094109 88.97284622 -15.23884094 56.62341102 -12 31 C-11.79862957 29.54532895 -11.59546718 28.09090498 -11.390625 26.63671875 C-10.89830266 23.09458694 -10.43912553 19.54916751 -10 16 C-10.66 15.67 -11.32 15.34 -12 15 C-10.18829771 12.68687105 -8.37567861 10.37447123 -6.5625 8.0625 C-6.04623047 7.40314453 -5.52996094 6.74378906 -4.99804688 6.06445312 C-4.25844727 5.12182617 -4.25844727 5.12182617 -3.50390625 4.16015625 C-3.04830322 3.57886963 -2.5927002 2.99758301 -2.12329102 2.39868164 C-1 1 -1 1 0 0 Z " fill="#4DAFF9" transform="translate(373,307)"/>
<path d="M0 0 C0 41.25 0 82.5 0 125 C-0.66 124.67 -1.32 124.34 -2 124 C-2 87.37 -2 50.74 -2 13 C-28.6891853 17.44819755 -54.62161919 25.51385642 -76.13671875 42.63671875 C-78 44 -78 44 -80 44 C-80.33 44.66 -80.66 45.32 -81 46 C-83.64 43.36 -86.28 40.72 -89 38 C-86.84368912 33.68737823 -84.69928811 32.02903223 -80.8125 29.5 C-80.16684082 29.07565674 -79.52118164 28.65131348 -78.85595703 28.21411133 C-61.08233628 16.83463394 -42.49328965 8.19002878 -21.94580078 3.45410156 C-20.07263576 3.01695138 -18.20602874 2.55198583 -16.33984375 2.0859375 C-15.21707031 1.81007812 -14.09429687 1.53421875 -12.9375 1.25 C-11.95652344 1.00765625 -10.97554688 0.7653125 -9.96484375 0.515625 C-7 0 -7 0 0 0 Z " fill="#E4314F" transform="translate(178,142)"/>
<path d="M0 0 C1.08632469 -0.0131424 1.08632469 -0.0131424 2.19459534 -0.02655029 C4.57891471 -0.04848486 6.96136626 -0.03401489 9.34570312 -0.01708984 C11.00810094 -0.02045974 12.67049635 -0.02531381 14.33288574 -0.03158569 C17.81314605 -0.03894889 21.29276374 -0.02827001 24.77294922 -0.00488281 C29.22881978 0.02360546 33.68318459 0.0071984 38.13899994 -0.02274513 C41.57065122 -0.04083354 45.00194688 -0.03505318 48.43360901 -0.02210617 C50.07621947 -0.01877638 51.71886248 -0.02284425 53.36143494 -0.03450394 C55.65979217 -0.0472392 57.95572887 -0.02780343 60.25390625 0 C61.56008911 0.00397797 62.86627197 0.00795593 64.21203613 0.01205444 C68.49055288 0.80753738 69.97679815 2.26012201 72.62695312 5.64697266 C73.18945312 8.70947266 73.18945312 8.70947266 72.62695312 11.64697266 C71.0579834 13.79821777 71.0579834 13.79821777 68.62695312 15.64697266 C66.00048687 16.04198209 63.79201445 16.19493178 61.16796875 16.16455078 C60.42278488 16.17156006 59.67760101 16.17856934 58.90983582 16.18579102 C56.45057737 16.20337307 53.99247294 16.1917484 51.53320312 16.17822266 C49.82214131 16.18091753 48.11108099 16.18479992 46.40002441 16.18981934 C42.81552538 16.19571464 39.23142529 16.18715064 35.64697266 16.16845703 C31.05328873 16.14566717 26.46053958 16.15879012 21.86688995 16.18274689 C18.33409589 16.19720417 14.80152329 16.19259926 11.26872253 16.18223572 C9.57504668 16.17956822 7.8813507 16.18283901 6.18769836 16.19215393 C3.81990336 16.20231878 1.45361996 16.18682145 -0.9140625 16.16455078 C-1.61340408 16.17264771 -2.31274567 16.18074463 -3.03327942 16.18908691 C-6.37551841 16.1308756 -8.11198395 15.84550632 -10.80407715 13.79821777 C-12.37304688 11.64697266 -12.37304688 11.64697266 -12.93554688 8.70947266 C-11.61319086 1.50997881 -6.64310502 0.02023151 0 0 Z " fill="#000000" transform="translate(432.373046875,189.35302734375)"/>
<path d="M0 0 C2.53713727 1.05068471 3.91552714 2.42026909 5.796875 4.41015625 C6.41046875 5.05082031 7.0240625 5.69148437 7.65625 6.3515625 C8.11515625 6.84527344 8.5740625 7.33898437 9.046875 7.84765625 C6.78474026 10.32255931 4.49433497 11.87261481 1.56640625 13.4921875 C0.66237061 13.99669434 -0.24166504 14.50120117 -1.1730957 15.02099609 C-2.15238037 15.56191895 -3.13166504 16.1028418 -4.140625 16.66015625 C-6.24298412 17.83451251 -8.34452206 19.01033985 -10.4453125 20.1875 C-11.52651367 20.79319824 -12.60771484 21.39889648 -13.72167969 22.02294922 C-18.76643037 24.87157921 -23.76723639 27.79365625 -28.765625 30.72265625 C-37.48468651 35.8235989 -46.21056244 40.91211576 -54.953125 45.97265625 C-56.03311768 46.60026855 -57.11311035 47.22788086 -58.22583008 47.87451172 C-63.72399208 51.05303521 -69.23436537 54.08450556 -74.953125 56.84765625 C-74.81202514 54.74316687 -74.66508325 52.63906855 -74.515625 50.53515625 C-74.43441406 49.36339844 -74.35320312 48.19164062 -74.26953125 46.984375 C-73.953125 43.84765625 -73.953125 43.84765625 -72.953125 40.84765625 C-70.81445313 39.38061523 -70.81445313 39.38061523 -67.984375 37.84375 C-66.94740479 37.27342041 -65.91043457 36.70309082 -64.84204102 36.11547852 C-63.72369873 35.51147217 -62.60535645 34.90746582 -61.453125 34.28515625 C-59.13855629 33.01311268 -56.82475463 31.73967243 -54.51171875 30.46484375 C-52.81378174 29.53236816 -52.81378174 29.53236816 -51.08154297 28.58105469 C-47.18602244 26.42261893 -43.34147159 24.1892079 -39.515625 21.91015625 C-30.92459873 16.80453873 -22.26203363 11.8246033 -13.59594727 6.84790039 C-12.52014404 6.22906982 -11.44434082 5.61023926 -10.3359375 4.97265625 C-9.37059082 4.41835937 -8.40524414 3.8640625 -7.41064453 3.29296875 C-1.59936696 -0.12475062 -1.59936696 -0.12475062 0 0 Z " fill="#A9F9A9" transform="translate(96.953125,246.15234375)"/>
<path d="M0 0 C1.72209938 -0.01913956 1.72209938 -0.01913956 3.47898865 -0.03866577 C4.71963577 -0.04089142 5.9602829 -0.04311707 7.23852539 -0.04541016 C8.51216446 -0.05206696 9.78580353 -0.05872375 11.09803772 -0.06558228 C13.79401611 -0.07571648 16.48959132 -0.08126327 19.18554688 -0.08007812 C22.6369737 -0.07987484 26.08757794 -0.10718546 29.53880978 -0.14162254 C32.8345176 -0.16923042 36.13021759 -0.16804045 39.42602539 -0.17041016 C41.28395973 -0.19196671 41.28395973 -0.19196671 43.1794281 -0.21395874 C44.90625572 -0.20472885 44.90625572 -0.20472885 46.66796875 -0.1953125 C48.18661781 -0.19958755 48.18661781 -0.19958755 49.73594666 -0.20394897 C53.13887863 0.42798371 54.31493519 1.57134089 56.39868164 4.29052734 C56.96118164 7.79052734 56.96118164 7.79052734 56.39868164 11.29052734 C52.9126085 14.79226554 50.56003979 15.79235193 45.66210938 15.80810547 C44.53421494 15.82071411 43.4063205 15.83332275 42.24424744 15.84631348 C41.03579666 15.83821655 39.82734589 15.83011963 38.58227539 15.82177734 C36.7093557 15.8275177 36.7093557 15.8275177 34.79859924 15.83337402 C32.16122728 15.83609414 29.52534257 15.83074669 26.88818359 15.81201172 C23.51294264 15.78919778 20.13897234 15.80236594 16.76377773 15.82630157 C13.53656498 15.84425014 10.30950473 15.83167614 7.08227539 15.82177734 C5.87180038 15.82987427 4.66132538 15.83797119 3.41416931 15.84631348 C2.28942703 15.83370483 1.16468475 15.82109619 0.00585938 15.80810547 C-0.98277603 15.8049231 -1.97141144 15.80174072 -2.99000549 15.79846191 C-6.31445401 15.15181312 -7.48961488 13.87866821 -9.60131836 11.29052734 C-10.81643634 8.59990895 -10.67012449 7.53134882 -9.85131836 4.66552734 C-7.48950804 0.17808775 -4.66470885 0.03515278 0 0 Z " fill="#000000" transform="translate(448.601318359375,164.70947265625)"/>
<path d="M0 0 C1.13199353 0.9080162 2.25532363 1.82683826 3.375 2.75 C4.00148437 3.26046875 4.62796875 3.7709375 5.2734375 4.296875 C7.08312318 6.08199481 8.00117455 7.67949644 9 10 C-4.81850933 18.08120896 -18.65636403 26.12675204 -32.53076172 34.11157227 C-33.56604004 34.70768311 -34.60131836 35.30379395 -35.66796875 35.91796875 C-36.57828857 36.44156982 -37.4886084 36.9651709 -38.42651367 37.50463867 C-40.20456523 38.53780116 -41.9643965 39.60273695 -43.70825195 40.69262695 C-46 42 -46 42 -48 42 C-47.47186825 35.92648482 -46.30432178 30.20303668 -43 25 C-39.24638747 21.90424468 -35.11879533 19.73784768 -30.8125 17.5 C-29.63976485 16.86301693 -28.46870891 16.22293299 -27.29931641 15.57983398 C-24.9699994 14.30200024 -22.63436521 13.03977643 -20.29248047 11.78466797 C-15.75146356 9.32323881 -11.30971763 6.70922122 -6.875 4.0625 C-5.51852411 3.26121923 -4.16178822 2.4603783 -2.8046875 1.66015625 C-1.87914062 1.11230469 -0.95359375 0.56445312 0 0 Z " fill="#A8F8A8" transform="translate(77,226)"/>
<path d="M0 0 C4.875 3.75 4.875 3.75 6 6 C6.10928982 9.08572758 6.15734429 12.1492284 6.16113281 15.2355957 C6.16609772 16.19345978 6.17106262 17.15132385 6.17617798 18.13821411 C6.19082214 21.31741038 6.19760557 24.49655675 6.203125 27.67578125 C6.20887487 29.88054913 6.21463262 32.085317 6.22039795 34.29008484 C6.23091454 38.91792026 6.23675281 43.54573828 6.24023438 48.17358398 C6.2457186 54.10548187 6.26974247 60.03715015 6.29820633 65.96897602 C6.3168249 70.52514824 6.32203791 75.0812651 6.32357025 79.63747215 C6.32659938 81.82435549 6.33463662 84.01123779 6.34775543 86.19808388 C6.36479835 89.25764067 6.36293975 92.31663578 6.35644531 95.3762207 C6.3656601 96.28082535 6.37487488 97.18542999 6.3843689 98.1174469 C6.35259749 102.8923507 6.14447293 106.14246009 3 110 C0.8125 111.3125 0.8125 111.3125 -1 112 C-0.83748025 111.43448551 -0.6749605 110.86897102 -0.50751591 110.28631973 C0.01869825 107.91576584 0.12307527 105.8447296 0.12025452 103.41888428 C0.12162918 102.50465698 0.12300385 101.59042969 0.12442017 100.64849854 C0.11902725 99.15525055 0.11902725 99.15525055 0.11352539 97.63183594 C0.11374443 96.05088135 0.11374443 96.05088135 0.1139679 94.43798828 C0.1132711 90.9534296 0.10548953 87.46892434 0.09765625 83.984375 C0.09579124 81.56870554 0.09436773 79.1530357 0.09336853 76.73736572 C0.08954986 70.37844804 0.07972508 64.01955319 0.06866455 57.66064453 C0.05843649 51.17220366 0.05386791 44.68375911 0.04882812 38.1953125 C0.03810226 25.46353193 0.02122575 12.73176718 0 0 Z " fill="#CFCFD4" transform="translate(460,19)"/>
<path d="M0 0 C8.91 0 17.82 0 27 0 C27 16.5 27 33 27 50 C26.67 50 26.34 50 26 50 C26 37.79 26 25.58 26 13 C18.52134282 11.72515401 18.52134282 11.72515401 11.04150391 10.45727539 C9.64810791 10.21738892 9.64810791 10.21738892 8.2265625 9.97265625 C7.27346191 9.81031494 6.32036133 9.64797363 5.33837891 9.48071289 C3 9 3 9 1 8 C1 59.15 1 110.3 1 163 C0.67 163 0.34 163 0 163 C0 109.21 0 55.42 0 0 Z " fill="#488EC3" transform="translate(218,146)"/>
<path d="M0 0 C0.721875 0.12375 1.44375 0.2475 2.1875 0.375 C-1.02210015 5.42318592 -4.66860887 9.97390879 -8.5 14.5625 C-9.74895266 16.0661947 -10.99765024 17.5701013 -12.24609375 19.07421875 C-12.85308105 19.80431152 -13.46006836 20.5344043 -14.08544922 21.28662109 C-15.62316392 23.14605162 -17.14652539 25.01548463 -18.66015625 26.89453125 C-19.45292969 27.87808594 -20.24570312 28.86164063 -21.0625 29.875 C-21.74828125 30.7309375 -22.4340625 31.586875 -23.140625 32.46875 C-24.8125 34.375 -24.8125 34.375 -26.8125 35.375 C-27.29828297 31.31871217 -27.04649696 29.71395148 -24.6875 26.296875 C-23.74330816 25.22693565 -22.78411612 24.17009835 -21.8125 23.125 C-20.7983269 21.98409615 -19.78531576 20.84215841 -18.7734375 19.69921875 C-18.27038086 19.13895996 -17.76732422 18.57870117 -17.24902344 18.00146484 C-15.22735896 15.71248987 -13.32989754 13.33381182 -11.4375 10.9375 C-10.80457031 10.14730469 -10.17164063 9.35710937 -9.51953125 8.54296875 C-8.45268409 7.18804844 -7.40484394 5.8176839 -6.38671875 4.42578125 C-3.3953403 0.45271204 -3.3953403 0.45271204 0 0 Z " fill="#CBCBD0" transform="translate(285.8125,138.625)"/>
<path d="M0 0 C1.17539996 0.92652701 2.34010577 1.86663387 3.5 2.8125 C4.1496875 3.33457031 4.799375 3.85664063 5.46875 4.39453125 C7 6 7 6 7 9 C5.37939453 10.36621094 5.37939453 10.36621094 3.1328125 11.734375 C2.32972656 12.22550781 1.52664062 12.71664062 0.69921875 13.22265625 C-0.15027344 13.72667969 -0.99976563 14.23070312 -1.875 14.75 C-3.13763672 15.52923828 -3.13763672 15.52923828 -4.42578125 16.32421875 C-9.08915541 19.13716605 -9.08915541 19.13716605 -11 20 C-11.66 19.67 -12.32 19.34 -13 19 C-11.58684299 16.76854054 -10.16962358 14.53984045 -8.75 12.3125 C-8.35425781 11.68666016 -7.95851563 11.06082031 -7.55078125 10.41601562 C-5.21943463 6.76612051 -2.77880144 3.33328705 0 0 Z " fill="#A5F3A5" transform="translate(59,208)"/>
</svg>
